<?xml version="1.0" encoding="UTF-8"?>
<svg version="1.1" xmlns="http://www.w3.org/2000/svg" width="1730" height="1730">
<path d="M0 0 C13.96746058 5.89495752 25.72986847 4.86509265 40.64794922 3.30224609 C93.80991305 -1.62983862 147.59424964 17.57169072 188.82421875 50.484375 C210.16009488 68.43104236 228.3077418 88.66178529 242.07421875 112.984375 C242.52651855 113.78053223 242.97881836 114.57668945 243.44482422 115.39697266 C279.30128398 179.28180458 295.27694696 259.82058659 306.26269531 331.68188477 C306.43657524 332.81149628 306.43657524 332.81149628 306.6139679 333.96392822 C306.92575485 336.00111817 307.23151236 338.0392283 307.53686523 340.07739258 C307.76866728 342.86775568 307.76866728 342.86775568 309.07421875 343.984375 C311.48337944 343.89401699 313.85364292 343.73694532 316.25390625 343.53125 C317.000923 343.47131363 317.74793976 343.41137726 318.51759338 343.34962463 C320.14180164 343.21841642 321.76580402 343.08464076 323.38961792 342.94863892 C325.96645999 342.73293174 328.54379784 342.52432534 331.12133789 342.31713867 C339.61142426 341.62967093 348.09670918 340.90047129 356.578125 340.11328125 C382.58275296 337.71247322 382.58275296 337.71247322 395.38671875 337.609375 C396.29929443 337.59559814 397.21187012 337.58182129 398.15209961 337.56762695 C404.82502423 337.61581851 409.35345802 339.09263794 414.33203125 343.69921875 C418.81282982 349.27464163 418.49759981 356.70124143 418.94921875 363.546875 C419.06407952 364.93834506 419.18125217 366.3296263 419.30078125 367.72070312 C420.01718184 376.48791622 420.21426719 385.18639369 420.07421875 393.984375 C423.42506913 394.50926164 426.77597018 395.03382179 430.12695312 395.55786133 C433.04773602 396.01470409 435.96827125 396.47309329 438.88867188 396.93237305 C445.44878985 397.96226495 452.00822547 398.98622021 458.58203125 399.92578125 C471.2318441 401.74973158 483.78105949 403.9895636 496.31982422 406.45516968 C498.09192742 406.80355125 499.86454188 407.14934387 501.63769531 407.49234009 C510.27917725 409.17102021 518.57404865 410.89841995 526.78637695 414.14941406 C530.22875876 415.40573098 533.57040731 415.85354068 537.19921875 416.359375 C543.84802696 417.43049312 549.09518278 419.32108277 554.07421875 423.984375 C556.41070899 427.48911036 556.78734404 430.52011708 557.328125 434.58984375 C557.43390366 435.34670975 557.53968231 436.10357574 557.64866638 436.88337708 C557.87166678 438.49261738 558.09080823 440.10239643 558.30639648 441.71264648 C558.62964408 444.11920453 558.9670668 446.52343263 559.30664062 448.92773438 C559.5230053 450.50248489 559.73852349 452.07735199 559.953125 453.65234375 C560.0510585 454.34780807 560.148992 455.0432724 560.24989319 455.7598114 C561.93564588 468.5481456 562.21887253 481.43245959 562.30434036 494.31266785 C562.32091678 496.78950971 562.34295896 499.26625506 562.36630249 501.74304199 C562.39961241 505.29555158 562.43129699 508.84806967 562.46182251 512.40060425 C562.99115588 572.46371585 565.70191922 632.27277605 569.3963623 692.21209717 C570.02934403 702.49100887 570.6529688 712.77040261 571.25969601 723.05090046 C571.52937839 727.61327603 571.8032438 732.17528094 572.09024048 736.73660278 C575.14589741 785.42380341 575.14982026 834.12610796 575.03920007 882.88811398 C575.03121649 886.41323472 575.02367749 889.93835619 575.01622581 893.46347809 C574.96931378 915.37039867 574.9194463 937.27729924 574.82739258 959.18408203 C574.56702844 1022.4610648 575.54094164 1085.49634987 578.66945416 1148.6997633 C579.20051381 1159.46703693 579.68708647 1170.23632867 580.17529297 1181.00561523 C581.06314411 1200.58103611 581.99919744 1220.15386289 582.96313477 1239.72567749 C583.07151925 1241.92948535 583.17940836 1244.13331685 583.28710938 1246.3371582 C584.511504 1271.38024839 585.77203464 1296.41696865 587.63671875 1321.421875 C587.69497833 1322.20841461 587.75323792 1322.99495422 587.81326294 1323.80532837 C588.54685544 1333.60135209 588.54685544 1333.60135209 589.61108398 1343.36547852 C590.92317919 1353.79138962 591.23347699 1363.93773504 591.05288696 1374.44049072 C590.85088994 1387.22904331 590.82696416 1399.89625334 592.38671875 1412.609375 C592.5045874 1413.58398682 592.62245605 1414.55859863 592.74389648 1415.56274414 C593.31065146 1419.59392961 594.00658649 1423.1505023 595.703125 1426.86328125 C597.43727247 1430.81081353 597.18702711 1432.5748527 596.05078125 1436.5859375 C592.34505907 1445.68719118 586.68823512 1450.69084025 578.07421875 1454.984375 C577.30650146 1455.38769043 576.53878418 1455.79100586 575.74780273 1456.20654297 C566.26385405 1460.69316278 556.27052842 1461.9016665 545.96728516 1463.35229492 C542.84197335 1463.79436365 539.72203873 1464.26535793 536.6015625 1464.74023438 C526.75025236 1466.19848623 517.31617737 1467.18303558 507.35522461 1466.98193359 C488.27922267 1466.7908781 469.43708461 1470.18824416 450.76171875 1473.671875 C448.2804511 1474.12434772 445.79900306 1474.57583229 443.31738281 1475.02636719 C431.37610218 1477.20477875 419.45753649 1479.47793926 407.55981445 1481.88208008 C373.31700463 1488.79256661 338.83507974 1492.38896487 304.07421875 1495.484375 C276.61249756 1497.93015128 249.32538638 1500.73329645 222.07421875 1504.984375 C219.97526417 1505.30959452 217.87630565 1505.63478868 215.77734375 1505.95996094 C203.92278035 1507.80167312 192.07369868 1509.67756584 180.2265625 1511.56640625 C178.98780869 1511.76388962 177.74905487 1511.96137299 176.47276306 1512.1648407 C170.13526665 1513.17570726 163.79815207 1514.18890735 157.46142578 1515.20458984 C94.94651651 1525.20491499 32.21011174 1533.26935249 -30.81842041 1539.25927734 C-73.85123004 1543.35738474 -116.34823982 1549.75771565 -158.93603516 1557.12139893 C-184.20045786 1561.48039489 -209.56387725 1564.97519656 -234.96966553 1568.39398193 C-242.08141663 1569.35165518 -249.19190027 1570.31811397 -256.30078125 1571.296875 C-257.80744354 1571.50396591 -257.80744354 1571.50396591 -259.34454346 1571.71524048 C-280.17907036 1574.5967086 -300.91249591 1578.05044836 -321.64013672 1581.60864258 C-337.45139459 1584.31437058 -353.17687136 1586.97771527 -369.23828125 1587.546875 C-373.58059176 1587.71212892 -377.7080296 1587.88105407 -381.92578125 1588.984375 C-386.52281119 1589.37883962 -390.57210896 1589.67625195 -394.73828125 1587.546875 C-398.94707949 1585.48373861 -402.67349018 1585.62058613 -407.31640625 1585.5859375 C-415.69382048 1584.1897018 -422.97148941 1578.85760278 -429.98828125 1574.296875 C-436.83071979 1569.9067458 -443.73014464 1565.66397443 -450.79125977 1561.6340332 C-456.42573396 1558.3840115 -461.80704273 1554.78611938 -467.1980896 1551.1494751 C-470.32110337 1549.0434143 -473.44989193 1546.94595344 -476.578125 1544.84765625 C-477.24374954 1544.40112198 -477.90937408 1543.95458771 -478.59516907 1543.49452209 C-502.67653726 1527.34924045 -527.09962591 1512.28864274 -552.5390625 1498.359375 C-570.97368685 1488.24429847 -588.95135624 1477.52474878 -606.33666992 1465.68579102 C-609.83579943 1463.31909111 -613.38936791 1461.0804628 -617.01171875 1458.90625 C-647.07829822 1440.84040146 -647.07829822 1440.84040146 -649.77734375 1430.82421875 C-652.59502655 1416.60772826 -652.28066811 1403.2531436 -650.96484375 1388.86328125 C-649.99421631 1377.73357415 -649.46586463 1366.62374929 -649.09152222 1355.46020508 C-648.47446555 1337.30053573 -647.46291087 1319.2207653 -645.95898438 1301.11425781 C-645.25798247 1292.63007622 -644.7152267 1284.18486703 -644.48828125 1275.671875 C-644.09234081 1261.47599161 -642.53655905 1247.36756374 -641.12138367 1233.24488831 C-639.75347582 1219.54615853 -638.75614132 1205.96961148 -638.79541016 1192.1953125 C-638.80064226 1190.04159036 -638.79549593 1187.88808975 -638.7890625 1185.734375 C-638.78482197 1176.1033296 -639.06822217 1166.4952553 -639.421875 1156.87109375 C-640.00891673 1140.51134938 -640.12647276 1124.16587602 -640.11328125 1107.796875 C-640.11301437 1107.04544094 -640.1127475 1106.29400688 -640.11247253 1105.51980209 C-640.09868155 1074.30941313 -639.32545703 1043.16526084 -637.92578125 1011.984375 C-637.89452148 1011.28615883 -637.86326172 1010.58794266 -637.83105469 1009.86856842 C-636.34071537 976.64301042 -634.66029601 943.42642949 -632.97422218 910.21033859 C-632.6350423 903.52716245 -632.29653426 896.84395403 -631.95999146 890.16064453 C-631.92633087 889.49222904 -631.89267028 888.82381355 -631.85798967 888.13514304 C-631.72179473 885.43011469 -631.58563669 882.72508451 -631.44962955 880.02004671 C-631.08265142 872.72147962 -630.71346374 865.42303903 -630.33728027 858.12493896 C-628.98890146 831.95852223 -627.67526606 805.8091443 -627.2257843 779.60923767 C-627.03724744 768.81957213 -626.56164284 758.0691782 -625.92578125 747.296875 C-625.82670751 745.53016254 -625.7283375 743.76341012 -625.63134766 741.99658203 C-625.59262543 741.29588593 -625.5539032 740.59518982 -625.51400757 739.8732605 C-624.91683999 728.81072696 -624.54946579 717.74743505 -624.30078125 706.671875 C-624.27932037 705.72258118 -624.2578595 704.77328735 -624.23574829 703.79522705 C-623.95369901 690.55443531 -623.91795616 677.32081499 -624.0078125 664.078125 C-624.32249 614.832582 -622.07538205 566.19557022 -617.93261719 517.1159668 C-616.96215583 505.4584505 -616.38354065 493.79476346 -615.86328125 482.109375 C-614.75540088 457.58659251 -614.75540088 457.58659251 -614.05078125 447.734375 C-613.99656006 446.80125488 -613.94233887 445.86813477 -613.88647461 444.90673828 C-613.39850693 438.7422561 -611.76646586 434.91028015 -607.36328125 430.375 C-602.64551904 426.63155825 -599.45141783 424.81769679 -593.43481445 424.36132812 C-591.72819893 424.21866516 -591.72819893 424.21866516 -589.98710632 424.07312012 C-588.72550186 423.97164673 -587.4638974 423.87017334 -586.1640625 423.765625 C-572.43548371 422.57092813 -558.80482894 420.84324919 -545.15625 418.953125 C-543.10979983 418.67149312 -541.06334182 418.38991817 -539.01687622 418.10839844 C-530.62104006 416.9504905 -522.22659191 415.78291946 -513.83422852 414.60009766 C-487.2798952 410.86447402 -460.86841012 407.86261475 -434.09579468 406.29119873 C-428.8075765 405.98073546 -423.52159839 405.63935677 -418.2355957 405.29345703 C-409.40968004 404.71835047 -400.58256904 404.16504883 -391.75463867 403.62182617 C-387.28164685 403.34653628 -382.80898755 403.0661663 -378.33638096 402.78469563 C-374.81131777 402.56358287 -371.28606692 402.34558588 -367.76075554 402.12846947 C-366.10908289 402.02628742 -364.45747488 401.92305384 -362.80594063 401.81865883 C-354.17418891 401.27437467 -345.58000743 400.81709282 -336.92578125 400.984375 C-336.93871216 400.16242645 -336.95164307 399.34047791 -336.96496582 398.49362183 C-337.08728196 389.24983839 -336.4564135 380.12163332 -335.67578125 370.921875 C-335.60887085 370.12203186 -335.54196045 369.32218872 -335.47302246 368.49810791 C-328.91469737 290.50321714 -315.55815828 210.19671878 -225.484375 44.8203125 C-212.40880332 33.79084369 -198.07197457 24.85988079 -182.92578125 16.984375 C-182.18521484 16.59507813 -181.44464844 16.20578125 -180.68164062 15.8046875 C-161.81817965 6.002924 -141.71240271 0.46039322 -121.11328125 -4.390625 C-120.03419998 -4.64478683 -120.03419998 -4.64478683 -118.93331909 -4.90408325 C-80.96739576 -13.77802773 -36.64145177 -15.60475537 0 0 Z M-108.92578125 16.984375 C-110.06805176 17.22075684 -111.21032227 17.45713867 -112.38720703 17.70068359 C-157.34766441 27.13039713 -205.34571507 46.44894533 -231.66796875 86.3359375 C-235.63863656 92.63411837 -239.21365624 99.15387319 -242.71435547 105.72167969 C-243.88338449 107.90518654 -245.07503098 110.07469606 -246.2734375 112.2421875 C-253.80210728 125.9755583 -259.70057452 140.25433481 -264.98828125 154.984375 C-265.29975098 155.83942627 -265.6112207 156.69447754 -265.93212891 157.57543945 C-266.34857666 158.76786255 -266.34857666 158.76786255 -266.7734375 159.984375 C-267.02101807 160.685625 -267.26859863 161.386875 -267.52368164 162.109375 C-268.13736329 164.19650034 -268.13736329 164.19650034 -266.92578125 166.984375 C-266.36632812 165.97761719 -265.806875 164.97085938 -265.23046875 163.93359375 C-250.96205274 138.72332714 -232.26620308 115.12547537 -209.49609375 97.05859375 C-207.11107314 95.13390387 -204.86300317 93.126415 -202.61328125 91.046875 C-172.92520699 64.46446808 -130.33450707 43.57315921 -90.11328125 42.796875 C-83.79429616 42.3818735 -80.01404368 39.9349354 -74.83984375 36.44140625 C-69.95279107 33.24076793 -64.69475374 30.79819963 -59.42578125 28.296875 C-58.42933594 27.82338623 -57.43289063 27.34989746 -56.40625 26.86206055 C-50.05317946 23.88537005 -43.69205324 21.18158398 -37.05859375 18.88671875 C-34.75516952 18.18438974 -34.75516952 18.18438974 -33.92578125 15.984375 C-45.34846898 14.11693766 -56.49172329 13.61843255 -68.05078125 13.671875 C-68.91283173 13.67436249 -69.7748822 13.67684998 -70.66305542 13.67941284 C-83.65680156 13.73733936 -96.18603043 14.24688932 -108.92578125 16.984375 Z M-42.92578125 67.984375 C-50.02992447 75.83509485 -56.03636177 84.39057102 -61.73828125 93.296875 C-62.27259766 94.12767578 -62.80691406 94.95847656 -63.35742188 95.81445312 C-63.84017578 96.58853516 -64.32292969 97.36261719 -64.8203125 98.16015625 C-65.25190674 98.85020752 -65.68350098 99.54025879 -66.12817383 100.2512207 C-66.39138428 100.82316162 -66.65459473 101.39510254 -66.92578125 101.984375 C-66.59578125 102.644375 -66.26578125 103.304375 -65.92578125 103.984375 C-65.31734375 103.45070313 -64.70890625 102.91703125 -64.08203125 102.3671875 C-24.77860386 68.95927422 25.10751953 62.13827019 75.07421875 65.984375 C111.92857341 69.338351 150.33767629 84.7141269 178.0625 109.37109375 C180.98534668 111.90726032 184.00327798 114.15420113 187.13671875 116.421875 C194.58833906 122.03347604 200.96585899 128.69274886 207.44750977 135.38061523 C208.27694092 136.23212158 209.10637207 137.08362793 209.9609375 137.9609375 C211.07795044 139.12230225 211.07795044 139.12230225 212.2175293 140.30712891 C213.90455578 142.20782109 213.90455578 142.20782109 216.07421875 141.984375 C216.20376953 142.8196875 216.20376953 142.8196875 216.3359375 143.671875 C217.29626073 146.67987159 218.88582213 148.54914646 220.88671875 150.984375 C221.91732422 152.2528125 221.91732422 152.2528125 222.96875 153.546875 C224.91641177 155.80168195 226.9372458 157.90983047 229.07421875 159.984375 C226.89411285 152.96039142 224.1334745 146.42218131 220.94921875 139.796875 C220.46275879 138.78455811 219.97629883 137.77224121 219.47509766 136.72924805 C215.55032357 128.7008348 211.25281637 121.2696781 206.07421875 113.984375 C205.33429688 112.94152344 204.594375 111.89867187 203.83203125 110.82421875 C199.62232274 105.06318167 195.15219582 99.65107037 190.3125 94.41015625 C188.8293519 92.80276538 187.36786586 91.17509273 185.9296875 89.52734375 C157.32591052 56.80049982 116.06646196 37.47142951 73.07421875 32.984375 C72.03265625 32.87351563 70.99109375 32.76265625 69.91796875 32.6484375 C28.04550994 28.95967327 -13.03335087 36.16145466 -42.92578125 67.984375 Z M-77.92578125 73.984375 C-80.28197239 76.16970252 -82.63534412 78.3580447 -84.98828125 80.546875 C-85.64505859 81.15595703 -86.30183594 81.76503906 -86.97851562 82.39257812 C-107.7555298 101.73669477 -123.11747892 125.33576355 -135.03857422 151.07861328 C-135.96942643 153.07812686 -136.93374029 155.05958884 -137.8984375 157.04296875 C-144.01877729 169.9038034 -147.98578772 183.32751849 -151.92578125 196.984375 C-152.26109863 198.1177832 -152.59641602 199.25119141 -152.94189453 200.41894531 C-167.57563901 249.93667578 -173.3420355 300.97790716 -176.61328125 352.359375 C-176.67403839 353.29381439 -176.73479553 354.22825378 -176.7973938 355.19100952 C-177.57410371 367.3091534 -178.08918824 379.43144544 -178.45141602 391.56884766 C-178.47324904 392.29995003 -178.49508206 393.0310524 -178.51757669 393.78430939 C-178.99376633 410.08848676 -179.10641662 426.38742574 -179.12596989 442.6977005 C-179.12897963 445.10557759 -179.13309589 447.51345072 -179.13747406 449.92132568 C-179.15105888 457.59936105 -179.16076067 465.27738639 -179.16467595 472.95543289 C-179.16865684 480.70097575 -179.18072044 488.44639361 -179.20703125 496.19189453 C-179.36782481 544.53423376 -178.31862275 592.69933088 -175.92578125 640.984375 C-174.00829059 640.66506468 -172.09081255 640.3456785 -170.17333984 640.02626038 C-168.57164444 639.75948534 -168.57164444 639.75948534 -166.93759155 639.4873209 C-160.93045021 638.48418099 -154.92819972 637.45287144 -148.92578125 636.421875 C-147.63027344 636.20080078 -146.33476563 635.97972656 -145 635.75195312 C-143.75863281 635.53861328 -142.51726562 635.32527344 -141.23828125 635.10546875 C-140.12066406 634.9139624 -139.00304687 634.72245605 -137.8515625 634.52514648 C-135.50912584 634.09219445 -133.22530869 633.60016998 -130.92578125 632.984375 C-131.0378662 611.54098483 -132.92487333 590.86902391 -136.36914062 569.71118164 C-137.70292581 560.78125585 -138.20550998 551.96799043 -138.4777832 542.94873047 C-138.49869794 542.27704889 -138.51961267 541.60536731 -138.54116118 540.91333175 C-139.00411928 525.85021614 -139.0902305 510.78876517 -139.09303832 495.71935511 C-139.09376571 493.50690001 -139.09593029 491.29445057 -139.09853554 489.08199692 C-139.10769439 481.27341079 -139.11188256 473.46484133 -139.11108398 465.65625 C-139.11055188 459.30954455 -139.1176139 452.96290073 -139.1315918 446.61621094 C-139.20528536 412.35979416 -139.2361036 378.18138254 -136.92578125 343.984375 C-136.77776242 341.62942443 -136.63018737 339.27444591 -136.4831543 336.91943359 C-136.09897046 330.97831603 -135.65302079 325.04367712 -135.17578125 319.109375 C-135.09374451 318.0731601 -135.01170776 317.03694519 -134.92718506 315.96932983 C-120.99630307 141.74818095 -120.99630307 141.74818095 -75.92578125 74.984375 C-76.91578125 74.489375 -76.91578125 74.489375 -77.92578125 73.984375 Z M-167.92578125 98.984375 C-168.72242188 99.63792969 -169.5190625 100.29148437 -170.33984375 100.96484375 C-181.19139407 110.18698172 -188.85903244 121.73247107 -195.92578125 133.984375 C-196.56 135.05300781 -197.19421875 136.12164062 -197.84765625 137.22265625 C-237.01673286 206.39524555 -242.33031503 295.92146736 -247.26171875 373.34375 C-247.36435028 374.93717476 -247.36435028 374.93717476 -247.46905518 376.56278992 C-247.80533298 382.04935607 -247.99549564 387.48760065 -247.92578125 392.984375 C-238.1432732 392.60357938 -228.50847805 391.75593921 -218.8046875 390.44140625 C-217.75253052 390.30142212 -216.70037354 390.16143799 -215.61633301 390.01721191 C-213.05243244 389.67569832 -210.48894417 389.33137384 -207.92578125 388.984375 C-207.89707947 388.43284256 -207.86837769 387.88131012 -207.83880615 387.31306458 C-203.30128048 300.58525496 -196.87923814 210.2286861 -157.92578125 130.984375 C-157.51215332 130.13794434 -157.09852539 129.29151367 -156.67236328 128.41943359 C-148.40757658 111.67333011 -138.48521879 95.87977638 -126.65625 81.41796875 C-124.63602901 79.0745768 -124.63602901 79.0745768 -124.92578125 75.984375 C-137.45627578 75.984375 -158.85989273 91.11491415 -167.92578125 98.984375 Z M-57.5625 132.2421875 C-71.85921177 148.83109934 -82.21100389 168.55811309 -88.05078125 189.609375 C-88.28047607 190.43646973 -88.5101709 191.26356445 -88.74682617 192.11572266 C-93.3593681 209.54598241 -96.01073142 227.32139165 -98.36328125 245.171875 C-98.51229889 246.29175812 -98.66131653 247.41164124 -98.81484985 248.56546021 C-103.3238305 282.57329535 -106.62764498 316.65634624 -109.23828125 350.859375 C-109.32572601 351.99792938 -109.41317078 353.13648376 -109.50326538 354.30953979 C-109.74991646 357.55233069 -109.98974172 360.79554025 -110.2265625 364.0390625 C-110.29815582 364.98591415 -110.36974915 365.93276581 -110.44351196 366.90830994 C-110.8954295 373.27619049 -111.00340065 379.60146823 -110.92578125 385.984375 C-109.60183601 385.84522423 -109.60183601 385.84522423 -108.25114441 385.70326233 C-96.53959862 384.47406831 -84.82685697 383.25657015 -73.11328125 382.046875 C-72.15150341 381.94753662 -71.18972557 381.84819824 -70.19880295 381.74584961 C-31.98029511 377.80291036 6.26848579 374.24351165 44.53637695 370.81665039 C46.08534227 370.67788435 46.08534227 370.67788435 47.66559982 370.53631496 C52.513033 370.10228088 57.3605773 369.6695863 62.20840454 369.23997498 C63.92596442 369.08706733 65.64352423 368.93415904 67.36108398 368.78125 C68.11638806 368.71480821 68.87169214 368.64836641 69.64988422 368.57991123 C74.80043422 368.12027125 79.93633343 367.56915401 85.07421875 366.984375 C86.49915555 244.86393761 86.49915555 244.86393761 52.07421875 128.984375 C51.72133789 128.23526855 51.36845703 127.48616211 51.00488281 126.71435547 C45.18198111 114.47432304 37.68841458 103.59857083 28.07421875 93.984375 C-1.87419212 91.65606867 -37.48009945 111.14087629 -57.5625 132.2421875 Z M69.07421875 95.984375 C68.74421875 96.644375 68.41421875 97.304375 68.07421875 97.984375 C68.81426845 99.76696113 68.81426845 99.76696113 70.03125 101.7109375 C70.47944092 102.48276367 70.92763184 103.25458984 71.3894043 104.04980469 C72.13057495 105.31679199 72.13057495 105.31679199 72.88671875 106.609375 C101.66690608 157.48012566 108.14007689 214.72743165 111.87567139 271.95397949 C112.05894116 274.75119571 112.24762081 277.54798606 112.43798828 280.34472656 C114.28924272 307.88656746 114.2999897 335.38995509 114.07421875 362.984375 C118.89639274 363.02272009 123.67065925 363.03584603 128.4765625 362.58203125 C129.38599609 362.49630859 130.29542969 362.41058594 131.23242188 362.32226562 C132.14958984 362.23138672 133.06675781 362.14050781 134.01171875 362.046875 C134.95595703 361.95986328 135.90019531 361.87285156 136.87304688 361.78320312 C141.62869076 361.46456643 141.62869076 361.46456643 146.07421875 359.984375 C146.28961867 348.93977542 145.64632826 337.99738832 144.88671875 326.984375 C144.82141968 326.03329865 144.75612061 325.08222229 144.68884277 324.10232544 C139.61893167 251.40573471 129.9091012 176.53005187 96.07421875 110.984375 C95.54957031 109.92347656 95.02492188 108.86257812 94.484375 107.76953125 C90.50653609 100.87663482 84.96337818 98.76405145 77.59765625 96.7265625 C74.60401324 96.09597251 72.11096833 95.80984916 69.07421875 95.984375 Z M130.07421875 113.984375 C131.73780003 119.08215892 133.47509984 124.13795744 135.36889648 129.15478516 C162.92148907 202.30971343 171.22301423 280.22355744 173.07421875 357.984375 C178.09154591 357.43516354 183.10862386 356.88374482 188.12548828 356.33032227 C189.83050043 356.14254773 191.53557793 355.95536558 193.24072266 355.76879883 C195.69841858 355.49978658 198.15586788 355.2286111 200.61328125 354.95703125 C201.36976959 354.87469742 202.12625793 354.79236359 202.90567017 354.70753479 C206.98822298 354.25406051 211.02766267 353.70357618 215.07421875 352.984375 C214.4715105 341.67719593 213.06560866 330.55869347 211.44921875 319.359375 C211.31794586 318.44530884 211.18667297 317.53124268 211.05142212 316.58947754 C201.94869822 253.6384547 190.88675622 178.03407188 149.07421875 127.984375 C148.48640625 127.16710937 147.89859375 126.34984375 147.29296875 125.5078125 C144.50982738 122.34247919 141.45362411 120.36605118 137.88671875 118.171875 C137.24541016 117.76517578 136.60410156 117.35847656 135.94335938 116.93945312 C133.2034342 114.8885886 133.2034342 114.8885886 130.07421875 113.984375 Z M-228.92578125 139.984375 C-235.50656653 146.9201404 -240.80483421 154.94890099 -245.92578125 162.984375 C-246.84423828 164.39009766 -246.84423828 164.39009766 -247.78125 165.82421875 C-284.6256761 223.63578218 -297.66634829 287.88215573 -304.92578125 354.984375 C-305.12276611 356.77633301 -305.12276611 356.77633301 -305.32373047 358.60449219 C-306.77001965 372.09372512 -307.17770104 385.42269324 -306.92578125 398.984375 C-302.55044586 398.67646111 -298.17558563 398.36223667 -293.80078125 398.046875 C-292.56328125 397.95986328 -291.32578125 397.87285156 -290.05078125 397.78320312 C-288.85195313 397.69619141 -287.653125 397.60917969 -286.41796875 397.51953125 C-285.3182373 397.440979 -284.21850586 397.36242676 -283.08544922 397.28149414 C-279.978523 396.98933457 -276.97325867 396.66293021 -273.92578125 395.984375 C-272.74314684 393.61910618 -272.71514105 391.99640121 -272.58447266 389.35571289 C-272.53403809 388.38637817 -272.48360352 387.41704346 -272.43164062 386.41833496 C-272.38072266 385.35860474 -272.32980469 384.29887451 -272.27734375 383.20703125 C-272.15986915 380.93366473 -272.04218476 378.66030903 -271.92431641 376.38696289 C-271.86367004 375.18927277 -271.80302368 373.99158264 -271.74053955 372.75759888 C-267.83942988 296.4713929 -261.21650401 214.6155756 -228.0703125 144.51953125 C-226.7886233 142.14415794 -226.7886233 142.14415794 -226.92578125 139.984375 C-227.58578125 139.984375 -228.24578125 139.984375 -228.92578125 139.984375 Z M201.07421875 159.984375 C202.43793629 166.9308112 204.56126584 173.25366668 207.07421875 179.859375 C228.1215717 237.00448585 237.64625831 297.80000645 245.07421875 357.984375 C245.23229004 359.26183594 245.39036133 360.53929687 245.55322266 361.85546875 C250.13641495 400.15824618 251.94099801 438.93948095 253.24636841 477.47097778 C253.73716875 491.85705767 254.44029579 506.19631354 255.57421875 520.546875 C255.63425079 521.31173218 255.69428284 522.07658936 255.75613403 522.86462402 C256.34348625 530.24208253 257.02191851 537.60330151 257.83486938 544.9593811 C258.99867566 555.51905454 259.68035816 566.06276437 260.19921875 576.671875 C260.28599247 578.36786244 260.37323055 580.06382619 260.4609375 581.75976562 C260.67067939 585.83438423 260.87427249 589.90926446 261.07421875 593.984375 C280.58503619 592.3796151 280.58503619 592.3796151 299.07421875 586.984375 C298.66475613 581.68291164 298.23407649 576.38914259 297.6328125 571.10546875 C295.74438295 554.50476714 295.12384248 537.82455923 294.32421875 521.14453125 C293.74028359 509.01647163 293.09462375 496.8914876 292.43562317 484.76730347 C292.20108168 480.43100038 291.98146194 476.09435414 291.77610779 471.75657654 C290.67178839 448.68540617 288.10476512 425.87648861 285.07421875 402.984375 C284.91419373 401.77311951 284.7541687 400.56186401 284.58929443 399.31390381 C278.52890701 352.98680528 278.52890701 352.98680528 269.95556641 307.07714844 C269.33244633 304.20379982 268.73031516 301.3269852 268.14208984 298.44628906 C261.02220824 263.57897802 250.80766564 230.61591382 230.42431641 200.97607422 C228.57372808 198.24603813 226.81633469 195.46034388 225.05126953 192.67456055 C220.61507327 185.69343914 215.96482702 178.88785383 211.13671875 172.171875 C210.59289551 171.41269775 210.04907227 170.65352051 209.48876953 169.87133789 C206.89553404 166.30230562 204.33928601 162.98194277 201.07421875 159.984375 Z M229.07421875 159.984375 C230.07421875 161.984375 230.07421875 161.984375 230.07421875 161.984375 Z M-268.92578125 166.984375 C-267.92578125 168.984375 -267.92578125 168.984375 -267.92578125 168.984375 Z M358.69921875 365.859375 C357.23074793 366.05548733 355.76199223 366.2494776 354.29296875 366.44140625 C353.56851563 366.53631348 352.8440625 366.6312207 352.09765625 366.72900391 C338.52147817 368.44240669 324.73364088 368.50871939 311.07421875 368.984375 C312.49904723 382.21597981 314.08273924 395.42516141 315.73364258 408.63037109 C316.14216361 411.90299325 316.54671288 415.17609237 316.95117188 418.44921875 C317.21199967 420.54169659 317.47305857 422.63414563 317.734375 424.7265625 C317.85418228 425.69939178 317.97398956 426.67222107 318.09742737 427.67453003 C318.21102097 428.57712555 318.32461456 429.47972107 318.44165039 430.40966797 C318.53998672 431.19920868 318.63832306 431.98874939 318.73963928 432.80221558 C319.06265328 434.90894389 319.52156928 436.92713518 320.07421875 438.984375 C330.5213555 439.35972123 340.71933061 438.19749997 351.07421875 436.984375 C351.04392578 436.43313965 351.01363281 435.8819043 350.98242188 435.31396484 C350.40850358 424.60597395 349.94974695 413.89530569 349.82421875 403.171875 C349.79231445 401.8413208 349.79231445 401.8413208 349.75976562 400.48388672 C349.71507134 392.04464799 351.2690444 385.09349501 357.32421875 378.921875 C358.11183594 378.09816406 358.89945313 377.27445312 359.7109375 376.42578125 C360.49082031 375.62011719 361.27070312 374.81445312 362.07421875 373.984375 C363.43823178 372.45141318 364.79345832 370.91055355 366.13671875 369.359375 C366.70519531 368.70710938 367.27367187 368.05484375 367.859375 367.3828125 C368.26027344 366.92132813 368.66117188 366.45984375 369.07421875 365.984375 C365.37646869 364.75179165 362.4608928 365.31400709 358.69921875 365.859375 Z M389.01171875 380.859375 C388.34849609 381.51035156 387.68527344 382.16132813 387.00195312 382.83203125 C386.37482422 383.45722656 385.74769531 384.08242188 385.1015625 384.7265625 C384.23132446 385.59063721 384.23132446 385.59063721 383.34350586 386.47216797 C381.85991711 387.91064035 381.85991711 387.91064035 382.07421875 389.984375 C389.49921875 390.974375 389.49921875 390.974375 397.07421875 391.984375 C397.07421875 386.044375 397.07421875 380.104375 397.07421875 373.984375 C394.31870364 373.984375 390.87150488 379.00140684 389.01171875 380.859375 Z M207.63647461 381.67480469 C206.88739145 381.74915489 206.1383083 381.8235051 205.36652565 381.90010834 C202.86129311 382.14977344 200.35641534 382.40280532 197.8515625 382.65625 C196.97441023 382.74440727 196.09725796 382.83256454 195.19352531 382.92339325 C180.71003366 384.38025998 166.23641284 385.92242245 151.765625 387.5 C109.95291142 392.05638006 68.13887274 396.51839845 26.2473259 400.29411316 C23.50456922 400.54187502 20.76204495 400.79207756 18.01956177 401.04284668 C-16.36450293 404.17730425 -50.73293997 406.00406365 -85.23828125 407.109375 C-94.04515625 407.398125 -102.85203125 407.686875 -111.92578125 407.984375 C-111.92578125 433.064375 -111.92578125 458.144375 -111.92578125 483.984375 C-88.67440536 481.20057838 -88.67440536 481.20057838 -65.47436523 478.16064453 C-28.13664254 473.03700198 9.53056289 470.22093992 47.0859375 467.1875 C48.02709978 467.11138866 48.96826206 467.03527733 49.93794441 466.95685959 C59.25871681 466.20356669 68.57982468 465.45520232 77.90255833 464.7265501 C113.14009882 461.9685157 148.18086206 458.091868 183.23626709 453.59594727 C186.4267916 453.18781334 189.61782375 452.78372466 192.80886078 452.37962055 C195.91797052 451.98557246 199.02684198 451.58967169 202.13563538 451.19313622 C203.59955822 451.00651823 205.06353621 450.82033217 206.52757263 450.63460732 C208.54400248 450.37840804 210.56009551 450.11956197 212.57617188 449.8605957 C213.71477661 449.7149971 214.85338135 449.5693985 216.02648926 449.41938782 C218.73657275 449.03256836 221.39727788 448.55359363 224.07421875 447.984375 C223.57174322 440.7250802 223.0676077 433.46590262 222.56142521 426.20686531 C222.32636741 422.83523056 222.0918549 419.46355982 221.85864258 416.09179688 C221.58947689 412.20432659 221.31835734 408.31699661 221.046875 404.4296875 C220.96454117 403.23449493 220.88220734 402.03930237 220.79737854 400.80789185 C220.33285049 394.18650342 219.78450893 387.58411297 219.07421875 380.984375 C215.21624296 380.984375 211.46730596 381.28749736 207.63647461 381.67480469 Z M370.07421875 411.984375 C370.04707441 414.6927767 370.02731029 417.40090221 370.01171875 420.109375 C370.00333984 420.86992187 369.99496094 421.63046875 369.98632812 422.4140625 C369.98310547 423.16171875 369.97988281 423.909375 369.9765625 424.6796875 C369.97132568 425.36047363 369.96608887 426.04125977 369.96069336 426.74267578 C370.10228841 429.53864507 370.57642436 432.23186485 371.07421875 434.984375 C383.66054691 435.30011491 396.06300956 434.43801595 408.59985352 433.38525391 C411.87009009 433.11077071 415.14097419 432.84556731 418.41210938 432.58203125 C430.98655138 431.55756574 443.53503168 430.37522608 456.07421875 428.984375 C456.07421875 428.324375 456.07421875 427.664375 456.07421875 426.984375 C455.46432098 426.88494598 454.85442322 426.78551697 454.2260437 426.68307495 C397.9470007 417.49861382 397.9470007 417.49861382 374.19824219 412.39233398 C372.10734324 411.92150123 372.10734324 411.92150123 370.07421875 411.984375 Z M-217.72265625 418.9375 C-219.14737859 419.145016 -220.57218774 419.35193666 -221.99707031 419.55834961 C-222.75540161 419.66839325 -223.51373291 419.77843689 -224.29504395 419.89181519 C-243.75419953 422.6917565 -263.2312992 424.8986205 -282.80688477 426.69720459 C-284.93968071 426.89358042 -287.07232438 427.09161533 -289.20483398 427.29107666 C-339.05643196 431.95279898 -389.00703002 435.07389892 -438.97656024 438.14167976 C-441.03447524 438.2680332 -443.09238156 438.39452749 -445.15028667 438.52104187 C-451.54766929 438.91412606 -457.9451717 439.30504745 -464.3429718 439.69128418 C-480.21458905 440.65562737 -496.07141753 441.76903644 -511.92578125 442.984375 C-511.92578125 443.314375 -511.92578125 443.644375 -511.92578125 443.984375 C-510.7911293 444.21130539 -509.65647736 444.43823578 -508.48744202 444.67204285 C-507.72422638 444.82468597 -506.96101074 444.9773291 -506.17466736 445.13459778 C-505.32562332 445.30440659 -504.47657928 445.47421539 -503.60180664 445.64916992 C-502.71537476 445.8264563 -501.82894287 446.00374268 -500.91564941 446.18640137 C-499.98080215 446.37337082 -499.0459549 446.56034027 -498.08277893 446.75297546 C-495.03583717 447.36236382 -491.98889542 447.97175217 -488.94195366 448.58114052 C-487.9095109 448.78762907 -486.87706814 448.99411762 -485.81333923 449.2068634 C-484.76074386 449.41738248 -483.70814848 449.62790155 -482.62365627 449.8448 C-481.01653821 450.16622361 -481.01653821 450.16622361 -479.37695312 450.49414062 C-476.03283691 451.16296387 -472.6887207 451.83178711 -469.34460449 452.50061035 C-468.23701782 452.72212769 -467.12943115 452.94364502 -465.98828125 453.171875 C-459.40014648 454.48950195 -459.40014648 454.48950195 -456.1360569 455.14234734 C-453.98048094 455.57344427 -451.82489097 456.00447118 -449.66928673 456.43542671 C-444.41172995 457.48662218 -439.15441145 458.53897936 -433.89761353 459.59396362 C-425.43387086 461.29151918 -416.97042368 462.9866207 -408.49169922 464.60791016 C-407.3157872 464.83497147 -406.13987518 465.06203278 -404.92832947 465.29597473 C-402.90141275 465.68574071 -400.87318186 466.06878094 -398.84327698 466.44267273 C-394.07115559 467.36467973 -390.2189003 468.59496621 -385.92578125 470.984375 C-384.44078125 471.479375 -384.44078125 471.479375 -382.92578125 471.984375 C-379.45530919 477.49630122 -378.51204158 483.87088236 -377.86328125 490.234375 C-377.78529297 490.915 -377.70730469 491.595625 -377.62695312 492.296875 C-376.71150898 500.83093284 -376.36864718 509.41570484 -375.92578125 517.984375 C-366.6938731 516.86039055 -357.46500327 515.71261337 -348.23828125 514.546875 C-347.53989639 514.45867744 -346.84151154 514.37047989 -346.1219635 514.27960968 C-325.13335964 511.62279861 -304.29189258 508.4981418 -283.45986938 504.78637695 C-264.52553327 501.42526712 -245.55934555 498.92426748 -226.44433594 496.83544922 C-225.43610779 496.72340652 -224.42787964 496.61136383 -223.38909912 496.4959259 C-221.51440411 496.28902784 -219.63897734 496.08861134 -217.76275635 495.89604187 C-213.50194931 495.42837659 -209.8331914 494.88542632 -205.92578125 492.984375 C-205.90067807 488.39860412 -205.88273491 483.81287501 -205.87084961 479.22705078 C-205.86588414 477.67365826 -205.85910952 476.12027025 -205.8503418 474.56689453 C-205.80214019 465.79420128 -205.95882039 457.12946919 -206.66967773 448.37841797 C-207.11603634 442.46299625 -207.28915709 436.53739913 -207.48828125 430.609375 C-207.53146484 429.38476562 -207.57464844 428.16015625 -207.61914062 426.8984375 C-207.72359982 423.92715382 -207.82579025 420.95581181 -207.92578125 417.984375 C-211.28615638 417.984375 -214.39613049 418.44554294 -217.72265625 418.9375 Z M-589.92578125 453.984375 C-589.85359375 454.90089844 -589.78140625 455.81742188 -589.70703125 456.76171875 C-588.98806324 466.92440867 -588.80772819 477.07754741 -588.80297852 487.26367188 C-588.80237714 487.97983579 -588.80177576 488.6959997 -588.80115616 489.43386555 C-588.80489015 503.51147919 -589.40711941 517.52878798 -590.17608833 531.58506775 C-591.51240598 556.45723969 -592.23726292 581.29616627 -592.3671875 606.203125 C-592.37318065 607.31258484 -592.37318065 607.31258484 -592.37929487 608.44445801 C-592.43113074 618.27970521 -592.45887328 628.11496029 -592.47875977 637.95031738 C-592.65598604 725.00819199 -594.80680503 811.86339699 -598.96519035 898.82541037 C-599.5351331 910.75038048 -600.09199615 922.67595601 -600.6484375 934.6015625 C-600.74860902 936.74700454 -600.84878802 938.89244623 -600.94897461 941.03788757 C-601.09739244 944.21636617 -601.24578784 947.39484581 -601.39410782 950.57332897 C-601.6835701 956.77622852 -601.97367045 962.9790978 -602.26425552 969.18194485 C-604.78562293 1023.01789686 -607.19186669 1076.78158253 -606.78216553 1130.68839836 C-606.49897853 1167.94969652 -606.97034786 1204.84693652 -609.97045803 1241.99478817 C-610.26311538 1245.62641032 -610.55165175 1249.258338 -610.8359375 1252.890625 C-610.89061502 1253.58725817 -610.94529255 1254.28389133 -611.00162697 1255.0016346 C-612.05094997 1268.60054775 -612.10621041 1282.10443121 -611.86328125 1295.734375 C-611.35934065 1324.06130302 -614.09919721 1352.07392318 -616.89770508 1380.23100281 C-617.71472507 1388.47622192 -618.37715062 1396.71701067 -618.92578125 1404.984375 C-612.36020135 1400.71778294 -606.11551411 1396.15267909 -599.92578125 1391.359375 C-586.14978746 1380.78436657 -571.92153267 1370.93483333 -557.57421875 1361.15625 C-553.87967824 1358.63801192 -550.19453846 1356.10652985 -546.51367188 1353.56835938 C-540.37688211 1349.33711089 -534.21805333 1345.14464065 -528.00390625 1341.02734375 C-525.69641418 1339.49584838 -523.39501285 1337.95671668 -521.09765625 1336.41015625 C-520.10584351 1335.74415405 -520.10584351 1335.74415405 -519.09399414 1335.06469727 C-517.81593215 1334.20630213 -516.53899108 1333.34623458 -515.26342773 1332.48413086 C-514.67118408 1332.08718018 -514.07894043 1331.69022949 -513.46875 1331.28125 C-512.9533667 1330.93416992 -512.4379834 1330.58708984 -511.90698242 1330.22949219 C-509.92578125 1328.984375 -509.92578125 1328.984375 -508.17539978 1328.25650024 C-506.14652594 1327.33436259 -504.5840165 1326.47926201 -502.92578125 1324.984375 C-502.21558442 1321.75775665 -502.01375384 1319.5182233 -502.09375 1316.2890625 C-502.08620193 1315.3922879 -502.07865387 1314.49551331 -502.07087708 1313.57156372 C-502.05237678 1310.66650314 -502.08045349 1307.76426727 -502.11328125 1304.859375 C-502.12171867 1301.16918464 -502.10914333 1297.47922285 -502.09375 1293.7890625 C-502.09233002 1292.72070663 -502.09091003 1291.65235077 -502.08944702 1290.55162048 C-502.04973812 1283.41936486 -501.83298013 1276.31670058 -501.48876953 1269.19360352 C-500.20596517 1242.35839816 -499.70005077 1215.57629726 -499.58203125 1188.71484375 C-499.57795895 1187.81967576 -499.57388665 1186.92450777 -499.56969094 1186.00221348 C-499.50253336 1171.11390046 -499.4590333 1156.22553134 -499.41796112 1141.33712769 C-499.16330017 1049.54358623 -499.16330017 1049.54358623 -496.92578125 1014.984375 C-496.85231979 1013.8297986 -496.85231979 1013.8297986 -496.77737427 1012.65189743 C-496.02407345 1000.84154962 -495.16307594 989.03981733 -494.26434326 977.23974609 C-493.39512911 965.82650063 -492.6063927 954.41051291 -491.92578125 942.984375 C-491.87665966 942.16735611 -491.82753807 941.35033722 -491.77692795 940.50856018 C-489.90693641 908.87193451 -489.72412917 877.22775573 -489.6171875 845.546875 C-489.61360528 844.49577435 -489.61002307 843.4446737 -489.6063323 842.36172152 C-489.5405172 822.56832261 -489.50149756 802.77486017 -489.47416013 782.98137385 C-489.45423502 768.81564647 -489.42135652 754.65001514 -489.3671875 740.484375 C-489.36327035 739.43221511 -489.3593532 738.38005521 -489.35531735 737.29601169 C-489.23090238 705.58643329 -488.48112611 674.02986621 -486.42548847 642.38299084 C-485.82184554 632.90117117 -485.55625426 623.41965104 -485.36328125 613.921875 C-484.98562691 596.90912501 -484.11803529 579.95903433 -482.92578125 562.984375 C-482.8577832 561.93910645 -482.78978516 560.89383789 -482.71972656 559.81689453 C-481.52825362 542.10507461 -481.52825362 542.10507461 -475.92578125 534.984375 C-475.26578125 535.314375 -474.60578125 535.644375 -473.92578125 535.984375 C-473.55225635 538.48726304 -473.3112339 540.89850064 -473.14453125 543.41796875 C-473.0861055 544.18977982 -473.02767975 544.96159088 -472.96748352 545.75679016 C-472.77702065 548.31120258 -472.60090704 550.86636847 -472.42578125 553.421875 C-472.29822673 555.19892606 -472.17021094 556.97594406 -472.04174805 558.75292969 C-471.71702145 563.29449055 -471.40655477 567.83690098 -471.10150146 572.37982178 C-470.93621132 574.82977878 -470.76692168 577.27942084 -470.59619141 579.72900391 C-470.34287405 583.38158499 -470.10119022 587.03475824 -469.86914062 590.68875122 C-469.74525331 592.62538609 -469.61500358 594.56161089 -469.484375 596.49780273 C-468.13230841 619.07644063 -469.0442192 641.64393323 -470.10040379 664.2112999 C-471.53222478 694.82658572 -472.3771094 725.33258891 -471.92578125 755.984375 C-471.89833453 757.91216551 -471.87089096 759.83995606 -471.84353638 761.76774788 C-471.76160586 767.53077652 -471.67802132 773.29378077 -471.59378052 779.05677605 C-471.5375206 782.9076386 -471.48158493 786.75850581 -471.42578125 790.609375 C-471.41461273 791.3789579 -471.40344421 792.1485408 -471.39193726 792.9414444 C-470.59933965 847.75794556 -470.0444638 902.40612853 -473.44628906 957.15185547 C-474.24176578 970.00381486 -474.94035152 982.86145987 -475.65253448 995.71825123 C-475.90990747 1000.35636953 -476.17229081 1004.99416158 -476.44014549 1009.63168621 C-476.60867186 1012.55543008 -476.77462167 1015.47931756 -476.9402504 1018.40322685 C-477.05106801 1020.34471407 -477.1650519 1022.28601983 -477.27926636 1024.22731018 C-478.62736437 1048.17952067 -479.06374684 1072.09391208 -478.97038078 1096.07662964 C-478.95145739 1100.96001444 -478.94232451 1105.84339318 -478.9344635 1110.72680664 C-478.91225174 1123.73484168 -478.88097772 1136.74284802 -478.83826888 1149.75083238 C-478.80204064 1160.80783534 -478.77499764 1171.86481415 -478.765625 1182.921875 C-478.76491863 1183.7546458 -478.76421226 1184.58741661 -478.76348448 1185.44542289 C-478.68667733 1311.00018112 -478.68667733 1311.00018112 -485.58105469 1333.08325195 C-486.1729125 1335.20505051 -486.1729125 1335.20505051 -484.44140625 1337.6640625 C-483.31992187 1339.24574219 -483.31992187 1339.24574219 -482.17578125 1340.859375 C-463.53357634 1368.49646211 -452.09577317 1402.05349958 -439.22729492 1432.65722656 C-433.45089506 1446.39349413 -427.61570288 1460.10353032 -421.73828125 1473.796875 C-421.34007172 1474.7247583 -420.94186218 1475.6526416 -420.53158569 1476.60864258 C-418.33135627 1481.73462059 -416.1294011 1486.85985364 -413.92578125 1491.984375 C-413.59578125 1491.984375 -413.26578125 1491.984375 -412.92578125 1491.984375 C-412.80884238 1482.4734099 -413.16121517 1473.03504688 -413.73046875 1463.54296875 C-413.8155701 1462.08489698 -413.90045495 1460.62681256 -413.98513794 1459.16871643 C-414.16257177 1456.12884517 -414.34274237 1453.08915214 -414.52490234 1450.04956055 C-414.75433315 1446.21725744 -414.97670555 1442.38458441 -415.19691277 1438.5517416 C-415.37067702 1435.54234484 -415.54845299 1432.5331942 -415.72729874 1429.52409554 C-415.81061133 1428.11445285 -415.8927558 1426.70474047 -415.97353745 1425.29495049 C-416.38960726 1418.0707254 -416.91577449 1410.88180373 -417.69525433 1403.68678284 C-418.8399616 1393.08230544 -419.24988977 1382.60993319 -419.3046875 1371.94921875 C-419.32097942 1370.17508636 -419.33816998 1368.40096203 -419.35618591 1366.62684631 C-419.40132164 1361.98951171 -419.43631799 1357.35216295 -419.46838379 1352.71472168 C-419.52690102 1344.50112825 -419.60270741 1336.28765707 -419.6796875 1328.07421875 C-419.68822313 1327.1626363 -419.69675877 1326.25105385 -419.70555305 1325.31184769 C-420.04481193 1290.02110339 -421.10296977 1254.77781906 -422.71339798 1219.52292252 C-422.86696823 1216.15348001 -423.01840285 1212.78394584 -423.16964722 1209.41439819 C-424.65562581 1176.47687873 -426.42487666 1143.5596147 -428.33984375 1110.64453125 C-428.39325629 1109.72601655 -428.44666883 1108.80750185 -428.50169992 1107.86115336 C-429.43850772 1091.7561318 -430.38143576 1075.65146738 -431.32526398 1059.54685593 C-434.30893689 1008.61438483 -436.95882232 957.71570074 -438.65820312 906.72167969 C-438.7936138 902.66859747 -438.92971273 898.61553915 -439.06640625 894.5625 C-439.11565247 893.0956992 -439.11565247 893.0956992 -439.16589355 891.59926605 C-439.95792886 868.23210392 -441.18671392 844.89047248 -442.48828125 821.546875 C-442.54259811 820.57015587 -442.59691498 819.59343674 -442.65287781 818.58712006 C-443.64395655 800.78698853 -444.66978635 782.98908197 -445.76953125 765.1953125 C-446.01066154 761.2709263 -446.25024861 757.34645028 -446.48828125 753.421875 C-446.54442596 752.50099091 -446.60057068 751.58010681 -446.65841675 750.63131714 C-448.42224729 721.26939905 -449.41430267 691.86109035 -450.56860352 662.47045898 C-450.61021764 661.41101546 -450.65183176 660.35157194 -450.69470692 659.26002407 C-450.89104381 654.25455793 -451.08625399 649.24905239 -451.27919006 644.24345398 C-451.35023025 642.41050757 -451.42139024 640.57756579 -451.49267578 638.74462891 C-451.52715411 637.85591001 -451.56163244 636.9671911 -451.59715557 636.05154133 C-451.81526454 630.52116194 -452.06380934 624.99284674 -452.32811546 619.46449471 C-452.77193359 610.13967451 -453.09086343 600.83169152 -453.18614197 591.49651337 C-453.20797611 589.37703016 -453.23486839 587.25765563 -453.26281738 585.13824463 C-453.33104571 579.9037056 -453.39252597 574.66909531 -453.45184326 569.43444824 C-453.50276192 564.94339848 -453.55739574 560.45242895 -453.61766052 555.96149445 C-453.64410313 553.87749101 -453.66495184 551.79347863 -453.68566895 549.70941162 C-453.71074524 547.8340976 -453.71074524 547.8340976 -453.73632812 545.92089844 C-453.7488562 544.81921326 -453.76138428 543.71752808 -453.77429199 542.5824585 C-453.75349592 540.00028615 -453.75349592 540.00028615 -454.92578125 537.984375 C-454.91015625 536.03125 -454.91015625 536.03125 -454.67578125 533.734375 C-454.60875 532.98671875 -454.54171875 532.2390625 -454.47265625 531.46875 C-453.24626133 525.89741308 -450.31695073 521.96370869 -446.48828125 517.859375 C-445.81091919 517.13186035 -445.81091919 517.13186035 -445.11987305 516.38964844 C-436.944532 507.70949483 -428.39651857 499.37420153 -419.92578125 490.984375 C-422.21180594 488.69835031 -422.87792898 488.64834664 -425.9765625 488.26025391 C-426.80905518 488.15014984 -427.64154785 488.04004578 -428.49926758 487.92660522 C-429.40314209 487.81418488 -430.3070166 487.70176453 -431.23828125 487.5859375 C-433.165699 487.32833626 -435.09277611 487.06817542 -437.01953125 486.80566406 C-438.00566406 486.67148071 -438.99179687 486.53729736 -440.0078125 486.39904785 C-448.01337902 485.26137594 -455.96807914 483.78824246 -463.92578125 482.359375 C-464.87955658 482.18863464 -465.83333191 482.01789429 -466.81600952 481.84197998 C-496.30634846 476.5496597 -525.72100261 470.98464213 -554.80078125 463.734375 C-556.02627182 463.43046844 -556.02627182 463.43046844 -557.27651978 463.12042236 C-566.69791927 460.76971756 -575.91793217 458.11477435 -585.08642578 454.91113281 C-587.74486652 453.88094593 -587.74486652 453.88094593 -589.92578125 453.984375 Z M528.12890625 448.9375 C527.29617188 449.14503906 526.4634375 449.35257813 525.60546875 449.56640625 C523.9191478 449.99046637 522.23407976 450.41956572 520.55078125 450.85546875 C501.8917882 455.46435176 482.63924857 457.72497404 463.57421875 459.921875 C462.50027863 460.04688385 461.4263385 460.1718927 460.31985474 460.3006897 C422.21023923 464.71637229 384.01377291 467.99379336 345.70678711 470.0847168 C344.71086044 470.13945663 343.71493378 470.19419647 342.68882751 470.25059509 C340.85082167 470.35046724 339.01266391 470.44760279 337.17433167 470.54127502 C332.09929062 470.81335043 327.1102122 471.295407 322.07421875 471.984375 C322.13480469 473.01691406 322.19539063 474.04945313 322.2578125 475.11328125 C323.47682978 496.22323854 324.23861482 517.24435663 324.10546875 538.39013672 C324.03271469 550.84077169 324.27529899 563.25840218 324.71899414 575.70092773 C324.94121863 582.02697113 325.12739044 588.34978314 325.1875 594.6796875 C325.19821533 595.79102051 325.20893066 596.90235352 325.2199707 598.04736328 C324.98738236 602.73419372 324.39697602 604.58434431 321.07421875 607.984375 C318.30704204 608.80175643 315.69973974 609.22841474 312.828125 609.5 C310.02804484 609.81710048 310.02804484 609.81710048 307.78125 611.40234375 C304.07475983 613.56847437 300.38318079 614.22939126 296.19921875 615.046875 C295.35206299 615.21606445 294.50490723 615.38525391 293.63208008 615.55957031 C291.11563439 616.05143937 288.59635822 616.52267608 286.07421875 616.984375 C284.18896484 617.33048828 284.18896484 617.33048828 282.265625 617.68359375 C274.72084064 618.8695632 267.26563672 619.2083798 259.63671875 619.296875 C258.25069458 619.32346191 258.25069458 619.32346191 256.83666992 619.35058594 C251.01229872 619.34425682 246.29705969 618.60785246 241.07421875 615.984375 C240.4939241 615.74726807 239.91362946 615.51016113 239.31575012 615.26586914 C237.3084885 614.33554336 235.73138836 613.45477682 234.07421875 611.984375 C233.31406288 608.98067397 233.07338833 606.97927404 233.09375 603.9609375 C233.07024475 603.1609584 233.0467395 602.36097931 233.02252197 601.53675842 C232.97414318 599.80466265 232.94068171 598.07210006 232.92044067 596.33944702 C232.86257949 591.65509959 232.68939646 586.97467679 232.52734375 582.29296875 C232.48148888 580.85716209 232.48148888 580.85716209 232.43470764 579.39234924 C232.12071452 570.4229724 231.19835054 561.57837245 230.13671875 552.671875 C227.35072826 528.85990183 226.28561366 504.91856312 225.07421875 480.984375 C212.97600826 481.90095148 200.93525175 483.05659039 188.90625 484.6484375 C155.29597001 489.0675811 121.68517368 492.36389844 87.88671875 494.984375 C86.83429111 495.06603283 85.78186348 495.14769066 84.6975441 495.23182297 C75.00380521 495.98311597 65.30965649 496.72904702 55.6151886 497.47087097 C33.271382 499.18369657 10.93927501 501.03084988 -11.39060974 502.91571045 C-14.40795527 503.17037051 -17.42534965 503.42444567 -20.44274902 503.6784668 C-50.62627115 506.22221838 -80.79000982 508.92056031 -110.92578125 511.984375 C-111.01583039 525.53533236 -110.99619818 539.02099557 -110.11328125 552.546875 C-110.07042999 553.23584869 -110.02757874 553.92482239 -109.98342896 554.63467407 C-109.36169757 564.55893882 -108.44262202 574.4142861 -106.97924805 584.25415039 C-106.01023117 590.78270171 -105.43592194 597.29383685 -105.04928589 603.88272095 C-104.96250292 605.35948965 -104.87157878 606.836018 -104.77761841 608.31234741 C-104.45072519 613.54347919 -104.22256072 618.76885451 -104.08129883 624.00830078 C-104.0190052 625.83394551 -103.9298745 627.65886108 -103.81469727 629.48193359 C-102.90624507 644.24131513 -102.90624507 644.24131513 -106.25769043 648.79345703 C-121.3339135 663.32094788 -145.27722265 664.30286209 -164.96875 664.140625 C-184.19560993 663.38142026 -184.19560993 663.38142026 -190.92578125 658.984375 C-192.02734375 656.75 -192.02734375 656.75 -192.55078125 654.234375 C-193.5175393 650.28772744 -194.81768536 647.41512197 -196.95532227 643.93164062 C-200.70324275 636.41128495 -201.54323813 627.11985438 -202.48828125 618.859375 C-202.61122559 617.79428711 -202.73416992 616.72919922 -202.86083984 615.63183594 C-206.11085132 585.86767855 -206.42563119 555.89172187 -206.92578125 525.984375 C-207.91868164 526.11489258 -208.91158203 526.24541016 -209.93457031 526.37988281 C-228.7175233 528.84332334 -247.50034573 531.20923738 -266.33728027 533.22201538 C-274.54898281 534.10370119 -282.73904544 535.06057281 -290.9140625 536.23828125 C-291.67035446 536.34675385 -292.42664642 536.45522644 -293.20585632 536.56698608 C-296.73808723 537.07663786 -300.26694963 537.59976331 -303.79370117 538.14648438 C-332.78955252 542.51252973 -362.39091285 543.63437975 -391.62841797 545.50817871 C-395.97509442 545.78750079 -400.3215178 546.07071012 -404.66796875 546.35351562 C-413.08700721 546.90077072 -421.50629838 547.44400025 -429.92578125 547.984375 C-429.8127919 548.89992661 -429.69980255 549.81547821 -429.58338928 550.7587738 C-429.15484597 554.23937236 -428.72816049 557.72018921 -428.30262756 561.20115662 C-428.12001261 562.69202798 -427.93671132 564.18281547 -427.75263977 565.67350769 C-426.08946632 579.14928023 -424.59789639 592.64125973 -423.6328125 606.1875 C-423.57470901 607.00107971 -423.51660553 607.81465942 -423.45674133 608.65289307 C-422.55343076 621.86791605 -422.04436384 635.10740775 -421.4606781 648.33950424 C-420.46579398 670.88179375 -419.22658227 693.39786696 -417.7712326 715.91513824 C-417.61220204 718.37607536 -417.45375872 720.83704966 -417.29547119 723.29803467 C-416.79971389 731.00286369 -416.30195721 738.70756231 -415.80295563 746.41218185 C-414.48628927 766.74722968 -413.18952154 787.08346538 -411.92578125 807.421875 C-411.86165794 808.45211163 -411.79753464 809.48234825 -411.7314682 810.54380417 C-410.26549455 834.13134264 -408.88375417 857.71868948 -407.8203125 881.328125 C-407.77648878 882.29849449 -407.73266506 883.26886398 -407.68751335 884.26863861 C-407.46198948 889.26966446 -407.23784443 894.27075171 -407.01394653 899.27185059 C-406.92207174 901.32185934 -406.83018323 903.37186747 -406.73828125 905.421875 C-406.69256359 906.44358292 -406.64684593 907.46529083 -406.59974289 908.51795959 C-404.7041742 950.71576476 -402.00397237 992.84769351 -399.22442627 1034.99438477 C-391.93624532 1145.52182271 -391.93624532 1145.52182271 -389.36328125 1197.921875 C-389.30247627 1199.15915974 -389.2416713 1200.39644447 -389.17902374 1201.67122269 C-387.02406049 1245.9437436 -386.2439584 1290.19925831 -385.77294922 1334.51422119 C-385.35580717 1373.71729494 -384.20414142 1412.78957172 -381.68920898 1451.92041016 C-381.63516183 1452.762004 -381.58111467 1453.60359785 -381.52542973 1454.47069454 C-381.47207683 1455.30062703 -381.41872393 1456.13055952 -381.36375427 1456.98564148 C-381.28486875 1458.21344613 -381.28486875 1458.21344613 -381.20438957 1459.46605492 C-381.10032535 1461.08078495 -380.99559758 1462.69547237 -380.89016914 1464.31011391 C-379.96594677 1478.56703388 -379.50397355 1492.81775975 -379.23399353 1507.10127258 C-378.94843963 1521.94027949 -377.74346691 1536.45169797 -375.42578125 1551.109375 C-375.30734863 1551.86323486 -375.18891602 1552.61709473 -375.06689453 1553.39379883 C-374.47169037 1556.8644771 -373.90815561 1559.01081346 -371.92578125 1561.984375 C-371.35618179 1561.83567459 -370.78658234 1561.68697418 -370.19972229 1561.5337677 C-352.86256937 1557.03640851 -335.42094845 1553.19503541 -317.86328125 1549.671875 C-317.14190979 1549.52656971 -316.42053833 1549.38126442 -315.67730713 1549.23155594 C-275.26567522 1541.09933848 -234.56804933 1534.63415595 -193.8795166 1528.06468201 C-180.94049523 1525.97361017 -168.00972901 1523.83932691 -155.0873909 1521.64749336 C-152.41853977 1521.1948159 -149.74950335 1520.74324637 -147.08041382 1520.29197693 C-137.23194857 1518.62692481 -137.23194857 1518.62692481 -127.38647461 1516.94430542 C-91.68883857 1510.81229469 -55.77528381 1506.80964434 -19.78857422 1502.78759766 C50.62756032 1494.91588769 120.528163 1485.32409161 190.44665146 1473.86356544 C202.35151659 1471.91272757 214.25836098 1469.97509683 226.1723423 1468.08061981 C227.76403074 1467.82722678 229.35557025 1467.57289592 230.94693565 1467.31748199 C244.42665448 1465.15590293 257.93801864 1463.31275352 271.52734375 1461.98046875 C272.30555481 1461.90340195 273.08376587 1461.82633514 273.88555908 1461.74693298 C281.45785424 1461.01444935 289.0389801 1460.39062253 296.62109375 1459.76953125 C297.91715546 1459.66317856 299.21321716 1459.55682587 300.54855347 1459.44725037 C307.008662 1458.91989913 313.46942358 1458.40467257 319.93212891 1457.90991211 C347.18070525 1455.78394687 373.89669917 1451.90107639 400.70734787 1446.62460327 C404.13666407 1445.95276448 407.56848984 1445.29401727 411.00024414 1444.63476562 C421.20262202 1442.67329626 431.40272183 1440.70021911 441.60009766 1438.71289062 C463.28727864 1434.49634629 484.76361072 1431.10408652 506.77429199 1429.13908386 C507.57580688 1429.06740494 508.37732178 1428.99572601 509.203125 1428.921875 C510.00335083 1428.85031693 510.80357666 1428.77875885 511.62805176 1428.70503235 C521.24555107 1427.82088902 530.8143168 1426.57070048 540.38671875 1425.296875 C541.63047272 1425.13344101 541.63047272 1425.13344101 542.89935303 1424.96670532 C545.2251398 1424.66028511 547.55020548 1424.3490076 549.875 1424.03515625 C550.56359604 1423.9436731 551.25219208 1423.85218994 551.96165466 1423.75793457 C554.79829252 1423.36680799 557.34845293 1422.89296361 560.07421875 1421.984375 C560.19466589 1414.02466206 559.87952584 1406.22640974 559.12109375 1398.3046875 C558.91350339 1396.02338476 558.70624341 1393.74205194 558.49926758 1391.46069336 C558.38918365 1390.26604462 558.27909973 1389.07139587 558.16567993 1387.84054565 C554.29871236 1345.58591555 551.33218341 1303.27011496 550.03527832 1260.85421753 C549.25831906 1235.53481966 548.03509453 1210.24082705 546.80468369 1184.94000244 C546.30447419 1174.64893989 545.80763318 1164.3577142 545.3125 1154.06640625 C545.25868982 1152.94808537 545.20487965 1151.82976448 545.14943886 1150.67755508 C544.16850905 1130.25478536 543.25411221 1109.82984463 542.415905 1089.40072632 C542.32669722 1087.23212545 542.23650017 1085.06356792 542.14602661 1082.89501953 C540.83157875 1051.29485653 539.88614282 1019.71766958 539.94564819 988.08885956 C539.94931474 985.8636207 539.95085992 983.63838852 539.9519043 981.41314697 C539.96577775 957.39216189 540.2208545 933.3775183 540.57421875 909.359375 C541.01197575 879.56552539 541.30810328 849.78214018 541.07421875 819.984375 C541.06797485 819.06976501 541.06173096 818.15515503 541.05529785 817.21282959 C540.79601539 780.6366622 539.02077903 744.10311282 537.40171528 707.56772614 C535.88433114 673.31796848 534.80062767 639.07086791 534.01171875 604.796875 C533.9895013 603.83472202 533.96728386 602.87256905 533.94439316 601.88125992 C533.33875135 575.50383117 532.87795452 549.13289881 532.88618851 522.74792099 C532.88670785 520.71456442 532.88556578 518.68121377 532.88424683 516.64785767 C532.88536827 500.73766159 533.20742881 484.86605416 533.85595703 468.96899414 C534.1330211 461.97112967 534.18139503 454.9865585 534.07421875 447.984375 C531.90954309 447.984375 530.22581816 448.39900812 528.12890625 448.9375 Z M-400.92382812 511.84570312 C-401.44009766 512.36583984 -401.95636719 512.88597656 -402.48828125 513.421875 C-403.00841797 513.93814453 -403.52855469 514.45441406 -404.06445312 514.98632812 C-406.72448908 517.12361304 -406.72448908 517.12361304 -407.92578125 519.984375 C-406.06953125 520.0153125 -406.06953125 520.0153125 -404.17578125 520.046875 C-403.4796875 520.05847656 -402.78359375 520.07007813 -402.06640625 520.08203125 C-399.58578949 520.03967756 -399.58578949 520.03967756 -395.92578125 518.984375 C-395.92578125 515.354375 -395.92578125 511.724375 -395.92578125 507.984375 C-398.1118258 507.984375 -399.46126062 510.38695933 -400.92382812 511.84570312 Z M-498.80078125 1345.484375 C-502.85187691 1349.11900288 -507.04834483 1352.32451445 -511.4765625 1355.48046875 C-516.01096735 1358.73978739 -520.42818666 1362.15447889 -524.86328125 1365.546875 C-543.82003806 1380.02134587 -562.91143706 1394.16423739 -582.61328125 1407.609375 C-585.71929154 1409.73169415 -588.82355964 1411.85652167 -591.92578125 1413.984375 C-593.00641846 1414.72494141 -593.00641846 1414.72494141 -594.10888672 1415.48046875 C-596.09579558 1416.84800313 -598.07455886 1418.22645843 -600.05078125 1419.609375 C-600.63690186 1420.0110791 -601.22302246 1420.4127832 -601.8269043 1420.82666016 C-604.62629872 1422.8029535 -605.81216108 1423.6435145 -606.92578125 1426.984375 C-585.45527235 1440.05800171 -563.63628923 1452.62534047 -541.49169922 1464.52319336 C-529.06742197 1471.20428464 -516.83316929 1478.15778259 -504.69677734 1485.34814453 C-502.18284977 1486.83258 -499.65992069 1488.29988223 -497.1328125 1489.76171875 C-485.50280102 1496.54803426 -474.35796947 1503.99347764 -463.19226074 1511.50796509 C-450.4946974 1520.04502038 -437.68651994 1528.2431111 -423.92578125 1534.984375 C-426.46568906 1526.78141349 -429.7409367 1518.91113268 -433.01821899 1510.9826355 C-434.07466388 1508.42659154 -435.12690928 1505.86884916 -436.1784668 1503.31079102 C-439.88094412 1494.31317137 -443.61326646 1485.32846837 -447.375 1476.35546875 C-455.38292985 1457.24026793 -463.17843113 1438.12288267 -470.02624512 1418.5546875 C-471.07823885 1415.54874639 -472.13355708 1412.54397806 -473.18847656 1409.5390625 C-475.77960208 1402.15000431 -478.35423441 1394.75526553 -480.92578125 1387.359375 C-481.56129913 1385.53717438 -481.56129913 1385.53717438 -482.20965576 1383.67816162 C-483.4331724 1380.16497106 -484.64927152 1376.64929801 -485.86328125 1373.1328125 C-486.41104721 1371.5640033 -486.41104721 1371.5640033 -486.96987915 1369.96350098 C-490.10578178 1360.83518464 -492.83326655 1351.59850434 -493.92578125 1341.984375 C-495.87959876 1341.984375 -497.46129808 1344.24499556 -498.80078125 1345.484375 Z " fill="#0A0A0A" transform="translate(938.92578125,80.015625)"/>
<path d="M0 0 C0.66 0.33 1.32 0.66 2 1 C-7.24 10.24 -16.48 19.48 -26 29 C-26.66 28.67 -27.32 28.34 -28 28 C-19.10229282 18.17094403 -10.13241886 8.5863277 0 0 Z " fill="#565656" transform="translate(729,176)"/>
<path d="M0 0 C0.66 0.33 1.32 0.66 2 1 C-5.26 8.26 -12.52 15.52 -20 23 C-20.66 22.67 -21.32 22.34 -22 22 C-15.18667147 14.04231397 -7.77764703 6.996276 0 0 Z " fill="#535352" transform="translate(718,121)"/>
<path d="" fill="#FDFEF9" transform="translate(0,0)"/>
<path d="" fill="#FDFEF9" transform="translate(0,0)"/>
<path d="" fill="#FDFEF9" transform="translate(0,0)"/>
<path d="" fill="#FDFEF9" transform="translate(0,0)"/>
<path d="" fill="#FDFEF9" transform="translate(0,0)"/>
<path d="" fill="#FBFBF9" transform="translate(0,0)"/>
<path d="" fill="#F9FDFC" transform="translate(0,0)"/>
<path d="" fill="#F8F8F8" transform="translate(0,0)"/>
<path d="" fill="#F8F8F8" transform="translate(0,0)"/>
<path d="" fill="#F8F8F8" transform="translate(0,0)"/>
<path d="" fill="#FDFEF9" transform="translate(0,0)"/>
</svg>
