<?xml version="1.0" encoding="UTF-8"?>
<svg version="1.1" xmlns="http://www.w3.org/2000/svg" width="2164" height="2164">
<path d="M0 0 C5.20079485 3.6496806 6.75485233 8.2404061 8.8515625 14.0546875 C11.60551634 21.60585125 14.79919373 27.66946084 19.75 34 C20.8328125 35.5159375 20.8328125 35.5159375 21.9375 37.0625 C31.64412029 48.30174455 47.08554757 56.11384216 61.75 58 C65.1467797 58.16439566 68.53711766 58.18991397 71.9375 58.1875 C73.3447937 58.1884668 73.3447937 58.1884668 74.78051758 58.18945312 C80.48952674 58.14585399 85.80815222 57.69154108 91.39453125 56.45703125 C96.59651096 55.4476919 101.68731318 55.14802066 106.625 57.1875 C111.34282062 61.21152347 113.39911505 65.14430585 115.125 71.0625 C115.54270964 72.48445114 115.96069167 73.90632229 116.37890625 75.328125 C116.59691895 76.08158203 116.81493164 76.83503906 117.03955078 77.61132812 C117.78715028 80.12490665 118.58904394 82.61632179 119.40234375 85.109375 C126.0667586 105.78729314 126.0667586 105.78729314 122.25 114.375 C118.38007952 118.43841651 113.99329347 120.84612204 109.03125 123.3984375 C98.02166411 129.11495325 92.38461474 135.69230915 87.4375 147 C85.39302652 155.92133881 87.18804619 163.9789037 91.84765625 171.85546875 C97.48535537 179.28958725 105.90265223 182.30077916 114.75 184 C119.67696109 184.29230515 124.57076636 184.02930838 129.49609375 183.79492188 C135.90930073 183.61939351 139.5795166 184.0823645 144.75 188 C152.94022703 196.46928076 154.74744085 211.47524091 157.5625 222.5 C157.87678955 223.71695557 158.1910791 224.93391113 158.51489258 226.18774414 C161.79338926 239.34813758 161.79338926 239.34813758 159.875 246.0625 C156.69412918 250.45958613 152.44144428 252.41094569 147.75 255 C135.54350895 262.06340043 127.35827553 270.23891998 123.4375 284.125 C121.39251382 295.65128574 124.09906326 306.36255448 130.75 316 C136.78733289 324.12914119 147.26127173 329.35489952 157.0625 331.375 C160.37419621 331.84809946 163.66109145 332.05229772 167 332.1875 C168.1286145 332.23704834 168.1286145 332.23704834 169.2800293 332.28759766 C170.76521992 332.34446986 172.25133895 332.38164947 173.73754883 332.39599609 C178.93043378 332.5570064 181.92501123 333.46842041 185.75 337 C190.75936857 344.47180517 192.91233074 353.38703602 195.375 361.9375 C195.75957925 363.24438734 196.14499242 364.55102959 196.53125 365.85742188 C197.62383982 369.56604141 198.68918942 373.28215795 199.75 377 C200.05526611 378.0516333 200.36053223 379.1032666 200.67504883 380.18676758 C202.8508912 387.84912297 204.66482677 395.02850744 201.0625 402.5 C197.37472176 406.48678729 192.86296687 408.46003148 188 410.75 C175.41591109 417.04976476 167.32658008 425.40848543 162.4609375 438.7578125 C159.16427939 449.15496499 160.43225913 459.93220658 165.0390625 469.74609375 C171.37009203 480.86771514 180.00328149 487.47007835 192.11865234 491.41113281 C197.15852773 492.53900249 202.242927 492.18285296 207.375 492 C222.68624017 491.45832877 222.68624017 491.45832877 228.40136719 496.43920898 C232.58221667 500.81639319 234.19206944 505.27488331 235.625 511.0625 C235.85912598 511.94574951 236.09325195 512.82899902 236.33447266 513.73901367 C236.85657617 515.7127664 237.37096217 517.68857164 237.87890625 519.66601562 C238.67279415 522.70450587 239.50040653 525.73178831 240.34518433 528.75648499 C241.09490861 531.4411993 241.83520974 534.12846726 242.57427979 536.81613159 C242.93828436 538.13565321 243.3048982 539.45445811 243.67425537 540.77249146 C248.25777884 557.19465341 248.25777884 557.19465341 245.4375 564.3125 C242.65126499 568.74983724 240.1162411 570.43372452 235.30444336 572.64941406 C221.4980295 579.01205157 212.37669315 587.3506476 206.65625 601.75390625 C203.04214712 613.24876126 203.78176353 624.7915607 209.00390625 635.59375 C215.32104911 647.02313108 225.04769876 653.13110948 237.3046875 657.171875 C244.16503797 658.78094199 251.38382842 658.04086988 258.37109375 657.83398438 C269.5377137 657.64723006 269.5377137 657.64723006 273.75 661 C279.43931515 667.0966929 280.96839716 675.78790627 282.97241211 683.63549805 C283.5614767 685.93350799 284.17654525 688.22339716 284.79492188 690.51367188 C289.24875581 707.33781864 289.24875581 707.33781864 286.69140625 715.29296875 C284.23217803 718.72203345 281.3359894 720.38370953 277.6875 722.3125 C265.00783055 729.4754224 254.73953386 738.5240048 250.44140625 752.78515625 C248.0969583 763.68617694 249.54022569 774.12728404 255.375 783.625 C262.17294767 793.13203077 270.79407313 799.15441883 282.15478516 801.58935547 C287.87466365 802.49441997 293.70705103 802.36100667 299.48632812 802.390625 C305.33334022 802.52938073 309.40383987 802.68641978 313.75 807 C319.07746971 814.64583967 321.08718757 824.24048364 323.45458984 833.12304688 C324.12682756 835.63182039 324.82604716 838.13202703 325.52734375 840.6328125 C325.96518699 842.24695043 326.40144076 843.86152054 326.8359375 845.4765625 C327.04415131 846.21323151 327.25236511 846.94990051 327.46688843 847.70889282 C328.80393537 852.84875427 328.81724555 856.77660727 327.75 862 C324.46948303 867.15946979 320.82615783 869.24204486 315.25 871.3125 C294.19437127 879.85352436 278.99336645 895.31724308 270.0390625 916.02734375 C265.75253509 928.24939941 265.44252584 939.84653491 265.88696289 952.5690918 C266.37700225 967.85164539 266.37700225 967.85164539 261.75 973 C254.86758693 977.01086831 247.53517421 978.98753957 239.8984375 981.09765625 C238.51168613 981.48713695 237.12511962 981.87727634 235.73872375 982.26802063 C231.989131 983.32233013 228.2366549 984.36600246 224.48342514 985.40727997 C221.29857092 986.29209935 218.11534053 987.18268813 214.93203259 988.07305145 C180.92585816 997.58187276 146.84896108 1006.83040038 112.75 1016 C111.96013954 1016.21244102 111.17027908 1016.42488205 110.35648346 1016.64376068 C89.062413 1022.37093996 67.76436503 1028.08324029 46.46453857 1033.78897095 C34.29427804 1037.04926468 22.12529614 1040.31429767 9.95703125 1043.58203125 C-49.34228848 1059.5057605 -108.654304 1075.37930857 -168.02844238 1091.02203369 C-187.98774591 1096.28080576 -207.9359049 1101.57834471 -227.86941528 1106.93423462 C-251.29483893 1113.22663609 -274.74070425 1119.44126712 -298.18706131 1125.65511703 C-332.63235868 1134.78397672 -367.06760446 1143.949016 -401.48834229 1153.17004395 C-420.85154647 1158.3570531 -440.21818683 1163.53030025 -459.59765625 1168.65625 C-460.47656084 1168.88873758 -461.35546543 1169.12122517 -462.26100349 1169.36075783 C-466.67446486 1170.52812241 -471.08799725 1171.69521829 -475.5015564 1172.86221313 C-477.25103857 1173.32480506 -479.00051978 1173.78740067 -480.75 1174.25 C-482.04073614 1174.59129251 -482.04073614 1174.59129251 -483.35754776 1174.93947983 C-508.38771413 1181.55874874 -533.39389133 1188.26043021 -558.375 1195.0625 C-559.10611622 1195.261567 -559.83723244 1195.460634 -560.59050369 1195.66573334 C-562.0560284 1196.06476865 -563.52155213 1196.46380758 -564.98707485 1196.86285019 C-568.53689276 1197.82937269 -572.08676723 1198.79568712 -575.63671875 1199.76171875 C-576.31972864 1199.94758545 -577.00273853 1200.13345215 -577.70644569 1200.32495117 C-595.13238935 1205.06553751 -612.58818624 1209.69127224 -630.04858398 1214.30299377 C-644.70847473 1218.17587223 -659.362586 1222.07053937 -674.01673889 1225.96506119 C-676.50369341 1226.62598154 -678.99067639 1227.2867947 -681.47766113 1227.94760132 C-710.04639578 1235.53913686 -738.60432856 1243.17081917 -767.16017151 1250.8106842 C-797.30590233 1258.87586688 -827.45450802 1266.92887816 -857.62557983 1274.89877319 C-861.64629516 1275.96087656 -865.66694197 1277.02323886 -869.6875 1278.0859375 C-870.37664301 1278.2680887 -871.06578602 1278.45023991 -871.77581215 1278.63791084 C-894.23906987 1284.5767001 -916.68980601 1290.56273865 -939.14290237 1296.53979874 C-970.69505748 1304.93891136 -1002.2473508 1313.33733181 -1033.8125 1321.6875 C-1034.81239267 1321.95203413 -1034.81239267 1321.95203413 -1035.8324852 1322.22191238 C-1047.69652438 1325.36066665 -1059.56122093 1328.49693323 -1071.42625141 1331.63193798 C-1079.92821708 1333.87835348 -1088.42998604 1336.12551151 -1096.93143082 1338.37389755 C-1098.34700984 1338.7482748 -1099.76259563 1339.12262648 -1101.17818832 1339.49695206 C-1121.87753381 1344.97069834 -1142.56544523 1350.48606071 -1163.24586391 1356.03087139 C-1202.05501656 1366.43614328 -1240.87628751 1376.74711195 -1279.88506317 1386.38304138 C-1281.82573766 1386.8628212 -1283.76605363 1387.34405047 -1285.70635986 1387.82531738 C-1299.27716862 1391.18638353 -1312.86962121 1394.43727943 -1326.5234375 1397.4453125 C-1327.67018951 1397.70408173 -1328.81694153 1397.96285095 -1329.9984436 1398.22946167 C-1345.40443867 1401.55700525 -1345.40443867 1401.55700525 -1351.5625 1398.1875 C-1354.70885884 1395.09272081 -1355.78425832 1391.4120987 -1357.140625 1387.29296875 C-1363.52285767 1368.34852459 -1373.97085325 1353.19286535 -1392.25 1344 C-1408.79226663 1336.81283287 -1425.09884005 1337.71293831 -1442.47387695 1340.33569336 C-1446.07334122 1340.85633388 -1449.00735606 1341.27591437 -1452.4375 1339.9375 C-1453.04980469 1339.71964844 -1453.66210938 1339.50179688 -1454.29296875 1339.27734375 C-1460.38571248 1335.30064275 -1462.22681289 1330.07433234 -1463.70703125 1323.3125 C-1463.89972092 1322.49177002 -1464.09241058 1321.67104004 -1464.29093933 1320.82543945 C-1464.69276848 1319.09933745 -1465.08646882 1317.37132483 -1465.47241211 1315.64160156 C-1466.06162885 1313.00389981 -1466.67599433 1310.37305921 -1467.29492188 1307.7421875 C-1467.68377524 1306.05763344 -1468.07119404 1304.37274745 -1468.45703125 1302.6875 C-1468.63820999 1301.90608643 -1468.81938873 1301.12467285 -1469.00605774 1300.31958008 C-1471.48475552 1289.12386089 -1471.48475552 1289.12386089 -1468.26171875 1283.93359375 C-1465.28571087 1279.53077576 -1461.7102594 1277.45389106 -1457.0625 1275.0625 C-1444.73087323 1268.2126204 -1435.88043469 1260.91584393 -1431.61328125 1246.91015625 C-1430.1442806 1239.18605607 -1431.33865664 1232.46240093 -1435.62109375 1225.8984375 C-1440.82943632 1219.22876141 -1448.04319728 1215.74142987 -1456.25 1214 C-1457.90016628 1213.88984113 -1459.55354004 1213.82298186 -1461.20703125 1213.7890625 C-1462.62918945 1213.74652344 -1462.62918945 1213.74652344 -1464.08007812 1213.703125 C-1466.05645838 1213.65135341 -1468.03304766 1213.60699116 -1470.00976562 1213.5703125 C-1477.35399526 1213.33163747 -1482.16532937 1212.57278445 -1487.95703125 1207.7421875 C-1491.89680537 1202.51815981 -1492.61874358 1195.40315021 -1493.9375 1189.125 C-1494.23340347 1187.77438308 -1494.53091746 1186.42411794 -1494.83007812 1185.07421875 C-1495.39887203 1182.50254459 -1495.95766993 1179.92942835 -1496.51074219 1177.35424805 C-1497.09922438 1174.68411697 -1497.73523088 1172.04494134 -1498.43359375 1169.40234375 C-1499.17416953 1166.31602078 -1499.57783777 1163.6020859 -1499.625 1160.4375 C-1499.65335938 1159.56996094 -1499.68171875 1158.70242188 -1499.7109375 1157.80859375 C-1498.90359084 1152.88925264 -1497.14800658 1149.43138329 -1493.19140625 1146.44750977 C-1490.68770568 1144.90289629 -1488.14463343 1143.47187725 -1485.5625 1142.0625 C-1473.90252458 1135.34255702 -1464.59397861 1129.4402045 -1460.25 1116 C-1458.84141097 1107.35452964 -1460.13532508 1100.15275605 -1465.25 1093 C-1470.3229952 1087.03858686 -1477.55736913 1083.56355268 -1485.29125977 1082.63476562 C-1488.51060587 1082.49339813 -1491.71510334 1082.43942842 -1494.9375 1082.4375 C-1511.00167113 1082.37092262 -1511.00167113 1082.37092262 -1517.4140625 1076.390625 C-1521.70868286 1070.95172373 -1522.71542006 1063.7556381 -1524.12060547 1057.12255859 C-1524.62197405 1054.76423341 -1525.15773041 1052.41580663 -1525.69921875 1050.06640625 C-1530.14490521 1030.26353672 -1530.14490521 1030.26353672 -1526.75 1022.625 C-1523.57859163 1019.29502121 -1520.23693312 1017.23923641 -1516.25 1015 C-1504.61441878 1008.24848991 -1494.28419923 1000.52643271 -1490.25 987 C-1489.30729579 979.3876635 -1490.26215908 972.62004186 -1494.25 966 C-1500.51431313 958.30594952 -1509.64725824 955.21867933 -1519.25 954 C-1523.70957279 953.77047672 -1528.17421147 953.65670151 -1532.63867188 953.5703125 C-1537.62460291 953.39973182 -1541.22463039 953.26047212 -1545.25 950 C-1545.79914063 949.60554688 -1546.34828125 949.21109375 -1546.9140625 948.8046875 C-1549.05671578 945.91022606 -1549.74002012 942.56106422 -1550.625 939.125 C-1550.83342529 938.33851074 -1551.04185059 937.55202148 -1551.2565918 936.74169922 C-1551.7004846 935.04936826 -1552.13834829 933.35544671 -1552.57080078 931.66015625 C-1553.02806647 929.86922635 -1553.49273253 928.08017148 -1553.96435547 926.29296875 C-1560.63879997 900.95454808 -1560.63879997 900.95454808 -1556.5625 892.5 C-1552.69324064 888.31701691 -1548.80836075 885.63872524 -1543.625 883.3125 C-1533.85388394 878.51730371 -1525.34323471 872.39204736 -1521.25 862 C-1518.96625202 854.95471211 -1519.07629057 845.86390999 -1521.8125 839 C-1525.71327585 831.69958965 -1531.4614225 828.50993867 -1539.07788086 825.82739258 C-1544.66924675 824.3689812 -1550.25243116 824.48090509 -1556 824.5 C-1570.70119522 824.54820064 -1570.70119522 824.54820064 -1576.25 820 C-1578.95774305 815.40796102 -1580.18455588 810.88944735 -1581.29296875 805.7421875 C-1581.46629227 804.95788361 -1581.63961578 804.17357971 -1581.81819153 803.36550903 C-1582.18102931 801.71072069 -1582.53965424 800.0550036 -1582.89428711 798.3984375 C-1583.43210067 795.90008203 -1583.99154391 793.40725651 -1584.55273438 790.9140625 C-1589.35334549 769.08973532 -1589.35334549 769.08973532 -1585.86694336 762.31079102 C-1582.56309583 757.58922724 -1578.04952106 755.24275281 -1573 752.6875 C-1563.06664753 747.4233844 -1552.3729876 740.5577911 -1548.72265625 729.30078125 C-1547.20378153 721.9072506 -1547.35026441 715.16622599 -1551.27734375 708.62109375 C-1552.25 707 -1552.25 707 -1553.25 704 C-1555.11852075 702.91708669 -1555.11852075 702.91708669 -1557.25 702 C-1558.39911762 701.19215165 -1559.5448192 700.3794277 -1560.6875 699.5625 C-1569.71657176 693.95027989 -1580.82310628 693.54440476 -1591.18261719 692.8215332 C-1597.66106008 692.30518206 -1602.88713517 691.57317217 -1607.48828125 686.5625 C-1609.96768278 681.54872129 -1611.17496834 676.4305258 -1612.4375 671 C-1612.69724609 669.93265625 -1612.95699219 668.8653125 -1613.22460938 667.765625 C-1617.9404966 648.17093078 -1617.9404966 648.17093078 -1615.1875 639.75 C-1611.23104064 634.13438027 -1606.34048138 630.98561327 -1600.375 627.6875 C-1590.89312591 622.28793465 -1583.11756998 614.73221311 -1579.64453125 604.15625 C-1577.81595184 594.16242984 -1578.98472019 585.7546246 -1584.34765625 577.26171875 C-1588.69151946 571.32755985 -1594.65315448 569.13858334 -1601.625 567.75 C-1607.70153701 566.84432506 -1613.71914494 566.89629197 -1619.84326172 567.16113281 C-1625.0000314 567.30485168 -1628.65981283 566.62688131 -1633.25 564 C-1637.50076824 559.67758055 -1639.18955305 556.06648952 -1640.26953125 550.07421875 C-1640.41782883 549.32719193 -1640.5661264 548.5801651 -1640.71891785 547.8105011 C-1641.02726239 546.23805568 -1641.32680066 544.66386016 -1641.61791992 543.08813477 C-1642.06004118 540.70077711 -1642.5304604 538.32038301 -1643.00585938 535.93945312 C-1646.70167717 517.05134084 -1646.70167717 517.05134084 -1643.640625 510.6171875 C-1640.88868714 507.60444507 -1638.8063599 506.55017196 -1635 505.125 C-1633.74584859 504.62626923 -1632.49330062 504.12349187 -1631.2421875 503.6171875 C-1630.58959961 503.35647461 -1629.93701172 503.09576172 -1629.26464844 502.82714844 C-1609.30354814 494.63177667 -1594.12555789 482.59203537 -1585.46484375 462.17578125 C-1579.94845126 447.75511535 -1578.95451214 431.10015969 -1581.0625 415.8125 C-1581.54276316 411.37980085 -1581.54276316 411.37980085 -1578.9375 408 C-1568.87849526 401.76392509 -1556.30115564 399.14118765 -1545.0625 395.8125 C-1544.04196533 395.50977173 -1543.02143066 395.20704346 -1541.9699707 394.8951416 C-1485.35787754 378.14947048 -1428.03923597 364.02075933 -1370.78979492 349.65618896 C-1352.9734978 345.18551075 -1335.16551678 340.68269082 -1317.36202621 336.16131592 C-1311.7402217 334.73374687 -1306.11812329 333.30733535 -1300.49603844 331.88087082 C-1299.09765696 331.52606005 -1297.69928175 331.17122464 -1296.30091286 330.81636429 C-1285.6779399 328.12070139 -1275.05317443 325.43217863 -1264.42746925 322.74730682 C-1256.93065745 320.85298599 -1249.43404401 318.95788028 -1241.9375 317.0625 C-1241.11229229 316.85387077 -1240.28708458 316.64524155 -1239.43687057 316.43029022 C-1215.15525853 310.29080867 -1190.88924236 304.09304839 -1166.63460922 297.84788513 C-1142.98387731 291.75841232 -1119.32100536 285.72354263 -1095.625 279.8125 C-1094.97108654 279.64935932 -1094.31717308 279.48621864 -1093.64344406 279.31813431 C-1083.19752203 276.71240772 -1072.74987648 274.11361704 -1062.30203247 271.51560974 C-1052.49220592 269.07617581 -1042.68295991 266.63442919 -1032.875 264.1875 C-1031.89175814 263.94222628 -1031.89175814 263.94222628 -1030.8886528 263.69199753 C-1007.25984686 257.79628537 -983.66691236 251.76558874 -960.08407593 245.68887329 C-941.56648634 240.91751595 -923.04187985 236.17618252 -904.5 231.5 C-903.58358419 231.26887827 -902.66716839 231.03775654 -901.72298241 230.79963112 C-897.07455119 229.62744819 -892.42600948 228.45570396 -887.7774353 227.28408813 C-860.28299045 220.353938 -832.80102298 213.38422846 -805.375 206.1875 C-804.72100471 206.0158923 -804.06700943 205.84428459 -803.39319611 205.66747665 C-796.2489763 203.79233009 -789.10592818 201.91274964 -781.96337891 200.03125 C-769.5024969 196.74885784 -757.03845189 193.47854004 -744.57287979 190.21400833 C-743.23317964 189.86314762 -741.89349609 189.51222349 -740.55382919 189.16123581 C-717.45250194 183.10896784 -694.32441549 177.1645827 -671.1875 171.25 C-635.85481445 162.21768442 -600.57479821 152.99168785 -565.30917358 143.70135498 C-555.00230077 140.98628123 -544.69356141 138.27844093 -534.3828125 135.578125 C-533.72154547 135.40492989 -533.06027843 135.23173477 -532.37897301 135.05329132 C-529.12667032 134.20147046 -525.87435564 133.34969543 -522.62203979 132.4979248 C-503.33324543 127.44514484 -484.05159318 122.3666163 -464.78121948 117.24404907 C-442.65352024 111.36263642 -420.51441713 105.52461412 -398.375 99.6875 C-397.40761902 99.43244312 -396.44023804 99.17738625 -395.44354248 98.91460037 C-386.47709736 96.55055117 -377.51060956 94.18666385 -368.54406738 91.82298279 C-355.40493309 88.35932176 -342.26611518 84.89446325 -329.12757111 81.42856407 C-326.15274249 80.64382152 -323.17790463 79.85911401 -320.20306396 79.07441711 C-311.42932829 76.76008363 -302.65562643 74.44562231 -293.88207626 72.13058567 C-260.28461617 63.26567283 -260.28461617 63.26567283 -244 59.00390625 C-217.40494409 52.04022283 -190.85082848 44.93566877 -164.31253052 37.75927734 C-135.34445697 29.92588275 -106.36945375 22.12660967 -77.33073425 14.55859756 C-75.24133814 14.014032 -73.15209348 13.46888846 -71.06286621 12.92367554 C-63.43073022 10.93318541 -55.79432421 8.95985754 -48.15350342 7.00292969 C-45.41434877 6.30057395 -42.67687879 5.59200234 -39.94024658 4.87988281 C-36.27533835 3.92636476 -32.60803882 2.98258454 -28.93902779 2.04498291 C-27.54392371 1.68679005 -26.14964774 1.3253533 -24.75629997 0.96038818 C-6.12692526 -3.91299428 -6.12692526 -3.91299428 0 0 Z M-21.18432617 24.81347656 C-21.95441513 25.01877487 -22.72450409 25.22407318 -23.51792908 25.43559265 C-24.35119217 25.66825333 -25.18445526 25.900914 -26.04296875 26.140625 C-26.92275894 26.37799881 -27.80254913 26.61537262 -28.70899963 26.85993958 C-31.62097991 27.64778524 -34.52909836 28.44905414 -37.4375 29.25 C-39.50070622 29.81016012 -41.56418726 30.36930885 -43.62792969 30.92749023 C-47.84558839 32.0696474 -52.06185353 33.21672927 -56.27685547 34.36865234 C-63.73668429 36.40729983 -71.20142251 38.42742045 -78.66946411 40.4357605 C-80.23393335 40.85648548 -81.79828326 41.27765443 -83.36251831 41.69924927 C-95.90167123 45.07633179 -108.46280203 48.36683022 -121.03125 51.6328125 C-121.82411659 51.83888815 -122.61698318 52.0449638 -123.43387604 52.25728416 C-131.46377688 54.34405906 -139.49439923 56.42800887 -147.52686119 58.50490475 C-163.27195739 62.57723337 -178.99089351 66.71482928 -194.66018677 71.07145691 C-207.51470146 74.64206917 -220.41050747 78.05308189 -233.3104248 81.45528412 C-236.91167175 82.40543426 -240.51243407 83.35741822 -244.11328125 84.30908203 C-252.10468724 86.42070656 -260.09677074 88.52975888 -268.08898926 90.63830566 C-273.40937328 92.04197403 -278.7295953 93.44625584 -284.04980469 94.85058594 C-332.60016993 107.66555745 -381.1570126 120.4558795 -429.71825027 133.22958374 C-440.45056071 136.05264756 -451.18261132 138.8766981 -461.91455078 141.70117188 C-466.46752335 142.89942074 -471.02058951 144.09731305 -475.57373047 145.29492188 C-487.09573268 148.32582658 -498.61685666 151.36000162 -510.13630676 154.40058899 C-517.92380717 156.45606637 -525.71175229 158.50985609 -533.5 160.5625 C-534.28951176 160.77058163 -535.07902351 160.97866325 -535.89245987 161.19305038 C-564.71508069 168.78809228 -593.56466709 176.27664117 -622.42434692 183.72949219 C-643.9432761 189.28666882 -665.45198032 194.87724039 -686.9375 200.5625 C-717.74425336 208.71088569 -748.62435796 216.57197948 -779.49844933 224.46035576 C-796.08258856 228.69780118 -812.66079913 232.95798917 -829.23585129 237.23082733 C-831.91643034 237.92178097 -834.59708922 238.61242465 -837.27774525 239.30307961 C-849.44667452 242.43843689 -861.61482938 245.57677448 -873.78136826 248.72139549 C-881.56218839 250.7324434 -889.34336401 252.74211121 -897.125 254.75 C-897.81985504 254.92929802 -898.51471008 255.10859604 -899.23062134 255.29332733 C-918.7409514 260.32669424 -938.26955072 265.28028639 -957.82424927 270.13882446 C-980.83189086 275.85840071 -1003.79192951 281.76055936 -1026.75 287.67529297 C-1080.33200643 301.4781451 -1133.98323415 315.00617351 -1187.64356661 328.50058746 C-1190.39714481 329.19306907 -1193.15070541 329.88562066 -1195.90426254 330.57818604 C-1256.5707306 345.83639107 -1317.25321266 361.02551949 -1377.99835587 375.96800327 C-1384.14777011 377.48115784 -1390.29579173 378.99985068 -1396.44287109 380.52246094 C-1438.59745808 390.96218168 -1480.87173019 400.78206376 -1523.25 410.27490234 C-1524.22901464 410.4942148 -1525.20802929 410.71352726 -1526.21671104 410.93948555 C-1530.82837486 411.97214912 -1535.4404002 413.0031495 -1540.0531311 414.03103638 C-1540.88756241 414.21734934 -1541.72199371 414.4036623 -1542.58171082 414.59562111 C-1544.11273154 414.93744868 -1545.64392407 415.27850822 -1547.17533875 415.61856651 C-1551.88701453 416.67149182 -1556.57015098 417.81335958 -1561.25 419 C-1561.04503906 419.7528125 -1560.84007812 420.505625 -1560.62890625 421.28125 C-1555.00379424 443.4587251 -1557.14372543 463.88968547 -1568.40234375 483.96875 C-1571.03532486 488.28839766 -1573.96311135 492.1618512 -1577.25 496 C-1577.91644531 496.81082031 -1578.58289062 497.62164063 -1579.26953125 498.45703125 C-1590.35479636 511.45974763 -1604.22016195 518.47100809 -1619.25 526 C-1617.93 530.95 -1616.61 535.9 -1615.25 541 C-1614.02925781 541.09796875 -1612.80851562 541.1959375 -1611.55078125 541.296875 C-1593.25700403 542.89946728 -1577.0795578 546.90656383 -1564.25 561 C-1555.69832661 572.47546686 -1551.60692943 586.74887772 -1553.25 601 C-1556.71437864 619.72321488 -1565.89209538 633.95250472 -1581.35546875 645.02734375 C-1584.30722565 647.03899993 -1587.27179449 649.02776613 -1590.25 651 C-1589.96410149 652.70930812 -1589.67098242 654.41740912 -1589.375 656.125 C-1589.21257812 657.07632813 -1589.05015625 658.02765625 -1588.8828125 659.0078125 C-1588.22737066 662.10700044 -1587.30397821 665.01520457 -1586.25 668 C-1584.98027344 668.15855469 -1583.71054688 668.31710937 -1582.40234375 668.48046875 C-1563.24120248 671.01559487 -1545.11530901 675.36977809 -1532.25 691 C-1524.01555276 702.56565544 -1520.77108238 715.06415043 -1522.67578125 729.1484375 C-1525.74913817 744.72262656 -1534.45643993 757.61224864 -1547.3125 766.875 C-1551.81596374 769.83686601 -1556.47703332 772.49822761 -1561.25 775 C-1560.02409993 783.13420754 -1558.3642355 791.05047454 -1556.25 799 C-1554.65285156 799.03867188 -1554.65285156 799.03867188 -1553.0234375 799.078125 C-1535.16035246 799.69701984 -1519.70933725 804.00736553 -1506.47265625 816.59375 C-1497.70483483 826.08580271 -1493.41165714 838.67556194 -1493.86328125 851.5390625 C-1495.87377502 869.53196638 -1503.0418896 884.63569896 -1517.1875 896.3125 C-1521.97094953 899.95452986 -1527.02956177 903.03198694 -1532.25 906 C-1531.44341879 909.64716915 -1530.62874982 913.2924836 -1529.8125 916.9375 C-1529.58240234 917.97841797 -1529.35230469 919.01933594 -1529.11523438 920.09179688 C-1528.89287109 921.08115234 -1528.67050781 922.07050781 -1528.44140625 923.08984375 C-1528.13505249 924.46450806 -1528.13505249 924.46450806 -1527.82250977 925.86694336 C-1527.44918053 927.96736505 -1527.44918053 927.96736505 -1526.25 929 C-1524.04339979 929.1360233 -1521.83433905 929.23245148 -1519.625 929.3125 C-1503.09400565 930.213865 -1487.65604299 935.58056566 -1476.25 948 C-1466.78180931 959.99929117 -1464.024074 973.04672983 -1465.25 988 C-1467.05222414 1000.57088576 -1472.74627073 1009.98377757 -1481.4921875 1019.00390625 C-1483.47029757 1020.80686768 -1483.47029757 1020.80686768 -1483.25 1023 C-1483.81976562 1023.25910156 -1484.38953125 1023.51820313 -1484.9765625 1023.78515625 C-1487.45336264 1025.10866972 -1489.45032651 1026.66342426 -1491.625 1028.4375 C-1495.05077967 1031.15547395 -1498.24946412 1033.25617667 -1502.25 1035 C-1501.02048326 1042.47835477 -1499.36170763 1049.7216477 -1497.25 1057 C-1496.18523437 1057.02578125 -1495.12046875 1057.0515625 -1494.0234375 1057.078125 C-1475.69852636 1057.71097047 -1459.51245986 1062.22986135 -1446.578125 1076.01953125 C-1437.69295316 1087.39434016 -1433.37698305 1100.11718596 -1434.53515625 1114.5546875 C-1437.51411323 1131.95495276 -1447.2421314 1146.71828473 -1461.46020508 1156.92993164 C-1465.25834688 1159.55776261 -1469.06081945 1162.04168427 -1473.25 1164 C-1471.87469483 1172.07385038 -1470.14968355 1180.03399365 -1468.25 1188 C-1466.94289063 1188.05607422 -1466.94289063 1188.05607422 -1465.609375 1188.11328125 C-1453.98200495 1188.75505167 -1444.31155971 1190.74036557 -1433.875 1195.875 C-1432.87557373 1196.36625366 -1432.87557373 1196.36625366 -1431.85595703 1196.86743164 C-1420.78077237 1202.56932769 -1413.13600903 1212.28569148 -1408.75 1223.875 C-1404.38295457 1237.5914927 -1405.77636383 1252.23957616 -1411.875 1265.25 C-1419.34649126 1278.99088615 -1430.08664479 1288.03907378 -1443.25 1296 C-1442.2111908 1302.1112924 -1441.09269722 1308.07704464 -1439.25 1314 C-1438.36699219 1313.9278125 -1437.48398438 1313.855625 -1436.57421875 1313.78125 C-1432.80092813 1313.48943805 -1429.02728373 1313.23437128 -1425.25 1313 C-1424.34378906 1312.94328125 -1423.43757813 1312.8865625 -1422.50390625 1312.828125 C-1399.02143216 1312.0954425 -1375.72206099 1320.9931519 -1358.60791016 1336.98632812 C-1348.48735487 1346.92797776 -1341.70393841 1357.93520748 -1336.44140625 1371.0390625 C-1335.47567886 1373.43913253 -1334.42316023 1375.69947951 -1333.25 1378 C-1325.08038637 1375.85220876 -1317.0357659 1373.39095373 -1308.984375 1370.83984375 C-1294.27563945 1366.23161105 -1279.44820358 1362.11685045 -1264.56318665 1358.11762619 C-1258.74578517 1356.55238151 -1252.93207758 1354.97340949 -1247.11769867 1353.39698219 C-1245.62134009 1352.99137004 -1244.12492579 1352.58596341 -1242.62845612 1352.18076134 C-1232.34543113 1349.3963268 -1222.07347615 1346.5756214 -1211.8125 1343.7109375 C-1210.55920395 1343.36110306 -1209.3059079 1343.01126862 -1208.01463318 1342.65083313 C-1206.75611038 1342.29949814 -1205.49758759 1341.94816315 -1204.20092773 1341.58618164 C-1143.84336077 1324.73728009 -1083.20561754 1308.90825674 -1022.59603882 1292.99523926 C-1003.37231015 1287.94766384 -984.16428447 1282.84938038 -964.98843384 1277.6222229 C-946.70310848 1272.63869954 -928.38573622 1267.77928633 -910.0625 1262.9375 C-909.32169819 1262.74173622 -908.58089638 1262.54597244 -907.81764603 1262.34427643 C-904.11484041 1261.36579124 -900.41201289 1260.38738894 -896.70918274 1259.40899658 C-895.99044794 1259.21908394 -895.27171314 1259.0291713 -894.5311985 1258.83350372 C-893.09060021 1258.4528622 -891.64999634 1258.07224181 -890.20938683 1257.69164276 C-878.36404331 1254.56201594 -866.52373209 1251.41391284 -854.6875 1248.25 C-840.59737 1244.48395172 -826.50151953 1240.73982898 -812.40234375 1237.0078125 C-810.67793676 1236.5513295 -808.95353085 1236.09484244 -807.22912598 1235.63835144 C-806.36186764 1235.40876897 -805.4946093 1235.1791865 -804.6010704 1234.94264698 C-774.24181214 1226.9058036 -743.88771844 1218.85196017 -713.5625 1210.6875 C-691.9254008 1204.86273694 -670.28166315 1199.06413965 -648.625 1193.3125 C-647.95780441 1193.13526146 -647.29060883 1192.95802292 -646.60319519 1192.77541351 C-632.21392854 1188.95307931 -617.82149435 1185.1433273 -603.41796875 1181.375 C-574.12618509 1173.70845255 -544.89074314 1165.8546512 -515.67709351 1157.89654541 C-488.33985184 1150.44998475 -460.97863275 1143.09886818 -433.59661961 1135.81877327 C-429.75053093 1134.79614973 -425.90452831 1133.77320301 -422.05859375 1132.75 C-421.30770163 1132.55024441 -420.5568095 1132.35048882 -419.78316307 1132.14468002 C-409.04789663 1129.2879319 -398.31971081 1126.40593163 -387.59765625 1123.5 C-386.92962793 1123.31898239 -386.26159962 1123.13796478 -385.57332802 1122.95146179 C-382.25088375 1122.05110883 -378.92851799 1121.15046643 -375.60617065 1120.24975586 C-374.29995005 1119.89565968 -372.99372652 1119.54157435 -371.6875 1119.1875 C-371.04540211 1119.01344635 -370.40330421 1118.8393927 -369.74174881 1118.6600647 C-348.98759016 1113.03582414 -328.19214961 1107.58920419 -307.3661499 1102.2376709 C-291.64700431 1098.19677963 -275.96146082 1094.0618467 -260.31484985 1089.74905396 C-239.66531132 1084.0620415 -218.95618812 1078.60118185 -198.25 1073.125 C-190.97120036 1071.19979977 -183.69249554 1069.27424202 -176.4140625 1067.34765625 C-175.53040575 1067.11375938 -174.646749 1066.87986252 -173.73631477 1066.63887787 C-157.67022948 1062.38525386 -141.61940676 1058.07696259 -125.57617188 1053.73791504 C-108.82039143 1049.20799358 -92.03974499 1044.77723579 -75.25 1040.375 C-59.16672839 1036.1571109 -43.09589716 1031.90382551 -27.0625 1027.5 C61.31548337 1003.23266455 149.93919387 979.62773474 238.75 957 C239.54861418 953.2706557 239.80021036 950.0049508 239.6875 946.1875 C239.5744668 921.09412959 247.68455524 898.3115449 263.75 879 C264.4821875 878.11570312 265.214375 877.23140625 265.96875 876.3203125 C275.76175024 864.97560447 287.46606197 857.64196901 300.75 851 C299.9769279 838.0884162 299.9769279 838.0884162 294.75 827 C293.33201328 826.82099812 291.90655756 826.70033021 290.48046875 826.60546875 C269.43180284 825.03094713 253.48562359 819.72111828 238.78125 803.87890625 C227.1510647 789.97879443 223.53969547 772.95089171 224.53857422 755.28613281 C226.24709572 736.81200421 237.61473734 722.10645647 251.05078125 710.20703125 C254.45968581 707.41972144 257.92127793 705.16720117 261.75 703 C261.10720991 700.20760027 260.46091335 697.41609416 259.8125 694.625 C259.63009766 693.8309375 259.44769531 693.036875 259.25976562 692.21875 C259.08251953 691.45820312 258.90527344 690.69765625 258.72265625 689.9140625 C258.56031494 689.2123291 258.39797363 688.5105957 258.23071289 687.78759766 C257.7911926 685.91605426 257.7911926 685.91605426 256.75 684 C253.88299637 683.61773285 251.06782563 683.34389253 248.1875 683.125 C226.25663911 681.1006764 207.49680854 674.0990602 192.75 657 C181.85606398 642.5275985 177.08057802 625.51240094 179.14453125 607.5703125 C182.28296268 588.41575679 192.19005033 571.74740458 207.75 560 C211.97948915 557.16170845 216.34673049 554.55893252 220.75 552 C219.65314331 547.66478306 218.54620432 543.33220077 217.4375 539 C217.12876953 537.77925781 216.82003906 536.55851563 216.50195312 535.30078125 C214.89456695 529.0404351 213.1835732 522.99033403 210.75 517 C209.0175 517.061875 209.0175 517.061875 207.25 517.125 C186.19726858 517.02585056 168.48941347 510.788343 152.96875 496.25 C140.87125176 483.98211446 135.40758757 467.78323388 135.3125 450.75 C135.6199763 432.87110214 142.9777313 415.65215332 155.75 403 C160.82270979 398.70872592 166.0585332 394.8020245 171.9375 391.6875 C174.79253809 390.33890033 174.79253809 390.33890033 175.51318359 388.29956055 C175.83981441 385.12787428 175.13866479 382.60650909 174.3515625 379.51953125 C174.03703125 378.27365234 173.7225 377.02777344 173.3984375 375.74414062 C173.23053711 375.09936768 173.06263672 374.45459473 172.88964844 373.7902832 C172.37465996 371.81119324 171.87369649 369.82895429 171.375 367.84570312 C170.37856926 362.01544256 170.37856926 362.01544256 167.75 357 C165.84270699 356.80459804 163.93461703 356.61506747 162.02392578 356.45629883 C142.93829832 354.81500479 126.12356094 348.13975454 112.75 334 C107.4617557 327.62725247 103.73648999 320.70142473 100.75 313 C100.42902344 312.195625 100.10804687 311.39125 99.77734375 310.5625 C94.53593173 294.96015723 97.28128077 279.32397098 104.2421875 264.91015625 C106.92921245 259.72405887 109.92417642 255.3884447 113.75 251 C113.75 250.34 113.75 249.68 113.75 249 C114.33265625 248.73832031 114.9153125 248.47664062 115.515625 248.20703125 C117.87304985 246.93352727 119.54342157 245.51067536 121.5 243.6875 C125.31295868 240.26157096 129.3182613 237.55767898 133.75 235 C133.12392048 229.20052651 132.07599062 223.66190169 130.6875 218 C130.4080957 216.83791016 130.4080957 216.83791016 130.12304688 215.65234375 C129.66923822 213.76729241 129.21017508 211.8835073 128.75 210 C128.1516333 209.96036133 127.5532666 209.92072266 126.93676758 209.87988281 C107.1497734 208.5041233 89.17657051 205.9110824 74.8515625 190.6484375 C64.73857154 177.9038132 60.08286925 164.2623886 61.75 148 C65.31801539 127.7812461 77.58635483 114.46954769 93.78515625 103.0546875 C94.76355469 102.37664062 95.74195313 101.69859375 96.75 101 C96.28704278 95.98888477 95.7458971 91.24820409 94.1875 86.4375 C93.91808594 85.59058594 93.64867187 84.74367188 93.37109375 83.87109375 C93.16613281 83.25363281 92.96117187 82.63617188 92.75 82 C91.47125 82.165 90.1925 82.33 88.875 82.5 C60.62682265 85.20927512 34.07211897 79.62633837 11.68359375 61.45703125 C0.47423096 52.06863019 -7.30532549 41.08474561 -12.08203125 27.23046875 C-13.00845783 24.85991991 -13.00845783 24.85991991 -15.07710266 24.30975342 C-17.44062994 23.9728251 -18.89194217 24.18708973 -21.18432617 24.81347656 Z " fill="#0C0C0C" transform="translate(1757.25,389)"/>
<path d="M0 0 C21.59185332 16.60911794 26.90431642 40.82953287 33.46484375 65.9296875 C34.0436804 68.1288561 34.62295252 70.32791012 35.20263672 72.52685547 C37.80376668 82.40363334 40.3850962 92.28558823 42.96484375 102.16796875 C43.79799772 105.35942187 44.63132193 108.55083043 45.46484375 111.7421875 C45.67606873 112.55117493 45.8872937 113.36016235 46.10491943 114.19366455 C56.992978 155.86557475 68.20941067 197.45441157 79.57421875 238.99853516 C84.56870893 257.25984316 89.51529851 275.53384851 94.45033264 293.81129074 C96.37260478 300.93032753 98.29564057 308.04915811 100.21875 315.16796875 C100.4313937 315.95512331 100.6440374 316.74227787 100.86312485 317.5532856 C105.57482386 334.99388514 110.29650173 352.43177094 115.02734375 369.8671875 C115.22445953 370.59369507 115.42157532 371.32020264 115.62466431 372.06872559 C121.58309499 394.02779012 127.58613681 415.97425848 133.6161499 437.91378784 C139.77367742 460.3247713 145.85147571 482.75693974 151.91324615 505.19399261 C159.46876451 533.15997849 167.05285539 561.11766785 174.71484375 589.0546875 C174.91971531 589.80178608 175.12458687 590.54888466 175.33566666 591.31862259 C179.29702745 605.76394035 183.26472533 620.2075148 187.23552704 634.65023994 C195.8564727 666.00738934 204.43963725 697.37270378 212.73309326 728.81842041 C213.322205 731.05036038 213.91302484 733.28184095 214.50439453 735.51318359 C215.51765265 739.33805175 216.52360595 743.16480881 217.52734375 746.9921875 C217.94717529 748.57906372 217.94717529 748.57906372 218.37548828 750.19799805 C223.26102424 768.97943462 223.60980263 789.37122958 214.58984375 806.9921875 C199.6895551 831.90069008 177.27973726 840.18379719 150.515625 847.12890625 C149.11030996 847.49762834 147.70511639 847.86681366 146.30003357 848.23641968 C143.31082097 849.02177754 140.32084709 849.80413681 137.3302002 850.58401489 C132.54921126 851.83083735 127.77007179 853.08464882 122.99121094 854.33959961 C118.02129062 855.64442651 113.05127783 856.94889299 108.08065796 858.25105286 C93.13786163 862.16583702 78.20393634 866.11369198 63.27243042 870.07128906 C59.05040988 871.19027939 54.82808915 872.30813403 50.60571289 873.42578125 C38.1101848 876.73348954 25.61524809 880.04340642 13.12185669 883.35917664 C6.27815298 885.17548071 -0.5658932 886.99049238 -7.41015625 888.8046875 C-8.08895592 888.98462627 -8.76775558 889.16456505 -9.46712494 889.34995651 C-38.7758073 897.1181322 -68.11046111 904.78666317 -97.45019722 912.43661976 C-101.92394684 913.60312984 -106.39757121 914.77011939 -110.87109375 915.9375 C-111.73934406 916.16407225 -112.60759438 916.39064449 -113.5021553 916.62408257 C-124.22980086 919.42459644 -134.95017537 922.24975639 -145.66015625 925.1171875 C-157.24570885 928.21903935 -168.84427237 931.26851669 -180.44921875 934.296875 C-181.31862909 934.52375504 -182.18803944 934.75063507 -183.08379555 934.98439026 C-187.60326638 936.16359136 -192.12287882 937.34224881 -196.64254761 938.52069092 C-225.80812427 946.12573239 -254.96496549 953.76209022 -284.09765625 961.4921875 C-305.69104563 967.22143235 -327.29409477 972.91156886 -348.91015625 978.5546875 C-371.29339359 984.39867221 -393.66831468 990.27325346 -416.03515625 996.1796875 C-417.51673259 996.5708766 -418.99831015 996.96206107 -420.47988892 997.35324097 C-433.32573332 1000.7450306 -446.1711539 1004.1384248 -459.01641846 1007.53240967 C-472.37638868 1011.0623453 -485.73678474 1014.59066477 -499.09765625 1018.1171875 C-500.06367516 1018.37219151 -501.02969406 1018.62719551 -502.02498627 1018.88992691 C-529.46711687 1026.13360816 -556.92319363 1033.32084897 -584.39601898 1040.44715881 C-607.69737343 1046.49208928 -630.96835378 1052.64381649 -654.22265625 1058.8671875 C-681.49132165 1066.16452872 -708.78412251 1073.36460179 -736.09765625 1080.4921875 C-737.01576206 1080.73179577 -737.93386787 1080.97140404 -738.87979507 1081.21827316 C-747.24448413 1083.40123188 -755.60938067 1085.58339471 -763.97450256 1087.76469421 C-783.0734537 1092.74510914 -802.16924491 1097.73756939 -821.26330185 1102.73671341 C-823.9048928 1103.42830947 -826.5465165 1104.11978035 -829.18814087 1104.81124878 C-853.60272267 1111.20269866 -878.00418984 1117.64228476 -902.39729691 1124.11515808 C-924.55970736 1129.99563508 -946.74401904 1135.78627947 -968.94750977 1141.51000977 C-993.02258215 1147.71711205 -1017.07460243 1154.01121119 -1041.12533379 1160.31179237 C-1050.9621097 1162.88873199 -1060.8003158 1165.46013853 -1070.63968086 1168.027174 C-1076.28684697 1169.50059377 -1081.93377673 1170.97491916 -1087.58069229 1172.44929886 C-1089.64827881 1172.98908664 -1091.71590856 1173.52870863 -1093.78353882 1174.06832886 C-1107.02168789 1177.52399604 -1120.2565217 1180.99024542 -1133.46484375 1184.55859375 C-1134.43101624 1184.81942749 -1135.39718872 1185.08026123 -1136.39263916 1185.34899902 C-1140.73911363 1186.52381331 -1145.08384712 1187.70451177 -1149.42578125 1188.89599609 C-1172.05719755 1195.07312383 -1193.02844836 1196.93389381 -1214.56640625 1185.5859375 C-1235.95276969 1172.85023792 -1245.15328646 1151.62904171 -1251.078125 1128.5 C-1252.18648037 1124.09457965 -1253.27393466 1119.68434289 -1254.35112381 1115.2712326 C-1254.85496444 1113.21232309 -1255.36304919 1111.15450603 -1255.87252808 1109.09698486 C-1262.71559596 1081.4593265 -1269.20320773 1053.73750684 -1275.66748047 1026.00927734 C-1280.34704025 1005.93942262 -1285.09469184 985.88993475 -1289.97265625 965.8671875 C-1297.12494949 936.49575876 -1304.07621627 907.07776048 -1311.02211285 877.65694332 C-1312.19682333 872.68140214 -1313.37175219 867.70591257 -1314.546875 862.73046875 C-1314.77411821 861.76827234 -1315.00136143 860.80607594 -1315.2354908 859.81472206 C-1318.84069951 844.55253528 -1322.48117387 829.29927794 -1326.16015625 814.0546875 C-1330.58937647 795.69821016 -1334.88655343 777.3126432 -1339.15859985 758.91900635 C-1343.93872794 738.35209615 -1348.83476362 717.81465874 -1353.77985001 697.28683853 C-1360.30278521 670.20798264 -1366.74703553 643.11199051 -1373.09765625 615.9921875 C-1373.29337975 615.15652756 -1373.48910324 614.32086761 -1373.69075775 613.45988464 C-1376.48127194 601.54513213 -1379.26779086 589.62944658 -1382.05323792 577.71350861 C-1385.32263935 563.72741616 -1388.59348359 549.74166298 -1391.86901093 535.75700378 C-1392.27052303 534.04271287 -1392.67197696 532.32840832 -1393.07337189 530.61408997 C-1397.25360856 512.76143486 -1401.44701212 494.91243248 -1405.75390625 477.08984375 C-1405.91479925 476.42400583 -1406.07569225 475.75816792 -1406.2414608 475.07215309 C-1407.86043328 468.37565987 -1409.48676754 461.68099123 -1411.12231445 454.98852539 C-1412.65627383 448.70309409 -1414.16418419 442.41175694 -1415.66015625 436.1171875 C-1416.07522934 434.38630386 -1416.07522934 434.38630386 -1416.49868774 432.62045288 C-1422.66538121 406.7449062 -1422.66538121 406.7449062 -1422.22265625 395.1796875 C-1422.22072266 394.16197266 -1422.21878906 393.14425781 -1422.21679688 392.09570312 C-1421.88772652 372.9486833 -1414.04095661 358.21166545 -1400.66015625 345.1171875 C-1399.59861328 344.00730469 -1399.59861328 344.00730469 -1398.515625 342.875 C-1389.16926851 333.68947947 -1377.05131692 329.28466785 -1364.68847656 325.77734375 C-1363.64532413 325.47763672 -1362.60217171 325.17792969 -1361.5274086 324.86914062 C-1349.83608002 321.54429808 -1338.06015479 318.56594056 -1326.26953125 315.6171875 C-1323.88910452 315.01831184 -1321.50877656 314.41904345 -1319.12854004 313.81941223 C-1312.84938979 312.23874261 -1306.56887194 310.66357615 -1300.28804016 309.08960342 C-1294.40807052 307.61514564 -1288.52919328 306.13635123 -1282.65027571 304.65770543 C-1255.26424388 297.77015306 -1227.87190148 290.90767852 -1200.47283936 284.07214355 C-1181.65035855 279.37616825 -1162.83945001 274.63537684 -1144.03515625 269.8671875 C-1142.96483469 269.59579515 -1142.96483469 269.59579515 -1141.87289047 269.31892014 C-1121.1870355 264.07310228 -1100.50688121 258.80497243 -1079.828125 253.53125 C-1070.6263622 251.18466003 -1061.4245503 248.83826272 -1052.22265625 246.4921875 C-1051.06771793 246.19772484 -1049.91277962 245.90326218 -1048.72284317 245.5998764 C-1021.56933977 238.67732871 -994.4140619 231.76454489 -967.22265625 224.9921875 C-940.73147945 218.39371378 -914.25514709 211.73763932 -887.78515625 205.0546875 C-886.20362196 204.65541172 -886.20362196 204.65541172 -884.59013748 204.24806976 C-849.17922183 195.30717483 -813.78679518 186.29515939 -778.40600586 177.23583984 C-774.74725302 176.29907571 -771.08847975 175.36239142 -767.4296875 174.42578125 C-766.54053839 174.19815598 -765.65138927 173.9705307 -764.73529625 173.73600769 C-752.5935293 170.62824197 -740.44776157 167.53675761 -728.296875 164.46484375 C-727.57758568 164.28297453 -726.85829636 164.10110531 -726.11721039 163.9137249 C-723.27383065 163.19481619 -720.43042861 162.47599569 -717.58701324 161.7572279 C-694.25492105 155.85896391 -670.95082509 149.86608751 -647.68014526 143.72894287 C-622.55149038 137.10409858 -597.38633803 130.62342172 -572.21710968 124.1546402 C-540.7724169 116.07272976 -509.32970602 107.98389016 -477.91015625 99.8046875 C-477.16142117 99.60980618 -476.41268608 99.41492485 -475.64126205 99.21413803 C-456.20793593 94.15530987 -436.79030214 89.0402815 -417.38879395 83.86062622 C-397.20684316 78.47740152 -376.97243813 73.301798 -356.73757172 68.12205124 C-334.44953053 62.41647695 -312.1778641 56.65746326 -289.93502808 50.77755737 C-275.78661628 47.03776041 -261.63230449 43.32312629 -247.46484375 39.65625 C-245.94146728 39.26187646 -244.41809081 38.86750288 -242.89471436 38.47312927 C-240.55661807 37.86789628 -238.21851517 37.26268889 -235.88040543 36.6575079 C-233.4944784 36.03994217 -231.10856383 35.42232833 -228.72265625 34.8046875 C-227.93627777 34.60112766 -227.14989929 34.39756783 -226.33969116 34.18783951 C-204.90047791 28.63698889 -183.47833427 23.02461654 -162.07421875 17.33984375 C-160.44112794 16.9061551 -160.44112794 16.9061551 -158.77504539 16.46370506 C-148.00376996 13.6027005 -137.23362465 10.73748875 -126.46543026 7.86490917 C-108.15316866 2.98072194 -89.84133241 -1.90088889 -71.4609375 -6.5234375 C-70.20387497 -6.8413324 -68.94681244 -7.15922729 -67.6516571 -7.48675537 C-43.3150779 -13.54439459 -21.46423947 -15.19201678 0 0 Z M-80.72875977 11.83648682 C-84.46556927 12.83623399 -88.20421023 13.82886538 -91.94335938 14.81982422 C-96.56030441 16.04361385 -101.17682816 17.26896502 -105.79275703 18.49658203 C-118.74117977 21.93984553 -131.70001638 25.34332361 -144.66015625 28.7421875 C-145.89803894 29.06705139 -147.13592163 29.39191528 -148.41131592 29.72662354 C-171.60844088 35.81322769 -194.82273985 41.83297416 -218.03947067 47.84429169 C-245.60989388 54.98298292 -273.17025666 62.15925132 -300.72265625 69.3671875 C-308.10021091 71.29706429 -315.47780774 73.2267798 -322.85546875 75.15625 C-323.78061153 75.39820414 -324.70575432 75.64015827 -325.65893173 75.88944435 C-348.46819004 81.85436435 -371.28233421 87.80050858 -394.09765625 93.7421875 C-395.60118778 94.13377989 -395.60118778 94.13377989 -397.13509369 94.53328323 C-419.37448863 100.3254331 -441.61582915 106.10996132 -463.86328125 111.87109375 C-464.75039984 112.10083075 -465.63751842 112.33056774 -466.55151939 112.56726646 C-474.34826626 114.58634154 -482.14508904 116.60512329 -489.94204712 118.62338257 C-511.30517251 124.15386934 -532.65218305 129.73976711 -553.98052979 135.40316772 C-570.82574886 139.87333855 -587.7042436 144.19991039 -604.60089111 148.47116089 C-619.29486139 152.18838008 -633.96938588 155.97066622 -648.625 159.8359375 C-650.23568053 160.26059074 -651.84636272 160.68523767 -653.45704651 161.10987854 C-654.26956218 161.32410682 -655.08207785 161.53833509 -655.9192152 161.75905514 C-695.2741801 172.13526709 -734.69126298 182.24524537 -774.16015625 192.1796875 C-775.43106487 192.49960159 -776.7019735 192.81951569 -778.0113945 193.14912415 C-804.86819403 199.90830934 -831.73161578 206.64093267 -858.6015625 213.34765625 C-860.53465816 213.83028519 -862.46775347 214.31291558 -864.40084839 214.79554749 C-872.30708817 216.76912956 -880.21360168 218.74155154 -888.12223911 220.70550632 C-905.33296677 224.98069948 -922.50928459 229.36421653 -939.65303421 233.90096283 C-953.0702736 237.45105067 -966.51252339 240.88403881 -979.98440552 244.22161865 C-986.71917797 245.89087796 -993.45132226 247.57068862 -1000.18359375 249.25 C-1000.92306559 249.43438755 -1001.66253742 249.6187751 -1002.4244175 249.80875015 C-1025.20231249 255.48953035 -1047.96168896 261.24404427 -1070.72265625 266.9921875 C-1072.39617975 267.41478159 -1072.39617975 267.41478159 -1074.10351181 267.84591293 C-1105.3564385 275.73786759 -1136.60577028 283.64391002 -1167.84985352 291.57080078 C-1170.66682747 292.28548949 -1173.48380291 293.00017234 -1176.30078125 293.71484375 C-1176.99703047 293.8914856 -1177.69327969 294.06812744 -1178.41062737 294.25012207 C-1194.3788396 298.30113557 -1210.3493264 302.3431499 -1226.32027626 306.38335514 C-1231.51678956 307.69803784 -1236.71304723 309.01372505 -1241.90909004 310.330266 C-1246.25569242 311.43153824 -1250.60242021 312.5323148 -1254.94921875 313.6328125 C-1255.81879589 313.85296713 -1256.68837303 314.07312176 -1257.58430099 314.29994774 C-1269.95310568 317.43042449 -1282.32702887 320.5400152 -1294.70440674 323.63641357 C-1301.73199102 325.39456857 -1308.75824286 327.15802207 -1315.78421402 328.92261124 C-1321.5366143 330.36680878 -1327.29072276 331.80392259 -1333.04622459 333.23570633 C-1336.61865557 334.12624513 -1340.18934147 335.02363042 -1343.75960159 335.92282867 C-1345.40547979 336.33588236 -1347.05205979 336.74615223 -1348.6994133 337.15328217 C-1368.89255968 342.14739891 -1387.67412964 348.40445076 -1399.3125 366.80859375 C-1407.78749988 381.32663702 -1407.96601763 396.75315597 -1404.49462891 412.85644531 C-1404.26902597 413.94060352 -1404.04342304 415.02476173 -1403.81098366 416.14177322 C-1401.47946689 427.22995879 -1398.92175758 438.26447279 -1396.30859375 449.2890625 C-1395.80369312 451.43231972 -1395.29911384 453.57565267 -1394.79483032 455.71905518 C-1393.74357362 460.18343558 -1392.68957613 464.64715596 -1391.63330078 469.11035156 C-1390.31504315 474.68079387 -1389.0020115 480.25245018 -1387.6908474 485.82456589 C-1382.36513635 508.45265572 -1376.9645515 531.06011787 -1371.41756439 553.63499451 C-1366.14370375 575.10971692 -1361.08223048 596.63312925 -1356.03657532 618.16242218 C-1354.7393291 623.69511343 -1353.43943202 629.22718174 -1352.13964844 634.75927734 C-1351.60619592 637.02987548 -1351.07274867 639.30047484 -1350.53930664 641.57107544 C-1350.27439423 642.69867405 -1350.00948181 643.82627266 -1349.73654175 644.98804092 C-1348.93475373 648.40131189 -1348.13322449 651.81464352 -1347.33178711 655.22799683 C-1342.20353802 677.06896064 -1337.06172847 698.90671358 -1331.91015625 720.7421875 C-1331.69479469 721.65507664 -1331.47943314 722.56796577 -1331.25754547 723.50851822 C-1323.0752869 758.18978439 -1314.82999937 792.85587341 -1306.56805801 827.51822853 C-1300.13035294 854.52798473 -1293.70703584 881.541165 -1287.28515625 908.5546875 C-1287.13055278 909.2050156 -1286.97594931 909.85534369 -1286.81666088 910.5253787 C-1278.18802357 946.82136417 -1269.5704861 983.11996278 -1260.98119354 1019.42528152 C-1260.29805472 1022.31267018 -1259.61476802 1025.2000238 -1258.93145752 1028.08737183 C-1257.66585194 1033.43568837 -1256.40100414 1038.78418373 -1255.13671875 1044.1328125 C-1254.94005615 1044.96467009 -1254.74339355 1045.79652767 -1254.54077148 1046.65359306 C-1252.25595767 1056.3207844 -1249.98758933 1065.99157652 -1247.7411499 1075.66775513 C-1245.11952339 1086.95790548 -1242.46611857 1098.23399897 -1239.56152344 1109.45507812 C-1239.02105242 1111.54677117 -1238.48890525 1113.64048113 -1237.95703125 1115.734375 C-1236.14353535 1122.81481003 -1234.19737911 1129.83906287 -1232.03125 1136.8203125 C-1231.82909882 1137.47430023 -1231.62694763 1138.12828796 -1231.41867065 1138.80209351 C-1226.77271262 1153.49583578 -1217.89167957 1165.66626129 -1204.375 1173.4296875 C-1187.37523944 1181.58477546 -1170.06336098 1178.02649292 -1152.72265625 1173.4296875 C-1150.66084223 1172.89752727 -1148.59865125 1172.36682587 -1146.53613281 1171.83740234 C-1140.58419418 1170.30320852 -1134.6392822 1168.74314082 -1128.69537354 1167.17816162 C-1124.44982508 1166.06091203 -1120.20233581 1164.95114607 -1115.95458984 1163.84228516 C-1098.44276391 1159.2698752 -1080.93742246 1154.6731624 -1063.43593216 1150.06135941 C-1043.83956296 1144.89775563 -1024.23672634 1139.75897763 -1004.63228989 1134.62609863 C-1001.96508117 1133.92770401 -999.29791694 1133.22913978 -996.63076782 1132.53051758 C-978.83318973 1127.86873226 -961.03458798 1123.21096716 -943.23046875 1118.57421875 C-941.83358756 1118.2103987 -940.43670645 1117.8465783 -939.03982544 1117.48275757 C-937.65203885 1117.12131647 -936.26425199 1116.75987644 -934.87646484 1116.3984375 C-932.11685444 1115.67971644 -929.35725122 1114.96096781 -926.59765625 1114.2421875 C-925.91423409 1114.0641861 -925.23081192 1113.88618469 -924.52667999 1113.70278931 C-897.81986717 1106.74614876 -871.13383204 1099.71161086 -844.450737 1092.66461182 C-813.79408116 1084.56820165 -783.12464424 1076.52222273 -752.44400406 1068.51719666 C-726.594965 1061.77273465 -700.75954791 1054.97990844 -674.94003677 1048.12331009 C-654.61732755 1042.72702256 -634.27543337 1037.41361575 -613.91015625 1032.1796875 C-591.76394427 1026.48777657 -569.6415519 1020.71173 -547.53515625 1014.8671875 C-546.78837616 1014.66975197 -546.04159607 1014.47231644 -545.27218628 1014.26889801 C-539.17676744 1012.65725055 -533.08144382 1011.04524279 -526.98625946 1009.43270874 C-515.18984311 1006.31192126 -503.39087293 1003.20095414 -491.58984375 1000.09765625 C-490.40512954 999.78610407 -490.40512954 999.78610407 -489.1964817 999.4682579 C-485.20337754 998.41820855 -481.21023476 997.36830614 -477.21707153 996.31848145 C-447.86058996 988.60098298 -447.86058996 988.60098298 -418.515625 980.83984375 C-417.86339085 980.66682487 -417.21115669 980.493806 -416.53915787 980.31554413 C-413.89375109 979.61378294 -411.24835619 978.91197697 -408.6029644 978.2101593 C-377.22227635 969.88526537 -345.81952579 961.64567906 -314.41015625 953.4296875 C-313.2620837 953.12936741 -312.11401115 952.82904732 -310.93114853 952.51962662 C-286.98467577 946.25578842 -263.03677481 939.9974281 -239.08683968 933.74684143 C-230.86113663 931.6000003 -222.63557527 929.45261659 -214.41015625 927.3046875 C-213.5189571 927.0719664 -212.62775795 926.8392453 -211.70955276 926.59947205 C-175.78005288 917.21619803 -139.87721289 907.7333556 -103.97953987 898.22916222 C-79.17794766 891.66295839 -54.36925149 885.12370013 -29.56073284 878.58372498 C-24.82693635 877.33580455 -20.0931538 876.08783125 -15.359375 874.83984375 C-14.43491137 874.59613289 -13.51044773 874.35242203 -12.55797005 874.10132599 C-0.63700043 870.95856449 11.2829729 867.81206533 23.20163155 864.66055107 C29.2244687 863.06807225 35.24750062 861.47633014 41.27054214 859.88462448 C43.45027749 859.30853725 45.62997038 858.73228953 47.80966187 858.15603638 C63.79130506 853.93165527 79.77961805 849.73431934 95.78138351 845.58675194 C98.30400633 844.93290149 100.82652735 844.27865954 103.34902954 843.62434387 C116.62671891 840.18098992 116.62671891 840.18098992 122.76031494 838.60067749 C142.93436655 833.43078835 142.93436655 833.43078835 162.9765625 827.77734375 C163.74429993 827.55165207 164.51203735 827.32596039 165.30303955 827.09342957 C179.36188018 822.81363697 191.55022726 814.8119809 199.33984375 802.1171875 C210.89922273 780.38113037 204.53752064 758.99375485 198.62109375 736.62890625 C198.04033408 734.41580743 197.45981354 732.20264585 196.8795166 729.98942566 C190.6718077 706.37697708 184.23130139 682.82770472 177.76165771 659.28594971 C176.53111331 654.80562089 175.30343668 650.32450866 174.07588196 645.84335995 C169.02403512 627.40205801 163.96466931 608.96285957 158.85546875 590.53735352 C158.57412331 589.52271467 158.29277786 588.50807583 158.0029068 587.46269035 C157.724356 586.45817392 157.44580521 585.45365749 157.15881348 584.41870117 C151.81959123 565.16367928 146.56333447 545.89035535 141.44061279 526.57666016 C134.35734466 499.87914411 127.09834063 473.23312759 119.71484375 446.6171875 C113.21936711 423.2004942 106.77589105 399.77181433 100.46484375 376.3046875 C100.29140442 375.65977734 100.11796509 375.01486717 99.93927002 374.35041428 C99.4178056 372.41127355 98.89639337 370.47211881 98.375 368.53295898 C97.69142958 365.99071638 97.00783606 363.44847999 96.32421875 360.90625 C95.99103638 359.667043 95.657854 358.427836 95.3145752 357.15107727 C91.81623749 344.15106777 88.26633688 331.16525427 84.71484375 318.1796875 C79.51579359 299.16512086 74.38813638 280.13257495 69.30609131 261.08642578 C65.33291453 246.2028966 61.31719418 231.33180162 57.25390625 216.47265625 C56.92372623 215.26514206 56.92372623 215.26514206 56.58687592 214.03323364 C55.45988686 209.912115 54.33253975 205.79109436 53.20507812 201.67010498 C44.90222297 171.32112024 36.76052226 140.93741278 28.80073547 110.49636841 C25.55985612 98.11464935 22.25820481 85.74916722 18.91650391 73.39428711 C18.59386566 72.20143349 18.59386566 72.20143349 18.26470947 70.98448181 C17.84993901 69.45112714 17.43502668 67.91781085 17.0199585 66.38453674 C15.83701521 62.00196301 14.69206568 57.61169079 13.578125 53.2109375 C8.8369153 34.63015475 2.42802461 18.81383346 -14.890625 8.51953125 C-36.19041931 -2.26555501 -59.24635292 6.08871194 -80.72875977 11.83648682 Z " fill="#141414" transform="translate(1696.66015625,494.8828125)"/>
<path d="M0 0 C2.67062613 2.04759344 3.52678077 3.95188231 4.36621094 7.16088867 C4.58944031 7.99573288 4.81266968 8.83057709 5.04266357 9.6907196 C5.27092834 10.59071182 5.49919312 11.49070404 5.734375 12.41796875 C5.97665833 13.34918045 6.21894165 14.28039215 6.46856689 15.23982239 C6.9779925 17.21133659 7.48198853 19.18426056 7.98095703 21.15844727 C8.74387911 24.16339147 9.5328564 27.16064088 10.32421875 30.15820312 C10.81670783 32.07771426 11.30764355 33.99762475 11.796875 35.91796875 C12.03323669 36.80783981 12.26959839 37.69771088 12.51312256 38.61454773 C13.87527513 44.11568629 14.47774487 48.46756925 13 54 C9.26320878 56.82473023 5.18361213 57.97406172 0.7097168 59.11303711 C-0.00658401 59.30212143 -0.72288483 59.49120575 -1.46089172 59.6860199 C-3.82228359 60.30733911 -6.186427 60.91740379 -8.55078125 61.52734375 C-10.20941749 61.96121492 -11.86787729 62.39576108 -13.52616882 62.83094788 C-17.89610528 63.97570064 -22.26848879 65.11082316 -26.64141846 66.24407959 C-31.03664088 67.3850919 -35.42928745 68.53593104 -39.82226562 69.68554688 C-48.48794123 71.95040441 -57.15414332 74.21294174 -65.82956314 76.44022751 C-68.0552086 77.01423873 -70.27859591 77.59653001 -72.50204468 78.1789856 C-73.93902351 78.55006811 -75.37608284 78.92083909 -76.81323242 79.29125977 C-78.07769699 79.62045914 -79.34216156 79.94965851 -80.64494324 80.28883362 C-83.56924755 80.90869405 -86.0298506 81.15466973 -89 81 C-88.85162689 81.53225189 -88.70325378 82.06450378 -88.55038452 82.61288452 C-84.60507418 96.81098789 -80.91871216 111.06040855 -77.42041016 125.375 C-76.61000321 128.68627601 -75.79147363 131.99548239 -74.97265625 135.3046875 C-74.45263934 137.42436008 -73.93308958 139.54414733 -73.4140625 141.6640625 C-73.17039948 142.64621735 -72.92673645 143.62837219 -72.6756897 144.64028931 C-72.45480682 145.54999481 -72.23392395 146.45970032 -72.00634766 147.39697266 C-71.81126617 148.19221344 -71.61618469 148.98745422 -71.41519165 149.80679321 C-71 152 -71 152 -71 156 C-70.29922333 155.81429947 -69.59844666 155.62859894 -68.87643433 155.43727112 C-62.25675794 153.68362767 -55.63638888 151.93262187 -49.01524162 150.18454075 C-45.61166509 149.28584758 -42.20835979 148.38615378 -38.80566406 147.48413086 C-34.88946708 146.44603134 -30.97211272 145.41236123 -27.0546875 144.37890625 C-25.83884979 144.05596085 -24.62301208 143.73301544 -23.37033081 143.40028381 C-22.22960114 143.10004807 -21.08887146 142.79981232 -19.91357422 142.49047852 C-18.91429901 142.22622574 -17.9150238 141.96197296 -16.88546753 141.68971252 C-8.6854581 139.72966648 -8.6854581 139.72966648 -5.25268555 141.08349609 C-2.44309719 143.4737929 -1.90701089 145.11802983 -0.95703125 148.6640625 C-0.63686035 149.82583008 -0.31668945 150.98759766 0.01318359 152.18457031 C0.50165771 154.07320801 0.50165771 154.07320801 1 156 C1.35726431 157.31652207 1.7161791 158.63259726 2.07666016 159.94824219 C3.00897736 163.38010054 3.90060946 166.82094368 4.7746582 170.26806641 C5.13634454 171.68493116 5.50396354 173.10029336 5.87719727 174.51416016 C6.4270443 176.59751458 6.95949469 178.68465125 7.48828125 180.7734375 C7.96068237 182.60527588 7.96068237 182.60527588 8.44262695 184.47412109 C9.06183172 188.3911405 9.07194556 191.17562143 8 195 C4.6535027 197.42417112 1.42686239 198.61587187 -2.55297852 199.62573242 C-4.18475792 200.04582832 -4.18475792 200.04582832 -5.84950256 200.47441101 C-7.01420578 200.76516006 -8.178909 201.05590912 -9.37890625 201.35546875 C-11.18523781 201.81521843 -11.18523781 201.81521843 -13.02806091 202.28425598 C-16.21925963 203.09413908 -19.41224453 203.89645352 -22.6060791 204.69586182 C-24.56321639 205.18768003 -26.51900388 205.68452047 -28.47436523 206.18334961 C-32.23282718 207.14212397 -35.99297253 208.09394132 -39.75390625 209.04296875 C-40.9206337 209.3397905 -42.08736115 209.63661224 -43.28944397 209.94242859 C-44.37414474 210.21303604 -45.45884552 210.48364349 -46.57641602 210.76245117 C-47.52952164 211.00211105 -48.48262726 211.24177094 -49.46461487 211.48869324 C-52 212 -52 212 -56 212 C-55.77449463 212.91819519 -55.54898926 213.83639038 -55.31665039 214.78240967 C-53.19271364 223.43308441 -51.07362153 232.08493328 -48.95927429 240.737957 C-47.87209705 245.18658367 -46.78321361 249.63477821 -45.69042969 254.08203125 C-44.63602018 258.37338434 -43.58609428 262.66581156 -42.53927612 266.95902252 C-42.1389841 268.59727329 -41.73707446 270.23512968 -41.33352661 271.87258148 C-40.76885272 274.16500976 -40.20993155 276.45876918 -39.65234375 278.75292969 C-39.39987381 279.76929001 -39.39987381 279.76929001 -39.14230347 280.80618286 C-38.36822301 284.01661708 -38 286.66399566 -38 290 C-37.0104834 289.74009277 -36.0209668 289.48018555 -35.00146484 289.21240234 C-28.26959117 287.44480067 -21.5374764 285.67815146 -14.8034668 283.91870117 C-13.84529556 283.6683461 -12.88712433 283.41799103 -11.8999176 283.16004944 C-9.87554795 282.6311368 -7.85116398 282.10227896 -5.82676697 281.57347107 C1.07163672 279.76999476 7.9665426 277.95361455 14.85992432 276.13104248 C19.76232662 274.83656027 24.66660312 273.54927694 29.57122803 272.26324463 C31.97669315 271.63083007 34.3813637 270.99538533 36.78521729 270.35687256 C40.18160115 269.45522927 43.58064915 268.56436775 46.98046875 267.67578125 C47.99234756 267.40442856 49.00422638 267.13307587 50.04676819 266.85350037 C60.14160521 264.23863579 60.14160521 264.23863579 65 265 C69.26969682 268.66889864 70.27339561 273.44029635 71.578125 278.703125 C71.90257599 279.95896393 71.90257599 279.95896393 72.23358154 281.24017334 C72.68666712 283.00700563 73.13342562 284.77547109 73.57421875 286.54541016 C74.24543266 289.23172074 74.94141833 291.91070045 75.640625 294.58984375 C76.07962885 296.31472212 76.5171762 298.03997196 76.953125 299.765625 C77.15931458 300.55656555 77.36550415 301.3475061 77.57794189 302.16241455 C78.85769069 307.38256204 79.87996479 312.63222745 79 318 C76.55998479 321.56070135 74.01104038 322.63090023 69.91796875 323.71875 C68.34366089 324.14667847 68.34366089 324.14667847 66.73754883 324.58325195 C65.56603271 324.88577881 64.3945166 325.18830566 63.1875 325.5 C61.89779336 325.84310362 60.60833279 326.18713324 59.3190918 326.53198242 C54.88524566 327.71083309 50.44311186 328.85665514 46 330 C45.21838501 330.20175842 44.43677002 330.40351685 43.63146973 330.61138916 C33.54173699 333.21579343 23.44408694 335.78863384 13.34375 338.3515625 C-3.83004698 342.71012662 -20.98926035 347.12555228 -38.14993668 351.53542709 C-44.70318764 353.21940375 -51.2565665 354.90288257 -57.80996704 356.58627701 C-60.02829347 357.15617043 -62.24657219 357.72624923 -64.46484375 358.2963562 C-65.80948773 358.64183002 -67.15413285 358.98729944 -68.4987793 359.33276367 C-69.66273727 359.63188156 -70.82669525 359.93099945 -72.02592468 360.23918152 C-73.00736954 360.49025162 -73.98881439 360.74132172 -75 361 C-75.72318924 361.19165237 -76.44637848 361.38330475 -77.19148254 361.58076477 C-80.28953638 362.29892942 -82.83430551 362.333231 -86 362 C-91.79713307 357.82770589 -92.68561886 352.31331666 -94.28515625 345.61328125 C-94.57789932 344.44888519 -94.8706424 343.28448914 -95.17225647 342.08480835 C-95.98104208 338.85164437 -96.77358246 335.61527257 -97.55936432 332.37649155 C-98.42064097 328.84331394 -99.30241465 325.31524378 -100.18115234 321.78637695 C-102.28714043 313.30987366 -104.35972104 304.82534347 -106.42891693 296.33979797 C-107.35522368 292.54460464 -108.28533729 288.75034565 -109.21533203 284.95605469 C-112.34432464 272.1855529 -115.46442742 259.41290725 -118.56811523 246.63623047 C-123.87891721 224.77586142 -129.22131577 202.92342777 -134.59375 181.078125 C-134.75875677 180.40716679 -134.92376353 179.73620858 -135.0937705 179.0449183 C-138.08947589 166.86412778 -141.08731337 154.68386208 -144.08568299 142.50372714 C-144.56470619 140.55781308 -145.04371616 138.61189576 -145.52272606 136.66597843 C-146.15105403 134.11357687 -146.77944223 131.56119014 -147.40789223 129.00881863 C-148.92266867 122.85590274 -150.43596097 116.70262947 -151.9458313 110.54850769 C-152.52405464 108.19231864 -153.10233143 105.8361427 -153.68066406 103.47998047 C-153.96025152 102.34088258 -154.23983898 101.20178469 -154.52789879 100.02816868 C-156.13287587 93.49858355 -157.75413299 86.97335619 -159.3927021 80.45212078 C-160.36388155 76.58359671 -161.32765045 72.71324795 -162.29035568 68.8426075 C-162.73165805 67.07731646 -163.17669103 65.31295315 -163.6257515 63.54961967 C-164.2317435 61.1695127 -164.82506506 58.78658658 -165.41552734 56.40258789 C-165.59372387 55.71735865 -165.77192039 55.0321294 -165.95551682 54.32613564 C-166.8734394 50.55728273 -167.16804338 47.72612288 -166 44 C-159.40316222 34.47247011 -131.91816051 31.93596145 -121.38866043 29.195755 C-119.41729976 28.68223807 -117.44636321 28.16712376 -115.47555542 27.65148926 C-92.18281524 21.55780531 -68.85527706 15.6016715 -45.50692749 9.72481441 C-43.56523283 9.23589916 -41.62378588 8.74600047 -39.68234253 8.25608826 C-37.33323783 7.66347697 -34.98369151 7.07261173 -32.63357544 6.48402405 C-25.74273709 4.74462611 -18.92021771 2.84070579 -12.11192322 0.80072021 C-7.80582509 -0.30726979 -4.41843381 -0.50703339 0 0 Z " fill="#050505" transform="translate(802,967)"/>
<path d="M0 0 C28.62860889 24.22115315 33.08318657 70.55794765 41.68243408 104.85870361 C43.03227061 110.23869329 44.38746796 115.61733198 45.7421875 120.99609375 C47.34572663 127.36339011 48.94740031 133.73113331 50.54089355 140.10095215 C52.90365908 149.54426345 55.27337258 158.98522809 57.69736099 168.41304398 C58.74085816 172.47486063 59.77657042 176.53864285 60.81148529 180.6026535 C61.29810199 182.50459208 61.78848714 184.40557112 62.2829361 186.30548859 C62.96366668 188.92230124 63.63112739 191.54218089 64.29589844 194.16308594 C64.49599266 194.91780937 64.69608688 195.67253281 64.90224457 196.45012665 C66.17171367 201.52880388 66.96319943 206.65003963 66.25390625 211.8828125 C62.67420488 216.32761214 57.40381116 217.26402859 52.078125 218.609375 C50.75214043 218.96000504 50.75214043 218.96000504 49.39936829 219.31771851 C46.5829702 220.05948782 43.76242043 220.78382048 40.94140625 221.5078125 C39.05634309 222.00146939 37.17157382 222.49624998 35.28710938 222.9921875 C30.28026809 224.30578903 25.26970542 225.60384239 20.25390625 226.8828125 C19.49875229 227.07604095 18.74359833 227.26926941 17.96556091 227.46835327 C13.07157228 228.70922702 9.27173741 229.39310041 4.25390625 228.8828125 C1.50573139 226.0443108 0.58694684 223.21897538 -0.36157227 219.43676758 C-0.64425964 218.32862198 -0.92694702 217.22047638 -1.21820068 216.07875061 C-1.51744446 214.86553635 -1.81668823 213.65232208 -2.125 212.40234375 C-2.45196714 211.10494352 -2.7797267 209.80774277 -3.10821533 208.51072693 C-3.99979321 204.97999055 -4.87946535 201.44638309 -5.75696182 197.91212463 C-6.49515911 194.94557279 -7.24045009 191.98082381 -7.98590374 189.01608849 C-14.51314001 163.05559577 -20.91985468 137.06412619 -27.29192162 111.06514835 C-28.02629008 108.06894148 -28.76160354 105.07296676 -29.49687958 102.0769825 C-29.99332938 100.05188487 -30.48809003 98.02638025 -30.98272705 96.00083923 C-32.56161862 89.56529364 -34.17410853 83.13932673 -35.85424805 76.72949219 C-36.16863327 75.52701843 -36.48301849 74.32454468 -36.80693054 73.08563232 C-38.98854742 65.64568394 -42.38908359 58.63634952 -49.24609375 54.5703125 C-55.19566907 51.86192374 -61.99572557 51.50686573 -68.15234375 53.765625 C-73.5380747 56.80012266 -76.38586031 60.75725988 -78.3263855 66.64282227 C-80.46773883 78.07126222 -78.19092659 89.39844002 -75.30078125 100.4453125 C-74.93363662 101.90642617 -74.5681904 103.3679675 -74.20429993 104.82989502 C-73.23208434 108.7166801 -72.23734246 112.59735545 -71.23803329 116.47724915 C-70.19719549 120.53567157 -69.17832092 124.59959896 -68.1574707 128.66308594 C-66.50013801 135.25010654 -64.83151132 141.83415501 -63.15380859 148.41601562 C-59.99687421 160.80469377 -56.90497827 173.2094047 -53.81231689 185.61425781 C-52.69479502 190.08900261 -51.56989473 194.56187695 -50.44506836 199.03479004 C-49.44599399 203.01781442 -48.45687253 207.0032754 -47.46868896 210.98901367 C-46.72885698 213.95184111 -45.97329253 216.91040404 -45.21728516 219.86914062 C-44.74324626 221.76418071 -44.26975134 223.65935698 -43.796875 225.5546875 C-43.57372116 226.41112854 -43.35056732 227.26756958 -43.12065125 228.14996338 C-42.00491387 232.68649743 -41.30916379 236.29461471 -42.74609375 240.8828125 C-44.66303949 243.47535095 -46.47898159 244.35810392 -49.54296875 245.20703125 C-50.32212646 245.42738037 -51.10128418 245.64772949 -51.90405273 245.87475586 C-52.75942627 246.10428955 -53.6147998 246.33382324 -54.49609375 246.5703125 C-55.39336182 246.81724854 -56.29062988 247.06418457 -57.21508789 247.31860352 C-59.23901832 247.87107589 -61.26461278 248.41747495 -63.29150391 248.95898438 C-65.75419117 249.61755742 -68.21453127 250.28236617 -70.67333984 250.95507812 C-74.14697 251.90461262 -77.62426754 252.83952374 -81.10437012 253.76504517 C-82.48419475 254.13353441 -83.863039 254.50571563 -85.24084473 254.88168335 C-87.19643562 255.41346424 -89.15676287 255.92773133 -91.1171875 256.44140625 C-92.2508374 256.74361084 -93.3844873 257.04581543 -94.55249023 257.35717773 C-98.07515771 257.93697309 -100.33991022 257.96698474 -103.74609375 256.8828125 C-108.40808816 252.81853627 -109.24960428 247.28712962 -110.6171875 241.5078125 C-110.88764389 240.41315674 -111.15810028 239.31850098 -111.43675232 238.19067383 C-112.20093919 235.08782711 -112.95338333 231.98237955 -113.70168304 228.87567139 C-114.52507762 225.47066465 -115.36398542 222.06948517 -116.20166016 218.66796875 C-117.34990117 214.00079375 -118.49616306 209.33315211 -119.63659668 204.6640625 C-123.35614848 189.43676478 -127.12347584 174.22145857 -130.8984375 159.0078125 C-131.21347418 157.73807587 -131.52851086 156.46833923 -131.8530941 155.16012573 C-133.14142337 149.96775047 -134.42981037 144.77538955 -135.71842098 139.58308411 C-137.93662339 130.6445941 -140.15164672 121.70531947 -142.36499023 112.765625 C-142.66798947 111.54218384 -142.97098871 110.31874268 -143.28316975 109.05822754 C-144.77181598 103.04727812 -146.25947322 97.03608739 -147.74519348 91.02441406 C-150.41452854 80.23160481 -153.1027559 69.44449239 -155.85253906 58.671875 C-156.32957068 56.79528131 -156.80647296 54.91865473 -157.28323364 53.04199219 C-158.14973004 49.63137849 -159.02653826 46.22366656 -159.90988159 42.81738281 C-160.29206981 41.31586294 -160.67386063 39.81424183 -161.05517578 38.3125 C-161.38421906 37.03616699 -161.71326233 35.75983398 -162.05227661 34.44482422 C-162.76380338 30.79189241 -163.02376398 27.59336057 -162.74609375 23.8828125 C-159.51650444 20.35153165 -156.17174463 19.12963651 -151.6171875 17.91796875 C-149.83066772 17.43360352 -149.83066772 17.43360352 -148.00805664 16.93945312 C-146.74598389 16.61138672 -145.48391113 16.28332031 -144.18359375 15.9453125 C-142.87795317 15.59783326 -141.57253436 15.24951972 -140.26733398 14.90039062 C-137.65786468 14.20541396 -135.04640876 13.51886991 -132.43261719 12.84033203 C-129.15156422 11.98812741 -125.87439605 11.12249889 -122.59765625 10.25390625 C-120.83508031 9.79516221 -119.07209119 9.33800124 -117.30859375 8.8828125 C-116.12317993 8.57162476 -116.12317993 8.57162476 -114.91381836 8.25415039 C-110.78100606 7.21675513 -107.04343813 6.52201597 -102.74609375 6.8828125 C-98.20274633 9.91171078 -97.90001563 13.85501001 -96.74609375 18.8828125 C-96.08609375 19.2128125 -95.42609375 19.5428125 -94.74609375 19.8828125 C-94.48699219 19.15707031 -94.22789062 18.43132812 -93.9609375 17.68359375 C-88.46787248 5.0195178 -76.17738067 -2.54893413 -64.0234375 -7.8671875 C-41.98752177 -16.27182759 -18.86686962 -14.54600759 0 0 Z " fill="#050505" transform="translate(1017.74609375,1020.1171875)"/>
<path d="M0 0 C23.37071833 21.10777732 28.10390762 54.89489921 35.33984375 84.11328125 C35.52126923 84.82321228 35.7026947 85.53314331 35.88961792 86.2645874 C36.84345698 90.00830326 37.6523862 93.49091286 37.71484375 97.36328125 C37.74320313 98.1728125 37.7715625 98.98234375 37.80078125 99.81640625 C37.16345935 102.99221366 35.78817972 104.02933084 33.33984375 106.11328125 C30.77806091 107.16091919 30.77806091 107.16091919 27.83374023 107.94189453 C26.71862564 108.24416962 25.60351105 108.5464447 24.4546051 108.85787964 C23.23981979 109.1716153 22.02503448 109.48535095 20.7734375 109.80859375 C19.48301594 110.15180219 18.19285517 110.49599249 16.90293884 110.84109497 C12.72080728 111.95361987 8.53101911 113.03541156 4.33984375 114.11328125 C3.63554482 114.29503403 2.93124588 114.4767868 2.20560455 114.66404724 C-7.97322312 117.2906607 -18.16450155 119.86694357 -28.36035156 122.42657471 C-34.34910548 123.9301349 -40.33703466 125.43693977 -46.32391548 126.94794083 C-48.38512271 127.46727204 -50.4470321 127.98373988 -52.50901794 128.49996948 C-53.75635208 128.81434967 -55.00368622 129.12872986 -56.28881836 129.45263672 C-57.37827255 129.72606903 -58.46772675 129.99950134 -59.5901947 130.28121948 C-62.65898177 131.11296293 -65.65456411 132.07797884 -68.66015625 133.11328125 C-67.64411876 137.07863721 -66.59264759 141.03379683 -65.53515625 144.98828125 C-65.2515625 146.096875 -64.96796875 147.20546875 -64.67578125 148.34765625 C-62.22308267 157.41197708 -59.41131421 166.32046794 -50.91015625 171.23828125 C-43.95387588 174.16888812 -37.78620607 174.22161784 -30.78515625 171.42578125 C-25.32097229 168.67444919 -22.56488458 164.85028188 -20.23828125 159.20703125 C-19.29153038 155.77825782 -19.24020302 152.30479086 -19.1640625 148.76171875 C-18.49462831 145.24329722 -17.12353211 143.69397303 -14.66015625 141.11328125 C-11.98486328 140.05834961 -11.98486328 140.05834961 -8.91796875 139.453125 C-7.77932373 139.21859619 -6.64067871 138.98406738 -5.4675293 138.74243164 C-4.25234619 138.51418701 -3.03716309 138.28594238 -1.78515625 138.05078125 C0.08305786 137.6784436 0.08305786 137.6784436 1.98901367 137.29858398 C4.53914044 136.79461602 7.09118006 136.30023295 9.64501953 135.81542969 C13.04694327 135.16894279 16.44157819 134.4934808 19.8359375 133.80859375 C21.77434748 133.42898187 23.71312875 133.05125911 25.65234375 132.67578125 C26.53325684 132.49974365 27.41416992 132.32370605 28.32177734 132.14233398 C33.75036071 131.14027228 39.28633013 130.15442346 44.203125 133.30859375 C50.7137176 143.64499849 47.84406127 161.794554 45.37890625 173.11328125 C42.89302022 183.31381556 38.44688478 192.36139287 31.33984375 200.11328125 C30.15261719 201.43779297 30.15261719 201.43779297 28.94140625 202.7890625 C13.29653437 219.37446186 -6.79536787 227.17277818 -28.66015625 232.11328125 C-29.7171875 232.36078125 -30.77421875 232.60828125 -31.86328125 232.86328125 C-54.59296289 237.43461387 -76.99092823 232.97167055 -96.3046875 220.390625 C-98.54393169 218.73178035 -100.60292261 216.99263378 -102.66015625 215.11328125 C-103.4903125 214.36304688 -104.32046875 213.6128125 -105.17578125 212.83984375 C-117.91261553 200.75129145 -124.19357137 186.26464599 -128.453125 169.48046875 C-128.79313003 168.16987988 -129.13390381 166.85949024 -129.47538757 165.54928589 C-130.37032445 162.10302969 -131.25186918 158.65350464 -132.12877655 155.20262146 C-132.65341616 153.1397827 -133.18078912 151.07766235 -133.70904541 149.01574707 C-135.80954486 140.81185412 -137.88139369 132.6010489 -139.93481445 124.38525391 C-140.63240868 121.59471221 -141.33339756 118.80505688 -142.03735352 116.01611328 C-152.2686406 75.4737016 -152.2686406 75.4737016 -152.09765625 63.67578125 C-152.08935791 62.88921143 -152.08105957 62.1026416 -152.07250977 61.29223633 C-151.45981093 39.52943547 -142.10972852 22.00826934 -126.53515625 6.98828125 C-92.84869463 -22.56947755 -35.41756643 -29.71047042 0 0 Z M-79.97265625 46.42578125 C-87.51403539 58.43612581 -85.15954492 71.27284325 -82.25952148 84.43676758 C-81.80064326 86.34830139 -81.23917317 88.23464607 -80.66015625 90.11328125 C-78.03956627 91.42357624 -77.10162781 90.88373583 -74.30224609 90.12524414 C-73.40146332 89.88491959 -72.50068054 89.64459503 -71.57260132 89.39698792 C-70.59860382 89.12934128 -69.62460632 88.86169464 -68.62109375 88.5859375 C-67.62510162 88.31817001 -66.6291095 88.05040253 -65.60293579 87.77452087 C-62.41182876 86.91495337 -59.2235138 86.04548582 -56.03515625 85.17578125 C-53.87647827 84.59244656 -51.71762618 84.00975579 -49.55859375 83.42773438 C-44.25706911 81.99705821 -38.95780541 80.55823774 -33.66015625 79.11328125 C-34.43850213 75.89935258 -35.22623812 72.6877956 -36.015625 69.4765625 C-36.23472534 68.57135864 -36.45382568 67.66615479 -36.67956543 66.73352051 C-39.50792476 55.27644534 -43.30442318 47.44520514 -53.484375 40.94921875 C-62.64857001 37.42832515 -73.1720445 39.6251695 -79.97265625 46.42578125 Z " fill="#050505" transform="translate(1506.66015625,904.88671875)"/>
<path d="M0 0 C5.6759834 4.22304833 6.58345798 9.3864199 8.11328125 16.06640625 C8.37255905 17.13745102 8.63183685 18.20849579 8.89897156 19.31199646 C9.44233994 21.57019097 9.97722603 23.83044125 10.50415039 26.0925293 C11.31137125 29.55765464 12.14250451 33.01632888 12.97851562 36.47460938 C13.50399895 38.67154185 14.02813393 40.86879737 14.55078125 43.06640625 C14.79758133 44.10189102 15.04438141 45.13737579 15.29866028 46.20423889 C15.52277084 47.16881516 15.74688141 48.13339142 15.9777832 49.12719727 C16.17588089 49.97371353 16.37397858 50.8202298 16.57807922 51.69239807 C17 54 17 54 17 58 C17.59425781 57.82871582 18.18851563 57.65743164 18.80078125 57.48095703 C21.53344282 56.69420124 24.2667152 55.90958776 27 55.125 C27.93457031 54.85558594 28.86914062 54.58617187 29.83203125 54.30859375 C47.20532601 49.32743931 47.20532601 49.32743931 52 51 C54.7251326 54.75402242 55.87732743 58.53062188 57.04296875 62.98828125 C57.21629227 63.65031052 57.38961578 64.31233978 57.56819153 64.99443054 C57.93088408 66.38937901 58.28951546 67.78538908 58.64428711 69.18237305 C59.18406675 71.29903703 59.74248624 73.41015839 60.30273438 75.52148438 C60.65478677 76.88512262 61.00573417 78.24904671 61.35546875 79.61328125 C61.67153076 80.83829346 61.98759277 82.06330566 62.31323242 83.32543945 C64.13514266 93.07359835 64.13514266 93.07359835 61.89672852 96.87231445 C59.24378641 98.44960105 56.6256188 99.21316404 53.65234375 100.04296875 C52.40775391 100.39423828 51.16316406 100.74550781 49.88085938 101.10742188 C49.2339917 101.2845874 48.58712402 101.46175293 47.9206543 101.64428711 C45.93835927 102.18726463 43.96022672 102.74364541 41.98242188 103.30273438 C32.32931354 106 32.32931354 106 30 106 C30.99943593 109.94651178 31.99897732 113.89299684 32.99859619 117.83946228 C33.36782874 119.29722071 33.73704045 120.75498441 34.10623169 122.2127533 C36.3344131 131.01066325 38.5646954 139.80803335 40.79956055 148.60424805 C41.62688305 151.86114183 42.45409318 155.11806414 43.28125 158.375 C43.58896049 159.58642386 43.58896049 159.58642386 43.90288734 160.82232094 C46.18285035 169.80062938 48.45176293 178.78133914 50.68293762 187.77192688 C51.66611976 191.732586 52.65703262 195.69128748 53.64901733 199.64974976 C54.0863543 201.40491106 54.51957977 203.16110269 54.94839478 204.91836548 C58.06873275 219.77442798 58.06873275 219.77442798 66.25 232.0625 C72.84880247 234.31209175 78.17379016 234.12836613 84.859375 232.43359375 C88.2019062 231.7565482 90.75270452 232.02581136 94 233 C97.16373146 237.13356133 98.2248804 241.7828988 99.48046875 246.73828125 C99.69818436 247.57787888 99.91589996 248.4174765 100.14021301 249.28251648 C100.59708553 251.05409381 101.04986009 252.82673241 101.4987793 254.6003418 C102.18340072 257.29635717 102.88669165 259.98701345 103.59179688 262.67773438 C104.03499408 264.40595807 104.47708756 266.13446527 104.91796875 267.86328125 C105.12729538 268.65938309 105.33662201 269.45548492 105.55229187 270.27571106 C106.80917246 275.31622179 107.62446745 279.80965248 107 285 C103.91483068 288.42933024 100.7489925 289.66560504 96.3515625 290.81640625 C95.27173096 291.10443115 94.19189941 291.39245605 93.0793457 291.68920898 C91.93941162 291.97739502 90.79947754 292.26558105 89.625 292.5625 C88.44832764 292.86551025 87.27165527 293.16852051 86.05932617 293.48071289 C83.73496453 294.07306521 81.40874478 294.65818282 79.08056641 295.23535156 C76.63471603 295.8424528 74.1981447 296.47397599 71.76171875 297.1171875 C56.12567496 300.83583891 37.94185694 301.4893049 23.5703125 293.6796875 C21.24447329 292.24659466 19.13329808 290.70503749 17 289 C15.98486328 288.20722656 15.98486328 288.20722656 14.94921875 287.3984375 C4.71759929 278.37871859 0.85862731 265.41349139 -2.4453125 252.64453125 C-2.77862579 251.37522263 -3.11193909 250.105914 -3.45535278 248.79814148 C-8.54821881 229.31003756 -13.34324652 209.74327339 -18.17480469 190.18920898 C-19.60278181 184.41020809 -21.03638009 178.6326177 -22.4714489 172.85537434 C-23.58913995 168.35281101 -24.70363561 163.84946134 -25.81720352 159.34587669 C-26.344802 157.21394343 -26.87343246 155.08226525 -27.40316391 152.95086098 C-28.14039334 149.98277291 -28.87322272 147.01363057 -29.60498047 144.04418945 C-29.81899002 143.18644424 -30.03299957 142.32869904 -30.25349426 141.44496155 C-31.75193171 135.33650316 -32.93348255 129.19785625 -34 123 C-35.15757813 123.37253906 -36.31515625 123.74507812 -37.5078125 124.12890625 C-39.04666353 124.60745139 -40.58573808 125.08527817 -42.125 125.5625 C-43.26582031 125.9327832 -43.26582031 125.9327832 -44.4296875 126.31054688 C-48.88843558 127.67507754 -52.45268332 128.66644988 -57 127 C-59.66483276 123.29950096 -60.84540899 119.61057028 -62.0078125 115.23046875 C-62.17876434 114.59063553 -62.34971619 113.95080231 -62.52584839 113.2915802 C-62.88409473 111.94366732 -63.23853584 110.59473791 -63.58935547 109.24487305 C-64.12134937 107.2015218 -64.66709331 105.16222381 -65.21484375 103.12304688 C-69.87154391 85.6233337 -69.87154391 85.6233337 -67.46484375 81.140625 C-64.55923531 78.61721228 -62.26464792 77.76006579 -58.5625 76.75 C-57.45003906 76.43546875 -56.33757812 76.1209375 -55.19140625 75.796875 C-52.46841937 75.11696151 -49.75317356 74.53877237 -47 74 C-48.25073016 67.44383674 -49.70308798 60.97825262 -51.3828125 54.51953125 C-51.83237286 52.76115501 -52.28158134 51.00268878 -52.73046875 49.24414062 C-53.42905683 46.51797325 -54.13018097 43.7925449 -54.83740234 41.06860352 C-55.52675236 38.40828492 -56.20554076 35.74544654 -56.8828125 33.08203125 C-57.09527618 32.27457962 -57.30773987 31.46712799 -57.52664185 30.63520813 C-58.69013073 26.02319239 -59.57481769 21.78464147 -59 17 C-56.50013194 13.54549211 -54.03620437 12.37488103 -49.984375 11.2890625 C-48.49514526 10.88022827 -48.49514526 10.88022827 -46.97583008 10.46313477 C-45.91130615 10.18655029 -44.84678223 9.90996582 -43.75 9.625 C-42.65131592 9.32972412 -41.55263184 9.03444824 -40.4206543 8.73022461 C-36.95104888 7.80438636 -33.47620767 6.9007001 -30 6 C-28.86965332 5.70206543 -27.73930664 5.40413086 -26.57470703 5.09716797 C-23.32335194 4.24134879 -20.0689781 3.39859545 -16.8125 2.5625 C-15.81637695 2.30355957 -14.82025391 2.04461914 -13.79394531 1.77783203 C-3.90978135 -0.70086451 -3.90978135 -0.70086451 0 0 Z " fill="#060606" transform="translate(1118,911)"/>
<path d="M0 0 C3.24015411 2.43011559 4.74339808 3.79504057 5.59155273 7.77783203 C7.55397029 23.25899574 8.18148997 39.15615451 8.25 54.75 C8.259104 55.76046387 8.26820801 56.77092773 8.27758789 57.81201172 C8.27364014 58.7351416 8.26969238 59.65827148 8.265625 60.609375 C8.26336914 61.41342773 8.26111328 62.21748047 8.25878906 63.04589844 C8 65 8 65 6 67 C3.98803711 67.43896484 3.98803711 67.43896484 1.52734375 67.7109375 C0.62693359 67.82179688 -0.27347656 67.93265625 -1.20117188 68.046875 C-3.08085652 68.26242928 -4.96106095 68.47350703 -6.84179688 68.6796875 C-15.80999154 69.79832837 -23.55422783 72.40773301 -30 79 C-36.38939345 87.78541599 -37.50601998 96.6474184 -36.29663086 107.25610352 C-36.20712882 108.0431067 -36.11762678 108.83010988 -36.02541256 109.64096165 C-34.96160701 118.25342059 -32.9536698 126.56650654 -30.81640625 134.96484375 C-30.39934422 136.63958773 -29.9832883 138.31458253 -29.56816101 139.98980713 C-28.47133509 144.40376556 -27.36034118 148.81403653 -26.24635315 153.22369003 C-25.09834235 157.77946804 -23.96469237 162.33881875 -22.82910156 166.89770508 C-19.01943926 182.17020562 -15.16566687 197.43120969 -11.23046875 212.671875 C-10.96500748 213.70127701 -10.6995462 214.73067902 -10.42604065 215.79127502 C-9.26257744 220.29594798 -8.08987865 224.79777446 -6.89672852 229.29467773 C-6.49882964 230.81493328 -6.1009595 232.33519635 -5.703125 233.85546875 C-5.36958008 235.10996826 -5.03603516 236.36446777 -4.69238281 237.65698242 C-4.00402206 240.98058039 -3.57144059 243.6293509 -4 247 C-6.638511 250.59694282 -9.31635358 251.73316876 -13.53515625 252.921875 C-14.68773926 253.25123047 -15.84032227 253.58058594 -17.02783203 253.91992188 C-18.3516016 254.28099963 -19.67567623 254.64096023 -21 255 C-22.50768951 255.417174 -24.01533738 255.83449851 -25.52294922 256.25195312 C-29.63797895 257.38301872 -33.76033839 258.48443125 -37.88647461 259.57421875 C-40.45949602 260.25582687 -43.02948821 260.94817228 -45.59960938 261.640625 C-47.25242929 262.07878521 -48.90541818 262.51630859 -50.55859375 262.953125 C-51.69777504 263.26240936 -51.69777504 263.26240936 -52.85997009 263.57794189 C-60.83852262 265.65813143 -60.83852262 265.65813143 -65 265 C-69.63306788 261.28193375 -71.12921274 257.57293418 -72.41821289 251.95410156 C-72.71845666 250.74416566 -72.71845666 250.74416566 -73.02476597 249.50978661 C-73.69093269 246.80722004 -74.33156571 244.09924031 -74.97265625 241.390625 C-75.44814001 239.44072099 -75.92526525 237.49121664 -76.40390015 235.54208374 C-77.43454689 231.33070276 -78.45406835 227.11683867 -79.46505737 222.9006958 C-81.07207642 216.19955622 -82.70296073 209.50437567 -84.33813477 202.81005859 C-86.06833394 195.72165676 -87.7966978 188.6328288 -89.51676941 181.54196167 C-95.77709729 155.73659904 -102.16484335 129.96330071 -108.5607605 104.19128418 C-110.11944955 97.90941668 -111.67488861 91.62675026 -113.22893524 85.34373283 C-114.39648023 80.62359398 -115.56502695 75.90370346 -116.7337532 71.18385696 C-117.27760754 68.9867259 -117.82108097 66.78950052 -118.36414719 64.59217453 C-119.10804412 61.58280426 -119.85350891 58.57382655 -120.59936523 55.56494141 C-120.81477494 54.69193012 -121.03018465 53.81891884 -121.25212193 52.91945267 C-122.15639224 49.27733658 -123.08360603 45.65145498 -124.13124084 42.04769897 C-125.27394946 38.03895632 -125.34585112 35.15021339 -125 31 C-122.75028663 27.90897591 -120.12053791 27.18256392 -116.53125 26.140625 C-115.36980469 25.80224609 -114.20835938 25.46386719 -113.01171875 25.11523438 C-111.67508083 24.74133202 -110.33780138 24.36971793 -109 24 C-108.26797363 23.79705322 -107.53594727 23.59410645 -106.78173828 23.38500977 C-101.88209992 22.03429031 -96.97324985 20.72070605 -92.05859375 19.42578125 C-89.4748244 18.74335057 -86.89369696 18.05146331 -84.3125 17.359375 C-82.65640268 16.92129739 -81.00015792 16.48377671 -79.34375 16.046875 C-78.57913452 15.84068542 -77.81451904 15.63449585 -77.0267334 15.42205811 C-69.7999171 13.53806134 -69.7999171 13.53806134 -66 14 C-62.30877024 17.49939165 -61.12810124 21.0883141 -59.875 25.9375 C-58.71302189 30.3501359 -57.4887161 34.68535821 -56 39 C-55.78085938 38.03320312 -55.56171875 37.06640625 -55.3359375 36.0703125 C-53.37087682 27.83698383 -51.04093731 20.94078806 -46 14 C-45.32324219 13.03320312 -45.32324219 13.03320312 -44.6328125 12.046875 C-34.71480564 -0.84093052 -15.1199062 -5.55836552 0 0 Z " fill="#060606" transform="translate(1323,924)"/>
<path d="M0 0 C1.51284203 2.83657882 0.67977259 4.7799538 0 7.875 C-0.76506854 9.95399059 -1.59888595 12.00843676 -2.484375 14.0390625 C-3.25962524 15.82679077 -3.25962524 15.82679077 -4.05053711 17.65063477 C-4.61634081 18.93405824 -5.18284509 20.21717306 -5.75 21.5 C-6.33279861 22.82672619 -6.91556177 24.15346795 -7.49829102 25.48022461 C-9.01577563 28.9260612 -10.54582025 32.36618842 -12.0791626 35.80499268 C-12.98754509 37.84700183 -13.8898302 39.89160262 -14.79052734 41.93701172 C-16.21494526 45.16776638 -17.65688184 48.39013664 -19.1126709 51.60687256 C-19.9208347 53.400513 -20.71496828 55.20045402 -21.50878906 57.00048828 C-22.26047363 58.64186768 -22.26047363 58.64186768 -23.02734375 60.31640625 C-23.45781006 61.27232666 -23.88827637 62.22824707 -24.33178711 63.21313477 C-28.33993429 69.60868996 -33.22216412 71.71288263 -40.25 73.40234375 C-41.02633789 73.59977676 -41.80267578 73.79720978 -42.60253906 74.00062561 C-44.23431388 74.4109375 -45.86817318 74.81303917 -47.50390625 75.20727539 C-49.99901967 75.8122623 -52.4833716 76.45202742 -54.96875 77.09570312 C-56.56197604 77.49169739 -58.15571166 77.88564823 -59.75 78.27734375 C-60.48766602 78.46884506 -61.22533203 78.66034637 -61.98535156 78.85765076 C-66.6417924 79.94846886 -69.62186433 79.81323715 -74 77.875 C-75.32302565 73.39589166 -74.57324854 70.49062415 -73.19140625 66.08203125 C-72.9895874 65.42636673 -72.78776855 64.77070221 -72.57983398 64.09516907 C-71.91845172 61.95565716 -71.24088485 59.82167558 -70.5625 57.6875 C-70.10114362 56.2104321 -69.64078422 54.73305245 -69.18139648 53.25537109 C-68.48022347 51.00249113 -67.77760486 48.75012435 -67.06996155 46.49926758 C-65.55626106 41.68450183 -64.08974232 36.85880787 -62.65625 32.01953125 C-62.12342407 30.23421997 -62.12342407 30.23421997 -61.57983398 28.4128418 C-60.91437818 26.18044278 -60.25479139 23.94628372 -59.60180664 21.71020508 C-59.30137451 20.71529053 -59.00094238 19.72037598 -58.69140625 18.6953125 C-58.43560791 17.83180176 -58.17980957 16.96829102 -57.91625977 16.07861328 C-56.87656721 13.578143 -56.18639482 12.47560159 -54 10.875 C-50.92822266 9.75585938 -50.92822266 9.75585938 -47.1640625 8.71875 C-46.48886566 8.53034546 -45.81366882 8.34194092 -45.11801147 8.14782715 C-43.68526854 7.74997007 -42.25119051 7.35689431 -40.81591797 6.96826172 C-38.66480642 6.38577887 -36.5177454 5.7900918 -34.37109375 5.19140625 C-5.15723592 -2.9009452 -5.15723592 -2.9009452 0 0 Z " fill="#0B0B0B" transform="translate(1458,797.125)"/>
<path d="M0 0 C0.33 0 0.66 0 1 0 C1 165.33 1 330.66 1 501 C0.67 501 0.34 501 0 501 C0 335.67 0 170.34 0 0 Z " fill="#F6F6F6" transform="translate(2163,1437)"/>
<path d="M0 0 C0.33 0 0.66 0 1 0 C1 48.51 1 97.02 1 147 C0.67 147 0.34 147 0 147 C0 98.49 0 49.98 0 0 Z " fill="#F6F6F6" transform="translate(2163,106)"/>
<path d="M0 0 C0.33 0 0.66 0 1 0 C1 17.16 1 34.32 1 52 C0.67 52 0.34 52 0 52 C0 34.84 0 17.68 0 0 Z " fill="#F8F8F8" transform="translate(2163,1365)"/>
<path d="M0 0 C0.66 0.33 1.32 0.66 2 1 C-4.27 7.27 -10.54 13.54 -17 20 C-17 14.49046452 -11.69518349 10.76920103 -8 7 C-5.39894309 4.58259735 -2.74176609 2.25616719 0 0 Z " fill="#585958" transform="translate(2011,1096)"/>
<path d="M0 0 C0.66 0.33 1.32 0.66 2 1 C-3.28 6.28 -8.56 11.56 -14 17 C-14.66 16.67 -15.32 16.34 -16 16 C-11.1163329 10.09563077 -5.8280757 4.96906227 0 0 Z " fill="#535353" transform="translate(2037,1251)"/>
<path d="M0 0 C0.66 0.33 1.32 0.66 2 1 C-3.61 6.61 -9.22 12.22 -15 18 C-15.66 17.67 -16.32 17.34 -17 17 C-15.29657414 15.09955869 -13.58752883 13.20471126 -11.875 11.3125 C-11.400625 10.78205078 -10.92625 10.25160156 -10.4375 9.70507812 C-7.18500869 6.12294242 -3.77952775 3.02250068 0 0 Z " fill="#575757" transform="translate(1386,907)"/>
<path d="M0 0 C0.33 0 0.66 0 1 0 C1 14.52 1 29.04 1 44 C0.67 44 0.34 44 0 44 C0 29.48 0 14.96 0 0 Z " fill="#F8F8F8" transform="translate(2163,1990)"/>
<path d="M0 0 C0.66 0.33 1.32 0.66 2 1 C-3.28 6.28 -8.56 11.56 -14 17 C-14.66 16.67 -15.32 16.34 -16 16 C-14.27538679 14.07906479 -12.54557391 12.163278 -10.8125 10.25 C-10.32974609 9.71117187 -9.84699219 9.17234375 -9.34960938 8.6171875 C-6.43837795 5.41287909 -3.47293499 2.6158121 0 0 Z " fill="#5D5D5D" transform="translate(1965,948)"/>
<path d="M0 0 C0.66 0.33 1.32 0.66 2 1 C-2.62 5.62 -7.24 10.24 -12 15 C-12.66 14.67 -13.32 14.34 -14 14 C-12.60919892 12.41224451 -11.21211596 10.82999061 -9.8125 9.25 C-8.64654297 7.92742187 -8.64654297 7.92742187 -7.45703125 6.578125 C-5.11544754 4.12113732 -2.69841735 2.05137234 0 0 Z " fill="#5A5A5A" transform="translate(1844,496)"/>
<path d="M0 0 C0.33 0 0.66 0 1 0 C1 10.89 1 21.78 1 33 C0.67 33 0.34 33 0 33 C0 22.11 0 11.22 0 0 Z " fill="#F8F8F8" transform="translate(2163,273)"/>
<path d="M0 0 C0.66 0.33 1.32 0.66 2 1 C-1.63 4.63 -5.26 8.26 -9 12 C-9.66 11.67 -10.32 11.34 -11 11 C-9.92173635 9.72486237 -8.83714481 8.45507431 -7.75 7.1875 C-7.14671875 6.47980469 -6.5434375 5.77210937 -5.921875 5.04296875 C-4.07629602 3.08110329 -2.20054668 1.54330375 0 0 Z " fill="#606160" transform="translate(939,1020)"/>
<path d="M0 0 C0.66 0.33 1.32 0.66 2 1 C-1.96 4.96 -5.92 8.92 -10 13 C-10 8.41771462 -7.08388033 6.1816619 -4 3 C-1.625 1.0625 -1.625 1.0625 0 0 Z " fill="#646464" transform="translate(1287,928)"/>
<path d="M0 0 C0.66 0.33 1.32 0.66 2 1 C-1.63 4.63 -5.26 8.26 -9 12 C-9.66 11.67 -10.32 11.34 -11 11 C-7.6381774 6.74828319 -4.25171681 3.3618226 0 0 Z " fill="#5B5B5B" transform="translate(1919,786)"/>
<path d="M0 0 C0.66 0.33 1.32 0.66 2 1 C-0.31 3.31 -2.62 5.62 -5 8 C-5.33 7.34 -5.66 6.68 -6 6 C-2.25 1.125 -2.25 1.125 0 0 Z " fill="#4E4E4E" transform="translate(295,1667)"/>
<path d="M0 0 C0.33 0 0.66 0 1 0 C1 2.64 1 5.28 1 8 C0.01 8 -0.98 8 -2 8 C-2.33 6.35 -2.66 4.7 -3 3 C-2.34 3.66 -1.68 4.32 -1 5 C-0.67 3.35 -0.34 1.7 0 0 Z " fill="#8F9090" transform="translate(1268,958)"/>
<path d="M0 0 C0.66 0.33 1.32 0.66 2 1 C-0.31 3.31 -2.62 5.62 -5 8 C-5 5 -5 5 -2.5 2.3125 C-1.675 1.549375 -0.85 0.78625 0 0 Z " fill="#636363" transform="translate(265,1535)"/>
<path d="M0 0 C0.33 0 0.66 0 1 0 C1 5.61 1 11.22 1 17 C0.67 17 0.34 17 0 17 C0 11.39 0 5.78 0 0 Z " fill="#F9F9F9" transform="translate(2163,334)"/>
<path d="M0 0 C0.33 0 0.66 0 1 0 C1 4.95 1 9.9 1 15 C0.67 15 0.34 15 0 15 C0 10.05 0 5.1 0 0 Z " fill="#F8F8F8" transform="translate(2163,1962)"/>
<path d="M0 0 C0.33 0 0.66 0 1 0 C1 3.63 1 7.26 1 11 C0.67 11 0.34 11 0 11 C0 7.37 0 3.74 0 0 Z " fill="#F9F9F9" transform="translate(2163,1978)"/>
<path d="M0 0 C0.33 0 0.66 0 1 0 C1 2.31 1 4.62 1 7 C0.67 7 0.34 7 0 7 C0 4.69 0 2.38 0 0 Z " fill="#F9F9F9" transform="translate(2163,1353)"/>
<path d="M0 0 C0.33 0 0.66 0 1 0 C1 1.98 1 3.96 1 6 C0.67 6 0.34 6 0 6 C0 4.02 0 2.04 0 0 Z " fill="#F9F9F9" transform="translate(2163,1326)"/>
<path d="M0 0 C1 4 1 4 1 4 Z " fill="#F9F9F9" transform="translate(2163,307)"/>
<path d="" fill="#F9F9F9" transform="translate(0,0)"/>
<path d="" fill="#F9F9F8" transform="translate(0,0)"/>
<path d="" fill="#FBFBF9" transform="translate(0,0)"/>
<path d="" fill="#FBFBF9" transform="translate(0,0)"/>
<path d="" fill="#F9F9F9" transform="translate(0,0)"/>
<path d="" fill="#F9F9F9" transform="translate(0,0)"/>
<path d="" fill="#F9F9F9" transform="translate(0,0)"/>
<path d="" fill="#FBF9FA" transform="translate(0,0)"/>
<path d="" fill="#F9F9F9" transform="translate(0,0)"/>
<path d="" fill="#F9F9F9" transform="translate(0,0)"/>
<path d="" fill="#FDFEF9" transform="translate(0,0)"/>
<path d="" fill="#FBFBF9" transform="translate(0,0)"/>
<path d="" fill="#FDFEF9" transform="translate(0,0)"/>
<path d="" fill="#FDFEF9" transform="translate(0,0)"/>
<path d="" fill="#FAFCF9" transform="translate(0,0)"/>
<path d="" fill="#FDFEF9" transform="translate(0,0)"/>
<path d="" fill="#FFFEFA" transform="translate(0,0)"/>
<path d="" fill="#FBF9FA" transform="translate(0,0)"/>
<path d="" fill="#F9F9F9" transform="translate(0,0)"/>
</svg>
