<?xml version="1.0" encoding="UTF-8"?>
<svg version="1.1" xmlns="http://www.w3.org/2000/svg" width="2398" height="2398">
<path d="M0 0 C3.92452076 0.00314989 7.84827727 -0.02036076 11.77270508 -0.0456543 C34.21576437 -0.10278212 56.44122839 1.53946686 78.4543457 6.06567383 C80.37718384 6.45190918 80.37718384 6.45190918 82.33886719 6.84594727 C113.1481068 13.12381473 143.29866163 22.16825107 171.8918457 35.31567383 C172.71217285 35.68547363 173.5325 36.05527344 174.37768555 36.4362793 C205.7823178 50.60493801 238.03124846 70.68026564 250.8918457 104.31567383 C255.24677758 116.52347483 255.57824919 130.87406207 251.8918457 143.31567383 C252.94243164 143.26926758 253.99301758 143.22286133 255.07543945 143.17504883 C267.57090461 142.78493779 275.22080284 145.13707585 284.8918457 153.31567383 C285.47708008 153.79391602 286.06231445 154.2721582 286.6652832 154.76489258 C314.58895674 179.84565818 319.42816588 241.05382421 321.5793457 275.69067383 C324.09822569 323.89287723 315.99832232 370.45627837 305.8918457 417.31567383 C307.0262207 417.64567383 308.1605957 417.97567383 309.3293457 418.31567383 C319.0581807 422.08001104 324.31161227 429.43591426 328.4543457 438.72583008 C344.53195199 478.87615666 328.79640192 529.34965315 312.82495117 566.81860352 C303.17836557 589.03355443 290.48707284 613.12708257 266.80981445 622.63989258 C261.75819062 624.41979263 257.19865047 624.40561967 251.8918457 624.31567383 C251.76527588 625.48469238 251.63870605 626.65371094 251.50830078 627.8581543 C251.00117807 631.89244473 250.1097621 635.71144803 249.02856445 639.63598633 C248.84105621 640.319552 248.65354797 641.00311768 248.46035767 641.70739746 C247.84071513 643.95394411 247.21114528 646.19751749 246.5793457 648.44067383 C246.24947159 649.61832306 246.24947159 649.61832306 245.91293335 650.81976318 C238.56666604 676.98749389 230.27106459 702.7618501 221.0168457 728.31567383 C212.17299828 752.75570645 203.72549263 778.07391853 202.8918457 804.31567383 C202.85188477 805.45520508 202.81192383 806.59473633 202.77075195 807.76879883 C202.13018572 843.79122926 214.84526371 878.36293341 239.71777344 904.54223633 C253.3037925 918.4166694 269.06258227 928.79612535 285.8918457 938.31567383 C286.59212891 938.71737793 287.29241211 939.11908203 288.01391602 939.53295898 C312.09972802 953.26035111 338.73327486 962.39059127 364.8918457 971.31567383 C365.61952148 971.56472473 366.34719727 971.81377563 367.09692383 972.07037354 C397.57403766 982.45535337 428.83441027 990.23361877 459.98950195 998.27441406 C476.86114979 1002.63005985 493.7164016 1007.02640647 510.5090332 1011.67895508 C511.23289593 1011.87863577 511.95675865 1012.07831646 512.70255661 1012.28404808 C562.55707976 1026.0620122 616.9898484 1046.06178537 650.2043457 1088.25317383 C651.80423748 1090.58313386 651.80423748 1090.58313386 654.8918457 1091.31567383 C674.76457646 1065.12824358 691.98236196 1035.0117328 687.42700195 1000.82739258 C684.26621972 985.21050996 676.23455533 973.2660474 663.1418457 964.31567383 C621.40807827 937.20492558 566.58620424 930.71507181 518.52856445 921.83911133 C446.61337004 908.54095528 446.61337004 908.54095528 420.9934082 894.01489258 C416.07316854 891.02828682 416.07316854 891.02828682 410.58813477 890.78442383 C409.78601562 891.12473633 408.98389648 891.46504883 408.1574707 891.81567383 C407.21339355 892.20086182 406.26931641 892.5860498 405.29663086 892.98291016 C404.25555176 893.42272217 403.21447266 893.86253418 402.1418457 894.31567383 C399.78256184 895.26381462 397.42037409 896.20474961 395.0559082 897.13989258 C394.41628143 897.39324875 393.77665466 897.64660492 393.11764526 897.90763855 C369.81882672 907.06430285 345.79799995 914.51870021 321.8293457 921.69067383 C320.88142151 921.97770172 319.93349731 922.26472961 318.95684814 922.56045532 C316.26025196 923.37392684 313.55951604 924.17162026 310.85668945 924.96411133 C310.06571365 925.20400284 309.27473785 925.44389435 308.45979309 925.6910553 C303.25017319 927.18979266 296.93730916 928.93357629 291.8918457 926.25317383 C290.26287313 923.09703946 290.40363665 920.79416334 290.8918457 917.31567383 C294.20286727 914.14797683 297.46663464 912.46947627 301.73950195 910.90551758 C302.88733154 910.47899902 304.03516113 910.05248047 305.21777344 909.61303711 C306.45084229 909.16428223 307.68391113 908.71552734 308.9543457 908.25317383 C310.92215899 907.52316407 312.88848609 906.78924057 314.85481262 906.05523682 C316.20386902 905.55189769 317.55330995 905.04958809 318.90312195 904.54827881 C344.83774079 894.91464571 370.56335177 884.46317147 395.4699707 872.38989258 C397.8918457 871.31567383 397.8918457 871.31567383 399.8918457 871.31567383 C399.73329102 870.61571289 399.57473633 869.91575195 399.41137695 869.19458008 C396.97792223 855.70994751 400.54839609 844.01103078 407.5949707 832.52270508 C415.58658756 821.36434208 425.57938893 812.02499342 436.8918457 804.31567383 C437.53589355 803.87223633 438.17994141 803.42879883 438.84350586 802.97192383 C448.98935367 796.07226817 459.64070841 790.15612004 470.5168457 784.50317383 C471.14160797 784.17770569 471.76637024 783.85223755 472.4100647 783.51690674 C480.40322447 779.37386281 488.44854667 775.37430292 497.14624023 772.91992188 C499.28255904 772.29331543 499.28255904 772.29331543 501.8918457 770.31567383 C504.81056408 763.49138048 504.17204858 755.2781684 504.0793457 748.00317383 C504.06564941 746.86452881 504.05195312 745.72588379 504.0378418 744.55273438 C504.00578423 742.23503723 503.9690503 739.91739974 503.92749023 737.59985352 C503.89545574 734.64829177 503.93920622 731.71139206 504.01293945 728.76098633 C504.16567078 714.27060197 499.47277116 703.06309784 492.8918457 690.31567383 C492.41215332 689.38577637 491.93246094 688.45587891 491.43823242 687.49780273 C488.05700426 681.02665571 484.50201956 674.66124864 480.8918457 668.31567383 C479.91263184 666.58132547 478.93346468 664.84695075 477.9543457 663.11254883 C472.654724 653.76162544 467.24672546 644.47371786 461.8293457 635.19067383 C461.23798828 634.17706787 460.64663086 633.16346191 460.03735352 632.11914062 C457.36107865 627.5347809 454.67985887 622.95358992 451.98168945 618.38208008 C435.67483388 590.66042561 420.25450768 561.20600942 410.8918457 530.31567383 C410.44204346 528.83526611 410.44204346 528.83526611 409.9831543 527.32495117 C398.18940863 487.97425911 397.76974227 456.19542561 417.4465332 419.35864258 C420.47408856 412.98441116 421.1921395 407.36535647 421.0793457 400.44067383 C421.07185303 399.19882324 421.07185303 399.19882324 421.06420898 397.93188477 C421.01238509 393.16226767 420.79058284 388.43115906 420.42675781 383.67602539 C418.81741427 362.43760469 424.32947869 342.51295989 438.0793457 326.00317383 C448.31547219 315.1935462 460.93041825 311.69868873 475.26293945 310.03833008 C478.60860512 309.11864486 479.81295386 308.08905261 481.8918457 305.31567383 C484.130928 299.44747493 484.57075434 293.33646072 485.2668457 287.12817383 C487.14393414 271.84845781 490.90835411 258.15308266 502.41137695 247.20629883 C513.87981278 238.46500286 525.78832994 236.30112252 539.8918457 237.31567383 C542.68724192 237.70805513 545.44125942 238.24097045 548.2043457 238.81567383 C570.73869371 243.43775745 587.41800555 234.34257021 606.1418457 222.94067383 C625.19955106 211.34536952 643.36097459 202.19324642 665.8918457 200.31567383 C666.7374707 200.24348633 667.5830957 200.17129883 668.4543457 200.09692383 C680.32853163 199.61553791 692.26466477 202.86984036 703.4543457 206.50317383 C704.25525635 206.75784424 705.05616699 207.01251465 705.88134766 207.27490234 C717.39674005 211.19057147 728.08173592 217.34555867 738.80981445 223.00708008 C762.49878487 235.73412135 762.49878487 235.73412135 787.8918457 244.31567383 C788.98110352 244.5915332 790.07036133 244.86739258 791.19262695 245.15161133 C806.24171734 248.15752562 822.66208957 246.63798901 837.8293457 245.31567383 C859.89175459 243.40634538 879.94566584 242.95185284 898.2043457 257.56567383 C908.51703191 267.22459056 912.24670466 281.30012347 913.13012695 295.01489258 C913.4171273 310.43738504 910.73543705 325.01907003 904.82299805 339.29248047 C903.4468921 342.61947102 902.8918457 344.62957348 902.8918457 348.31567383 C903.48352539 348.61860352 904.07520508 348.9215332 904.68481445 349.23364258 C912.75706401 353.51338337 919.47945837 359.20065803 922.5090332 368.13598633 C925.46376307 384.95985637 919.38420844 399.89048134 910.10327148 413.62475586 C906.14540018 419.14918485 901.5943412 424.53792 895.8918457 428.31567383 C895.2318457 428.31567383 894.5718457 428.31567383 893.8918457 428.31567383 C894.06312988 429.26482666 894.23441406 430.21397949 894.41088867 431.19189453 C901.41815348 470.29970569 903.85380669 504.57480528 893.03198242 543.40063477 C890.38871709 553.03931809 890.47980273 561.46632223 891.9597168 571.2902832 C895.82011996 597.20078578 895.33920991 624.52463696 890.8918457 650.31567383 C890.78014038 650.96497864 890.66843506 651.61428345 890.55334473 652.28326416 C882.27095041 700.08662777 871.91385332 754.22714678 839.8918457 792.31567383 C839.36461914 792.97567383 838.83739258 793.63567383 838.29418945 794.31567383 C822.59297405 813.32045465 797.86287277 825.42830007 773.51293945 827.88598633 C771.97281218 828.03174508 770.432522 828.1758375 768.8918457 828.31567383 C768.79199033 832.42318622 768.71991968 836.53021592 768.67211914 840.63867188 C768.65216575 842.03235197 768.62499251 843.42595013 768.59008789 844.81933594 C768.33908785 855.10664659 769.0085235 863.89846216 776.23950195 871.85473633 C795.41870566 888.81223558 824.29021908 893.59556051 848.3293457 899.19067383 C882.36841061 907.1179147 916.34604395 915.96479037 947.8918457 931.31567383 C948.64723633 931.68305664 949.40262695 932.05043945 950.1809082 932.42895508 C965.69756299 940.07915247 978.97726281 949.86581541 991.8918457 961.31567383 C992.54540039 961.88415039 993.19895508 962.45262695 993.87231445 963.03833008 C1033.90366081 1000.21708643 1048.48485257 1069.5192185 1050.8918457 1121.31567383 C1052.09991317 1154.51446815 1049.71085194 1186.69936183 1044.07543945 1219.41723633 C1043.89553467 1220.46218262 1043.71562988 1221.50712891 1043.53027344 1222.58374023 C1042.50356426 1226.97719174 1041.70081796 1228.77635899 1037.8918457 1231.31567383 C1031.80314517 1230.98949344 1031.80314517 1230.98949344 1029.19238281 1229.05908203 C1024.29594018 1222.49525683 1028.76794269 1208.35968572 1029.8293457 1200.62817383 C1038.95234776 1133.7715468 1032.20883489 1050.28482969 990.47583008 994.42016602 C987.44674161 990.55943985 984.22077468 986.91951435 980.8918457 983.31567383 C980.17770508 982.52032227 979.46356445 981.7249707 978.7277832 980.90551758 C952.77994691 953.35416332 913.57352523 942.11602977 878.0168457 933.44067383 C875.91906498 932.92131955 873.82141081 932.40145388 871.72387695 931.88110352 C860.12007539 929.01527681 848.49017211 926.29099856 836.82788086 923.67456055 C809.52145045 917.54782984 780.65047932 910.97091259 758.8918457 892.31567383 C758.2318457 891.80133789 757.5718457 891.28700195 756.8918457 890.75708008 C752.5673919 887.04075259 750.13908928 882.44994658 747.5793457 877.44067383 C747.24128906 876.78059326 746.90323242 876.1205127 746.55493164 875.44042969 C741.88352044 865.78641652 741.59923164 856.68772671 741.7043457 846.06567383 C741.70499023 844.81270508 741.70563477 843.55973633 741.70629883 842.26879883 C741.75466204 832.2092502 741.75466204 832.2092502 742.8918457 827.31567383 C741.25989258 827.38141602 741.25989258 827.38141602 739.5949707 827.44848633 C734.12901323 827.44128796 728.96739222 826.33875749 723.6418457 825.19067383 C722.58698975 824.96476562 721.53213379 824.73885742 720.4453125 824.50610352 C679.58312296 815.5164833 639.5488789 796.26489454 609.8918457 766.31567383 C608.50969052 765.05056602 607.11497548 763.7989517 605.7043457 762.56567383 C605.03016602 761.97270508 604.35598633 761.37973633 603.66137695 760.76879883 C601.94516538 759.24982667 601.94516538 759.24982667 599.8918457 758.31567383 C599.44711914 757.38368164 599.00239258 756.45168945 598.54418945 755.49145508 C596.81420981 752.16645874 595.37202924 750.77887117 592.4543457 748.50317383 C567.71887604 727.0128824 556.61407133 691.19836923 549.8918457 660.31567383 C540.62758624 672.00328181 533.70405416 684.53855553 529.3293457 698.81567383 C528.95205322 700.03371704 528.95205322 700.03371704 528.56713867 701.27636719 C526.44015746 708.73915066 526.35172476 715.57607249 527.8293457 723.19067383 C530.80381662 739.96162689 532.53151011 761.03059637 526.8918457 777.31567383 C526.61058018 778.93555491 526.36050247 780.56116034 526.1418457 782.19067383 C523.00114213 799.90807798 513.74814271 816.94488632 501.8918457 830.31567383 C501.08231445 831.25668945 500.2727832 832.19770508 499.4387207 833.16723633 C484.1183814 850.67782518 464.67382619 864.93778698 443.8918457 875.31567383 C443.2318457 875.31567383 442.5718457 875.31567383 441.8918457 875.31567383 C441.8918457 876.30567383 441.8918457 877.29567383 441.8918457 878.31567383 C442.50858154 878.50033203 443.12531738 878.68499023 443.76074219 878.87524414 C444.60709229 879.12886719 445.45344238 879.38249023 446.32543945 879.64379883 C447.24437988 879.91901367 448.16332031 880.19422852 449.11010742 880.4777832 C451.51045637 881.2007951 453.90638038 881.93659399 456.30200195 882.67504883 C478.72105349 889.45617998 501.75154868 893.64821789 524.79904175 897.63577271 C619.47257277 914.03414338 619.47257277 914.03414338 660.95483398 936.28149414 C662.96340515 937.35387976 664.98748375 938.39277531 667.01293945 939.43286133 C676.23611847 944.27470448 683.63805808 949.85082654 690.8918457 957.31567383 C691.57891602 958.01692383 692.26598633 958.71817383 692.97387695 959.44067383 C705.92026442 973.43066987 712.67055446 993.77169478 712.07543945 1012.74536133 C709.39953111 1050.20807808 692.56879085 1083.12832015 666.8918457 1110.31567383 C668.06842841 1114.29422154 669.60038297 1117.75480953 671.65551758 1121.35522461 C683.79549803 1142.77087554 691.26817694 1166.93992661 699.56173706 1190.02279663 C711.13510484 1222.84819082 711.13510484 1222.84819082 725.8918457 1254.31567383 C726.40102539 1255.32243164 726.91020508 1256.32918945 727.43481445 1257.36645508 C730.86200575 1264.00950953 734.9727352 1269.69383325 739.8918457 1275.31567383 C740.74069336 1276.29020508 740.74069336 1276.29020508 741.60668945 1277.28442383 C755.5251283 1292.21808998 776.75873349 1294.89506534 796.16137695 1295.60473633 C862.39963834 1296.96341904 929.79171021 1277.69004111 993.0793457 1260.25317383 C1056.49765174 1242.78345589 1120.34278592 1229.21610153 1186.3918457 1229.12817383 C1187.31731201 1229.12690491 1188.24277832 1229.12563599 1189.19628906 1229.12432861 C1220.4770031 1229.12920534 1220.4770031 1229.12920534 1226.8918457 1234.31567383 C1230.62901526 1239.10691685 1231.55052973 1242.89241467 1231.2746582 1248.95239258 C1230.46330916 1253.96123103 1227.84583714 1256.54833289 1224.0168457 1259.62817383 C1218.35056189 1262.68796709 1212.96501685 1262.36085506 1206.6965332 1261.88989258 C1197.13099944 1261.26957789 1187.6005348 1261.11422394 1178.0168457 1261.12817383 C1177.17190552 1261.12911041 1176.32696533 1261.130047 1175.4564209 1261.13101196 C1105.76306416 1261.29690183 1038.40126543 1279.6004599 971.61035156 1297.83007812 C795.31532598 1345.93035999 795.31532598 1345.93035999 737.6184082 1314.53442383 C730.2448983 1310.2031313 724.01826123 1305.2564404 717.8918457 1299.31567383 C717.00819336 1298.54223633 717.00819336 1298.54223633 716.10668945 1297.75317383 C709.45362786 1291.71351507 704.73627401 1283.80749012 699.8918457 1276.31567383 C699.19961914 1275.24704102 698.50739258 1274.1784082 697.79418945 1273.07739258 C685.7016363 1253.13833677 678.62956446 1230.30285019 670.84265137 1208.4593811 C657.86866587 1171.76809762 657.86866587 1171.76809762 641.8918457 1136.31567383 C637.22166125 1139.69468964 632.77013664 1143.25291643 628.3918457 1147.00317383 C602.83003712 1168.57984522 572.09318266 1184.83226892 542.45874023 1200.00073242 C540.22269026 1201.1461923 537.99216084 1202.30154191 535.76293945 1203.46020508 C458.32040198 1243.37243556 370.12360392 1267.77496681 -24.1081543 1322.31567383 C-25.75352173 1322.39398437 -25.75352173 1322.39398437 -27.43212891 1322.47387695 C-90.0031628 1325.4220359 -152.53819222 1324.87169009 -215.1081543 1322.31567383 C-216.2617041 1322.26946899 -217.41525391 1322.22326416 -218.60375977 1322.17565918 C-312.92042193 1318.36574628 -406.60786978 1308.48406504 -516.30151367 1294.91125488 C-542.21396043 1291.7000304 -568.11494883 1288.49595625 -594.1081543 1286.00317383 C-594.95539063 1285.921409 -595.80262695 1285.83964417 -596.67553711 1285.75540161 C-614.2124968 1284.07839953 -631.67627752 1283.1032587 -649.2956543 1283.12817383 C-650.09631317 1283.12877808 -650.89697205 1283.12938232 -651.72189331 1283.13000488 C-676.47423566 1283.18039884 -700.55354093 1285.23489406 -724.1081543 1293.31567383 C-724.11226318 1293.87963867 -724.11637207 1294.44360352 -724.12060547 1295.0246582 C-724.15385195 1297.62267086 -724.224522 1300.21843306 -724.2956543 1302.81567383 C-724.30145508 1303.70254883 -724.30725586 1304.58942383 -724.31323242 1305.50317383 C-724.52684872 1311.95913303 -725.99508519 1316.28980504 -730.1081543 1321.31567383 C-734.15888357 1324.80380181 -738.88347226 1325.4379908 -744.1081543 1325.31567383 C-749.91792571 1324.32273108 -753.29941083 1321.61406164 -756.97924805 1317.13208008 C-758.98870899 1313.89886438 -759.23256978 1310.73384101 -759.20581055 1306.98754883 C-759.20097656 1305.7887207 -759.20097656 1305.7887207 -759.19604492 1304.56567383 C-759.18766602 1303.74067383 -759.17928711 1302.91567383 -759.1706543 1302.06567383 C-759.16388672 1300.8049707 -759.16388672 1300.8049707 -759.15698242 1299.51879883 C-759.1452339 1297.45105981 -759.12729952 1295.38335759 -759.1081543 1293.31567383 C-760.34952148 1293.77006836 -760.34952148 1293.77006836 -761.6159668 1294.23364258 C-777.56032746 1299.82966549 -793.83911187 1303.14510137 -810.5456543 1305.56567383 C-811.66931396 1305.7288208 -812.79297363 1305.89196777 -813.95068359 1306.06005859 C-830.1428335 1308.28329935 -846.23222021 1308.52017486 -862.5456543 1308.50317383 C-863.61396484 1308.50256958 -864.68227539 1308.50196533 -865.78295898 1308.50134277 C-880.97484758 1308.47798291 -896.03030587 1308.36603276 -911.1081543 1306.31567383 C-912.02081055 1306.19740234 -912.9334668 1306.07913086 -913.8737793 1305.95727539 C-956.14806328 1300.28316555 -999.91573368 1287.853708 -1031.1081543 1257.31567383 C-1031.80424805 1256.65567383 -1032.5003418 1255.99567383 -1033.2175293 1255.31567383 C-1047.68134197 1240.51549342 -1053.00181398 1217.14687957 -1056.1081543 1197.31567383 C-1056.21111816 1196.6756543 -1056.31408203 1196.03563477 -1056.42016602 1195.3762207 C-1061.68638854 1161.06673933 -1057.55337272 1125.12136329 -1051.1081543 1091.31567383 C-1050.93058594 1090.37594727 -1050.75301758 1089.4362207 -1050.57006836 1088.46801758 C-1046.02199584 1064.89262563 -1038.809379 1042.2673195 -1029.1081543 1020.31567383 C-1028.75140625 1019.50050293 -1028.3946582 1018.68533203 -1028.02709961 1017.84545898 C-1020.3962592 1000.56959934 -1011.05375506 983.99111119 -999.1081543 969.31567383 C-998.68179688 968.78925293 -998.25543945 968.26283203 -997.81616211 967.72045898 C-983.85637368 950.56971819 -968.72099726 937.48460314 -949.1081543 927.31567383 C-948.46990723 926.97826172 -947.83166016 926.64084961 -947.17407227 926.29321289 C-923.370034 913.84149602 -896.75909255 907.97781857 -870.94699097 901.2244873 C-824.85703982 891.56878734 -824.85703982 891.56878734 -789.22924805 864.31958008 C-780.60604334 847.67575604 -782.66777203 832.00906836 -786.1081543 814.31567383 C-786.7165918 814.80036133 -787.3250293 815.28504883 -787.9519043 815.78442383 C-809.77751828 832.47459923 -835.90515837 838.74282292 -863.1081543 835.31567383 C-885.24235996 831.844433 -903.20571244 820.66337934 -919.1081543 805.31567383 C-919.7887793 804.68661133 -920.4694043 804.05754883 -921.1706543 803.40942383 C-934.2872956 790.99545974 -941.9573212 774.39510418 -942.51049805 756.44042969 C-942.75982772 736.05253438 -935.96505262 719.44327649 -927.34765625 701.19262695 C-907.21916406 658.53107736 -908.34983456 624.36115798 -916.76399231 578.70819092 C-922.18364357 549.17409398 -926.34579199 519.82293192 -926.2956543 489.75317383 C-926.29471771 489.0158905 -926.29378113 488.27860718 -926.29281616 487.51898193 C-926.13309965 429.04070782 -909.45584117 374.38835439 -869.4206543 330.87817383 C-868.91034668 330.32299072 -868.40003906 329.76780762 -867.87426758 329.19580078 C-830.97684873 289.92227778 -772.49354231 267.00276776 -719.2487793 264.93286133 C-716.59723373 264.86994159 -713.94814485 264.84032981 -711.2956543 264.81567383 C-710.07483154 264.79714355 -708.85400879 264.77861328 -707.59619141 264.75952148 C-695.5067691 264.84384899 -682.93659094 267.48723719 -674.1081543 276.31567383 C-671.89617416 276.37464716 -671.89617416 276.37464716 -669.4206543 276.00317383 C-668.59178711 275.90391602 -667.76291992 275.8046582 -666.90893555 275.70239258 C-664.90850365 275.42618232 -662.91258882 275.11641291 -660.9206543 274.78442383 C-615.23055744 269.16678897 -566.36985215 286.00164094 -530.44946289 313.58959961 C-515.57814148 325.23331685 -502.17468607 339.02580044 -491.1081543 354.31567383 C-490.62008301 354.98598633 -490.13201172 355.65629883 -489.62915039 356.34692383 C-486.04823381 361.28643222 -482.55468337 366.28165258 -479.1081543 371.31567383 C-478.71418457 371.88688965 -478.32021484 372.45810547 -477.91430664 373.04663086 C-440.01709823 428.39628107 -428.26013927 493.68351223 -424.30151939 559.35788345 C-424.17748358 561.41400368 -424.05231376 563.4700525 -423.92695618 565.52609253 C-423.23318475 576.94218479 -423.23318475 576.94218479 -422.94723511 582.18164062 C-420.56049668 625.74971333 -415.33139633 664.96903621 -382.8581543 696.50317383 C-370.58269179 708.56498114 -362.69443049 723.89794357 -361.9362793 741.24926758 C-362.00375523 745.32618301 -362.72000194 749.18738065 -363.7331543 753.12817383 C-363.91136719 753.82249512 -364.08958008 754.51681641 -364.27319336 755.23217773 C-372.17412167 784.12872009 -401.62908478 803.33521234 -426.1081543 817.31567383 C-430.97629441 819.96783837 -435.97143981 822.23055017 -441.1081543 824.31567383 C-441.79989746 824.60104004 -442.49164062 824.88640625 -443.2043457 825.18041992 C-469.79372428 835.99873409 -495.59797628 839.73371163 -524.1081543 839.31567383 C-515.81932763 848.98245385 -506.98685251 857.2058524 -496.6081543 864.56567383 C-495.61356201 865.27191895 -495.61356201 865.27191895 -494.59887695 865.99243164 C-493.22217012 866.94658489 -491.83016038 867.8789451 -490.42553711 868.79150391 C-488.76873502 869.88120212 -487.15151552 871.03205122 -485.56420898 872.22070312 C-477.06137157 878.06400754 -469.83695031 878.12581191 -459.90670776 877.72839355 C-455.56527347 877.55767029 -451.22173924 877.51114996 -446.87768555 877.44458008 C-445.59934593 877.42009293 -445.59934593 877.42009293 -444.29518127 877.39511108 C-417.96891485 876.93628429 -378.33042658 879.22799586 -358.0378418 898.25708008 C-354.59805383 901.92665145 -351.9710336 905.24625791 -351.1081543 910.31567383 C-351.30328641 915.77937287 -352.5729352 919.14592823 -356.1081543 923.31567383 C-366.77286054 932.23166381 -382.02438339 931.14599405 -395.1081543 930.31567383 C-419.86831967 927.98002104 -446.98171898 922.63258605 -469.31616211 911.18383789 C-479.61157085 905.92749315 -491.11569635 908.41769312 -502.1706543 909.87817383 C-502.83188293 909.96525604 -503.49311157 910.05233826 -504.17437744 910.14205933 C-544.41862112 915.50998434 -583.1719119 926.60735534 -621.9206543 938.44067383 C-740.59978685 974.661491 -740.59978685 974.661491 -787.1081543 952.31567383 C-797.46426586 946.29912606 -805.79569592 938.66132613 -810.1081543 927.31567383 C-811.20142825 922.88791432 -811.18505801 918.8529931 -811.1081543 914.31567383 C-811.93387939 914.622229 -812.75960449 914.92878418 -813.61035156 915.24462891 C-822.65537314 918.54593881 -831.78222493 921.38457415 -841.0456543 924.00317383 C-841.78350159 924.21366364 -842.52134888 924.42415344 -843.28155518 924.64102173 C-854.79114491 927.92162963 -866.35545893 930.9454877 -877.96066284 933.86764526 C-910.49558362 942.06464885 -939.6252459 951.45120442 -964.1081543 975.31567383 C-965.14649414 976.24379883 -965.14649414 976.24379883 -966.20581055 977.19067383 C-1009.09971281 1016.6495408 -1025.25768915 1092.47692396 -1027.8996582 1147.74121094 C-1027.98404433 1149.93253616 -1028.05056616 1152.12348526 -1028.1081543 1154.31567383 C-1028.13006836 1155.09297852 -1028.15198242 1155.8702832 -1028.17456055 1156.67114258 C-1028.8157033 1183.21445273 -1027.40517053 1215.60062454 -1010.1081543 1237.31567383 C-1009.35211914 1238.27666992 -1009.35211914 1238.27666992 -1008.58081055 1239.25708008 C-1001.90754672 1246.74747825 -992.70635838 1251.37946018 -984.1081543 1256.31567383 C-983.47490234 1256.68724609 -982.84165039 1257.05881836 -982.18920898 1257.44165039 C-955.21748093 1273.20357833 -925.61602201 1278.96342007 -895.1081543 1283.31567383 C-894.18518555 1283.45134766 -893.2622168 1283.58702148 -892.3112793 1283.72680664 C-851.83917005 1289.44639214 -807.75421573 1285.55392998 -768.33129883 1275.53466797 C-765.09488708 1274.71878312 -762.48381483 1274.31567383 -759.1081543 1274.31567383 C-759.14295898 1273.01500977 -759.17776367 1271.7143457 -759.21362305 1270.37426758 C-760.31512549 1209.48410732 -746.21825469 1139.69728383 -707.1081543 1091.31567383 C-706.47224365 1090.52749268 -706.47224365 1090.52749268 -705.82348633 1089.72338867 C-653.22608102 1024.94229503 -565.38823895 1010.1305585 -488.57029724 991.1519928 C-445.6180928 980.54734884 -445.6180928 980.54734884 -403.1081543 968.31567383 C-402.38690369 968.09308899 -401.66565308 967.87050415 -400.92254639 967.64117432 C-348.74304259 951.48800783 -293.77234772 932.0335306 -253.23706055 894.10083008 C-251.1081543 892.31567383 -251.1081543 892.31567383 -248.1081543 891.31567383 C-248.1081543 890.65567383 -248.1081543 889.99567383 -248.1081543 889.31567383 C-247.4481543 889.31567383 -246.7881543 889.31567383 -246.1081543 889.31567383 C-246.1081543 888.65567383 -246.1081543 887.99567383 -246.1081543 887.31567383 C-245.4481543 887.31567383 -244.7881543 887.31567383 -244.1081543 887.31567383 C-243.84260742 886.72657227 -243.57706055 886.1374707 -243.3034668 885.53051758 C-242.07678604 883.25755028 -240.76403089 881.73774032 -238.9831543 879.87817383 C-217.324746 855.56312085 -212.51690992 823.59593898 -214.1081543 792.31567383 C-216.18700589 762.72572377 -225.00744905 733.89120503 -236.9206543 706.87817383 C-262.1081543 649.61105203 -262.1081543 649.61105203 -262.1081543 626.31567383 C-262.70241211 626.36208008 -263.29666992 626.40848633 -263.90893555 626.45629883 C-275.9319742 626.97985261 -285.18779314 622.13458795 -294.1081543 614.31567383 C-320.02033627 588.07958958 -330.03596991 539.13141666 -337.1081543 504.31567383 C-337.3016748 503.37062988 -337.49519531 502.42558594 -337.69458008 501.4519043 C-343.24005108 473.1525236 -344.12641499 435.46915731 -327.6862793 410.39379883 C-321.67962493 402.48404605 -312.97640526 398.27991264 -303.2331543 396.67895508 C-302.2019043 396.55907227 -301.1706543 396.43918945 -300.1081543 396.31567383 C-300.26896484 395.53369629 -300.42977539 394.75171875 -300.59545898 393.94604492 C-317.21164762 312.46509139 -318.25402364 228.65446968 -281.1081543 152.31567383 C-280.69726562 151.4679541 -280.28637695 150.62023437 -279.86303711 149.74682617 C-271.23031353 132.14174168 -260.91462081 115.21953852 -248.1081543 100.31567383 C-247.23338349 99.25926966 -246.35977673 98.20190099 -245.48706055 97.14379883 C-233.70742327 82.98106721 -221.02497092 70.59541148 -206.10131836 59.77075195 C-204.27870304 58.44018026 -202.48359158 57.08088804 -200.6940918 55.70629883 C-157.87027218 23.2785333 -99.63969009 8.89340594 -47.1081543 2.31567383 C-46.38195892 2.22351593 -45.65576355 2.13135803 -44.90756226 2.03640747 C-29.95313507 0.20752766 -15.0529849 -0.02514574 0 0 Z M-48.1081543 36.31567383 C-49.88633545 36.5730835 -49.88633545 36.5730835 -51.70043945 36.83569336 C-117.36352957 46.42924315 -184.15952343 69.51696528 -225.40112305 124.58129883 C-249.77899077 157.93954937 -266.35936545 195.19775187 -274.4206543 235.75317383 C-274.65115479 236.90454834 -274.88165527 238.05592285 -275.11914062 239.2421875 C-279.37725427 262.10589652 -280.63172808 284.90979134 -280.4831543 308.12817383 C-280.47816925 309.44561584 -280.4731842 310.76305786 -280.4680481 312.12042236 C-280.34806126 341.66731759 -277.28678433 369.67008271 -271.72924805 398.66723633 C-271.59595093 399.38236389 -271.46265381 400.09749146 -271.32531738 400.83428955 C-270.65095363 404.27329471 -269.89849864 407.28361551 -268.1081543 410.31567383 C-254.12523802 369.86763753 -249.38477707 329.84980905 -247.6472168 287.29614258 C-244.94670007 221.36343027 -244.94670007 221.36343027 -229.1081543 193.31567383 C-228.55385742 192.31020508 -227.99956055 191.30473633 -227.4284668 190.26879883 C-218.40737423 174.98905353 -204.65977212 165.10132257 -188.1081543 159.31567383 C-187.19420898 158.99469727 -186.28026367 158.6737207 -185.33862305 158.34301758 C-177.87271324 156.19419481 -170.52539887 156.00831126 -162.7956543 155.94067383 C-161.78865479 155.92673584 -160.78165527 155.91279785 -159.74414062 155.8984375 C-145.64140506 155.98502634 -132.67279392 159.4475684 -119.46099854 164.04190063 C-117.153586 164.84330943 -114.84144021 165.62949944 -112.52758789 166.41210938 C-109.30440025 167.50284844 -106.08254308 168.597344 -102.86206055 169.69604492 C-17.22128574 198.89156552 82.35329683 210.46262295 178.5925293 174.3605957 C195.70853245 165.89723902 212.627843 153.70057236 220.0480957 135.47583008 C222.06656523 127.91591412 222.31283765 118.28245296 219.0793457 111.06567383 C196.20452275 72.96220829 140.82512714 55.04355049 100.66137695 44.90942383 C80.30842468 40.00379421 59.71788547 36.45659571 38.8918457 34.31567383 C38.05195602 34.22834488 37.21206635 34.14101593 36.34672546 34.05104065 C29.98587315 33.42808719 23.69149865 33.14360915 17.30200195 33.11254883 C16.32789871 33.10553452 15.35379547 33.0985202 14.35017395 33.09129333 C11.21818359 33.0738748 8.08638275 33.06743915 4.9543457 33.06567383 C3.88049622 33.06499908 2.80664673 33.06432434 1.70025635 33.06362915 C-15.10900911 33.08039048 -31.46846608 33.7673875 -48.1081543 36.31567383 Z M253.03637695 179.16723633 C235.46379319 196.77182844 228.83387671 228.16615589 228.51123047 252.19360352 C228.56433995 284.67813603 238.00664487 313.46289973 248.87840271 343.70004272 C258.8506055 371.45789346 264.6412312 398.08495711 267.8918457 427.31567383 C270.536289 424.67123053 270.8651837 422.41884277 271.8449707 418.80786133 C272.02572647 418.14333954 272.20648224 417.47881775 272.39271545 416.79415894 C272.98562222 414.59549406 273.56532033 412.39368821 274.1418457 410.19067383 C274.34160004 409.43226196 274.54135437 408.6738501 274.74716187 407.89245605 C283.93433284 372.81976356 290.13477434 336.30419327 290.0793457 300.00317383 C290.07794083 298.81073563 290.07794083 298.81073563 290.07650757 297.59420776 C289.98322307 260.92788707 287.64667635 204.72509381 262.2668457 175.44067383 C258.66744325 172.49570819 255.72361455 176.71725034 253.03637695 179.16723633 Z M-195.1081543 198.31567383 C-206.34240482 211.7117202 -212.20192948 227.09437062 -214.0925293 244.33911133 C-214.17805054 245.11698502 -214.26357178 245.8948587 -214.35168457 246.69630432 C-215.28906259 255.55777741 -215.8729394 264.43964478 -216.42623901 273.33206177 C-216.61334875 276.33658396 -216.80672727 279.3406581 -217.00097656 282.34472656 C-217.59333185 291.5850017 -218.15260675 300.82520021 -218.60424805 310.07348633 C-220.92661707 357.28841604 -231.64597147 401.48693039 -246.5843811 446.12487793 C-247.09343742 447.64841291 -247.59825921 449.17337042 -248.09848022 450.6998291 C-254.05868538 468.8029998 -254.05868538 468.8029998 -261.9831543 474.31567383 C-267.15427393 475.97043211 -271.19186272 476.02958638 -276.2956543 474.12817383 C-286.61543702 467.47764718 -290.20999818 455.4237778 -294.57250977 444.45532227 C-296.51382128 439.60261817 -298.72039956 434.96606078 -301.1081543 430.31567383 C-301.7681543 430.31567383 -302.4281543 430.31567383 -303.1081543 430.31567383 C-303.76008118 432.81422149 -304.40478494 435.31428753 -305.0456543 437.81567383 C-305.22805664 438.51176758 -305.41045898 439.20786133 -305.59838867 439.92504883 C-316.95667469 484.53213575 -299.29729417 536.00216604 -281.2956543 576.75317383 C-280.95937012 577.52072998 -280.62308594 578.28828613 -280.27661133 579.07910156 C-277.4752454 585.15556367 -273.85024811 590.57358001 -269.1081543 595.31567383 C-265.64075985 595.117537 -263.81947811 594.13247548 -260.8581543 592.25317383 C-256.67749664 589.76663888 -252.86513829 589.47518667 -248.1081543 590.31567383 C-243.62768042 592.38996729 -241.73713014 594.4144145 -239.90307617 598.94384766 C-238.27445075 603.80321374 -237.2042436 608.81819281 -236.03570557 613.80395508 C-227.88308566 648.3111957 -214.87316236 680.60313197 -199.1081543 712.31567383 C-198.65327637 713.24009277 -198.19839844 714.16451172 -197.72973633 715.11694336 C-188.4841966 733.81407978 -177.20356677 751.08631649 -164.1081543 767.31567383 C-163.38499023 768.21930664 -162.66182617 769.12293945 -161.91674805 770.05395508 C-159.67176086 772.82906446 -157.39437914 775.57446016 -155.1081543 778.31567383 C-154.69436523 778.82114746 -154.28057617 779.32662109 -153.85424805 779.84741211 C-141.73501623 794.63920586 -128.29410722 808.65726516 -113.1081543 820.31567383 C-112.37725586 820.93700195 -111.64635742 821.55833008 -110.89331055 822.19848633 C-81.16721756 847.30052041 -43.62475007 861.53296701 -4.7956543 861.56567383 C-3.7189447 861.56668594 -3.7189447 861.56668594 -2.6204834 861.56771851 C8.50341661 861.55111057 19.04448919 860.86033192 29.8918457 858.31567383 C31.51022 857.97138146 33.12871521 857.62765712 34.74731445 857.28442383 C68.88741401 849.71604799 98.38703083 830.65390979 123.8918457 807.31567383 C125.29756836 806.06657227 125.29756836 806.06657227 126.73168945 804.79223633 C139.08224575 793.72380085 149.96349237 781.58945056 159.8918457 768.31567383 C160.6652832 767.28700195 160.6652832 767.28700195 161.4543457 766.23754883 C169.61742354 755.32728134 177.0809358 744.11832863 183.8918457 732.31567383 C184.44630371 731.35564453 184.44630371 731.35564453 185.01196289 730.3762207 C204.27173663 696.61392609 214.241349 656.89934549 224.5949707 619.64770508 C225.04661863 618.03189762 225.49827867 616.41609355 225.94995117 614.80029297 C226.81279728 611.71087087 227.65840561 608.61742605 228.49389648 605.52050781 C228.88386517 604.11355126 229.27430307 602.70672464 229.6652832 601.30004883 C230.16680908 599.45491699 230.16680908 599.45491699 230.6784668 597.57250977 C232.18955759 593.51658398 234.00193161 590.25352593 237.9699707 588.28442383 C242.84138944 587.23303849 246.54524006 587.07723468 251.1652832 589.12036133 C254.25765376 591.26123326 255.35148035 593.92687005 256.8918457 597.31567383 C257.2218457 597.97567383 257.5518457 598.63567383 257.8918457 599.31567383 C269.46752476 596.06001409 277.03523878 583.43206838 282.6262207 573.60864258 C291.39323511 557.64958105 297.97103369 540.83910846 302.8918457 523.31567383 C303.39651367 521.6237793 303.39651367 521.6237793 303.91137695 519.89770508 C310.2062217 497.90111276 315.96020629 467.64825845 304.85864258 446.33178711 C303.89921942 444.64264396 302.89907411 442.97675429 301.8918457 441.31567383 C298.80249277 441.95966016 298.80249277 441.95966016 297.91552734 444.18457031 C297.48808228 445.42315796 297.48808228 445.42315796 297.05200195 446.68676758 C296.55035522 448.11098022 296.55035522 448.11098022 296.03857422 449.56396484 C295.68077881 450.61640381 295.3229834 451.66884277 294.9543457 452.75317383 C294.56883545 453.85266357 294.1833252 454.95215332 293.78613281 456.08496094 C292.70902817 459.16079457 291.64192958 462.23988009 290.57983398 465.32092285 C278.54276136 500.22117193 278.54276136 500.22117193 272.4543457 515.06567383 C272.06577393 516.02868408 271.67720215 516.99169434 271.27685547 517.98388672 C268.8253821 523.81652021 266.3438802 528.91425853 261.00512695 532.62817383 C255.39830877 534.76873782 250.44958177 534.70021167 244.8918457 532.31567383 C241.43376714 529.45839275 239.30813798 526.56455067 237.8918457 522.31567383 C237.51145542 516.19586551 237.94760848 510.05162187 238.36450195 503.94458008 C238.90883232 495.61392189 239.21953458 487.28515399 239.4543457 478.94067383 C239.48511703 477.85718155 239.48511703 477.85718155 239.51651001 476.75180054 C239.6514407 471.93997972 239.77377675 467.1279359 239.8918457 462.31567383 C239.91666016 461.39963379 239.94147461 460.48359375 239.96704102 459.53979492 C240.99867091 418.24837112 232.73273889 381.00050044 218.67163086 342.54882812 C211.93293933 324.09351704 206.10818667 305.73532835 202.8918457 286.31567383 C202.5534668 284.36854492 202.5534668 284.36854492 202.20825195 282.38208008 C198.24309961 255.22762302 200.95234028 228.69140094 208.30639648 202.45092773 C209.22869867 199.08710165 210.05945844 195.70276117 210.8918457 192.31567383 C209.98305664 192.81196289 209.07426758 193.30825195 208.13793945 193.81958008 C204.07612162 196.02383259 199.98879328 198.17754599 195.8918457 200.31567383 C194.21541992 201.19352539 194.21541992 201.19352539 192.50512695 202.08911133 C163.76913919 216.30691712 131.48150309 222.47673628 99.8918457 226.31567383 C98.92263184 226.43426758 97.95341797 226.55286133 96.95483398 226.67504883 C24.08089549 235.09369876 -48.04043867 221.65995651 -116.33789062 196.95068359 C-141.9861556 187.67571873 -172.33775104 176.84448276 -195.1081543 198.31567383 Z M617.5168457 247.81567383 C592.21396134 263.73051323 569.09580993 271.3433944 539.2902832 264.99536133 C533.73465903 263.88423649 529.11227765 263.58976339 523.6418457 265.37817383 C516.14247335 270.66182253 513.9483533 278.5887356 512.34277344 287.29199219 C511.68896077 291.50556286 511.09433635 295.72552946 510.51879883 299.95043945 C508.766216 311.86653612 505.63744565 323.07955104 495.9074707 330.91333008 C488.56251135 335.79573523 480.71053704 336.72802335 472.12036133 337.35083008 C465.78062659 337.95570126 461.98675912 340.27313324 457.3918457 344.75317383 C449.96252335 354.16043266 447.7106352 364.53423638 447.7668457 376.12817383 C447.7673291 377.06161621 447.7678125 377.99505859 447.76831055 378.95678711 C447.79614998 384.5697934 448.05399099 390.09784607 448.5168457 395.69067383 C449.66209526 412.61301802 444.69111597 426.63949679 437.40551758 441.54199219 C422.5155617 472.05126967 429.48058454 502.39103911 440.0168457 533.31567383 C446.54834163 552.1921221 454.69070539 570.39275626 463.7980957 588.16333008 C465.91726412 592.32023972 467.90968962 596.53419075 469.90795898 600.75024414 C479.63350915 621.25102544 490.17190421 641.33575542 500.77661133 661.39257812 C503.56024959 666.66169444 506.27631008 671.9607088 508.8918457 677.31567383 C509.8818457 677.31567383 510.8718457 677.31567383 511.8918457 677.31567383 C512.53817845 675.54502271 513.183894 673.7741463 513.8293457 672.00317383 C514.36881836 670.52397461 514.36881836 670.52397461 514.91918945 669.01489258 C515.60070535 667.12361753 516.2561268 665.22283053 516.8918457 663.31567383 C516.29758789 662.9005957 515.70333008 662.48551758 515.09106445 662.05786133 C503.20930513 653.22507602 495.13368914 641.07511226 487.8918457 628.31567383 C487.52317383 627.66727539 487.15450195 627.01887695 486.7746582 626.35083008 C481.13980591 616.34802181 476.32791004 606.28199394 472.8918457 595.31567383 C472.64917969 594.55367676 472.40651367 593.79167969 472.15649414 593.0065918 C465.35742887 570.86707954 464.90403384 547.10780382 474.7043457 525.87817383 C481.52328268 513.19257038 492.36966591 505.12016716 505.9621582 500.63208008 C518.90622701 497.16918344 532.65394116 498.9509885 544.5168457 504.94067383 C561.43095377 514.83567076 571.48213984 531.85903031 576.8918457 550.31567383 C577.2218457 550.31567383 577.5518457 550.31567383 577.8918457 550.31567383 C577.87089844 549.23261963 577.84995117 548.14956543 577.82836914 547.03369141 C577.75509584 542.95407727 577.70973402 538.87451921 577.67211914 534.79443359 C577.65219998 533.04010181 577.62505436 531.28583467 577.59008789 529.53173828 C577.15830766 507.28870688 583.75417451 489.95798396 599.2824707 473.74536133 C605.65820271 467.20277699 612.160028 461.04221518 619.3215332 455.36645508 C631.20832293 446.36471563 631.20832293 446.36471563 637.20043945 433.25708008 C637.78490401 422.47105229 631.77461374 414.512866 625.8918457 406.00317383 C618.31984827 394.99836769 612.21875719 382.42556251 614.4543457 368.75317383 C616.54898024 360.84941953 621.94090608 353.61428123 628.8918457 349.31567383 C648.97965496 339.30296145 671.4272782 348.15054702 691.27001953 354.34741211 C706.3325802 359.02344819 720.60068183 358.53407822 734.78735352 351.35668945 C742.56416328 347.14542063 749.69623634 342.06793652 756.8203125 336.85400391 C766.2945934 330.02157683 776.89532721 324.2814912 788.8918457 325.31567383 C798.43708783 327.40131685 805.15721365 331.34909692 810.8918457 339.31567383 C812.920795 342.70430096 814.50944425 346.15268225 815.7434082 349.90551758 C817.2119002 354.25353082 818.35713173 357.5981628 822.3918457 360.06567383 C828.68673043 362.61445013 835.70995848 360.3763029 841.8918457 358.31567383 C859.05368476 357.15118864 859.05368476 357.15118864 865.8918457 362.31567383 C866.71297852 362.91895508 867.53411133 363.52223633 868.38012695 364.14379883 C878.23017406 372.66110239 882.57665224 387.13301166 885.8918457 399.31567383 C888.81649924 395.85059518 891.08342097 392.41705266 893.1418457 388.37817383 C893.66262695 387.37915039 894.1834082 386.38012695 894.7199707 385.35083008 C895.97150537 382.10935529 896.11756428 379.75788208 895.8918457 376.31567383 C895.02301758 375.94055664 894.15418945 375.56543945 893.2590332 375.17895508 C879.30998897 368.98458085 879.30998897 368.98458085 875.0793457 362.56567383 C870.98340172 351.35572187 874.79159572 342.33045979 879.17041016 331.71777344 C885.19844794 317.09166244 889.93515021 298.93987061 884.2043457 283.37817383 C881.17875224 277.34821915 877.09937271 273.90214341 870.8918457 271.31567383 C866.25350339 270.07935097 861.65820104 270.12447934 856.8918457 270.12817383 C856.00811279 270.1275293 855.12437988 270.12688477 854.21386719 270.1262207 C848.06908769 270.17399353 842.0570656 270.63071716 835.9543457 271.31567383 C815.81622328 273.47326143 795.50812591 273.81397276 775.8918457 268.31567383 C774.88492676 268.03481934 774.88492676 268.03481934 773.85766602 267.74829102 C756.53174734 262.74494592 741.06425326 254.35112784 725.37280273 245.68139648 C685.89578671 223.95000231 655.60643531 223.7881075 617.5168457 247.81567383 Z M-744.3581543 295.44067383 C-745.50695068 295.66658203 -746.65574707 295.89249023 -747.83935547 296.12524414 C-778.08771879 302.26862223 -806.7650815 314.19405498 -831.1081543 333.31567383 C-832.09557617 334.07879883 -833.08299805 334.84192383 -834.1003418 335.62817383 C-871.13785994 365.00637519 -890.21195373 408.40471554 -897.1081543 454.31567383 C-897.23802734 455.17112793 -897.36790039 456.02658203 -897.50170898 456.90795898 C-899.75680582 472.60836005 -899.31422018 488.4961544 -899.1081543 504.31567383 C-898.7781543 504.31567383 -898.4481543 504.31567383 -898.1081543 504.31567383 C-897.98811035 503.58268066 -897.86806641 502.8496875 -897.74438477 502.09448242 C-891.17730376 462.48812652 -880.77749744 427.353426 -852.47583008 397.75512695 C-851.18899979 396.40076219 -849.92695559 395.02296997 -848.66674805 393.64379883 C-835.1351282 379.32865795 -818.38468647 368.55014814 -801.1081543 359.31567383 C-800.46023926 358.9648877 -799.81232422 358.61410156 -799.14477539 358.25268555 C-788.23934254 352.39675022 -776.81988787 347.68958813 -765.4050293 342.92895508 C-764.36950928 342.49083496 -763.33398926 342.05271484 -762.26708984 341.60131836 C-760.11295612 340.72461474 -757.93508458 339.90461047 -755.74023438 339.13549805 C-750.16102773 337.31347639 -750.16102773 337.31347639 -745.81176758 333.63330078 C-745.04911974 331.683425 -744.63793534 329.87977735 -744.2956543 327.81567383 C-743.95080227 326.38338843 -743.59512745 324.95367007 -743.22924805 323.52661133 C-743.05377441 322.81730469 -742.87830078 322.10799805 -742.69750977 321.37719727 C-740.11919029 312.35841944 -734.43468753 304.97931067 -728.02612305 298.33911133 C-725.95250446 296.26616622 -725.95250446 296.26616622 -724.1081543 293.31567383 C-731.08689132 293.02910733 -737.5204674 294.09476356 -744.3581543 295.44067383 Z M-664.1081543 295.31567383 C-664.25510742 296.2824707 -664.40206055 297.24926758 -664.5534668 298.24536133 C-665.95739249 306.69066493 -667.84744082 313.361443 -673.1081543 320.31567383 C-673.67276367 321.07235352 -674.23737305 321.8290332 -674.8190918 322.60864258 C-687.25698935 337.85425118 -707.20245333 345.52385622 -725.1081543 352.31567383 C-724.0879046 390.89966218 -692.05409688 425.9315071 -668.27905273 453.44580078 C-664.80195944 457.47754019 -661.45449489 461.59383647 -658.1550293 465.77270508 C-655.75720422 468.75168242 -653.27946324 471.65859164 -650.7956543 474.56567383 C-645.55088551 480.72454381 -640.520589 487.02982349 -635.57348633 493.42944336 C-634.04308283 495.39943627 -632.49616737 497.35571428 -630.94799805 499.31176758 C-618.66545357 514.9435953 -608.60763738 531.35085732 -600.1081543 549.31567383 C-595.71241008 548.49110963 -593.90773038 546.14593263 -591.2331543 542.75317383 C-590.79406738 542.21104248 -590.35498047 541.66891113 -589.90258789 541.11035156 C-587.00618578 537.51358555 -584.181008 533.86342109 -581.4597168 530.13208008 C-581.01370117 529.53266602 -580.56768555 528.93325195 -580.1081543 528.31567383 C-579.50229492 527.49196289 -578.89643555 526.66825195 -578.2722168 525.81958008 C-572.55063686 519.19948488 -563.29068468 514.07310481 -554.55737305 513.00317383 C-545.23527344 512.58124004 -537.39445574 515.04259248 -530.2331543 521.06567383 C-519.41005814 531.59989731 -515.13607584 546.59645556 -514.86645508 561.46655273 C-514.78534497 583.19928998 -521.04141164 601.19437438 -531.03735352 620.26831055 C-532.12713022 622.35195565 -533.19847833 624.44438496 -534.26831055 626.53833008 C-537.9284233 633.64167807 -541.77403374 640.56074674 -546.0456543 647.31567383 C-546.45605957 647.96487793 -546.86646484 648.61408203 -547.28930664 649.28295898 C-548.12834761 650.60808763 -548.9675418 651.93311927 -549.80688477 653.25805664 C-552.10138328 656.88620551 -554.37443143 660.52474282 -556.6081543 664.19067383 C-557.02959717 664.85583008 -557.45104004 665.52098633 -557.88525391 666.20629883 C-563.45785807 675.4494464 -563.63545325 686.14581745 -564.54077148 696.66259766 C-564.73076607 698.85066984 -564.93449936 701.0371571 -565.1394043 703.22387695 C-567.92592936 734.11851596 -565.01307973 765.29888257 -553.8347168 794.41625977 C-553.16212493 796.17458125 -552.53911776 797.95165387 -551.9206543 799.72973633 C-550.12510244 803.98294978 -548.4748461 806.51893866 -544.44799805 808.86645508 C-513.1825351 819.50768282 -472.77316047 808.22935797 -444.1081543 794.31567383 C-443.48634277 794.01967285 -442.86453125 793.72367188 -442.22387695 793.41870117 C-422.34717691 783.84996989 -403.09358436 769.25756587 -392.1706543 749.87817383 C-389.97676763 742.52220089 -390.23695442 736.40807759 -393.4206543 729.37817383 C-397.26049014 722.39255697 -402.5756157 716.94998153 -408.1081543 711.31567383 C-433.79146221 684.93126664 -444.53462849 652.40871477 -448.6628418 616.24926758 C-448.79025757 615.13593048 -448.91767334 614.02259338 -449.0489502 612.8755188 C-450.30536999 601.35548585 -450.91796288 589.82279872 -451.4442749 578.25 C-453.30066133 537.93080792 -455.73937254 497.26710395 -467.1081543 458.31567383 C-467.56351563 456.74221191 -467.56351563 456.74221191 -468.02807617 455.13696289 C-479.59444001 416.02775882 -500.18512998 376.39273834 -528.10424805 346.47583008 C-529.97732009 344.45670954 -531.72752271 342.3740432 -533.4831543 340.25317383 C-537.82733696 335.29265404 -542.89116526 331.3200294 -548.1081543 327.31567383 C-549.14842773 326.51000977 -550.18870117 325.7043457 -551.26049805 324.87426758 C-572.31330132 308.97616966 -597.08237535 299.18842039 -623.1081543 295.31567383 C-624.12232422 295.16098633 -624.12232422 295.16098633 -625.15698242 295.00317383 C-632.40624874 294.04381146 -639.68344811 294.16886196 -646.9831543 294.19067383 C-648.30057617 294.18680664 -649.61799805 294.18293945 -650.9753418 294.17895508 C-652.2334668 294.18024414 -653.4915918 294.1815332 -654.7878418 294.18286133 C-656.50076416 294.18455322 -656.50076416 294.18455322 -658.24829102 294.1862793 C-661.18201525 294.18861344 -661.18201525 294.18861344 -664.1081543 295.31567383 Z M-713.4831543 314.00317383 C-716.25131637 316.92631023 -717.78879902 319.51086643 -719.1081543 323.31567383 C-708.75375898 320.18210683 -699.31890251 313.34245321 -692.1081543 305.31567383 C-691.29276599 303.16705408 -691.29276599 303.16705408 -691.1081543 301.31567383 C-698.07499092 301.31567383 -708.80805458 309.43537149 -713.4831543 314.00317383 Z M764.3918457 364.06567383 C743.40603917 378.22515627 722.71915146 388.16864127 696.78637695 383.69067383 C690.13968758 382.31705203 683.67485383 380.25539569 677.1809082 378.30395508 C675.98989502 377.94688477 674.79888184 377.58981445 673.57177734 377.22192383 C671.21310362 376.50876609 668.8578872 375.78404069 666.50683594 375.04614258 C655.34571821 371.57384398 655.34571821 371.57384398 643.8293457 371.94067383 C641.6852116 373.17473631 641.6852116 373.17473631 641.1262207 375.62817383 C640.84070247 378.90211627 641.42843672 379.96218833 643.2043457 382.69067383 C643.75606445 383.55563477 644.3077832 384.4205957 644.8762207 385.31176758 C646.35709277 387.51872615 647.84653716 389.71836811 649.3449707 391.91333008 C659.66690197 407.07044528 665.61536363 420.72283853 663.8918457 439.31567383 C660.23441136 458.28177049 645.79487411 470.49490981 631.25512695 481.69458008 C619.48047961 490.80088405 607.11792541 502.115942 603.8918457 517.31567383 C603.67020673 520.56240544 603.70203161 523.81205837 603.7043457 527.06567383 C603.70337891 528.47913086 603.70337891 528.47913086 603.70239258 529.92114258 C603.74389156 535.4820066 604.09377383 540.81407199 604.8918457 546.31567383 C606.9585687 560.8868144 608.7853568 579.17333873 600.0793457 591.87817383 C596.87037697 595.66129628 593.88576721 597.85995167 588.86450195 598.62426758 C580.8658238 599.0881628 573.74403731 596.35273959 567.7668457 591.06567383 C559.1539778 581.6399449 555.11599219 568.52513384 550.75341797 556.77319336 C546.0784327 544.28889699 540.48198076 532.25441678 527.8918457 526.31567383 C521.36291223 523.78834474 514.55842551 525.15434165 508.35668945 527.85864258 C501.22471162 532.07453438 497.07275475 538.49005902 494.8918457 546.31567383 C490.89334713 566.42240949 496.43656666 585.18229874 504.8918457 603.31567383 C505.34019775 604.27836182 505.34019775 604.27836182 505.79760742 605.26049805 C509.49068845 613.01217325 513.90323762 620.04477525 519.0168457 626.94067383 C519.50757568 627.60397705 519.99830566 628.26728027 520.50390625 628.95068359 C523.61045159 633.00692787 526.85144527 636.18646163 530.8918457 639.31567383 C531.47450195 638.68661133 532.0571582 638.05754883 532.6574707 637.40942383 C547.52418158 621.88820367 547.52418158 621.88820367 557.2043457 620.12817383 C562.52939437 620.39893901 566.24190787 621.58820132 569.9699707 625.49145508 C572.21179077 628.785837 572.99338083 631.49953306 573.8918457 635.37817383 C574.05644287 636.07225342 574.22104004 636.76633301 574.390625 637.48144531 C575.463992 642.10443339 576.36435316 646.75283554 577.23901367 651.41674805 C580.4208476 668.24741417 584.81520686 685.1216169 592.8918457 700.31567383 C593.20847168 700.92926758 593.52509766 701.54286133 593.85131836 702.17504883 C600.35795718 714.72511061 608.1643726 726.16600217 618.47387695 735.93676758 C620.48937259 737.89673992 622.15178651 740.11159885 623.8918457 742.31567383 C633.99742939 752.76535445 645.75687274 763.97802018 659.5090332 769.33520508 C661.8918457 770.31567383 661.8918457 770.31567383 663.74584961 771.70996094 C676.88624562 781.5420866 693.35089809 787.50966705 708.8918457 792.31567383 C710.64840741 792.87671118 712.4049171 793.43791141 714.16137695 793.99926758 C740.93688504 802.43218526 771.2698211 804.68338293 797.0090332 791.74926758 C812.05248333 783.50025103 822.27034805 771.05914461 830.6418457 756.37817383 C830.98223877 755.78319092 831.32263184 755.18820801 831.67333984 754.57519531 C837.70275782 743.59350713 841.9527243 731.87683342 845.6418457 719.94067383 C845.84917328 719.2724762 846.05650085 718.60427856 846.27011108 717.91583252 C854.92491155 689.88597414 861.91645256 661.39819595 865.8918457 632.31567383 C866.06997803 631.04175781 866.24811035 629.7678418 866.43164062 628.45532227 C866.93631225 624.35483118 867.06936024 620.27233457 867.0949707 616.14379883 C867.10175842 615.38773346 867.10854614 614.63166809 867.11553955 613.85269165 C867.13241205 611.42364309 867.13873201 608.99477712 867.1418457 606.56567383 C867.14418213 605.73553772 867.14651855 604.90540161 867.14892578 604.05010986 C867.15980329 593.81511276 866.79245976 583.97891187 864.97680664 573.8828125 C862.23254944 558.45057989 864.20865071 544.94191891 868.21606445 529.9309082 C869.31731756 525.66912234 870.23698539 521.3727405 871.1418457 517.06567383 C871.30458984 516.31608398 871.46733398 515.56649414 871.63500977 514.79418945 C879.78302815 476.14732516 871.14134458 418.16741966 850.8918457 384.31567383 C850.00432617 384.51483398 850.00432617 384.51483398 849.09887695 384.71801758 C848.30868164 384.89461914 847.51848633 385.0712207 846.7043457 385.25317383 C845.92704102 385.42719727 845.14973633 385.6012207 844.34887695 385.78051758 C843.53805664 385.95711914 842.72723633 386.1337207 841.8918457 386.31567383 C841.12485352 386.49614258 840.35786133 386.67661133 839.56762695 386.86254883 C825.98026845 389.16347377 814.55003732 386.74980021 803.05981445 379.17114258 C796.96518063 373.95501453 793.56335133 368.23364753 790.5168457 360.87817383 C790.16235352 360.05124023 789.80786133 359.22430664 789.44262695 358.37231445 C788.58110439 356.35821442 787.73484797 354.3375955 786.8918457 352.31567383 C778.75126858 352.31567383 770.81612171 359.64990827 764.3918457 364.06567383 Z M-837.67114258 413.85571289 C-877.23055828 454.04689636 -880.32450311 514.76554193 -880.23852539 567.80883789 C-880.23397957 570.63958845 -880.23395018 573.47027489 -880.23852539 576.30102539 C-880.25350742 585.64018933 -880.21681116 594.97696453 -880.1081543 604.31567383 C-880.09755981 605.36890839 -880.08696533 606.42214294 -880.0760498 607.5072937 C-879.87969171 621.58229462 -877.83231553 634.69291489 -874.6081543 648.37817383 C-874.15431756 650.35569896 -873.70054236 652.33323822 -873.24682617 654.31079102 C-858.9816416 717.20694386 -858.9816416 717.20694386 -819.1081543 765.31567383 C-794.95279169 778.54361049 -763.80325661 778.81270095 -737.81567383 771.46850586 C-734.55741241 770.47686108 -731.33215589 769.41435594 -728.1081543 768.31567383 C-727.23288086 768.03594727 -726.35760742 767.7562207 -725.45581055 767.46801758 C-723.32667761 766.7832525 -721.21655003 766.06166115 -719.1081543 765.31567383 C-718.24061523 765.00887695 -717.37307617 764.70208008 -716.47924805 764.38598633 C-705.21240263 760.52499028 -705.21240263 760.52499028 -694.5456543 755.31567383 C-691.8854148 753.76789812 -689.42472128 752.56084698 -686.6081543 751.37817383 C-681.4637472 749.15332768 -677.09422135 746.30174088 -673.1081543 742.31567383 C-671.49188558 741.32216098 -669.86518968 740.34556872 -668.2331543 739.37817383 C-637.4333743 719.93203822 -625.26621163 688.08348906 -616.4987793 654.41333008 C-616.26684372 653.52783981 -616.03490814 652.64234955 -615.79594421 651.73002625 C-614.63148647 647.27888821 -613.4841839 642.82461491 -612.3671875 638.36132812 C-603.6262958 604.17181656 -603.6262958 604.17181656 -591.2097168 594.89770508 C-586.41718218 592.12258128 -581.56222176 591.31390633 -576.1081543 592.31567383 C-567.9851275 596.45381955 -564.87344781 603.0197933 -562.1081543 611.31567383 C-561.32249701 614.30823359 -560.69661829 617.27527652 -560.1081543 620.31567383 C-555.89655287 615.3149706 -553.04110335 609.90070508 -550.04467773 604.11694336 C-549.12200544 602.34231452 -548.18160469 600.57693953 -547.2409668 598.81176758 C-538.57215162 582.1624337 -533.72750027 563.87060962 -539.1081543 545.31567383 C-540.90560285 540.97949319 -542.88409341 537.43772964 -546.3581543 534.25317383 C-551.0241117 532.66250653 -555.375061 532.13713257 -560.01049805 534.13598633 C-566.3360994 538.3887162 -571.03827758 544.84858102 -575.9284668 550.60864258 C-582.48304198 558.30373724 -589.07834382 565.57233316 -598.6706543 569.31567383 C-602.24470135 569.31567383 -605.14045994 568.22859291 -608.1081543 566.31567383 C-609.70805418 563.88730796 -610.80164616 561.8815123 -611.9206543 559.25317383 C-612.59554528 557.80232445 -613.27407728 556.35316446 -613.95581055 554.90551758 C-614.30530762 554.15125488 -614.65480469 553.39699219 -615.01489258 552.61987305 C-626.253718 528.93250496 -643.03373187 509.70538995 -660.8659668 490.77270508 C-664.2266501 487.20161546 -667.50409558 483.56093612 -670.76831055 479.90161133 C-672.57134028 477.90894741 -674.39015476 475.93871043 -676.22924805 473.97973633 C-682.05931498 467.76887482 -687.69894843 461.51753243 -693.0222168 454.85864258 C-695.00947453 452.43597444 -697.08897083 450.16184878 -699.2331543 447.87817383 C-721.33350691 423.49823939 -739.47958462 393.75794166 -746.1081543 361.31567383 C-776.52318986 361.31567383 -816.7361689 393.28872373 -837.67114258 413.85571289 Z M577.8918457 551.31567383 C578.8918457 553.31567383 578.8918457 553.31567383 578.8918457 553.31567383 Z M-585.1081543 619.31567383 C-590.51970801 633.51905722 -594.21062543 647.97868973 -597.78271484 662.7355957 C-603.85684486 687.71573185 -611.3354071 711.4080841 -628.1081543 731.31567383 C-628.81198242 732.16000977 -629.51581055 733.0043457 -630.2409668 733.87426758 C-640.25908012 745.52277974 -652.64349277 754.70272122 -666.03222656 762.13354492 C-669.97536533 764.38269989 -672.41516754 766.69260361 -675.1081543 770.31567383 C-677.7956543 771.81567383 -677.7956543 771.81567383 -681.1081543 773.31567383 C-682.50599229 774.14564014 -683.90165583 774.97927475 -685.2956543 775.81567383 C-689.59445949 778.24101324 -693.83740799 779.45655182 -698.6081543 780.63598633 C-701.6860073 781.47277761 -704.29935088 782.81764534 -707.1081543 784.31567383 C-709.12044769 785.07176058 -711.14164214 785.78480226 -713.1784668 786.47192383 C-715.1934751 787.25104937 -715.1934751 787.25104937 -716.9284668 788.79223633 C-719.79056256 790.79262584 -722.46838651 791.36869151 -725.8581543 792.19067383 C-732.22142277 793.77221792 -738.44519695 795.62560298 -744.65209961 797.7409668 C-748.598194 799.03365289 -751.96148496 799.54568938 -756.1081543 799.31567383 C-756.99052387 803.55552443 -757.08239192 806.88303381 -756.33081055 811.13989258 C-756.14655518 812.24171875 -755.9622998 813.34354492 -755.77246094 814.47875977 C-755.47456665 816.22334473 -755.47456665 816.22334473 -755.1706543 818.00317383 C-751.07815056 843.88596326 -752.40472868 868.23260373 -767.88549805 890.33520508 C-769.48266792 892.47692847 -771.09376008 894.59674585 -772.73706055 896.70239258 C-773.18275391 897.27393066 -773.62844727 897.84546875 -774.08764648 898.43432617 C-775.34852043 900.03651362 -776.62819372 901.62385452 -777.90893555 903.21020508 C-781.67762702 908.53189197 -784.09703011 913.6407621 -783.1081543 920.31567383 C-777.22137172 928.22603792 -767.35357677 930.55624191 -758.1081543 932.31567383 C-735.76878456 935.52854483 -712.60558463 932.7822737 -690.6081543 928.56567383 C-689.412146 928.33799316 -688.2161377 928.1103125 -686.98388672 927.87573242 C-667.24767099 923.92559057 -648.03948139 918.17886798 -628.8677063 912.11126709 C-592.60436221 900.66160992 -555.74971166 890.19132305 -518.1081543 884.31567383 C-518.1081543 883.32567383 -518.1081543 882.33567383 -518.1081543 881.31567383 C-520.16691091 879.36812012 -522.2215909 877.59165501 -524.4206543 875.81567383 C-535.75934566 866.36796179 -546.45632007 856.10997101 -554.5144043 843.63989258 C-561.02154971 833.76754143 -567.81178057 828.90379086 -578.17407227 823.40356445 C-582.57838115 820.9262102 -586.36261645 817.67886944 -590.1081543 814.31567383 C-590.73850586 813.75493164 -591.36885742 813.19418945 -592.01831055 812.61645508 C-603.7628254 801.54305536 -610.83447668 785.97896211 -614.1081543 770.31567383 C-614.38079102 769.02016602 -614.38079102 769.02016602 -614.65893555 767.69848633 C-619.10894855 734.18795362 -608.02230122 701.76090516 -592.01123047 672.81396484 C-587.49156774 664.60185867 -584.54288956 657.82809534 -584.1081543 648.31567383 C-583.99243177 646.58771051 -583.87510673 644.85985412 -583.7565918 643.13208008 C-583.25659766 635.04075445 -582.86660952 627.35304264 -584.1081543 619.31567383 C-584.4381543 619.31567383 -584.7681543 619.31567383 -585.1081543 619.31567383 Z M-892.1081543 666.31567383 C-892.44073242 667.72139648 -892.44073242 667.72139648 -892.7800293 669.15551758 C-896.75168709 684.66044681 -904.08515472 698.70582217 -911.45581055 712.83911133 C-921.14361126 731.46444087 -927.42391309 749.91925203 -921.36206055 770.89770508 C-914.78076753 789.47157647 -896.77415389 804.42016322 -879.4206543 812.81567383 C-858.52352524 821.72390944 -835.58495181 820.96863216 -814.5378418 812.84692383 C-809.31386843 810.51458036 -804.28513486 807.86639611 -799.2878418 805.08520508 C-794.39075365 802.35992138 -791.80499989 801.0567263 -786.1081543 801.31567383 C-785.7781543 799.99567383 -785.4481543 798.67567383 -785.1081543 797.31567383 C-786.30569336 797.15711914 -787.50323242 796.99856445 -788.73706055 796.83520508 C-807.78761252 794.16679064 -824.16926465 788.88494649 -839.1081543 776.31567383 C-839.63626709 775.89253906 -840.16437988 775.4694043 -840.70849609 775.03344727 C-845.25337195 771.30631068 -848.88215574 767.24819413 -852.4206543 762.56567383 C-853.25922974 761.45639526 -853.25922974 761.45639526 -854.11474609 760.32470703 C-874.47723746 732.76144872 -882.93785057 699.0494309 -891.1081543 666.31567383 C-891.4381543 666.31567383 -891.7681543 666.31567383 -892.1081543 666.31567383 Z M-590.1081543 746.31567383 C-590.13530164 748.54477254 -590.15461684 750.7739675 -590.1706543 753.00317383 C-590.18225586 754.24454102 -590.19385742 755.4859082 -590.20581055 756.76489258 C-590.12294103 759.77802837 -589.81654879 762.39842722 -589.1081543 765.31567383 C-588.7781543 765.31567383 -588.4481543 765.31567383 -588.1081543 765.31567383 C-588.4381543 759.04567383 -588.7681543 752.77567383 -589.1081543 746.31567383 C-589.4381543 746.31567383 -589.7681543 746.31567383 -590.1081543 746.31567383 Z M-588.1081543 765.31567383 C-587.1081543 769.31567383 -587.1081543 769.31567383 -587.1081543 769.31567383 Z M-587.1081543 770.31567383 C-586.1081543 773.31567383 -586.1081543 773.31567383 -586.1081543 773.31567383 Z M-181.1081543 796.31567383 C-181.12273682 796.92749512 -181.13731934 797.53931641 -181.15234375 798.16967773 C-181.70343306 819.08770384 -183.11372816 839.45861658 -190.1081543 859.31567383 C-190.33374023 859.96084961 -190.55932617 860.60602539 -190.79174805 861.27075195 C-202.00180422 892.65257587 -225.13366758 917.44463374 -252.1081543 936.31567383 C-252.83357422 936.82678711 -253.55899414 937.33790039 -254.30639648 937.86450195 C-265.16268585 945.45677785 -276.39178994 952.14598897 -288.1081543 958.31567383 C-288.89512695 958.7363916 -289.68209961 959.15710937 -290.49291992 959.59057617 C-347.54327867 989.92850676 -411.30516886 1005.95661554 -473.62713051 1021.42162895 C-476.22798547 1022.06727234 -478.8286432 1022.71370452 -481.429245 1023.36036682 C-483.19436142 1023.79918406 -484.95948291 1024.23798094 -486.72460938 1024.67675781 C-487.60633536 1024.89596295 -488.48806135 1025.11516809 -489.39650631 1025.34101582 C-494.5825327 1026.62931809 -499.77049993 1027.90940801 -504.96007633 1029.18332863 C-611.84597492 1053.70798942 -611.84597492 1053.70798942 -690.31079102 1125.27905273 C-714.74351268 1166.09071118 -724.59575066 1213.17040189 -726.1081543 1260.31567383 C-725.16069336 1260.04303711 -725.16069336 1260.04303711 -724.1940918 1259.76489258 C-652.29949996 1239.56396259 -570.50750936 1255.80486281 -498.1628418 1265.81958008 C-421.76405764 1276.37089189 -344.86047279 1283.20626981 -137.1081543 1293.31567383 C-135.95041504 1293.32663086 -134.79267578 1293.33758789 -133.59985352 1293.34887695 C-53.4213977 1294.0724516 26.58541844 1290.93926727 161.17840576 1278.64385986 C163.92832799 1278.31126136 166.67883502 1277.98385371 169.42944336 1277.65698242 C272.85164793 1265.29113068 377.56279775 1243.83939369 493.8918457 1198.31567383 C495.16394255 1197.77477768 496.43641732 1197.23476967 497.70922852 1196.69555664 C535.72683392 1180.58146194 572.73645387 1162.19126666 605.8918457 1137.31567383 C606.48481445 1136.87143066 607.0777832 1136.4271875 607.6887207 1135.96948242 C611.45922058 1133.13013752 615.18084234 1130.23251267 618.8918457 1127.31567383 C620.37104492 1126.1806543 620.37104492 1126.1806543 621.88012695 1125.02270508 C622.79149414 1124.31500977 623.70286133 1123.60731445 624.6418457 1122.87817383 C625.44106445 1122.26071289 626.2402832 1121.64325195 627.0637207 1121.00708008 C629.14744476 1119.35153507 629.14744476 1119.35153507 629.8918457 1116.31567383 C628.00934295 1113.00724549 625.36082298 1110.20110511 622.8918457 1107.31567383 C621.69108398 1105.89448242 621.69108398 1105.89448242 620.46606445 1104.44458008 C577.88106113 1055.92922074 505.99410647 1044.46807395 446.73793602 1028.67549515 C381.10556745 1011.18230956 381.10556745 1011.18230956 350.8918457 1001.31567383 C349.89680023 1000.99270325 349.89680023 1000.99270325 348.88165283 1000.66320801 C330.80833825 994.79400164 313.2530957 988.04020276 295.8918457 980.31567383 C295.08859863 979.9629541 294.28535156 979.61023437 293.45776367 979.24682617 C266.41163615 967.31663042 241.90241126 950.97539448 219.8918457 931.31567383 C219.09004883 930.60024414 218.28825195 929.88481445 217.4621582 929.14770508 C191.44751656 904.51479349 173.25735018 866.24049016 171.8918457 830.31567383 C171.70200929 820.31536301 171.76488171 810.31652971 171.8918457 800.31567383 C168.61704444 803.54195952 165.45275794 806.84318237 162.33911133 810.22485352 C149.69549929 823.93786197 136.99381128 837.29123896 121.8918457 848.31567383 C121.0462207 848.94473633 120.2005957 849.57379883 119.3293457 850.22192383 C112.16103165 855.40951953 104.55828436 859.91309093 96.8918457 864.31567383 C96.2436084 864.68982422 95.59537109 865.06397461 94.92749023 865.44946289 C50.87684372 890.59317434 -0.79354796 898.77524915 -50.1081543 886.31567383 C-50.81069336 886.14197266 -51.51323242 885.96827148 -52.23706055 885.78930664 C-94.48853725 875.10797538 -128.90403311 849.44296222 -159.3130188 819.28503418 C-160.32762814 818.27914193 -161.34359832 817.27462008 -162.36105347 816.27160645 C-168.19807539 810.5076303 -173.67273007 804.63253361 -178.65600586 798.10107422 C-179.13521484 797.51189209 -179.61442383 796.92270996 -180.1081543 796.31567383 C-180.4381543 796.31567383 -180.7681543 796.31567383 -181.1081543 796.31567383 Z M492.8918457 796.31567383 C490.52580965 797.21539256 490.52580965 797.21539256 487.8605957 798.63989258 C486.315896 799.43218262 486.315896 799.43218262 484.73999023 800.24047852 C483.08265869 801.1130127 483.08265869 801.1130127 481.3918457 802.00317383 C479.70164307 802.88924316 479.70164307 802.88924316 477.97729492 803.79321289 C463.99699329 811.24116447 450.73433206 819.74914559 438.8918457 830.31567383 C438.16739258 830.95762695 437.44293945 831.59958008 436.6965332 832.26098633 C428.63992291 839.82746063 423.0748206 848.18605291 421.8918457 859.31567383 C427.13685037 857.78864715 431.65174679 855.46674379 436.3918457 852.81567383 C437.18212158 852.37425049 437.97239746 851.93282715 438.78662109 851.47802734 C446.21735562 847.25212015 453.11009673 842.50860368 459.8918457 837.31567383 C460.84446289 836.58735352 461.79708008 835.8590332 462.77856445 835.10864258 C475.15460701 825.3102066 489.55983704 812.6523654 494.8918457 797.31567383 C493.9018457 796.82067383 493.9018457 796.82067383 492.8918457 796.31567383 Z " fill="#0D0D0D" transform="translate(1135.108154296875,461.684326171875)"/>
<path d="M0 0 C0.66 0.33 1.32 0.66 2 1 C-7.9 10.9 -17.8 20.8 -28 31 C-28.66 30.67 -29.32 30.34 -30 30 C-8.3125 6.5625 -8.3125 6.5625 0 0 Z " fill="#525252" transform="translate(920,528)"/>
<path d="M0 0 C0.66 0.33 1.32 0.66 2 1 C-6.25 9.25 -14.5 17.5 -23 26 C-23.66 25.67 -24.32 25.34 -25 25 C-17.00333285 16.24452502 -8.96402121 7.77491636 0 0 Z " fill="#575757" transform="translate(163,1403)"/>
<path d="M0 0 C0.66 0.33 1.32 0.66 2 1 C-5.59 8.59 -13.18 16.18 -21 24 C-21.66 23.67 -22.32 23.34 -23 23 C-15.76911097 14.8317735 -8.53495885 6.82796708 0 0 Z " fill="#535454" transform="translate(456,1524)"/>
<path d="M0 0 C0.33 0 0.66 0 1 0 C1 12.21 1 24.42 1 37 C1.33 37 1.66 37 2 37 C2.125 44.75 2.125 44.75 1 47 C0.34 47 -0.32 47 -1 47 C-1.02497151 42.07446652 -1.04298678 37.148971 -1.05493164 32.22338867 C-1.05991846 30.55248369 -1.06671031 28.88158298 -1.07543945 27.21069336 C-1.12185731 18.08821877 -1.12303748 9.07166129 0 0 Z " fill="#858585" transform="translate(236,924)"/>
<path d="M0 0 C0.66 0.33 1.32 0.66 2 1 C-4.93 7.93 -11.86 14.86 -19 22 C-19 17.63604688 -16.29697402 15.68537662 -13.4375 12.6875 C-12.8919043 12.10589111 -12.34630859 11.52428223 -11.78417969 10.92504883 C-8.06375023 7.00117561 -4.23602964 3.36956903 0 0 Z " fill="#5E5E5D" transform="translate(1565,1271)"/>
<path d="M0 0 C0.66 0.33 1.32 0.66 2 1 C-4.6 7.6 -11.2 14.2 -18 21 C-18.66 20.67 -19.32 20.34 -20 20 C-13.97501417 13.25511696 -7.98873663 6.77411663 -1 1 C-0.67 0.67 -0.34 0.34 0 0 Z " fill="#5F5F5F" transform="translate(281,778)"/>
<path d="M0 0 C0.33 0 0.66 0 1 0 C2.05619003 4.28297531 2.11702092 8.42985646 2.0625 12.8125 C2.05798828 13.50537109 2.05347656 14.19824219 2.04882812 14.91210938 C2.03713156 16.60811068 2.01919924 18.30406703 2 20 C1.01 20 0.02 20 -1 20 C-1.02703562 17.41659616 -1.04685611 14.83347692 -1.0625 12.25 C-1.07087891 11.52039062 -1.07925781 10.79078125 -1.08789062 10.0390625 C-1.10391684 6.51329442 -0.95292713 3.38965084 0 0 Z " fill="#808080" transform="translate(545,1200)"/>
<path d="M0 0 C0.66 0.33 1.32 0.66 2 1 C-2.62 5.62 -7.24 10.24 -12 15 C-12 10.09687565 -8.29800369 7.38658643 -5 4 C-3.37458956 2.61667196 -1.72614587 1.25537882 0 0 Z " fill="#646465" transform="translate(1625,969)"/>
<path d="M0 0 C0.66 0.33 1.32 0.66 2 1 C-2.29 5.29 -6.58 9.58 -11 14 C-11 10.09572976 -9.78171026 9.2747714 -7.1875 6.4375 C-6.47980469 5.65246094 -5.77210937 4.86742187 -5.04296875 4.05859375 C-3 2 -3 2 0 0 Z " fill="#616161" transform="translate(1581,781)"/>
<path d="M0 0 C0.66 0.33 1.32 0.66 2 1 C-1.63 4.63 -5.26 8.26 -9 12 C-9 8.47601214 -8.44884893 7.98495633 -6.1875 5.4375 C-5.40439453 4.53837891 -5.40439453 4.53837891 -4.60546875 3.62109375 C-3 2 -3 2 0 0 Z " fill="#585858" transform="translate(816,864)"/>
<path d="M0 0 C0.66 0.33 1.32 0.66 2 1 C-1.3 4.3 -4.6 7.6 -8 11 C-8.66 10.67 -9.32 10.34 -10 10 C-3.84965831 2.51708428 -3.84965831 2.51708428 0 0 Z " fill="#595959" transform="translate(563,981)"/>
<path d="M0 0 C0.66 0.33 1.32 0.66 2 1 C-0.64 3.64 -3.28 6.28 -6 9 C-6.66 8.67 -7.32 8.34 -8 8 C-3.375 2.25 -3.375 2.25 0 0 Z " fill="#5D5D5D" transform="translate(545,1055)"/>
<path d="M0 0 C0.66 0.66 1.32 1.32 2 2 C0.05909174 3.94090826 -3.47293902 3.39919435 -6.0625 3.5625 C-7.35285156 3.64628906 -8.64320313 3.73007813 -9.97265625 3.81640625 C-10.97167969 3.87699219 -11.97070312 3.93757813 -13 4 C-13 3.67 -13 3.34 -13 3 C-12.14535156 2.86722656 -11.29070313 2.73445313 -10.41015625 2.59765625 C-9.30542969 2.42105469 -8.20070313 2.24445313 -7.0625 2.0625 C-5.96035156 1.88847656 -4.85820313 1.71445313 -3.72265625 1.53515625 C-1.09573071 1.28154864 -1.09573071 1.28154864 0 0 Z " fill="#969696" transform="translate(618,1344)"/>
</svg>
