<?xml version="1.0" standalone="no"?>
<!DOCTYPE svg PUBLIC "-//W3C//DTD SVG 20010904//EN"
 "http://www.w3.org/TR/2001/REC-SVG-20010904/DTD/svg10.dtd">
<svg version="1.0" xmlns="http://www.w3.org/2000/svg"
 width="1471.000000pt" height="1471.000000pt" viewBox="0 0 1471.000000 1471.000000"
 preserveAspectRatio="xMidYMid meet">

<g transform="translate(0.000000,1471.000000) scale(0.100000,-0.100000)"
fill="#000000" stroke="none">
<path d="M11435 14572 c-12 -9 -54 -55 -95 -102 -41 -47 -89 -101 -107 -120
-18 -19 -63 -73 -100 -120 -37 -47 -76 -94 -85 -105 -10 -11 -50 -58 -90 -105
-39 -47 -90 -107 -114 -135 -24 -27 -75 -88 -115 -135 -39 -47 -106 -123 -148
-169 -91 -102 -138 -154 -177 -201 -45 -53 -115 -131 -155 -171 -19 -20 -45
-49 -58 -65 -12 -16 -43 -51 -69 -79 -26 -27 -59 -66 -74 -85 -14 -19 -46 -55
-70 -80 -24 -25 -54 -58 -66 -75 -13 -16 -51 -59 -85 -96 -34 -37 -82 -91
-107 -120 -25 -29 -59 -67 -76 -84 -17 -17 -35 -39 -40 -48 -5 -9 -34 -42 -64
-74 -31 -32 -67 -74 -82 -93 -14 -19 -49 -58 -76 -87 -28 -28 -54 -58 -59 -66
-4 -9 -26 -35 -48 -59 -22 -23 -80 -90 -130 -148 -49 -58 -100 -116 -113 -130
-12 -14 -39 -44 -60 -68 -20 -24 -59 -68 -87 -99 -27 -30 -54 -63 -60 -73 -5
-10 -35 -46 -65 -80 -30 -34 -76 -85 -101 -113 -25 -29 -53 -62 -61 -75 -9
-12 -35 -44 -60 -70 -24 -26 -51 -57 -59 -69 -8 -12 -36 -45 -62 -75 -26 -29
-88 -102 -139 -163 -131 -155 -138 -163 -189 -220 -25 -27 -52 -59 -60 -71 -8
-12 -33 -43 -56 -70 -24 -27 -62 -72 -85 -100 -24 -28 -62 -73 -85 -100 -23
-27 -50 -60 -60 -73 -10 -13 -36 -44 -58 -70 -22 -25 -43 -50 -47 -56 -4 -5
-23 -28 -42 -51 -53 -61 -123 -162 -153 -221 -24 -47 -26 -56 -15 -86 18 -49
16 -54 -25 -67 -36 -11 -247 -113 -268 -130 -5 -4 -68 -38 -140 -75 -71 -38
-141 -75 -155 -84 -14 -9 -56 -32 -93 -51 -66 -34 -69 -35 -83 -16 -8 11 -14
28 -14 37 0 10 79 84 193 180 227 193 347 306 347 329 0 20 -22 44 -119 130
-41 36 -79 70 -85 75 -6 6 -20 17 -32 25 -12 8 -42 33 -67 55 -25 22 -60 51
-78 65 -18 14 -37 30 -43 35 -6 6 -36 30 -66 55 -30 25 -57 47 -60 50 -3 3
-21 17 -42 32 -20 15 -42 33 -50 40 -19 19 -70 60 -102 83 -16 11 -33 25 -40
30 -6 6 -29 24 -51 40 -43 32 -71 54 -89 70 -6 6 -49 39 -96 75 -47 35 -87 67
-90 70 -3 3 -25 21 -50 40 -25 19 -47 37 -50 41 -3 3 -39 31 -80 61 -41 31
-86 65 -99 77 -13 11 -27 21 -30 21 -3 0 -22 14 -41 31 -19 17 -47 38 -62 47
-15 9 -28 20 -28 24 0 4 -4 8 -10 8 -5 0 -47 28 -93 63 -45 34 -96 71 -111 82
-95 68 -173 126 -188 140 -10 8 -22 15 -28 15 -5 0 -10 4 -10 8 0 4 -13 15
-29 25 -15 9 -84 58 -152 109 -69 51 -136 101 -150 110 -15 9 -32 23 -40 30
-8 8 -36 29 -64 48 -27 18 -52 36 -55 39 -7 9 -309 232 -355 263 -22 15 -65
45 -95 67 -72 53 -217 156 -290 206 -64 45 -83 58 -178 129 -37 27 -69 53 -72
56 -3 3 -27 21 -55 40 -27 18 -70 50 -95 70 -25 20 -67 52 -95 70 -27 19 -52
37 -55 40 -3 3 -26 20 -51 38 -41 28 -202 146 -239 176 -8 6 -65 44 -125 84
-61 39 -116 77 -123 83 -7 6 -31 13 -52 16 -43 6 -33 14 -132 -112 -35 -45
-69 -88 -76 -95 -6 -8 -29 -37 -50 -65 -44 -58 -142 -185 -154 -200 -5 -5 -36
-46 -70 -90 -34 -44 -67 -85 -73 -91 -5 -7 -21 -27 -35 -45 -14 -18 -35 -43
-47 -56 -13 -13 -23 -26 -23 -28 0 -3 -19 -30 -43 -60 -46 -60 -63 -65 -111
-36 -55 33 -69 33 -120 -1 -79 -52 -97 -123 -46 -181 17 -19 30 -41 30 -48 -1
-8 -17 -27 -38 -42 -73 -55 -142 -129 -142 -151 0 -27 41 -70 158 -165 51 -41
92 -78 92 -83 0 -4 6 -8 13 -8 6 0 28 -14 47 -30 19 -16 76 -60 125 -97 50
-37 92 -70 93 -75 2 -4 8 -8 13 -8 11 0 203 -141 207 -152 2 -4 8 -8 13 -8 7
0 525 -368 594 -422 18 -15 279 -206 298 -220 21 -14 186 -137 202 -150 6 -5
42 -32 80 -60 39 -29 75 -56 80 -60 6 -4 147 -110 315 -236 404 -302 494 -372
498 -383 2 -5 8 -9 13 -9 11 0 168 -116 185 -136 6 -8 14 -14 18 -14 4 0 29
-17 54 -37 57 -46 43 -36 177 -135 61 -45 115 -86 120 -90 6 -5 82 -63 170
-129 88 -66 162 -124 163 -130 2 -5 9 -9 15 -9 7 0 29 -16 51 -35 21 -19 41
-35 45 -35 3 0 18 -10 32 -22 14 -13 32 -27 41 -33 137 -85 228 -151 228 -164
0 -9 -7 -29 -16 -46 -33 -60 -241 -481 -254 -512 -7 -18 -19 -33 -28 -33 -24
0 -240 150 -245 171 -3 10 -13 19 -24 19 -31 0 -71 -44 -268 -285 -67 -82 -99
-119 -116 -135 -8 -8 -20 -22 -25 -31 -14 -24 -172 -208 -215 -249 -8 -8 -22
-25 -31 -38 -16 -24 -141 -162 -263 -291 -101 -107 -191 -203 -286 -306 -46
-50 -122 -131 -169 -181 -125 -134 -269 -290 -340 -369 -34 -38 -88 -95 -119
-127 -31 -31 -74 -78 -96 -104 -22 -26 -53 -62 -70 -79 -16 -18 -47 -52 -68
-76 -21 -24 -64 -71 -96 -104 -31 -33 -72 -78 -90 -100 -37 -43 -147 -168
-222 -250 -25 -27 -55 -61 -67 -75 -27 -33 -281 -329 -347 -405 -64 -74 -372
-431 -400 -464 -25 -30 -102 -119 -126 -146 -15 -16 -492 -577 -571 -671 -13
-15 -50 -59 -84 -98 -33 -39 -87 -105 -119 -146 -33 -41 -63 -77 -66 -80 -3
-3 -18 -26 -33 -51 -24 -43 -25 -48 -11 -63 12 -12 21 -13 40 -4 22 10 33 2
162 -120 76 -72 150 -143 164 -159 14 -15 157 -154 317 -308 297 -284 314
-305 276 -335 -29 -25 -66 -99 -59 -119 7 -24 97 -106 139 -128 27 -14 33 -14
61 2 18 9 49 39 70 66 20 27 44 49 52 49 8 0 31 -15 51 -34 20 -19 69 -61 107
-94 39 -32 76 -66 84 -75 20 -25 55 -21 86 11 15 15 87 106 160 202 387 509
678 888 900 1170 318 404 884 1111 1159 1449 155 189 314 385 354 435 41 50
80 92 88 94 11 3 14 -13 14 -80 0 -175 -31 -818 -70 -1483 -45 -751 -92 -1735
-93 -1950 -2 -204 0 -234 15 -257 12 -18 28 -28 50 -30 l32 -3 0 -121 c1 -158
2 -160 133 -169 104 -8 166 3 178 33 4 9 10 68 14 129 4 62 9 114 12 115 2 2
80 2 172 0 226 -5 225 -2 47 -141 -52 -41 -111 -88 -131 -105 -21 -17 -56 -47
-79 -66 -24 -19 -52 -44 -64 -55 -46 -43 -145 -125 -150 -125 -7 0 -44 -33
-149 -131 l-82 -77 -95 -7 c-127 -9 -227 -29 -249 -49 -13 -12 -20 -38 -25
-101 -7 -96 7 -148 43 -160 17 -5 21 -14 21 -50 0 -42 -3 -46 -49 -76 -57 -37
-81 -74 -81 -121 0 -48 19 -69 71 -79 55 -10 264 -10 384 0 72 7 96 6 119 -6
23 -12 51 -14 135 -8 58 4 125 11 147 16 23 5 78 6 123 2 l81 -6 -2 -49 c0
-42 4 -54 26 -76 l27 -27 162 1 c89 1 235 9 323 19 113 12 190 15 255 10 52
-4 159 -8 239 -9 120 -1 154 2 196 18 49 18 54 18 119 2 94 -24 257 -46 339
-46 56 0 77 5 113 26 42 24 46 25 146 15 81 -7 119 -17 184 -45 98 -42 209
-65 353 -73 61 -3 111 -11 120 -18 18 -15 113 -32 235 -40 100 -8 184 4 249
34 34 16 71 21 211 25 164 5 270 21 318 48 15 9 71 11 183 9 129 -2 174 0 219
14 48 14 66 14 107 4 61 -14 201 -14 288 0 36 6 118 14 183 17 139 8 157 18
182 95 21 62 14 123 -21 174 -22 33 -23 42 -17 108 5 57 11 76 30 94 20 19 23
32 23 90 0 72 -44 232 -72 260 -20 20 -122 33 -261 33 l-118 0 -26 30 c-28 34
-122 110 -269 220 l-100 75 4 105 c4 84 9 110 25 131 18 26 20 52 28 551 5
287 13 753 19 1033 6 281 13 643 16 805 5 319 9 380 26 380 10 0 84 -57 119
-91 9 -9 24 -21 32 -25 8 -5 32 -23 53 -41 22 -18 66 -54 99 -80 33 -26 67
-53 75 -60 8 -7 87 -69 175 -139 88 -69 165 -132 171 -140 6 -8 14 -14 18 -14
3 0 63 -45 134 -101 70 -56 141 -112 157 -125 277 -219 714 -546 1202 -900
277 -200 279 -201 311 -184 38 22 38 37 -2 75 -20 18 -36 39 -36 45 0 7 73 89
163 184 156 165 434 468 642 702 55 62 108 113 118 113 19 1 133 -71 154 -97
36 -44 167 47 194 136 18 61 5 87 -68 141 -39 29 -62 53 -62 66 0 11 31 56 70
100 142 162 168 195 163 208 -3 6 -33 32 -67 57 -34 25 -69 50 -77 57 -8 7
-71 52 -139 100 -68 48 -154 109 -190 135 -36 26 -84 60 -106 75 -43 30 -351
251 -500 359 -49 36 -100 74 -113 85 -12 10 -25 19 -28 19 -2 0 -53 36 -112
79 -59 44 -129 95 -157 115 -95 68 -425 314 -440 328 -20 18 -33 29 -80 63
-22 17 -45 35 -51 40 -6 6 -26 21 -44 35 -18 14 -79 61 -134 106 -56 44 -157
123 -226 175 -68 51 -131 99 -140 106 -26 21 -345 257 -381 283 -42 30 -41 29
-114 88 -33 26 -80 62 -105 79 -25 18 -57 42 -72 55 -14 13 -36 30 -48 38 -12
8 -32 23 -43 34 -12 10 -56 43 -97 74 -88 64 -246 189 -275 215 -11 11 -40 33
-65 50 -74 51 -253 188 -282 215 -16 14 -28 30 -28 36 0 5 -23 71 -51 145 -28
75 -80 221 -116 326 -70 205 -120 330 -190 470 -44 87 -142 261 -169 300 -8
11 -14 25 -14 31 0 7 40 52 88 101 71 71 236 256 368 413 99 117 212 249 230
270 12 14 67 77 121 140 54 63 108 126 120 140 124 144 479 569 652 780 523
638 758 942 1318 1710 528 723 568 775 594 778 36 6 51 22 44 49 -7 30 1 45
103 180 72 96 89 113 112 113 36 0 52 20 44 57 -5 26 4 44 71 134 85 114 90
119 122 119 29 0 47 33 33 60 -9 17 -91 80 -104 80 -3 0 -29 14 -58 31 -85 51
-223 122 -550 285 -212 106 -308 159 -308 170 0 9 9 28 20 44 35 49 42 78 25
110 -25 48 -125 120 -166 120 -6 0 -37 -25 -69 -56 -73 -69 -78 -68 -179 25
-53 50 -72 74 -67 86 17 45 -39 72 -79 37z m109 -212 c41 -36 75 -72 75 -80 1
-23 -157 -200 -179 -200 -10 0 -25 6 -32 13 -7 7 -39 34 -70 61 -32 27 -58 56
-58 65 1 23 160 213 176 209 8 -2 48 -32 88 -68z m334 -34 c2 -10 0 -21 -5
-25 -5 -3 -56 -62 -112 -131 -57 -69 -113 -136 -125 -150 -12 -14 -59 -72
-105 -130 -47 -58 -87 -107 -90 -110 -3 -3 -18 -21 -33 -42 -15 -20 -33 -42
-40 -50 -8 -7 -29 -33 -48 -58 -19 -25 -44 -55 -55 -67 -11 -11 -28 -32 -38
-45 -55 -70 -76 -96 -114 -137 -24 -25 -43 -49 -43 -53 0 -3 -18 -26 -40 -50
-22 -23 -40 -46 -40 -50 0 -4 -6 -13 -13 -20 -10 -10 -107 -127 -164 -198 -6
-8 -49 -60 -95 -115 -46 -55 -91 -111 -101 -125 -9 -14 -42 -54 -73 -90 -30
-36 -79 -94 -108 -130 -30 -36 -62 -75 -72 -87 -11 -12 -30 -36 -43 -53 -14
-18 -37 -46 -53 -63 -15 -18 -31 -37 -36 -42 -4 -6 -25 -31 -47 -56 -22 -24
-56 -64 -75 -88 -19 -24 -42 -50 -50 -60 -9 -9 -27 -32 -42 -51 -14 -19 -39
-49 -55 -66 -17 -17 -34 -38 -39 -46 -5 -9 -29 -38 -54 -65 -50 -56 -127 -146
-150 -175 -8 -11 -24 -30 -35 -42 -27 -28 -72 -83 -113 -133 -18 -23 -45 -55
-60 -71 -87 -95 -158 -176 -166 -190 -5 -8 -20 -27 -35 -42 -26 -28 -83 -93
-121 -139 -28 -34 -123 -141 -195 -221 -33 -37 -75 -85 -93 -106 -53 -62 -132
-152 -189 -213 -28 -31 -64 -72 -80 -92 -15 -19 -51 -60 -79 -90 -28 -30 -67
-72 -85 -94 -19 -22 -55 -62 -81 -90 -25 -27 -55 -60 -65 -71 -10 -12 -38 -46
-63 -75 -25 -29 -54 -62 -65 -73 -11 -12 -30 -34 -42 -50 -13 -15 -42 -50 -65
-75 -24 -26 -59 -67 -78 -91 -19 -24 -44 -53 -55 -64 -18 -19 -134 -161 -273
-335 -29 -36 -66 -80 -81 -97 -15 -16 -49 -59 -76 -95 -27 -35 -57 -72 -66
-82 -10 -10 -43 -59 -76 -107 -59 -90 -74 -101 -114 -80 -31 17 -24 41 32 100
18 19 104 122 164 195 58 72 203 244 244 290 20 22 54 62 76 89 37 45 49 60
103 121 10 11 25 31 34 45 9 14 32 42 51 63 20 22 46 53 59 70 13 17 30 38 39
47 8 9 22 26 31 38 8 12 33 41 54 64 21 23 49 55 61 71 12 16 37 45 55 65 18
21 44 51 56 67 13 17 40 48 61 70 20 22 57 65 81 95 25 30 47 57 50 60 3 3 28
32 55 65 28 32 59 69 70 80 11 12 34 39 50 59 17 21 39 48 50 60 25 27 80 93
187 221 116 139 121 145 139 164 13 14 90 106 129 154 8 10 25 30 37 43 13 14
48 55 78 92 30 37 69 85 87 107 18 22 103 123 188 225 161 192 176 210 208
248 11 13 35 42 54 64 18 23 47 58 65 77 17 20 59 70 93 111 34 41 71 84 81
95 11 11 29 31 40 45 113 136 278 332 449 530 41 48 118 138 170 200 52 62
104 122 116 134 11 11 38 44 59 71 22 28 57 69 79 92 21 23 46 53 54 65 9 13
21 28 27 34 5 6 174 208 375 448 319 381 368 436 390 434 15 -2 26 -10 28 -22z
m-583 -258 c41 -35 75 -70 75 -79 0 -17 -26 -56 -67 -99 -42 -45 -83 -95 -83
-102 0 -5 -7 -8 -16 -8 -24 0 -164 119 -164 139 0 22 150 211 168 211 8 0 47
-28 87 -62z m718 -9 c80 -41 117 -66 117 -77 0 -15 -67 -106 -89 -122 -4 -3
-20 -22 -35 -42 -19 -25 -36 -38 -52 -38 -28 0 -244 117 -244 132 0 19 155
207 171 208 8 0 68 -27 132 -61z m352 -181 c91 -46 145 -78 145 -88 0 -8 -22
-37 -50 -65 -27 -27 -49 -54 -50 -60 -1 -19 -68 -85 -87 -85 -10 0 -79 32
-152 71 -108 58 -132 75 -129 91 5 31 141 207 160 208 10 0 83 -33 163 -72z
m-1314 -100 c49 -39 79 -70 79 -82 0 -10 -19 -40 -42 -66 -24 -25 -60 -67 -81
-93 -43 -53 -54 -56 -88 -26 -13 12 -48 39 -77 61 -29 22 -56 46 -59 53 -5 15
161 215 178 215 6 0 46 -28 90 -62z m669 13 c36 -22 89 -51 118 -66 56 -28 62
-40 35 -71 -10 -10 -30 -35 -45 -56 -15 -20 -34 -42 -41 -50 -7 -7 -25 -30
-41 -50 -16 -21 -35 -38 -44 -38 -14 0 -83 37 -177 96 -22 13 -46 27 -52 30
-7 4 -13 12 -13 20 0 19 168 224 183 224 7 0 41 -18 77 -39z m1008 -102 c61
-33 112 -65 112 -72 0 -7 -15 -28 -33 -47 -18 -19 -56 -63 -86 -97 -29 -34
-62 -65 -72 -68 -23 -8 -223 104 -227 128 -3 15 66 115 110 159 9 9 21 26 28
37 17 32 46 25 168 -40z m-726 -51 c8 -7 57 -35 111 -63 129 -67 141 -76 134
-106 -4 -13 -19 -38 -34 -56 -16 -18 -50 -62 -78 -97 -27 -36 -57 -66 -66 -66
-15 0 -95 38 -154 73 -11 7 -46 27 -77 45 -32 19 -58 40 -58 49 0 24 172 233
192 233 9 0 23 -6 30 -12z m-1202 -150 c36 -29 71 -58 78 -64 13 -14 16 -40 5
-46 -5 -1 -33 -32 -63 -68 -76 -90 -97 -110 -114 -110 -8 0 -34 16 -58 35 -23
20 -60 49 -80 66 -21 16 -38 35 -38 40 0 6 37 53 81 104 56 64 89 95 103 95
12 0 50 -23 86 -52z m721 -35 c67 -41 109 -72 109 -83 0 -13 -88 -134 -110
-150 -4 -3 -12 -15 -19 -27 -6 -13 -21 -23 -32 -23 -22 0 -81 29 -87 43 -2 4
-8 7 -13 7 -20 0 -139 86 -139 101 0 8 19 38 43 66 23 27 56 69 72 91 17 23
38 42 49 42 10 0 67 -30 127 -67z m949 -68 c61 -30 110 -61 110 -69 0 -7 -8
-22 -17 -34 -10 -12 -51 -64 -92 -117 -83 -107 -95 -112 -161 -70 -22 14 -42
25 -45 25 -18 0 -105 67 -105 81 0 21 171 238 188 239 7 0 62 -25 122 -55z
m-614 -130 c71 -41 133 -81 139 -89 8 -13 -35 -80 -100 -153 -5 -6 -21 -25
-34 -42 -13 -17 -31 -31 -40 -31 -9 0 -51 22 -92 48 -41 26 -100 63 -131 82
-32 19 -58 41 -58 50 0 20 157 210 174 210 8 0 71 -34 142 -75z m-1347 -22
c20 -15 41 -31 46 -36 6 -4 29 -21 53 -38 23 -17 42 -36 42 -42 0 -7 -18 -32
-40 -57 -22 -25 -50 -58 -63 -74 -60 -77 -63 -79 -88 -73 -13 4 -41 23 -63 42
-21 19 -41 35 -45 35 -15 0 -61 52 -61 69 0 21 155 201 172 201 6 0 27 -12 47
-27z m774 -69 c56 -36 104 -68 106 -70 9 -8 -11 -53 -34 -78 -14 -15 -25 -30
-25 -34 0 -4 -15 -24 -33 -44 -17 -21 -41 -49 -52 -63 -11 -14 -27 -25 -34
-25 -15 0 -141 80 -175 112 -11 10 -28 20 -38 24 -10 3 -18 13 -18 22 0 27
160 222 182 222 10 0 65 -30 121 -66z m-8358 -86 c48 -36 84 -70 85 -80 0 -10
-4 -18 -9 -18 -5 0 -12 -8 -15 -17 -3 -10 -16 -29 -28 -43 -13 -14 -35 -41
-50 -60 -45 -60 -95 -110 -109 -110 -8 0 -25 10 -39 23 -14 13 -46 38 -72 55
-27 18 -48 40 -48 48 0 21 172 263 188 263 7 1 50 -27 97 -61z m9220 8 c22
-13 68 -38 103 -55 43 -21 62 -36 62 -49 0 -15 -36 -68 -148 -219 -9 -13 -22
-23 -29 -23 -18 0 -213 129 -219 145 -7 17 155 224 176 224 8 0 33 -10 55 -23z
m-584 -98 c38 -24 69 -46 69 -50 0 -5 4 -8 10 -8 20 0 110 -62 110 -76 0 -16
-26 -56 -75 -116 -16 -20 -45 -57 -64 -82 -22 -30 -41 -46 -55 -46 -19 0 -100
48 -144 86 -10 8 -39 29 -67 47 -30 19 -51 41 -53 54 -4 26 161 233 185 233 9
0 47 -19 84 -42z m-1248 -79 c48 -39 87 -79 87 -88 0 -9 -10 -27 -23 -41 -12
-14 -29 -34 -37 -46 -27 -39 -98 -114 -108 -114 -5 0 -20 9 -33 20 -41 33 -43
35 -78 60 -61 44 -81 63 -81 79 0 9 19 37 43 63 23 26 59 67 80 92 21 25 43
46 50 46 7 0 51 -32 100 -71z m-7145 -11 c31 -24 66 -51 76 -60 11 -10 23 -18
28 -18 18 0 6 -39 -19 -67 -16 -17 -38 -43 -50 -59 -12 -16 -44 -53 -72 -83
-56 -58 -72 -61 -121 -21 -14 11 -45 35 -70 53 -25 18 -45 41 -45 50 0 26 177
246 198 247 10 0 44 -19 75 -42z m7838 -24 c43 -32 81 -60 84 -63 3 -3 14 -11
25 -17 41 -23 32 -46 -61 -154 -17 -19 -40 -50 -53 -67 -12 -18 -30 -33 -39
-33 -9 0 -48 23 -87 50 -38 28 -85 61 -102 73 -21 14 -33 30 -33 45 0 26 153
222 174 222 7 0 49 -25 92 -56z m-8326 -116 c73 -56 81 -72 52 -104 -10 -10
-24 -28 -32 -40 -8 -12 -33 -42 -55 -68 -22 -26 -52 -61 -66 -78 -21 -25 -31
-30 -52 -24 -14 3 -32 12 -39 19 -7 8 -33 26 -56 41 -32 20 -42 33 -40 48 5
32 180 257 201 258 10 0 49 -24 87 -52z m9281 -21 c57 -35 105 -71 107 -79 2
-9 -33 -63 -76 -120 -44 -58 -85 -115 -91 -126 -7 -12 -19 -22 -29 -22 -17 0
-98 50 -153 94 -14 12 -36 28 -48 36 -11 8 -21 23 -21 33 0 22 177 247 195
247 7 0 59 -29 116 -63z m-8492 -69 c44 -34 81 -69 81 -78 0 -17 -199 -230
-214 -230 -4 0 -18 8 -31 18 -12 9 -33 24 -45 32 -70 48 -100 73 -100 85 0 8
41 63 91 124 67 81 97 111 114 111 12 0 59 -28 104 -62z m7805 17 c15 -14 30
-25 35 -25 4 0 16 -8 27 -17 11 -10 50 -38 87 -63 38 -25 67 -52 67 -61 0 -16
-16 -37 -103 -143 -18 -21 -41 -51 -52 -67 -19 -27 -50 -38 -57 -21 -3 8 -41
35 -204 147 -24 17 -44 37 -44 46 0 13 94 137 160 211 22 25 53 22 84 -7z
m-1236 -47 c37 -29 76 -61 86 -70 11 -10 23 -18 28 -18 13 0 9 -28 -6 -47 -87
-107 -144 -175 -175 -208 -20 -22 -43 -50 -51 -61 -8 -12 -37 -46 -65 -76 -27
-30 -61 -69 -75 -87 -14 -18 -37 -46 -52 -63 -16 -16 -28 -33 -28 -37 0 -3
-22 -29 -48 -58 -26 -28 -58 -66 -72 -83 -14 -18 -34 -42 -45 -54 -11 -11 -28
-31 -36 -44 -9 -12 -31 -39 -50 -60 -19 -20 -51 -58 -72 -84 -21 -26 -43 -53
-50 -60 -7 -7 -28 -33 -48 -58 -20 -25 -50 -60 -68 -79 -17 -18 -31 -36 -31
-40 0 -3 -20 -27 -44 -52 -24 -25 -47 -53 -52 -61 -5 -9 -29 -38 -54 -65 -48
-53 -84 -96 -128 -152 -27 -34 -90 -108 -161 -187 -20 -22 -47 -56 -61 -74
-14 -19 -47 -58 -74 -87 -28 -30 -57 -66 -67 -81 -9 -15 -34 -45 -55 -67 -22
-21 -46 -49 -54 -61 -8 -11 -34 -43 -57 -70 -23 -27 -69 -83 -103 -124 -34
-41 -79 -93 -99 -115 -20 -22 -44 -50 -52 -62 -14 -20 -56 -70 -159 -187 -39
-43 -113 -133 -143 -171 -4 -5 -17 -21 -28 -35 -12 -14 -30 -36 -40 -49 -26
-33 -56 -22 -99 36 -19 26 -36 51 -38 55 -2 4 -19 24 -38 44 -18 21 -36 46
-39 56 -5 12 41 75 160 220 92 112 177 212 189 224 13 11 27 27 32 36 5 9 28
37 51 64 23 27 91 108 150 179 60 72 118 141 130 155 11 14 99 117 194 230
164 194 537 629 549 640 3 3 30 34 60 70 30 36 57 67 60 70 3 3 30 34 60 70
30 36 59 70 65 76 5 6 168 192 360 413 193 220 356 401 363 401 7 0 43 -24 80
-52z m-7103 -70 c46 -35 84 -67 85 -72 0 -4 -12 -23 -27 -41 -16 -18 -35 -42
-43 -52 -27 -35 -104 -125 -124 -144 -21 -20 -42 -25 -48 -11 -1 5 -27 25 -55
45 -71 50 -93 69 -93 83 0 10 46 70 125 162 56 66 65 78 65 85 0 20 38 1 115
-55z m7854 -25 c55 -43 100 -85 100 -93 1 -15 -22 -47 -103 -143 -54 -65 -69
-63 -181 22 -34 25 -70 51 -80 57 -28 16 -30 49 -5 82 65 82 134 152 151 152
11 0 64 -35 118 -77z m-7053 -75 c46 -34 84 -69 84 -76 0 -18 -206 -222 -223
-222 -13 0 -66 35 -130 84 -20 15 -37 37 -37 47 0 24 186 229 207 229 8 0 53
-28 99 -62z m-1314 -35 c37 -27 67 -55 68 -64 0 -8 -26 -46 -58 -85 -32 -38
-68 -84 -81 -101 -28 -41 -48 -41 -97 -2 -22 17 -51 37 -66 45 -33 17 -35 40
-8 74 11 14 47 60 80 103 34 43 68 77 78 77 9 0 47 -21 84 -47z m9284 -45 c64
-45 104 -80 104 -90 0 -10 -3 -18 -7 -18 -5 0 -19 -18 -33 -40 -13 -22 -28
-40 -32 -40 -4 0 -8 -6 -8 -13 0 -7 -8 -22 -17 -33 -10 -10 -31 -38 -47 -61
-16 -24 -35 -43 -43 -43 -8 0 -35 16 -61 35 -72 53 -69 51 -139 96 -21 13 -33
29 -33 42 0 12 33 63 73 112 96 121 99 124 120 125 10 0 65 -33 123 -72z
m-8538 2 c18 -16 36 -30 40 -30 8 0 72 -62 72 -71 0 -4 -17 -25 -37 -47 -21
-22 -67 -72 -103 -111 -36 -39 -71 -71 -79 -71 -15 0 -100 54 -140 89 -34 30
-24 55 75 170 98 115 116 122 172 71z m7939 -85 c84 -62 122 -96 122 -110 1
-11 -11 -35 -26 -53 -16 -18 -46 -54 -68 -81 -26 -33 -48 -50 -63 -50 -21 -1
-68 28 -116 72 -11 9 -23 17 -26 17 -4 0 -17 8 -28 18 -12 9 -37 28 -56 42
-43 31 -45 57 -9 102 91 112 117 139 132 136 9 -2 71 -43 138 -93z m-622 3
c25 -17 45 -35 45 -40 0 -4 5 -8 11 -8 16 0 118 -74 119 -86 0 -10 -59 -93
-87 -122 -7 -7 -13 -16 -13 -20 -1 -14 -79 -92 -92 -92 -7 0 -45 24 -83 53
-39 29 -87 63 -107 77 -22 14 -38 33 -38 44 0 17 130 182 169 214 21 17 25 16
76 -20z m-6480 -36 c44 -31 81 -64 82 -72 4 -22 -200 -230 -224 -230 -11 0
-36 13 -54 30 -19 16 -37 30 -40 30 -3 0 -19 11 -35 25 -16 14 -33 25 -37 25
-5 0 -7 9 -5 20 5 31 189 230 213 230 11 0 56 -26 100 -58z m-1335 -24 c39
-29 70 -60 70 -69 0 -10 -18 -39 -40 -66 -22 -26 -56 -69 -76 -95 -20 -27 -43
-48 -52 -48 -24 0 -172 103 -172 120 0 26 159 210 181 210 11 0 51 -24 89 -52z
m-680 -23 c0 -8 -7 -15 -15 -15 -8 0 -15 7 -15 15 0 8 7 15 15 15 8 0 15 -7
15 -15z m1446 -32 c27 -21 55 -43 62 -50 7 -7 17 -13 22 -13 5 0 12 -9 15 -20
5 -17 -15 -43 -104 -133 -108 -109 -111 -112 -134 -97 -83 52 -139 93 -144
105 -6 17 11 39 118 157 45 48 89 88 99 88 9 0 39 -17 66 -37z m849 -120 c57
-41 95 -75 95 -85 0 -10 -3 -18 -7 -18 -5 0 -55 -45 -113 -100 -58 -55 -112
-100 -120 -100 -13 0 -86 43 -100 59 -3 3 -22 19 -42 34 -21 15 -38 36 -38 45
0 24 190 232 212 232 10 0 60 -30 113 -67z m7071 49 c10 -9 46 -35 79 -57 33
-21 62 -41 65 -44 3 -3 17 -12 33 -20 15 -8 27 -23 27 -33 0 -26 -129 -198
-149 -198 -14 0 -43 16 -76 42 -5 5 -44 32 -85 61 -47 33 -76 61 -78 74 -2 14
18 48 59 100 81 103 89 108 125 75z m-9186 -28 c0 -8 9 -14 20 -14 11 0 20 -4
20 -10 0 -5 5 -10 11 -10 8 0 674 -463 689 -480 3 -3 28 -21 55 -40 28 -19 52
-38 53 -42 2 -4 10 -8 18 -8 8 0 17 -7 20 -15 4 -8 12 -15 20 -15 8 0 14 -4
14 -10 0 -5 5 -10 10 -10 9 0 111 -71 130 -90 3 -3 29 -21 57 -40 29 -19 53
-38 53 -42 0 -5 5 -8 10 -8 6 0 16 -5 23 -10 7 -6 77 -57 157 -113 80 -56 157
-112 170 -125 13 -12 28 -22 32 -22 5 0 19 -9 31 -21 12 -11 35 -28 51 -36 16
-8 34 -19 40 -24 62 -50 75 -59 83 -59 5 0 20 -11 33 -25 13 -14 28 -25 32
-25 9 0 56 -33 121 -85 7 -5 23 -16 36 -23 13 -8 58 -39 100 -70 42 -31 101
-73 131 -93 30 -19 62 -42 70 -50 8 -8 41 -31 72 -52 31 -21 63 -43 70 -50 8
-6 21 -16 29 -22 53 -34 98 -65 110 -77 8 -7 44 -33 81 -58 38 -25 68 -48 68
-52 0 -5 6 -8 13 -8 10 0 28 -13 84 -60 7 -5 16 -10 20 -10 4 0 20 -10 35 -23
14 -12 36 -29 48 -37 12 -8 28 -21 36 -27 7 -7 15 -13 19 -13 9 0 119 -82 123
-92 2 -4 8 -8 13 -8 12 0 163 -110 167 -122 2 -4 8 -8 14 -8 6 0 32 -17 58
-37 26 -21 58 -45 70 -53 25 -17 169 -120 185 -132 6 -5 51 -38 100 -75 50
-37 95 -71 100 -75 6 -5 42 -32 80 -60 39 -29 76 -58 83 -65 7 -7 16 -13 20
-13 4 0 23 -15 42 -33 19 -18 49 -42 65 -52 23 -15 182 -134 250 -187 6 -5 20
-16 32 -26 12 -9 51 -37 87 -62 36 -25 65 -49 66 -53 1 -17 -33 -57 -49 -57
-14 0 -48 22 -180 117 -14 10 -44 33 -68 51 -24 17 -48 32 -53 32 -6 0 -10 3
-10 8 0 4 -17 18 -38 32 -20 14 -39 27 -42 30 -3 3 -21 17 -40 30 -19 13 -37
27 -40 30 -3 3 -21 17 -40 30 -19 13 -48 37 -65 52 -16 15 -33 28 -37 28 -4 0
-16 6 -25 14 -77 62 -435 326 -443 326 -6 0 -10 3 -10 8 0 4 -17 18 -38 32
-39 26 -113 81 -122 90 -3 3 -50 38 -105 78 -55 39 -104 75 -110 80 -5 4 -26
19 -45 32 -19 14 -37 28 -40 31 -3 3 -45 35 -95 70 -49 35 -151 109 -225 164
-74 55 -177 130 -228 165 -92 64 -290 208 -346 252 -15 13 -37 27 -47 32 -11
5 -19 13 -19 18 0 4 -6 8 -14 8 -8 0 -16 4 -18 8 -1 5 -41 36 -88 70 -47 34
-91 66 -97 72 -7 6 -41 30 -75 55 -116 82 -283 204 -298 217 -8 7 -62 47 -120
88 -58 41 -109 78 -115 83 -21 16 -141 108 -159 122 -11 8 -53 38 -93 67 -63
46 -249 183 -278 206 -46 35 -254 188 -310 227 -114 80 -228 167 -252 192 -12
13 -26 23 -31 23 -6 0 -12 7 -16 15 -3 8 -11 15 -18 15 -7 0 -18 8 -25 18 -10
17 -8 18 13 14 13 -2 24 -11 24 -18z m8710 -66 c77 -55 130 -99 130 -109 0
-19 -31 -62 -117 -161 -24 -27 -43 -53 -43 -58 0 -6 -9 -10 -21 -10 -23 0 -79
30 -79 42 0 4 -6 8 -14 8 -8 0 -16 4 -18 8 -1 5 -30 27 -63 50 -89 62 -95 67
-95 91 0 28 160 231 182 231 4 0 66 -41 138 -92z m-7986 57 c15 -14 30 -25 34
-25 13 -1 72 -60 72 -72 0 -7 -25 -40 -56 -73 -30 -33 -66 -75 -81 -92 -29
-38 -54 -42 -83 -13 -11 11 -43 34 -70 51 -28 17 -50 38 -50 48 0 9 36 58 81
109 89 101 107 110 153 67z m-864 -60 c19 -14 36 -28 39 -32 3 -5 15 -13 26
-19 31 -17 30 -47 -2 -66 -15 -10 -48 -35 -73 -58 -25 -22 -52 -40 -61 -40
-15 0 -37 15 -122 81 -15 12 -27 27 -25 35 5 25 132 123 159 124 14 0 40 -11
59 -25z m1688 -46 c45 -34 82 -67 82 -75 0 -8 -47 -62 -105 -120 -90 -92 -108
-106 -129 -100 -14 3 -31 12 -38 19 -7 7 -35 29 -63 49 -27 19 -51 41 -53 49
-3 17 195 239 213 239 6 0 48 -27 93 -61z m6550 -6 c42 -31 79 -60 82 -63 3
-4 15 -12 28 -19 32 -17 27 -50 -14 -96 -19 -22 -43 -52 -52 -66 -28 -42 -70
-89 -80 -89 -6 0 -52 32 -103 70 -52 39 -97 70 -102 70 -17 0 6 96 31 130 46
60 104 120 118 120 8 0 49 -26 92 -57z m-7114 -79 c31 -20 56 -41 56 -45 0 -5
5 -9 11 -9 13 0 39 -25 39 -39 0 -13 -171 -191 -184 -191 -16 0 -166 104 -166
116 0 18 164 204 181 204 4 0 32 -16 63 -36z m1404 -24 c45 -33 82 -67 82 -75
0 -19 -211 -225 -230 -224 -22 0 -174 113 -178 131 -4 19 205 227 228 228 9 0
53 -27 98 -60z m-2258 -42 c39 -29 70 -60 70 -69 0 -24 -129 -134 -156 -134
-30 0 -163 95 -164 116 0 20 138 137 163 138 9 1 49 -23 87 -51z m8879 -15
c36 -25 82 -57 101 -70 19 -13 43 -29 53 -35 25 -18 21 -36 -20 -87 -21 -25
-42 -53 -48 -62 -35 -59 -92 -129 -106 -129 -9 0 -34 16 -55 35 -22 19 -45 35
-51 35 -7 0 -13 3 -13 8 0 4 -17 18 -38 32 -49 33 -102 81 -102 92 0 5 6 15
13 22 16 17 40 46 110 134 32 39 65 72 74 72 8 0 45 -21 82 -47z m-7188 -33
c43 -34 79 -67 79 -74 0 -24 -202 -216 -227 -216 -12 0 -41 15 -65 33 -24 18
-55 40 -70 50 -16 10 -28 27 -28 38 0 27 188 229 213 229 10 0 54 -27 98 -60z
m6545 -2 c16 -12 31 -25 34 -28 3 -3 23 -18 46 -33 22 -15 49 -35 60 -45 10
-9 31 -25 47 -35 15 -10 27 -26 27 -35 0 -31 -145 -212 -169 -212 -10 0 -57
32 -116 78 -5 4 -40 29 -77 55 -39 27 -68 55 -68 65 0 21 20 52 90 141 61 77
79 85 126 49z m-7092 -94 c43 -31 76 -63 76 -72 0 -9 -36 -53 -80 -97 -44 -43
-80 -83 -80 -87 0 -20 -66 8 -100 42 -3 3 -24 18 -47 33 -24 15 -43 35 -43 45
0 24 157 192 180 192 9 0 52 -25 94 -56z m1333 28 c18 -15 55 -43 82 -62 46
-32 65 -63 42 -72 -5 -1 -31 -23 -58 -48 -88 -82 -171 -150 -183 -150 -26 0
-170 110 -170 129 0 24 211 231 235 231 11 0 34 -13 52 -28z m-2237 -64 c39
-30 69 -61 70 -71 0 -9 -12 -27 -26 -40 -15 -12 -44 -39 -65 -59 -35 -35 -79
-51 -79 -29 0 5 -13 14 -29 21 -16 6 -37 19 -48 29 -10 10 -31 26 -46 35 -15
10 -27 24 -27 32 0 18 140 134 163 134 10 0 50 -24 87 -52z m7545 -15 c41 -32
75 -66 75 -75 0 -15 -45 -80 -91 -132 -10 -11 -33 -38 -50 -58 -37 -45 -47
-46 -84 -12 -15 14 -45 37 -66 51 -22 14 -39 33 -39 43 0 14 57 100 79 120 3
3 23 31 45 63 21 31 42 57 47 57 4 0 42 -26 84 -57z m-5825 -50 c58 -43 80
-64 80 -80 0 -13 -3 -23 -7 -23 -5 0 -53 -43 -108 -96 -57 -54 -106 -93 -115
-91 -31 8 -170 113 -170 129 0 19 206 218 227 218 7 0 49 -26 93 -57z m-586
-70 c28 -21 53 -40 56 -44 3 -3 15 -11 28 -18 12 -6 22 -19 22 -29 0 -19 -158
-182 -177 -182 -22 0 -172 104 -172 120 -1 18 162 190 179 190 7 0 35 -17 64
-37z m1414 -30 c45 -32 81 -65 82 -74 0 -18 -15 -34 -110 -119 -40 -36 -83
-75 -96 -87 -13 -13 -29 -23 -36 -23 -20 0 -172 118 -176 137 -5 21 206 222
234 223 11 0 57 -26 102 -57z m5863 -15 c54 -39 99 -75 99 -79 0 -3 9 -9 20
-12 35 -9 19 -72 -30 -117 -3 -3 -17 -21 -31 -40 -45 -59 -66 -80 -80 -80 -14
0 -148 94 -224 156 -37 29 -38 33 -26 60 6 16 29 48 49 70 20 23 50 58 65 78
15 20 35 36 43 36 9 0 61 -32 115 -72z m-8211 32 c11 -11 23 -20 26 -20 13 0
104 -74 104 -84 0 -12 -134 -136 -147 -136 -18 0 -164 101 -171 118 -7 19 122
142 149 142 10 0 28 -9 39 -20z m7596 -52 c38 -29 75 -58 82 -65 7 -7 16 -13
20 -13 4 0 22 -14 41 -30 40 -35 38 -58 -11 -110 -19 -19 -49 -55 -68 -80 -48
-62 -56 -70 -75 -70 -14 0 -81 41 -125 76 -8 7 -43 34 -77 59 -35 26 -63 54
-63 63 0 10 12 31 28 47 15 17 52 63 81 103 39 50 61 72 76 72 12 0 53 -23 91
-52z m-5825 -50 c92 -71 96 -88 32 -147 -161 -148 -179 -158 -221 -123 -12 9
-44 33 -71 52 -28 19 -51 42 -51 52 0 19 207 218 227 218 8 0 46 -24 84 -52z
m5337 -80 c37 -28 69 -53 71 -55 8 -6 -24 -56 -71 -108 -27 -29 -59 -68 -71
-86 -27 -40 -55 -47 -84 -22 -12 10 -42 35 -67 56 -25 21 -46 44 -46 50 0 7
15 28 33 49 17 20 55 66 82 102 28 36 58 65 68 66 10 0 48 -23 85 -52z m-5909
2 c18 -17 37 -30 41 -30 11 0 70 -56 70 -67 0 -14 -171 -173 -186 -173 -7 0
-46 23 -88 52 -53 36 -76 58 -76 72 0 12 32 52 77 98 88 89 109 95 162 48z
m1413 -32 c48 -35 88 -69 88 -77 0 -7 -11 -23 -24 -35 -13 -11 -54 -49 -92
-83 -109 -97 -116 -103 -131 -103 -15 0 -59 26 -82 48 -8 8 -31 25 -53 38 -21
13 -38 32 -38 42 0 21 209 232 230 232 8 0 54 -28 102 -62z m-2315 0 c87 -62
99 -89 57 -121 -15 -12 -44 -37 -65 -54 -20 -18 -42 -33 -48 -33 -13 0 -49 19
-68 36 -6 6 -32 24 -57 40 -25 16 -46 36 -46 44 0 19 120 140 139 140 7 0 47
-24 88 -52z m1719 -75 c27 -20 51 -39 54 -42 3 -3 14 -11 25 -17 45 -25 30
-46 -145 -203 -25 -23 -51 -41 -58 -41 -22 0 -172 112 -172 129 -1 23 201 210
226 211 12 0 43 -17 70 -37z m5923 -10 c36 -26 68 -49 71 -52 3 -3 14 -12 25
-19 11 -7 34 -21 50 -32 17 -11 34 -21 39 -23 15 -5 -2 -49 -31 -85 -58 -69
-109 -132 -128 -156 -11 -14 -26 -26 -33 -26 -14 0 -187 124 -234 168 -16 14
-28 33 -28 42 0 12 91 133 164 217 18 21 36 15 105 -34z m-552 -99 c62 -48
118 -93 124 -100 15 -19 5 -43 -39 -89 -20 -22 -53 -60 -72 -85 -64 -82 -68
-84 -115 -44 -16 14 -46 38 -65 53 -19 14 -46 36 -60 49 -14 12 -40 33 -57 45
-18 12 -33 29 -33 37 0 22 169 220 187 220 9 0 67 -39 130 -86z m-5926 24 c24
-17 46 -35 48 -40 2 -5 14 -13 27 -18 13 -5 24 -17 24 -25 0 -22 -158 -175
-181 -175 -9 0 -24 7 -33 15 -8 8 -19 15 -24 15 -6 0 -12 4 -14 9 -1 4 -22 20
-46 35 -24 15 -46 34 -49 42 -7 19 154 173 183 174 12 0 41 -14 65 -32z m1386
-11 c23 -17 60 -45 82 -60 23 -16 41 -36 41 -46 0 -9 -32 -46 -72 -82 -40 -35
-90 -81 -112 -101 -23 -21 -48 -38 -56 -38 -15 0 -83 42 -108 67 -7 7 -26 20
-43 30 -20 12 -29 24 -27 38 3 24 216 224 238 225 8 0 34 -15 57 -33z m-2290
-17 c29 -23 53 -47 53 -54 0 -8 -18 -29 -41 -48 -22 -18 -53 -43 -67 -55 -15
-13 -34 -23 -42 -23 -26 0 -130 80 -130 100 0 11 11 27 25 37 14 10 41 33 61
51 48 42 76 41 141 -8z m6284 -67 c61 -53 89 -81 89 -91 0 -4 -8 -17 -17 -28
-10 -10 -34 -39 -54 -64 -20 -25 -49 -58 -63 -75 -14 -16 -26 -33 -26 -37 0
-18 -36 -5 -84 30 -64 46 -86 69 -86 85 0 6 30 48 66 92 36 44 73 90 82 102
24 31 42 28 93 -14z m-4533 -35 c45 -33 82 -66 82 -73 0 -10 -46 -54 -175
-169 -22 -20 -47 -36 -55 -36 -9 0 -40 18 -70 40 -30 22 -65 47 -77 55 -13 9
-23 24 -23 33 0 20 198 211 220 212 8 0 52 -28 98 -62z m-1271 -241 c410 -297
414 -300 596 -429 86 -62 157 -116 157 -120 0 -4 5 -8 11 -8 12 0 329 -226
345 -246 6 -8 14 -14 18 -14 15 0 1151 -838 1211 -894 14 -13 25 -28 25 -34 0
-13 -106 -64 -172 -83 -27 -7 -48 -17 -48 -21 0 -15 -45 -7 -70 12 -14 11
-128 97 -255 191 -126 94 -232 175 -235 179 -3 4 -32 27 -65 51 -34 24 -67 50
-75 57 -8 7 -121 92 -250 188 -129 97 -248 186 -265 199 -16 13 -50 39 -75 57
-170 128 -377 284 -387 293 -22 18 -413 311 -468 350 -15 11 -36 28 -47 38
-10 9 -20 17 -23 17 -5 0 -273 196 -307 225 -10 8 -36 26 -58 41 -22 15 -40
32 -40 39 0 17 137 135 156 135 7 0 152 -100 321 -223z m633 213 c0 -5 5 -10
12 -10 12 0 118 -77 130 -94 4 -6 8 -16 8 -23 0 -19 -147 -163 -167 -163 -27
1 -167 102 -171 124 -3 13 21 44 74 97 70 71 114 97 114 69z m4850 -14 c0 -2
-8 -10 -17 -17 -16 -13 -17 -12 -4 4 13 16 21 21 21 13z m-3430 -26 c0 -5 5
-10 11 -10 20 0 148 -105 148 -122 1 -10 -2 -18 -7 -18 -9 0 -96 -76 -168
-147 -47 -46 -94 -69 -94 -45 0 4 -13 16 -30 25 -16 10 -35 23 -42 30 -7 7
-30 23 -50 37 -33 22 -52 60 -30 60 4 0 54 45 111 100 71 69 112 100 128 100
12 0 23 -4 23 -10z m4558 -27 c20 -16 42 -32 49 -38 31 -26 40 -32 76 -54 20
-12 37 -26 37 -29 0 -4 14 -13 30 -20 30 -14 40 -44 20 -57 -6 -4 -21 -23 -35
-43 -13 -21 -34 -48 -47 -62 -13 -14 -38 -44 -56 -67 -19 -24 -41 -43 -49 -43
-8 0 -30 12 -48 28 -36 30 -49 41 -115 92 -25 19 -51 40 -58 47 -7 7 -21 17
-30 22 -13 7 -14 15 -7 35 14 36 166 216 183 216 7 0 30 -12 50 -27z m-536
-90 c140 -113 148 -121 148 -141 0 -9 -12 -30 -26 -47 -14 -16 -39 -47 -57
-68 -62 -74 -85 -97 -96 -97 -16 0 -80 46 -140 100 -16 14 -49 42 -75 63 -25
21 -46 43 -46 49 0 5 37 54 82 109 58 69 89 99 104 99 12 0 59 -30 106 -67z
m-4590 24 c15 -12 52 -40 83 -61 30 -22 55 -47 55 -56 0 -8 -12 -23 -27 -33
-16 -9 -63 -50 -106 -92 -44 -41 -85 -75 -93 -75 -14 0 -65 33 -141 90 -20 14
-33 32 -32 44 1 24 195 205 219 206 8 0 27 -10 42 -23z m3878 -20 c0 -2 -12
-14 -27 -28 l-28 -24 24 28 c23 25 31 32 31 24z m-4419 -69 c24 -17 46 -35 47
-40 2 -4 9 -8 15 -8 15 -1 57 -35 57 -47 0 -5 -30 -36 -66 -69 -36 -32 -75
-67 -85 -76 -11 -10 -24 -18 -31 -18 -12 0 -142 84 -165 106 -7 7 -13 18 -13
25 0 20 153 158 176 159 12 0 41 -14 65 -32z m4634 -30 c35 -29 64 -61 64 -70
1 -17 -13 -36 -69 -98 -14 -15 -42 -48 -64 -74 -21 -25 -42 -46 -47 -46 -8 0
-21 10 -93 72 -17 15 -34 28 -38 28 -5 0 -8 12 -8 26 0 24 34 70 128 174 12
14 22 28 22 32 0 23 49 2 105 -44z m-3193 -36 c42 -32 83 -66 92 -75 16 -16
22 -47 9 -47 -5 0 -21 -11 -38 -25 -41 -34 -144 -126 -167 -147 -10 -10 -23
-18 -28 -18 -11 0 -56 27 -76 45 -6 5 -37 28 -68 50 -33 24 -55 46 -54 55 4
21 219 219 238 220 9 0 50 -26 92 -58z m2908 55 c0 -2 -10 -12 -22 -23 l-23
-19 19 23 c18 21 26 27 26 19z m-60 -71 c0 -2 -8 -10 -17 -17 -16 -13 -17 -12
-4 4 13 16 21 21 21 13z m-3498 -15 c13 -5 36 -21 52 -35 16 -14 32 -26 35
-26 12 0 71 -58 71 -70 0 -7 -34 -44 -77 -84 -42 -39 -87 -81 -99 -93 -13 -13
-30 -23 -39 -23 -14 0 -107 57 -168 104 -10 8 -17 23 -15 34 3 17 193 200 210
201 4 1 17 -3 30 -8z m4614 -56 c15 -14 30 -25 33 -25 3 0 17 -10 31 -23 14
-12 55 -44 93 -70 37 -26 67 -54 67 -62 0 -25 -176 -245 -196 -245 -7 0 -21 8
-31 19 -20 20 -86 77 -152 131 -65 52 -71 60 -71 82 0 17 31 58 155 205 16 19
42 15 71 -12z m-5100 -70 c40 -30 74 -61 74 -68 0 -8 -30 -40 -66 -73 -36 -32
-72 -65 -79 -71 -7 -7 -20 -13 -28 -13 -28 0 -177 108 -177 128 0 5 33 41 74
80 54 53 81 72 100 72 17 0 55 -21 102 -55z m4582 -19 c135 -116 142 -122 142
-137 0 -8 -13 -27 -28 -44 -15 -16 -34 -39 -42 -51 -30 -43 -99 -114 -110
-114 -12 0 -65 38 -130 95 -20 16 -55 46 -78 65 -23 19 -42 43 -42 52 0 17
116 169 148 196 29 23 53 12 140 -62z m-688 44 c0 -12 -10 -25 -25 -32 -14 -6
-25 -17 -25 -24 0 -18 -120 -154 -136 -154 -31 0 -10 41 56 109 39 40 70 75
70 78 0 11 35 42 48 42 6 1 12 -8 12 -19z m-2462 -96 c45 -36 82 -70 82 -76 0
-12 -33 -44 -100 -98 -24 -19 -53 -44 -64 -55 -58 -56 -92 -63 -132 -27 -10 9
-43 34 -71 56 -30 21 -53 46 -53 56 0 10 38 50 88 93 48 41 98 84 111 96 13
11 31 21 40 21 9 0 54 -30 99 -66z m2638 -25 c88 -76 89 -78 46 -124 -15 -16
-34 -39 -42 -51 -32 -45 -99 -114 -112 -114 -7 0 -25 10 -41 23 -15 12 -45 36
-67 52 -21 17 -39 37 -40 47 0 9 37 59 82 112 58 69 88 96 104 96 13 0 44 -18
70 -41z m-3250 -22 c115 -85 125 -101 79 -131 -13 -9 -41 -31 -62 -50 -99 -90
-119 -106 -136 -106 -18 0 -155 89 -177 115 -6 8 -10 21 -8 29 4 21 199 195
218 195 8 0 47 -23 86 -52z m-563 -69 c105 -76 106 -79 46 -134 -23 -22 -56
-54 -75 -71 -19 -18 -41 -33 -49 -33 -16 0 -77 39 -83 53 -2 4 -10 7 -17 7 -7
0 -15 4 -17 8 -1 4 -18 18 -35 31 -18 12 -33 28 -33 34 0 18 152 156 173 157
9 0 50 -23 90 -52z m1448 -99 c50 -39 89 -78 89 -87 -1 -10 -27 -37 -58 -62
-31 -24 -66 -53 -77 -62 -87 -77 -107 -87 -129 -66 -8 7 -26 22 -42 33 -15 11
-33 26 -40 33 -7 6 -15 12 -18 12 -14 0 -66 55 -66 69 0 15 33 47 170 169 19
17 46 32 59 32 14 0 57 -27 112 -71z m3188 9 c42 -34 81 -66 86 -72 6 -6 27
-22 47 -36 23 -15 38 -33 38 -45 0 -11 -20 -41 -45 -67 -25 -27 -45 -51 -45
-55 0 -12 -88 -103 -100 -103 -10 0 -35 20 -99 79 -20 18 -52 45 -71 60 -63
47 -90 74 -90 90 0 9 23 40 50 70 28 30 50 56 50 58 0 15 69 83 84 83 11 0 53
-28 95 -62z m-630 18 c55 -51 103 -93 155 -136 30 -25 55 -50 55 -57 1 -12 -6
-21 -98 -128 -34 -38 -61 -73 -61 -77 0 -4 -8 -8 -19 -8 -17 0 -36 14 -106 79
-16 15 -52 45 -80 67 -27 21 -53 44 -57 49 -16 21 -7 54 20 77 15 13 45 45 66
72 47 57 76 86 90 86 5 0 21 -11 35 -24z m-619 -3 c0 -10 -33 -54 -73 -99 -39
-44 -79 -91 -87 -102 -17 -27 -50 -29 -50 -4 0 9 19 38 43 64 23 26 62 72 87
102 45 55 80 72 80 39z m-2574 -45 c16 -12 31 -25 34 -28 3 -3 24 -18 48 -34
23 -16 42 -36 42 -44 0 -15 -52 -67 -139 -140 -24 -20 -50 -43 -57 -49 -17
-17 -39 -16 -57 1 -8 8 -31 26 -50 39 -64 43 -99 77 -95 91 6 26 197 186 222
186 13 0 36 -10 52 -22z m-559 -65 c29 -20 53 -40 53 -45 0 -4 5 -8 12 -8 18
0 48 -31 48 -50 0 -10 -10 -24 -23 -33 -13 -8 -47 -38 -77 -66 -29 -28 -60
-51 -67 -51 -12 0 -69 35 -83 51 -3 3 -26 20 -52 38 -29 19 -48 40 -48 51 0
10 29 43 68 77 37 32 69 61 70 66 8 17 49 5 99 -30z m3319 -29 c35 -31 64 -62
64 -70 0 -14 -71 -105 -125 -160 -16 -17 -35 -39 -41 -49 -7 -13 -17 -16 -35
-12 -34 9 -139 105 -139 127 0 27 169 220 192 220 11 0 49 -25 84 -56z m-1855
-100 c46 -36 86 -73 87 -81 4 -14 -9 -27 -68 -73 -31 -23 -51 -40 -125 -104
-16 -14 -33 -26 -37 -26 -7 0 -28 15 -62 45 -6 6 -37 30 -69 54 -32 24 -57 50
-55 56 2 7 48 50 103 96 55 46 102 87 103 92 9 19 46 2 123 -59z m-641 -4 c11
-11 23 -20 26 -20 15 0 113 -87 113 -101 1 -15 -66 -82 -129 -129 -18 -14 -44
-35 -56 -47 -13 -13 -29 -23 -36 -23 -13 0 -141 92 -173 123 -9 9 -15 24 -13
32 2 9 46 54 98 100 102 90 133 102 170 65z m3247 -22 c4 -7 28 -29 53 -49 25
-20 57 -48 72 -62 15 -14 43 -38 63 -53 19 -14 35 -33 35 -41 0 -21 -41 -80
-95 -137 -11 -12 -31 -36 -43 -53 -28 -40 -41 -41 -80 -5 -16 15 -47 41 -68
59 -22 18 -57 48 -79 68 -22 19 -42 35 -46 35 -3 0 -11 11 -19 24 -10 21 -10
27 1 40 8 8 46 53 84 100 70 85 102 105 122 74z m-3762 -70 c47 -35 84 -68 85
-74 0 -6 -21 -29 -46 -50 -25 -21 -62 -54 -82 -71 -20 -18 -40 -33 -45 -33
-11 0 -71 41 -75 52 -2 4 -8 8 -13 8 -8 0 -17 6 -71 52 -11 9 -18 24 -16 32 4
18 148 144 166 145 8 1 51 -27 97 -61z m2565 37 c0 -19 -31 -66 -70 -105 -3
-3 -27 -31 -54 -63 -35 -42 -54 -57 -70 -55 -44 6 -21 43 118 195 54 58 76 67
76 28z m690 -46 c47 -39 95 -82 108 -95 13 -13 27 -24 32 -24 24 0 6 -49 -33
-91 -23 -26 -62 -71 -87 -102 -25 -31 -52 -56 -60 -56 -8 -1 -31 13 -50 30
-19 17 -55 48 -79 68 -25 20 -61 51 -80 68 -20 18 -39 33 -43 33 -21 0 -3 39
46 99 88 107 123 141 143 141 10 0 57 -32 103 -71z m-543 -73 c16 -14 45 -40
66 -58 20 -18 37 -39 37 -46 0 -7 -18 -32 -39 -55 -91 -97 -131 -142 -131
-149 0 -20 -37 -4 -90 40 -71 58 -89 84 -69 106 8 8 46 53 84 100 77 94 96
102 142 62z m-1920 -38 c18 -13 33 -26 33 -30 0 -5 7 -8 15 -8 9 0 18 -7 21
-15 4 -8 10 -15 15 -15 20 0 69 -44 69 -62 0 -10 -4 -18 -9 -18 -4 0 -21 -12
-37 -27 -75 -71 -158 -133 -177 -133 -33 1 -198 121 -195 142 3 21 196 187
217 188 8 0 30 -10 48 -22z m-517 -86 c84 -64 95 -89 53 -114 -15 -10 -50 -38
-77 -63 -55 -51 -70 -54 -108 -22 -15 12 -52 39 -82 60 -34 23 -56 46 -56 57
0 26 137 140 169 140 16 0 55 -22 101 -58z m3275 -53 c28 -23 57 -47 65 -55 8
-8 39 -33 68 -56 62 -50 66 -72 19 -125 -19 -21 -43 -49 -55 -63 -11 -14 -32
-38 -46 -55 -14 -16 -26 -33 -26 -37 0 -13 -49 -9 -57 5 -4 7 -33 32 -63 57
-30 25 -60 49 -66 55 -6 5 -32 28 -58 50 -25 22 -46 45 -46 51 0 7 39 58 86
113 60 71 92 101 107 101 12 0 45 -18 72 -41z m-1235 1 c0 -19 -10 -34 -77
-109 -18 -20 -43 -51 -55 -69 -15 -21 -30 -31 -43 -30 -26 4 -31 41 -8 63 10
10 25 29 35 43 9 14 37 47 63 73 50 52 85 64 85 29z m693 -72 c133 -109 137
-113 137 -128 0 -12 -47 -83 -77 -115 -10 -11 -33 -39 -51 -62 -20 -26 -42
-43 -54 -43 -19 0 -71 36 -127 88 -13 12 -46 39 -72 59 -83 63 -83 69 2 168
41 47 81 95 89 105 8 11 21 19 28 20 8 0 64 -41 125 -92z m-1308 10 c57 -29
85 -48 85 -60 0 -9 -22 -43 -49 -76 l-49 -59 -169 -7 c-195 -8 -287 -19 -306
-38 -19 -19 -35 -90 -43 -194 l-7 -92 -41 -6 c-34 -6 -53 -19 -108 -76 -36
-39 -73 -70 -81 -70 -9 0 -57 32 -109 71 -51 39 -110 83 -130 98 -21 14 -37
32 -38 38 0 7 42 34 93 59 95 48 384 206 662 362 88 50 170 90 182 91 13 1 61
-18 108 -41z m-1209 -49 c19 -11 34 -25 34 -30 0 -5 5 -9 10 -9 19 0 109 -75
109 -90 0 -8 -21 -32 -47 -52 -26 -21 -61 -51 -79 -68 -18 -16 -37 -30 -43
-30 -12 0 -61 33 -95 63 -11 11 -39 32 -63 49 -24 16 -42 36 -40 43 4 16 155
145 170 145 6 0 26 -9 44 -21z m1998 -36 c39 -33 66 -65 66 -76 0 -11 -12 -34
-27 -52 -39 -46 -77 -96 -81 -106 -9 -23 -69 1 -120 48 -7 7 -26 20 -42 30
-17 9 -30 25 -30 35 0 22 136 178 155 178 7 0 43 -26 79 -57z m-409 -129 c0
-12 -22 -46 -50 -76 -69 -76 -155 -175 -185 -212 -14 -17 -50 -58 -80 -92 -30
-33 -86 -100 -123 -147 -63 -81 -97 -106 -97 -73 0 14 66 103 167 225 94 115
167 202 188 226 11 13 34 40 50 61 17 21 42 51 58 66 15 16 27 33 27 39 0 6
10 9 23 7 15 -2 22 -10 22 -24z m1251 -65 c55 -44 107 -89 117 -100 10 -10 22
-19 27 -19 17 0 11 -31 -12 -63 -13 -18 -45 -57 -73 -88 -27 -30 -57 -65 -65
-77 -8 -12 -21 -22 -28 -22 -14 0 -74 44 -122 88 -14 13 -51 44 -82 69 -40 31
-58 53 -58 68 0 31 160 225 186 225 6 0 56 -36 110 -81z m-585 -31 c146 -128
159 -148 122 -186 -10 -10 -29 -34 -43 -55 -14 -20 -33 -37 -43 -37 -15 0 -72
33 -87 51 -3 3 -27 21 -55 40 -114 78 -145 104 -145 120 0 34 105 149 136 149
13 0 59 -33 115 -82z m-1981 52 c0 -11 -5 -20 -11 -20 -5 0 -27 -11 -47 -25
-73 -50 -99 -21 -29 32 49 37 87 43 87 13z m800 -59 c0 -10 -8 -25 -17 -32 -9
-8 -29 -32 -45 -54 -16 -22 -44 -56 -61 -75 -18 -19 -40 -46 -49 -60 -30 -45
-75 -90 -90 -90 -8 0 -22 8 -31 18 -15 16 -15 34 -7 156 6 76 13 142 16 147 3
5 68 9 145 9 129 0 139 -1 139 -19z m646 -9 c20 -19 321 -237 367 -267 60 -39
43 -41 -299 -49 -179 -4 -346 -9 -370 -13 -35 -5 -44 -3 -44 9 0 13 120 155
211 251 12 12 32 37 46 55 29 36 59 41 89 14z m789 -204 c13 -13 43 -39 66
-58 23 -19 52 -45 65 -56 12 -12 36 -31 53 -43 44 -32 40 -61 -16 -133 -27
-33 -55 -72 -64 -87 -26 -44 -44 -38 -85 31 -21 35 -71 96 -112 136 -59 59
-73 78 -68 95 7 26 108 137 125 137 7 0 23 -10 36 -22z m-1770 -184 c44 -37
115 -93 158 -126 43 -33 77 -66 77 -76 0 -9 -13 -30 -28 -47 -15 -16 -34 -39
-42 -51 -20 -27 -85 -107 -135 -164 -22 -25 -45 -54 -51 -65 -14 -26 -38 -30
-61 -11 -10 8 -47 38 -83 66 -36 28 -72 56 -80 63 -8 7 -45 34 -82 61 -38 28
-68 57 -68 65 0 9 26 46 58 82 31 36 96 112 145 167 48 56 93 102 100 102 7 0
49 -30 92 -66z m-811 26 c16 -6 26 -17 26 -30 0 -17 -7 -20 -39 -20 -21 0 -53
-3 -70 -6 -45 -9 -41 20 7 45 44 24 44 24 76 11z m1872 -286 c-10 -337 -24
-525 -41 -549 -8 -11 -31 -44 -50 -72 -19 -29 -41 -53 -48 -53 -7 0 -28 12
-46 28 l-32 27 17 415 c11 263 22 418 28 422 6 4 49 8 95 8 l84 0 -7 -226z
m251 29 c-4 -108 -7 -265 -7 -350 0 -90 -4 -153 -9 -153 -6 0 -31 14 -57 32
-48 32 -86 39 -133 23 -23 -8 -24 -6 -18 26 4 19 11 160 17 314 6 154 13 286
15 293 3 8 33 12 101 12 l97 0 -6 -197z m168 175 c4 -13 19 -48 33 -78 21 -45
26 -67 24 -120 -5 -136 -40 -611 -46 -617 -6 -7 -66 16 -66 26 0 3 -18 17 -40
31 -25 16 -40 32 -40 45 0 98 21 713 25 723 3 7 23 12 54 12 43 0 51 -3 56
-22z m-658 -150 c-4 -90 -10 -246 -12 -348 -3 -102 -8 -204 -11 -227 -5 -44
-21 -54 -46 -30 -7 6 -34 28 -60 47 -26 19 -49 40 -52 46 -2 7 0 139 6 295
l11 282 -26 22 c-14 13 -46 26 -71 29 -36 6 -46 11 -46 27 0 18 8 19 157 19
l156 0 -6 -162z m-1881 90 c-6 -35 -38 -402 -56 -658 -6 -85 -13 -165 -16
-177 -5 -28 -33 -30 -60 -5 -11 11 -24 21 -29 23 -6 2 -32 20 -58 39 -47 34
-49 36 -43 75 3 22 10 103 17 180 l11 140 96 207 c86 184 100 208 121 208 21
0 23 -3 17 -32z m218 -6 c10 -16 -71 -927 -86 -964 -6 -16 -17 -28 -25 -28
-17 0 -64 31 -106 70 l-28 26 21 239 c24 283 50 613 50 637 0 9 10 19 23 21
41 8 146 7 151 -1z m206 -39 c0 -27 -7 -147 -15 -268 -8 -121 -15 -254 -15
-295 l0 -75 -53 -57 c-28 -32 -67 -75 -86 -98 -32 -39 -61 -52 -61 -27 0 6 5
53 10 102 6 50 22 216 35 370 14 154 28 306 31 338 l7 57 73 0 74 0 0 -47z
m103 -15 c18 -12 34 -23 36 -24 2 -2 -2 -24 -9 -51 -11 -43 -10 -59 14 -153
15 -58 29 -114 32 -125 4 -14 -8 -34 -38 -66 -24 -25 -54 -60 -67 -77 -13 -18
-31 -32 -39 -32 -13 0 -14 16 -9 108 16 269 31 442 40 442 5 0 23 -10 40 -22z
m1093 -130 c-15 -278 -19 -318 -31 -318 -6 0 -33 17 -59 37 -38 29 -46 41 -41
57 18 53 15 97 -14 209 -17 65 -29 123 -25 128 3 5 44 9 91 9 l86 0 -7 -122z
m-230 -68 c24 -100 23 -101 -58 -115 -46 -7 -105 -65 -138 -135 -21 -45 -22
-53 -10 -89 12 -37 11 -42 -11 -70 -13 -16 -29 -30 -35 -30 -6 -1 -20 23 -32
52 -11 28 -25 66 -32 82 -13 30 -12 32 61 107 41 42 106 117 144 167 39 50 76
89 84 88 9 -1 20 -25 27 -57z m1460 -17 c66 -102 151 -262 207 -387 48 -105
257 -651 257 -669 0 -13 -26 -7 -49 11 -58 44 -91 75 -91 87 0 8 -30 85 -66
172 -99 236 -324 816 -324 834 0 27 34 2 66 -48z m-156 -65 c19 -51 50 -132
70 -179 l37 -87 -10 -166 c-7 -103 -15 -166 -21 -166 -6 0 -24 11 -40 25 -16
14 -49 38 -73 53 -23 15 -45 33 -48 40 -3 7 0 93 5 190 6 97 13 223 16 280 4
73 10 102 19 102 7 0 27 -41 45 -92z m-1910 -103 c17 -20 6 -53 -30 -95 -17
-19 -52 -61 -76 -94 -25 -32 -54 -68 -64 -80 -38 -43 -97 -112 -133 -158 -21
-26 -43 -53 -50 -60 -7 -7 -25 -30 -40 -51 -16 -20 -39 -47 -51 -60 -12 -12
-38 -42 -57 -67 -19 -25 -43 -55 -54 -67 -11 -11 -28 -32 -38 -45 -10 -12 -28
-36 -40 -51 -46 -60 -161 -202 -167 -207 -3 -3 -21 -25 -40 -50 -19 -25 -37
-47 -40 -50 -3 -3 -21 -25 -40 -50 -19 -25 -37 -47 -40 -50 -3 -3 -21 -25 -40
-50 -19 -25 -37 -47 -40 -50 -3 -3 -21 -25 -41 -50 -20 -25 -45 -55 -55 -67
-11 -12 -30 -36 -44 -54 -14 -18 -30 -37 -35 -43 -6 -6 -26 -31 -45 -56 -19
-25 -37 -47 -40 -50 -3 -3 -21 -25 -40 -50 -19 -25 -39 -50 -45 -56 -24 -27
-54 -63 -100 -124 -27 -36 -52 -67 -55 -70 -3 -3 -32 -39 -65 -80 -33 -41 -64
-80 -70 -86 -5 -6 -21 -25 -35 -43 -14 -18 -34 -43 -45 -56 -28 -33 -45 -54
-85 -105 -19 -25 -43 -54 -53 -65 -10 -11 -37 -45 -60 -75 -52 -69 -157 -201
-174 -218 -7 -7 -13 -16 -13 -20 0 -4 -15 -23 -33 -42 -18 -19 -48 -55 -67
-80 -19 -25 -37 -47 -40 -50 -6 -5 -123 -148 -199 -243 -18 -23 -45 -55 -60
-72 -14 -16 -34 -41 -43 -55 -9 -14 -31 -40 -47 -59 -17 -18 -31 -36 -31 -40
0 -3 -15 -22 -33 -41 -18 -19 -48 -55 -67 -80 -19 -25 -44 -55 -55 -67 -32
-35 -89 -104 -104 -127 -8 -12 -28 -37 -45 -57 -17 -20 -58 -69 -91 -109 -33
-40 -78 -94 -100 -120 -22 -26 -51 -62 -65 -79 -14 -18 -32 -41 -40 -51 -8
-10 -25 -32 -37 -47 -12 -15 -30 -38 -40 -50 -10 -12 -28 -35 -40 -50 -12 -15
-31 -39 -42 -52 -12 -13 -21 -27 -21 -30 0 -3 -17 -25 -38 -48 -20 -23 -45
-52 -55 -65 -59 -75 -75 -95 -102 -127 -17 -20 -46 -56 -65 -81 -19 -25 -37
-47 -40 -50 -3 -3 -21 -25 -40 -50 -19 -25 -40 -51 -48 -58 -7 -8 -25 -30 -40
-50 -30 -40 -41 -54 -98 -123 -22 -25 -67 -82 -101 -125 -34 -43 -70 -88 -80
-99 -10 -11 -34 -40 -53 -65 -19 -25 -37 -47 -40 -50 -3 -3 -17 -21 -31 -40
-15 -19 -37 -46 -49 -60 -12 -14 -34 -41 -49 -60 -14 -19 -28 -37 -31 -40 -3
-3 -21 -25 -40 -50 -19 -25 -40 -52 -47 -60 -7 -8 -51 -64 -98 -125 -48 -60
-94 -119 -103 -130 -9 -11 -25 -32 -35 -48 -9 -15 -25 -27 -35 -27 -23 1 -52
24 -52 42 0 7 64 90 143 184 158 189 182 218 292 354 43 52 94 115 115 140 54
65 675 842 739 925 30 39 60 77 68 85 7 8 41 51 76 95 34 44 74 94 89 110 16
17 28 33 28 36 0 3 8 15 18 26 22 27 57 72 123 158 50 67 198 253 226 285 21
25 597 749 784 986 96 121 188 238 206 260 18 21 135 167 260 324 204 255 477
590 518 637 9 10 48 59 88 108 39 50 79 99 89 110 9 11 53 64 97 118 44 54 89
108 100 120 11 12 80 94 153 182 73 88 141 169 150 180 9 11 56 68 105 126 48
59 130 157 181 218 51 61 95 118 98 126 8 19 48 19 64 0z m635 -61 c22 -19 53
-45 69 -57 51 -39 101 -82 104 -89 2 -5 9 -8 16 -8 6 0 19 -8 27 -17 9 -10 29
-27 44 -38 33 -23 118 -89 168 -130 7 -5 30 -23 52 -39 22 -16 47 -35 55 -43
23 -19 93 -77 105 -85 30 -22 171 -132 175 -138 3 -3 25 -21 50 -40 71 -55 82
-64 102 -82 10 -10 21 -18 24 -18 6 0 22 -14 75 -62 10 -10 22 -18 26 -18 3 0
13 -7 22 -15 43 -38 82 -72 107 -90 79 -58 421 -328 430 -341 6 -8 15 -14 20
-14 5 0 17 -8 25 -17 9 -10 26 -25 39 -33 37 -24 84 -64 93 -77 4 -7 13 -13
19 -13 6 0 18 -7 27 -15 9 -8 45 -37 81 -65 36 -28 76 -59 90 -70 14 -11 36
-28 48 -37 60 -46 138 -108 143 -116 4 -5 16 -14 27 -20 12 -7 107 -79 212
-160 104 -81 259 -200 343 -264 83 -64 157 -121 162 -125 9 -8 618 -465 730
-549 95 -71 580 -430 600 -445 239 -169 459 -326 468 -334 7 -5 66 -49 132
-96 66 -48 122 -90 123 -95 2 -5 8 -9 13 -9 9 0 255 -175 703 -500 109 -80
201 -150 203 -158 3 -7 1 -24 -5 -38 -19 -41 -52 -30 -169 55 -59 44 -123 90
-141 103 -18 13 -39 28 -45 34 -7 5 -39 29 -72 52 -170 118 -353 250 -506 365
-49 37 -92 67 -95 67 -8 0 -128 93 -132 103 -2 4 -8 7 -13 7 -5 0 -33 18 -62
40 -29 21 -63 48 -77 58 -14 11 -47 34 -75 53 -27 18 -52 36 -55 39 -3 3 -43
32 -90 64 -47 33 -113 81 -147 108 -35 26 -65 48 -68 48 -5 0 -184 128 -195
140 -3 3 -27 21 -55 39 -27 19 -52 37 -55 40 -11 13 -89 71 -94 71 -3 0 -15 8
-25 18 -11 9 -37 30 -58 45 -143 107 -436 326 -459 344 -16 12 -67 50 -114 85
-189 141 -335 252 -340 258 -3 4 -90 71 -195 150 -104 79 -213 162 -241 184
-28 23 -65 52 -84 66 -18 14 -47 36 -65 50 -18 14 -46 36 -64 50 -18 13 -72
55 -119 93 -93 74 -94 74 -162 127 -25 19 -47 37 -50 40 -6 7 -84 66 -195 150
-33 25 -62 48 -65 51 -3 3 -32 25 -65 50 -64 48 -68 50 -135 103 -25 20 -49
40 -55 44 -9 7 -158 123 -181 141 -24 19 -286 218 -374 284 -52 39 -100 76
-106 82 -18 16 -85 69 -110 85 -17 11 -179 137 -269 208 -5 4 -26 19 -45 32
-19 14 -37 28 -40 31 -3 3 -36 29 -75 57 -38 28 -77 58 -85 65 -8 8 -28 23
-45 33 -16 10 -39 27 -50 37 -11 10 -32 26 -47 35 -16 9 -28 23 -28 32 0 18
69 79 90 80 8 0 33 -16 55 -36z m-2049 -90 c65 -47 104 -82 104 -93 0 -34
-162 -221 -191 -221 -8 0 -29 10 -46 23 -17 12 -41 29 -54 37 -68 46 -104 78
-107 96 -3 24 154 234 176 234 8 0 61 -34 118 -76z m1630 53 c1 -1 4 -30 7
-64 7 -65 1 -75 -32 -54 -17 11 -44 108 -35 123 5 7 54 3 60 -5z m-1300 -54
c-3 -21 -6 -50 -6 -65 0 -23 -4 -28 -25 -28 -37 0 -41 24 -15 81 29 60 56 67
46 12z m1154 -13 c0 -12 -4 -26 -10 -33 -5 -7 -29 -34 -52 -61 -24 -27 -50
-58 -58 -70 -12 -18 -76 -96 -144 -176 -11 -14 -29 -37 -39 -52 -18 -28 -57
-39 -57 -15 0 11 26 55 40 67 3 3 21 25 40 50 19 25 37 47 40 50 3 3 23 28 45
55 21 28 52 63 67 80 16 16 43 51 61 77 34 50 67 64 67 28z m1436 -97 c16 -16
46 -40 66 -55 54 -41 98 -88 98 -104 0 -15 -61 -110 -99 -153 -11 -13 -23 -32
-26 -42 -6 -19 -40 -27 -47 -11 -1 4 -32 30 -68 57 -36 27 -76 60 -90 72 -14
13 -28 23 -32 23 -21 0 -4 56 30 103 21 29 51 71 66 95 32 50 58 54 102 15z
m-990 -65 c-12 -115 -26 -362 -26 -445 l0 -83 -116 0 -117 0 7 173 c4 94 9
200 12 235 6 61 7 62 36 62 45 0 90 26 132 75 21 26 45 45 57 45 19 0 20 -4
15 -62z m-336 13 l45 -28 -2 -104 c0 -57 -4 -175 -8 -261 l-7 -158 -90 0 -91
0 7 133 c20 404 16 372 48 411 16 20 35 36 41 35 7 0 32 -13 57 -28z m1958
-156 c34 -85 62 -159 62 -165 0 -17 -36 -11 -55 10 -10 11 -38 33 -63 48 l-44
27 6 50 c3 28 6 80 6 118 0 47 4 67 13 67 7 0 40 -69 75 -155z m-3291 132 c4
-8 16 -16 26 -20 10 -4 17 -17 17 -32 0 -60 -24 -220 -34 -231 -6 -6 -18 -21
-26 -33 -8 -11 -20 -21 -28 -21 -20 0 -122 68 -129 87 -4 9 18 65 55 139 54
108 65 124 86 124 14 0 29 -6 33 -13z m1769 -9 c16 -13 34 -26 39 -30 6 -5 31
-24 58 -44 54 -40 51 -22 38 -262 -5 -79 -13 -147 -17 -152 -5 -5 -51 -12
-102 -16 l-93 -7 6 224 c9 330 10 334 71 287z m-2339 -66 c17 -15 61 -47 97
-72 36 -25 66 -52 66 -61 0 -12 -50 -80 -80 -109 -3 -3 -27 -31 -53 -62 -27
-32 -54 -58 -60 -57 -26 1 -212 135 -215 154 -3 25 172 235 196 235 9 0 31
-13 49 -28z m701 -14 c17 -17 15 -34 -5 -58 -24 -28 -47 -26 -39 3 3 12 6 32
6 45 0 24 19 29 38 10z m1019 -80 c-4 -29 -9 -124 -13 -210 l-6 -158 -64 0
c-56 0 -64 2 -64 19 0 10 -13 45 -30 76 -16 31 -30 67 -30 79 0 19 29 58 150
204 48 59 64 56 57 -10z m1866 -44 c53 -42 97 -83 97 -91 0 -8 -9 -27 -21 -41
-11 -15 -43 -60 -70 -99 -27 -40 -56 -73 -64 -73 -8 0 -52 30 -97 66 -46 37
-89 69 -95 71 -22 9 -14 48 19 94 95 131 110 149 122 149 7 0 56 -34 109 -76z
m-2750 28 c15 -17 16 -30 2 -163 -8 -79 -17 -150 -20 -156 -9 -26 -66 -11
-108 28 -10 9 -32 23 -48 29 -25 11 -29 18 -29 54 0 45 10 62 95 165 53 64 80
74 108 43z m1815 -59 c48 -37 89 -68 91 -69 8 -6 -10 -51 -29 -71 -11 -12 -20
-24 -20 -27 0 -9 -51 -80 -63 -88 -7 -4 -36 -8 -65 -8 l-54 0 7 93 c14 220 16
237 32 237 8 0 53 -30 101 -67z m-1694 -24 c33 -26 33 -32 -6 -74 -47 -52 -58
-47 -58 30 0 57 2 65 19 65 10 0 30 -9 45 -21z m421 -76 c3 -16 25 -65 47
-110 22 -45 38 -86 36 -91 -1 -5 -13 -22 -25 -38 -12 -16 -58 -77 -102 -137
-45 -59 -85 -113 -91 -120 -10 -12 -76 -95 -135 -171 -16 -22 -41 -53 -55 -70
-14 -17 -32 -39 -40 -50 -8 -10 -28 -35 -45 -54 -16 -19 -48 -59 -70 -87 -72
-94 -193 -242 -217 -267 -14 -13 -29 -31 -34 -39 -5 -9 -26 -36 -46 -60 -20
-24 -67 -80 -104 -124 -36 -44 -79 -94 -93 -110 -15 -17 -32 -38 -37 -47 -5
-9 -28 -38 -51 -65 -24 -26 -89 -104 -145 -173 -56 -69 -107 -130 -113 -136
-5 -6 -23 -29 -40 -50 -16 -21 -48 -59 -70 -84 -22 -25 -53 -63 -70 -84 -16
-21 -40 -51 -52 -65 -12 -14 -56 -69 -99 -121 -43 -52 -84 -101 -91 -108 -7
-7 -13 -16 -13 -20 0 -4 -15 -23 -33 -42 -17 -19 -44 -51 -59 -72 -15 -20 -33
-42 -40 -50 -8 -7 -49 -58 -92 -113 -44 -55 -86 -107 -93 -115 -13 -14 -149
-184 -165 -205 -4 -5 -22 -28 -40 -50 -19 -22 -46 -56 -60 -75 -15 -19 -37
-47 -50 -62 -13 -15 -31 -39 -41 -53 -21 -29 -46 -32 -75 -7 -43 36 -58 48
-90 70 -51 37 -44 56 74 199 58 70 266 328 462 573 195 245 425 532 511 639
86 106 270 336 410 510 870 1083 1052 1309 1073 1333 30 36 54 36 63 1z m-970
-25 c25 -17 45 -39 45 -49 0 -16 -29 -59 -60 -89 -8 -8 -28 -32 -43 -52 -26
-36 -31 -38 -83 -38 -44 0 -54 3 -54 17 0 25 123 243 137 243 7 0 33 -14 58
-32z m3465 -63 c121 -92 125 -108 43 -193 -7 -7 -13 -17 -13 -20 0 -4 -10 -19
-22 -33 -13 -14 -28 -34 -34 -45 -18 -32 -36 -27 -114 32 -121 91 -130 98
-130 112 0 20 143 222 158 222 7 0 58 -34 112 -75z m-4075 -2 c62 -43 95 -73
95 -85 0 -17 -22 -45 -127 -158 -24 -25 -43 -48 -43 -52 0 -16 -34 -7 -64 15
-17 13 -36 26 -42 28 -31 11 -134 86 -134 97 0 21 182 222 202 222 11 0 61
-30 113 -67z m355 28 c-16 -57 -54 -112 -75 -109 -33 5 -29 35 10 81 30 35 43
45 72 56 1 1 -2 -12 -7 -28z m2750 -28 c73 -55 68 -63 -45 -63 -58 0 -95 4
-95 10 0 23 54 90 72 90 10 0 41 -17 68 -37z m-2342 -95 l-3 -53 -52 -3 c-36
-2 -53 1 -53 9 0 22 71 99 91 99 18 0 20 -6 17 -52z m93 -8 c30 -17 24 -40
-11 -40 -25 0 -30 4 -30 25 0 27 10 31 41 15z m-630 -59 c24 -19 24 -20 7 -49
-35 -60 -16 -135 44 -180 26 -19 22 -39 -13 -83 -33 -42 -66 -50 -93 -24 -8 8
-17 15 -20 15 -3 0 -14 7 -23 15 -10 8 -43 32 -73 53 -30 21 -56 46 -58 55 -5
23 164 217 188 217 10 0 28 -9 41 -19z m4160 -72 c60 -45 109 -88 109 -95 0
-17 -19 -48 -77 -126 -24 -31 -43 -60 -43 -66 0 -5 -9 -17 -20 -27 -22 -20
-42 -14 -93 28 -58 49 -122 100 -146 117 -11 8 -21 20 -21 27 0 22 151 223
168 223 8 0 64 -36 123 -81z m-1173 44 c-8 -29 -118 -183 -131 -183 -7 0 -29
16 -50 35 -21 19 -41 35 -45 35 -13 1 -112 97 -112 108 0 8 40 12 118 15 64 1
141 4 171 5 46 2 53 0 49 -15z m-752 -60 c-3 -32 -9 -134 -12 -227 l-7 -169
-31 -41 c-18 -22 -56 -78 -86 -123 -78 -118 -84 -114 -76 55 3 75 9 230 12
344 l7 207 81 4 c45 1 89 4 100 5 17 2 18 -3 12 -55z m274 44 c0 -14 -59 -100
-72 -105 -5 -2 -8 -8 -8 -13 0 -6 -9 -20 -21 -32 -11 -12 -29 -39 -40 -59 -11
-21 -26 -38 -34 -38 -12 0 -15 18 -15 93 0 50 -3 109 -6 130 l-7 37 102 0 c76
0 101 -3 101 -13z m652 -20 c20 -17 62 -50 92 -71 37 -26 56 -47 56 -60 0 -31
-149 -246 -170 -246 -25 0 -199 141 -200 162 0 25 152 247 170 247 8 0 32 -14
52 -32z m-1445 -74 c-4 -54 -10 -189 -13 -300 -6 -160 -10 -203 -21 -203 -8 0
-13 13 -13 38 0 20 -3 60 -6 89 -6 46 -10 53 -37 62 -16 6 -41 11 -55 11 -24
0 -24 1 -18 58 3 31 8 116 12 187 3 72 7 136 9 143 3 8 27 12 76 12 l72 0 -6
-97z m263 55 c0 -24 -4 -149 -10 -278 -5 -129 -19 -509 -30 -845 -11 -335 -23
-665 -26 -733 l-6 -123 -122 3 -121 3 3 55 c1 30 16 282 32 560 16 278 39 701
50 940 12 239 23 441 25 448 3 8 33 12 105 12 l100 0 0 -42z m-2477 -53 c64
-43 97 -72 97 -84 0 -16 -23 -52 -55 -87 -5 -6 -32 -37 -59 -68 -27 -31 -56
-56 -65 -56 -17 0 -75 37 -117 73 -13 11 -41 30 -61 42 -21 11 -39 28 -41 38
-4 20 165 206 188 207 8 0 59 -29 113 -65z m2023 13 c-3 -29 -9 -112 -12 -184
l-7 -132 -36 -6 c-20 -3 -47 -6 -60 -6 l-23 0 4 123 4 122 53 68 c66 84 86 88
77 15z m-916 10 c0 -20 -80 -118 -96 -118 -9 0 -29 10 -45 23 -16 12 -42 32
-59 45 -49 38 -40 51 43 55 39 1 91 4 115 5 26 1 42 -2 42 -10z m-440 -22 c0
-13 -20 -26 -41 -26 -5 0 -9 9 -9 20 0 15 7 20 25 20 15 0 25 -6 25 -14z
m2461 -14 c14 -9 58 -44 98 -76 57 -47 72 -64 69 -81 -7 -33 -171 -264 -188
-265 -8 0 -31 14 -50 31 -19 17 -61 52 -92 76 -32 25 -60 54 -63 64 -7 22 162
269 185 269 8 0 27 -8 41 -18z m-2279 -84 c40 -28 76 -56 80 -62 12 -17 9 -43
-4 -58 -7 -7 -29 -34 -48 -58 -85 -110 -90 -109 -90 13 0 93 -14 142 -46 160
-17 10 -18 29 -2 45 20 20 34 14 110 -40z m3052 -135 c-13 -287 -14 -288 -76
-235 -18 16 -48 38 -65 51 -20 14 -33 31 -33 44 0 27 146 237 165 237 11 0 12
-20 9 -97z m-3603 26 c46 -33 90 -66 98 -74 17 -17 9 -52 -21 -85 -13 -14 -47
-55 -77 -92 -30 -38 -59 -68 -65 -68 -10 0 -134 85 -199 136 -15 12 -27 28
-27 36 0 21 170 208 189 208 10 0 56 -27 102 -61z m4576 -57 c29 -59 61 -119
70 -133 16 -25 16 -28 -8 -57 -13 -17 -31 -31 -39 -31 -27 -1 -210 140 -210
161 0 24 105 168 123 168 6 0 36 -49 64 -108z m-3041 -44 c-9 -183 -44 -1081
-51 -1308 -3 -102 -8 -213 -11 -247 l-6 -63 -159 0 -159 0 0 57 c0 31 11 268
25 527 14 259 29 544 33 633 l9 161 49 61 c54 66 79 79 70 34 -9 -47 -28 -724
-21 -778 25 -199 41 -64 66 589 l13 318 60 74 c34 41 67 74 75 74 12 0 13 -23
7 -132z m2214 80 c38 -29 69 -59 69 -66 1 -14 -87 -144 -101 -150 -5 -2 -8 -9
-8 -15 -1 -17 -47 -67 -61 -67 -9 0 -10 22 -6 83 4 45 7 124 7 175 0 112 3
113 100 40z m976 20 c46 -33 55 -58 30 -90 -22 -30 -40 -20 -69 40 -44 91 -35
103 39 50z m-4346 7 c17 -21 3 -145 -17 -145 -23 0 -93 53 -93 70 0 23 59 90
80 90 9 0 23 -7 30 -15z m-947 -81 c49 -36 96 -68 103 -71 22 -8 16 -41 -13
-72 -16 -16 -54 -58 -87 -95 -33 -37 -67 -66 -77 -66 -11 0 -19 4 -19 8 0 4
-12 15 -27 24 -16 9 -38 25 -49 35 -12 10 -44 34 -73 53 -28 19 -51 41 -51 49
0 19 169 201 188 201 8 0 55 -30 105 -66z m3692 34 c8 -7 32 -26 54 -42 l41
-30 0 -87 0 -86 -61 -87 c-34 -47 -68 -86 -75 -86 -16 0 -17 36 -7 273 6 162
12 178 48 145z m-95 -130 c0 -94 -13 -218 -22 -218 -9 0 -57 34 -100 70 -25
21 -23 32 20 92 92 131 102 137 102 56z m1891 18 c24 -19 154 -118 289 -222
135 -103 391 -297 570 -431 432 -323 650 -492 650 -504 0 -9 -104 -180 -135
-223 -25 -33 -33 -28 -361 221 -80 60 -214 160 -234 173 -12 8 -31 23 -42 33
-12 9 -24 17 -27 17 -3 0 -17 10 -31 23 -14 12 -34 29 -46 37 -38 27 -339 254
-344 260 -3 3 -32 25 -65 50 -56 42 -68 50 -98 75 -7 6 -30 23 -52 40 -22 16
-45 34 -51 40 -6 5 -26 21 -44 35 -18 14 -38 30 -44 35 -6 6 -46 36 -89 69
-55 42 -77 64 -77 80 0 31 146 226 169 226 10 0 38 -15 62 -34z m-2315 -21
c24 -20 49 -41 56 -48 7 -7 30 -25 51 -40 24 -18 37 -36 37 -51 0 -22 -73
-137 -91 -144 -5 -2 -9 -8 -9 -14 0 -18 -72 -118 -85 -118 -7 0 -24 9 -39 21
l-26 20 0 186 c0 159 2 189 17 205 23 26 40 23 89 -17z m-2306 -38 c48 -34 76
-61 78 -75 2 -13 -12 -41 -38 -74 -23 -29 -57 -74 -77 -100 -38 -53 -65 -60
-101 -30 -12 9 -49 37 -82 62 -40 29 -60 51 -58 62 2 9 38 60 82 113 54 66 85
95 100 95 11 0 55 -24 96 -53z m3625 -139 c-4 -106 -9 -195 -11 -198 -11 -11
-194 131 -194 151 0 11 115 175 148 212 14 15 35 27 45 27 19 0 20 -6 12 -192z
m-635 167 c0 -8 -7 -15 -15 -15 -8 0 -15 7 -15 15 0 8 7 15 15 15 8 0 15 -7
15 -15z m-1490 -220 l0 -225 -95 0 -95 0 0 73 c0 41 3 142 7 225 l6 152 89 0
88 0 0 -225z m2242 159 c21 -15 38 -30 38 -34 0 -4 9 -10 20 -13 34 -9 23 -59
-25 -114 -5 -6 -26 -34 -45 -62 -54 -78 -64 -70 -57 47 4 53 7 121 7 150 0 60
7 63 62 26z m-4317 -36 c39 -29 87 -64 108 -78 20 -14 37 -31 37 -38 0 -7 -15
-28 -32 -47 -18 -19 -58 -64 -88 -100 -55 -65 -77 -76 -102 -52 -7 7 -35 29
-63 48 -119 82 -135 95 -132 111 3 24 167 208 186 208 9 0 48 -24 86 -52z
m3755 -40 c49 -39 92 -80 95 -89 7 -22 -3 -43 -74 -142 -31 -44 -66 -94 -79
-113 -25 -38 -42 -42 -73 -16 -11 9 -33 27 -47 39 -15 13 -31 23 -35 23 -4 0
-5 55 -1 123 l6 122 42 62 c24 37 48 63 59 63 10 0 58 -32 107 -72z m-4284
-48 c56 -41 103 -81 103 -88 1 -7 -17 -32 -38 -55 -22 -23 -48 -52 -58 -64
-72 -86 -89 -103 -100 -103 -7 0 -63 37 -123 82 -78 57 -110 87 -108 99 2 9
43 61 92 114 63 69 94 95 108 93 11 -2 67 -37 124 -78z m3204 -35 c0 -46 -13
-58 -38 -33 -25 25 -8 78 25 78 9 0 13 -15 13 -45z m538 -42 c109 -90 109 -94
0 -252 -74 -107 -108 -139 -120 -113 -1 4 -39 36 -83 72 -91 73 -97 79 -92
100 8 33 179 260 196 260 9 0 54 -30 99 -67z m1307 41 l25 -16 0 -182 c0 -227
-8 -241 -98 -168 -26 20 -53 42 -62 49 -60 47 -80 67 -80 84 0 24 160 249 178
249 7 0 24 -7 37 -16z m-4200 -106 c47 -34 87 -69 90 -79 5 -16 -10 -41 -52
-85 -7 -7 -13 -16 -13 -19 0 -14 -96 -124 -108 -124 -12 -1 -45 19 -87 51 -5
4 -34 26 -62 48 -29 22 -53 45 -53 51 0 14 179 219 191 219 5 0 47 -28 94 -62z
m1115 20 c0 -24 -5 -115 -10 -203 -12 -200 -50 -939 -50 -982 l0 -33 -67 0
-66 0 7 163 c3 89 13 337 21 550 10 278 18 393 27 406 52 72 113 141 124 141
10 0 14 -13 14 -42z m1114 16 c17 -15 53 -46 79 -70 l48 -43 -16 -373 c-8
-205 -24 -629 -35 -943 -28 -785 -58 -1579 -71 -1830 -5 -115 -13 -405 -16
-643 l-6 -433 -86 3 -86 3 -3 120 c-2 66 4 305 12 530 22 568 33 919 56 1645
62 2008 64 2060 82 2060 5 0 24 -12 42 -26z m1506 -85 c55 -45 100 -89 100
-98 0 -16 -15 -40 -127 -194 -29 -39 -53 -75 -53 -79 0 -17 -38 -6 -59 16 -23
25 -23 26 -16 213 5 148 10 192 23 206 8 9 19 17 23 17 5 0 54 -37 109 -81z
m-570 41 c0 -19 -5 -30 -14 -30 -20 0 -29 16 -21 40 10 32 35 25 35 -10z
m-3705 -78 c92 -72 120 -105 98 -121 -4 -3 -26 -28 -48 -56 -22 -27 -51 -62
-65 -77 -14 -14 -32 -36 -40 -47 -8 -12 -20 -21 -28 -21 -12 0 -62 32 -90 58
-7 6 -16 12 -20 12 -4 0 -21 13 -39 28 -18 15 -44 35 -58 45 -14 10 -25 27
-25 38 0 29 170 218 195 218 11 0 65 -35 120 -77z m4911 53 c9 -23 -5 -65 -21
-65 -11 0 -15 11 -15 40 0 29 4 40 15 40 9 0 18 -7 21 -15z m-5494 -117 c59
-46 108 -89 108 -96 0 -15 -17 -38 -93 -125 -28 -33 -59 -68 -68 -78 -17 -20
-49 -26 -49 -9 0 6 -5 10 -11 10 -6 0 -16 6 -23 13 -7 6 -25 21 -40 32 -15 11
-38 29 -51 40 -12 11 -39 33 -59 48 -20 15 -36 34 -36 41 0 7 15 27 33 44 17
17 57 60 87 96 32 38 63 65 75 65 11 1 68 -36 127 -81z m4249 21 l39 -31 0
-139 c0 -120 -3 -145 -20 -177 -43 -81 -56 -86 -101 -44 l-30 28 7 177 c5 139
10 181 23 197 22 27 37 25 82 -11z m1397 -21 c23 -18 42 -36 42 -40 0 -4 5 -8
10 -8 18 0 110 -73 116 -93 5 -15 -28 -72 -55 -97 -4 -3 -31 -38 -60 -77 -72
-95 -78 -95 -193 0 l-48 39 0 77 0 77 58 76 c31 43 64 77 73 77 8 1 34 -13 57
-31z m-998 -83 c0 -70 -3 -95 -13 -95 -19 0 -87 59 -87 76 0 21 70 114 86 114
11 0 14 -20 14 -95z m-1019 33 l39 -31 -1 -146 c0 -80 -6 -299 -12 -486 l-12
-340 -52 -3 -53 -3 5 93 c7 124 25 751 25 861 0 54 4 87 11 87 5 0 28 -14 50
-32z m-1595 -50 c-3 -35 -11 -207 -17 -383 -6 -176 -14 -374 -18 -440 l-6
-120 -59 -3 c-32 -2 -62 1 -66 5 -4 4 0 170 11 368 10 198 18 390 18 427 1 71
-5 59 93 181 38 46 50 36 44 -35z m912 13 c2 -24 -6 -198 -17 -385 -11 -188
-23 -396 -27 -463 l-6 -123 -151 0 -150 0 6 153 c4 83 12 269 17 412 6 143 13
302 16 353 l6 93 71 -3 72 -3 -3 -166 c-3 -140 -1 -168 12 -178 23 -19 24 -9
33 179 l8 165 40 6 c66 10 70 8 73 -40z m1440 -3 c17 -17 15 -44 -4 -73 -28
-43 -44 -32 -44 30 0 46 3 55 18 55 10 0 23 -5 30 -12z m782 -55 c49 -38 90
-74 90 -82 0 -12 -153 -225 -186 -258 -31 -31 -34 -13 -34 197 0 251 -5 245
130 143z m-4287 -14 c95 -71 102 -86 62 -133 -14 -16 -25 -32 -25 -35 0 -3
-15 -22 -33 -41 -17 -19 -43 -52 -57 -72 -14 -21 -31 -38 -38 -38 -13 0 -63
31 -88 55 -6 5 -36 28 -67 50 -31 22 -57 45 -57 52 0 6 41 62 92 123 64 78 97
110 108 107 9 -2 56 -33 103 -68z m3217 34 c0 -67 -14 -163 -23 -163 -21 0
-77 52 -77 70 0 26 68 120 86 120 9 0 14 -11 14 -27z m-281 -85 l72 -63 -7
-246 c-5 -174 -4 -248 4 -253 25 -15 34 42 40 240 3 142 8 204 16 204 7 0 42
-25 79 -56 l67 -56 0 -309 0 -309 -197 0 -196 0 6 248 c15 554 20 662 32 662
6 0 44 -28 84 -62z m-3526 -10 c104 -78 137 -108 137 -126 0 -8 -19 -36 -42
-62 -57 -62 -122 -140 -126 -151 -5 -13 -39 -11 -54 4 -7 7 -20 18 -29 23 -9
5 -35 25 -58 44 -23 19 -58 48 -77 64 -19 15 -34 37 -34 48 0 12 30 55 67 97
96 109 107 120 121 120 7 1 50 -27 95 -61z m4694 -30 c-4 -46 -7 -109 -7 -140
0 -36 -4 -58 -11 -58 -20 0 -128 85 -129 101 0 27 113 178 134 179 18 0 19 -6
13 -82z m-420 15 c32 -26 61 -52 65 -58 4 -5 8 -46 8 -90 l0 -80 -60 -80 c-33
-44 -60 -83 -60 -87 0 -17 -37 -6 -66 20 -17 15 -52 44 -78 66 -44 37 -46 40
-46 92 0 51 4 59 76 159 42 58 82 105 89 105 7 0 39 -21 72 -47z m-4861 -29
c38 -30 74 -62 80 -70 6 -8 16 -14 21 -14 5 0 18 -9 28 -20 24 -27 14 -55 -45
-120 -84 -93 -100 -112 -100 -121 0 -11 -47 -12 -52 -1 -1 5 -46 40 -99 80
-107 80 -122 95 -117 116 2 8 41 57 87 110 59 67 91 96 106 96 12 0 53 -25 91
-56z m6282 2 c31 -24 68 -54 82 -66 14 -12 35 -29 48 -37 22 -16 30 -47 13
-58 -6 -3 -31 -33 -57 -67 -25 -34 -50 -66 -55 -72 -5 -6 -21 -26 -35 -44 -18
-22 -34 -32 -48 -30 -21 3 -21 8 -24 211 -2 145 1 207 9 207 6 0 36 -20 67
-44z m-4141 -73 c-3 -38 -11 -207 -18 -378 -6 -170 -13 -316 -15 -322 -2 -8
-22 -13 -54 -13 l-50 0 0 143 c0 78 3 227 7 331 l6 189 49 58 c67 81 83 79 75
-8z m3503 -193 c0 -241 0 -241 -56 -198 -16 12 -31 25 -34 28 -3 3 -27 23 -55
45 -68 54 -75 61 -75 78 0 21 189 267 206 267 12 0 14 -37 14 -220z m450 80
c0 -50 -4 -80 -11 -80 -17 0 -79 51 -79 65 0 18 62 94 78 94 9 1 12 -21 12
-79z m-5170 -27 c61 -47 90 -75 90 -89 0 -17 -38 -70 -87 -122 -7 -7 -13 -16
-13 -20 -1 -17 -81 -93 -95 -90 -25 5 -205 151 -205 166 0 7 39 61 86 118 67
80 93 104 111 104 15 0 60 -27 113 -67z m4888 47 c12 -11 26 -20 32 -20 16 0
12 -45 -7 -68 -10 -11 -27 -32 -37 -46 -36 -49 -46 -34 -46 64 0 80 2 90 18
90 10 0 28 -9 40 -20z m-628 -77 c102 -85 103 -93 16 -211 -36 -48 -75 -102
-88 -119 -13 -18 -30 -33 -39 -33 -9 0 -35 16 -58 36 l-41 36 0 122 0 121 41
58 c54 76 68 75 169 -10z m-4830 -40 c109 -87 124 -109 98 -138 -7 -7 -24 -28
-38 -46 -97 -128 -148 -172 -162 -141 -1 4 -49 43 -105 87 -76 59 -103 85
-103 102 0 26 165 223 186 223 8 0 64 -39 124 -87z m6283 11 c56 -43 106 -80
111 -85 13 -12 0 -51 -31 -88 -47 -57 -56 -68 -103 -130 -25 -33 -52 -60 -60
-60 -21 -1 -230 165 -230 183 0 14 5 22 117 164 40 50 78 92 84 92 5 0 56 -34
112 -76z m-4688 -401 l-7 -103 -76 0 -77 0 4 193 3 192 46 55 c25 30 59 68 76
84 l31 29 3 -174 c2 -96 0 -220 -3 -276z m-2194 360 c53 -43 104 -86 113 -96
23 -23 15 -51 -27 -100 -18 -21 -53 -62 -78 -92 -24 -30 -51 -54 -59 -55 -8 0
-28 11 -43 24 -16 14 -47 40 -69 58 -23 18 -46 38 -52 43 -6 6 -28 23 -48 38
-21 15 -38 35 -38 43 0 22 171 214 190 214 9 0 59 -35 111 -77z m4736 45 c15
-13 40 -35 55 -50 l28 -26 0 -226 c0 -123 -3 -227 -7 -229 -5 -2 -38 -2 -75 1
l-68 4 0 132 c0 72 3 195 7 274 7 155 10 161 60 120z m1534 -60 l58 -43 1
-113 0 -114 -61 -74 c-34 -41 -67 -74 -73 -74 -11 0 -49 29 -153 116 -38 31
-43 41 -43 77 0 36 10 54 86 154 59 77 93 113 106 113 11 0 47 -19 79 -42z
m-1101 -108 c0 -43 -17 -53 -40 -25 -11 13 -11 20 0 40 21 39 40 31 40 -15z
m-173 -51 c54 -45 105 -88 113 -95 8 -8 51 -43 95 -80 123 -101 135 -113 135
-129 0 -13 -33 -15 -234 -15 -129 0 -237 3 -239 8 -2 4 -2 94 1 200 3 154 7
192 18 192 8 0 58 -37 111 -81z m736 -1 c53 -44 97 -87 97 -94 0 -7 -39 -63
-86 -124 l-86 -110 -44 0 -44 0 0 190 c0 260 8 267 163 138z m1485 -40 c61
-46 111 -90 111 -98 1 -8 -17 -35 -39 -60 -21 -25 -67 -78 -101 -117 -34 -40
-69 -73 -77 -73 -8 0 -40 20 -71 46 -31 25 -63 51 -71 57 -8 7 -30 23 -47 35
-18 13 -33 32 -33 42 0 26 178 250 199 250 10 0 68 -37 129 -82z m-6308 -3
c52 -41 96 -81 98 -89 2 -7 -28 -52 -66 -98 -38 -47 -77 -97 -87 -111 -9 -15
-24 -27 -32 -27 -14 0 -19 3 -65 42 -41 35 -59 50 -110 88 -26 19 -48 42 -48
50 0 26 171 220 194 220 12 0 64 -34 116 -75z m7320 20 c32 -25 65 -51 72 -58
7 -6 30 -23 50 -37 21 -14 38 -32 38 -40 0 -8 -15 -32 -33 -52 -17 -21 -52
-67 -77 -102 -47 -69 -69 -79 -105 -51 -33 25 -133 99 -160 118 -14 10 -25 24
-25 32 0 27 144 234 163 235 10 0 45 -20 77 -45z m-7881 -86 c62 -50 111 -97
109 -105 -5 -23 -172 -223 -187 -224 -12 0 -39 21 -142 112 -15 13 -43 36 -63
52 -20 15 -36 36 -36 46 0 28 161 210 186 210 12 0 71 -40 133 -91z m-653 24
c27 -20 77 -61 112 -91 71 -62 77 -84 33 -129 -15 -17 -32 -37 -37 -45 -18
-32 -103 -118 -116 -118 -7 0 -31 16 -53 35 -22 20 -75 61 -117 93 -52 38 -78
64 -78 77 0 30 159 215 186 215 11 0 43 -17 70 -37z m6907 -21 c40 -32 87 -68
105 -80 35 -26 41 -52 16 -73 -9 -8 -27 -30 -40 -49 -61 -89 -154 -200 -168
-200 -7 0 -27 12 -45 28 l-32 27 7 178 c6 154 10 182 26 203 11 13 29 24 40
24 11 0 52 -26 91 -58z m-1093 -57 c0 -72 -4 -105 -11 -105 -20 0 -99 70 -99
87 0 22 79 123 96 123 11 0 14 -22 14 -105z m380 -100 l0 -65 -55 0 c-33 0
-55 4 -55 11 0 17 83 119 97 119 9 0 13 -19 13 -65z m1653 -21 c71 -52 117
-92 117 -103 0 -17 -15 -40 -60 -90 -14 -16 -52 -58 -84 -95 -63 -69 -80 -77
-113 -48 -24 20 -55 43 -141 107 -38 27 -62 52 -60 61 5 26 192 253 208 254 9
0 68 -39 133 -86z m-1465 9 c31 -25 58 -52 60 -60 5 -17 -95 -143 -114 -143
-10 0 -14 13 -14 43 0 23 -3 79 -7 125 -4 59 -3 82 6 82 6 0 37 -21 69 -47z
m2535 -39 c69 -50 117 -92 117 -102 0 -9 -19 -39 -43 -65 -23 -26 -60 -70 -81
-97 -22 -28 -46 -50 -55 -50 -9 0 -42 19 -74 43 -31 23 -84 62 -117 85 -38 28
-60 51 -60 63 0 30 150 209 175 209 11 0 73 -39 138 -86z m-7961 -41 c105 -84
113 -99 75 -146 -12 -16 -35 -45 -52 -66 -16 -21 -43 -57 -60 -79 -35 -49 -52
-52 -91 -14 -17 15 -57 49 -89 77 -81 68 -85 71 -85 88 0 26 163 216 185 216
11 1 64 -34 117 -76z m5678 37 c0 -32 -26 -43 -36 -15 -9 21 3 45 21 45 10 0
15 -10 15 -30z m609 -47 c105 -82 111 -88 111 -107 0 -8 -35 -57 -78 -108 -42
-51 -90 -110 -106 -130 -26 -35 -59 -49 -68 -30 -1 4 -32 30 -68 56 -77 58
-130 106 -130 119 0 5 46 67 103 138 79 99 107 129 126 129 13 0 59 -27 110
-67z m-6923 15 c49 -44 86 -76 139 -118 25 -20 44 -44 44 -55 0 -11 -18 -41
-42 -66 -23 -25 -60 -69 -82 -98 -25 -32 -47 -51 -60 -51 -12 0 -43 19 -71 43
-48 41 -72 62 -141 121 -18 15 -33 36 -33 46 0 10 37 62 83 114 93 109 107
114 163 64z m-591 -24 c21 -19 44 -38 51 -42 6 -4 41 -34 78 -66 59 -53 80
-88 59 -98 -5 -1 -25 -23 -45 -48 -20 -25 -49 -58 -63 -75 -15 -16 -34 -40
-42 -52 -17 -25 -54 -30 -75 -10 -7 6 -51 43 -98 80 -47 38 -93 75 -102 83
-10 7 -18 22 -18 32 0 26 177 232 199 232 9 0 35 -16 56 -36z m2765 -71 c0
-60 -13 -393 -55 -1408 -14 -330 -34 -856 -45 -1170 -11 -313 -22 -612 -26
-662 l-6 -93 -105 0 -105 0 6 28 c3 15 13 191 21 392 8 201 17 392 20 425 3
33 12 206 20 385 9 179 29 552 45 830 16 278 36 649 44 825 19 397 25 485 32
496 3 5 39 9 80 9 l74 0 0 -57z m174 17 c-1 -14 -7 -149 -15 -300 -17 -358
-18 -772 -2 -777 6 -2 14 9 17 24 9 42 23 260 41 618 8 176 18 353 21 393 l6
72 53 0 c30 0 56 -3 58 -7 3 -5 -8 -404 -23 -888 -16 -484 -38 -1220 -50
-1635 -11 -415 -23 -779 -26 -809 l-6 -54 -64 6 c-36 2 -67 6 -69 8 -1 2 1 99
5 214 23 560 32 874 25 884 -13 22 -34 11 -39 -21 -4 -29 -37 -964 -36 -1046
l0 -33 -72 3 -73 3 2 80 c1 44 9 256 17 470 9 215 20 512 26 660 5 149 19 502
30 785 11 283 24 632 30 775 5 143 13 334 16 425 4 91 8 169 11 173 3 4 30 7
61 5 54 -3 57 -4 56 -28z m353 15 c9 -3 10 -75 6 -294 -6 -261 -5 -291 10
-291 20 0 26 56 35 355 l7 230 65 0 65 0 -3 -125 c-3 -136 -10 -381 -42 -1415
-12 -374 -29 -941 -38 -1260 l-17 -580 -53 1 c-29 1 -56 5 -59 8 -4 3 1 259
10 569 28 917 30 1040 19 1067 -8 22 -10 18 -16 -35 -11 -106 -25 -399 -41
-855 -8 -245 -17 -514 -21 -597 l-6 -153 -75 0 -75 0 6 128 c8 155 20 535 46
1417 39 1302 50 1641 56 1742 l6 102 51 -5 c29 -3 57 -7 64 -9z m391 -432 c-2
-313 0 -437 8 -440 19 -6 24 71 31 478 l6 389 84 0 83 0 0 -112 c0 -62 -9
-412 -20 -778 -32 -1096 -51 -1785 -58 -2150 l-7 -345 -72 1 c-40 0 -74 2 -76
5 -3 2 -1 92 4 199 15 388 32 1216 26 1243 -4 15 -11 27 -16 27 -21 0 -31
-123 -41 -502 -15 -598 -28 -947 -35 -958 -3 -6 -42 -10 -86 -10 l-79 0 0 98
c0 53 5 216 10 362 9 260 30 935 50 1660 21 741 30 1048 36 1158 l6 112 75 0
74 0 -3 -437z m1311 421 c3 -3 -23 -1224 -54 -2574 -8 -338 -15 -666 -15 -727
l0 -113 -39 0 c-21 0 -59 3 -85 6 l-47 7 6 116 c3 64 12 339 21 612 11 381 12
504 3 525 -12 29 -12 29 -24 -26 -8 -32 -20 -247 -29 -515 -9 -253 -19 -518
-23 -589 l-6 -129 -154 5 c-88 3 -158 9 -164 15 -7 7 -8 59 -4 157 l8 146 31
0 c17 0 48 5 68 11 66 18 68 29 68 356 0 158 7 423 14 588 8 165 17 377 21
470 18 531 56 1503 61 1584 l6 93 167 -7 c91 -4 168 -9 170 -11z m1864 -15
l37 -30 0 -154 c0 -113 -3 -156 -13 -162 -7 -4 -23 -25 -37 -45 -30 -46 -46
-47 -88 -8 -18 17 -36 30 -40 30 -4 0 -32 23 -62 50 -30 27 -58 50 -62 50 -16
0 -7 37 19 75 63 93 175 225 191 225 10 0 34 -14 55 -31z m-2776 -24 c-12 -84
-20 -769 -9 -795 9 -23 10 -21 16 25 9 67 26 516 26 683 l0 132 90 0 90 0 0
-87 c0 -96 -43 -1432 -61 -1898 -18 -487 -27 -1028 -17 -1048 11 -22 67 -47
104 -47 26 0 27 -1 20 -52 -3 -29 -6 -101 -6 -160 l0 -108 -109 0 c-59 0 -130
3 -156 7 l-47 6 6 101 c3 56 11 301 17 546 8 345 8 452 -1 475 l-12 30 -13
-35 c-12 -34 -35 -692 -35 -992 l0 -128 -60 0 -60 0 0 118 c0 118 27 1191 55
2182 9 294 18 654 21 800 3 146 7 271 10 278 2 8 25 12 70 12 l67 0 -6 -45z
m1103 -62 c0 -60 -5 -259 -10 -443 -18 -647 -33 -1548 -26 -1574 9 -36 24 -33
30 7 3 17 10 230 16 472 6 242 15 571 20 730 5 160 12 431 16 603 l7 312 73 0
74 0 0 -64 c0 -61 -24 -838 -75 -2451 -14 -429 -25 -810 -25 -847 l0 -68 -78
0 c-44 0 -114 3 -157 7 l-78 6 7 396 c4 218 13 617 21 886 8 270 19 855 26
1300 6 446 13 816 15 823 2 8 26 12 74 12 l70 0 0 -107z m375 -35 c-3 -73 -12
-293 -20 -488 -8 -195 -17 -389 -20 -430 -13 -196 -25 -557 -19 -596 7 -46 17
-56 28 -27 14 36 86 1366 86 1589 l0 84 61 0 61 0 -6 -152 c-4 -84 -11 -328
-16 -543 -6 -214 -17 -631 -25 -925 -31 -1110 -45 -1628 -45 -1718 l0 -93 -72
3 -73 3 3 315 c1 173 5 362 8 420 4 84 2 109 -10 125 -34 46 -39 10 -48 -352
-5 -192 -11 -385 -14 -430 l-6 -82 -46 6 c-26 3 -49 7 -51 9 -4 4 21 862 49
1679 34 974 39 1113 46 1428 l7 307 64 0 65 0 -7 -132z m350 -15 c-3 -82 -10
-362 -15 -623 -6 -261 -15 -630 -20 -820 -5 -190 -17 -678 -25 -1085 -9 -407
-18 -746 -21 -754 -3 -11 -19 -12 -65 -8 -33 3 -62 7 -64 9 -2 2 0 150 6 328
5 179 18 665 29 1080 11 415 25 895 30 1065 5 171 12 455 16 633 l7 322 64 0
64 0 -6 -147z m194 123 l22 -23 -15 -493 c-9 -271 -16 -559 -16 -641 0 -139 1
-149 19 -149 22 0 25 42 41 545 20 666 21 685 35 685 7 0 36 -19 64 -41 l52
-41 -6 -107 c-3 -58 -12 -423 -20 -811 -9 -388 -22 -946 -30 -1240 -8 -294
-18 -664 -21 -823 l-7 -287 -60 0 -60 0 6 398 c3 219 2 404 -3 412 -7 11 -12
11 -23 2 -11 -10 -15 -84 -21 -404 -4 -216 -10 -396 -14 -399 -4 -3 -42 -4
-84 -1 l-78 4 0 82 c0 44 7 324 15 621 38 1407 65 2686 58 2714 -5 20 -2 21
59 21 55 0 68 -4 87 -24z m349 18 c20 -6 22 -12 22 -80 0 -53 -4 -74 -12 -74
-7 0 -44 27 -83 60 -38 33 -73 60 -77 60 -5 0 -8 9 -8 20 0 18 7 20 68 20 37
0 77 -3 90 -6z m1997 -96 c79 -58 114 -89 115 -103 0 -36 -199 -259 -227 -253
-29 6 -231 163 -232 180 -1 19 203 258 220 258 6 0 62 -37 124 -82z m985 35
c14 -9 30 -22 37 -28 6 -5 50 -37 97 -70 47 -33 86 -67 86 -76 0 -9 -10 -27
-21 -40 -12 -13 -48 -59 -81 -101 -32 -43 -64 -78 -71 -78 -7 0 -25 11 -42 25
-16 13 -70 53 -120 87 -54 38 -91 71 -93 83 -3 22 151 215 172 215 6 0 23 -8
36 -17z m-1592 -124 c79 -62 102 -85 102 -104 0 -27 -18 -50 -173 -219 -49
-54 -70 -56 -118 -16 -13 11 -57 46 -96 77 -40 31 -73 63 -73 73 0 13 115 159
200 253 26 29 53 18 158 -64z m-6905 -21 c138 -118 145 -132 102 -182 -14 -16
-25 -32 -25 -35 0 -3 -13 -20 -28 -38 -15 -18 -38 -48 -52 -67 -26 -37 -49
-45 -72 -23 -24 22 -92 81 -141 121 -29 24 -47 47 -47 60 0 30 158 216 183
216 10 0 47 -24 80 -52z m-530 -75 c64 -54 116 -104 116 -111 1 -14 -6 -24
-53 -75 -15 -18 -40 -48 -54 -67 -67 -91 -93 -106 -123 -72 -20 22 -58 55
-141 122 -48 37 -68 60 -68 76 0 29 165 224 189 224 10 0 70 -44 134 -97z
m-598 -30 c85 -71 115 -103 115 -119 0 -13 -19 -45 -42 -72 -24 -27 -61 -72
-83 -100 -51 -66 -74 -73 -118 -36 -19 16 -52 44 -75 62 -22 18 -58 48 -79 67
-21 19 -41 35 -45 35 -24 0 -2 52 45 106 28 33 70 81 92 107 22 26 48 47 57
47 10 0 70 -44 133 -97z m7415 20 c108 -85 116 -100 78 -149 -13 -16 -27 -35
-33 -42 -5 -8 -22 -27 -37 -44 -16 -17 -28 -34 -28 -37 0 -3 -18 -26 -40 -51
-22 -25 -40 -48 -40 -52 0 -19 -44 -5 -73 22 -18 16 -35 30 -39 30 -10 0 -10
73 -1 203 l6 98 44 50 c25 27 49 49 54 49 5 0 54 -35 109 -77z m-790 9 l54
-49 -12 -509 c-7 -280 -18 -711 -25 -959 -13 -502 -16 -1432 -4 -1569 l7 -88
-84 3 c-46 2 -88 7 -92 11 -4 4 -2 187 5 405 19 646 51 1946 58 2391 7 470 1
445 93 364z m2360 -68 c88 -63 120 -92 118 -105 -4 -22 -185 -233 -215 -250
-19 -10 -26 -8 -52 12 -16 13 -71 53 -120 89 -65 46 -90 70 -88 84 3 27 199
255 219 255 10 1 72 -38 138 -85z m1095 -41 c123 -87 139 -106 113 -135 -7 -7
-25 -29 -40 -50 -15 -20 -34 -42 -41 -50 -7 -7 -23 -28 -36 -45 -14 -21 -31
-33 -45 -33 -29 0 -268 177 -264 196 6 29 153 204 171 204 10 0 74 -39 142
-87z m-1789 5 c24 -17 44 -35 44 -40 0 -4 5 -8 10 -8 20 0 120 -82 120 -99 0
-16 -38 -63 -155 -188 -33 -35 -61 -69 -63 -74 -6 -15 -36 -10 -62 10 -14 11
-62 47 -107 80 -46 34 -83 68 -83 77 0 25 212 274 233 274 10 0 39 -14 63 -32z
m-1341 -163 l125 -100 0 -160 c0 -88 -5 -295 -10 -460 -5 -165 -14 -570 -20
-900 -5 -330 -13 -752 -16 -938 l-7 -337 -24 0 c-13 0 -26 7 -30 16 -3 9 -1
276 5 593 33 1592 36 1810 25 1833 -10 23 -10 23 -21 2 -12 -23 -34 -691 -52
-1574 -6 -289 -13 -598 -16 -687 -7 -186 -1 -177 -99 -147 l-52 17 -7 56 c-14
131 -18 642 -7 1001 12 380 24 907 37 1558 7 317 8 333 26 330 10 -2 75 -48
143 -103z m-6113 63 c13 -13 40 -35 59 -50 20 -15 55 -45 79 -67 49 -45 49
-64 3 -118 -16 -18 -53 -64 -83 -103 -30 -38 -60 -70 -66 -70 -7 0 -29 17 -50
38 -22 20 -72 63 -111 96 -40 32 -73 65 -73 73 0 8 39 61 88 118 94 112 112
121 154 83z m6902 -58 c59 -46 96 -82 96 -94 0 -21 -218 -286 -236 -286 -7 0
-30 15 -51 33 -22 17 -56 46 -77 62 -78 61 -98 82 -95 98 2 9 51 73 109 142
91 109 109 125 132 123 14 -2 69 -36 122 -78z m-7437 -22 c126 -107 143 -124
143 -146 0 -18 -37 -67 -156 -210 -26 -32 -54 -26 -109 23 -59 53 -135 118
-157 133 -12 9 -18 23 -16 39 4 33 168 232 192 232 10 1 57 -31 103 -71z
m9033 -38 c69 -49 126 -96 128 -104 2 -8 -15 -34 -37 -58 -22 -24 -74 -79
-115 -123 -69 -74 -76 -79 -101 -70 -42 16 -245 169 -245 185 0 22 209 260
228 260 9 0 73 -41 142 -90z m-9602 -21 c64 -56 118 -110 120 -121 3 -17 -19
-47 -172 -225 -25 -30 -47 -29 -70 2 -10 14 -23 25 -28 25 -9 0 -145 108 -185
147 -24 22 -13 45 56 127 106 123 128 146 146 146 9 0 69 -46 133 -101z
m10715 -25 c76 -52 137 -100 137 -107 0 -7 -23 -36 -50 -66 -27 -30 -66 -76
-87 -102 -42 -53 -59 -59 -91 -29 -12 11 -25 20 -31 20 -5 0 -11 4 -13 8 -1 5
-25 24 -53 43 -128 87 -135 94 -132 117 3 29 147 212 168 212 9 0 77 -43 152
-96z m-1753 -36 c123 -93 129 -104 78 -158 -18 -19 -43 -48 -55 -64 -51 -64
-142 -156 -156 -156 -12 0 -90 53 -123 85 -6 5 -36 28 -67 50 -31 22 -57 47
-57 57 0 13 124 161 209 250 30 31 58 20 171 -64z m-646 -99 c60 -47 106 -89
106 -98 0 -10 -8 -26 -18 -37 -9 -10 -38 -44 -62 -74 -138 -171 -165 -192
-202 -157 -7 6 -42 34 -78 61 -36 27 -73 58 -83 68 -10 10 -22 18 -28 18 -27
0 5 48 111 168 63 72 122 131 131 131 9 1 64 -36 123 -80z m-7483 -6 c66 -54
166 -139 182 -155 19 -20 17 -68 -3 -68 -6 0 -10 -5 -10 -11 0 -6 -28 -45 -62
-87 -80 -98 -84 -102 -102 -102 -8 0 -21 6 -28 13 -7 6 -44 37 -83 68 -99 79
-125 106 -125 125 0 21 178 234 196 234 7 0 23 -8 35 -17z m9035 -4 c19 -11
34 -25 34 -30 0 -5 5 -9 11 -9 19 0 179 -122 179 -136 0 -12 -35 -52 -191
-216 -20 -21 -45 -38 -56 -38 -11 0 -40 15 -64 33 -24 18 -79 59 -121 90 -43
32 -78 62 -78 68 0 18 221 259 237 259 9 0 31 -9 49 -21z m-9588 -67 c34 -31
87 -77 117 -102 74 -62 73 -72 -23 -176 -12 -14 -40 -50 -62 -80 -41 -55 -60
-64 -85 -41 -8 6 -20 17 -27 22 -31 24 -135 112 -163 137 -16 16 -33 28 -37
28 -5 0 -8 8 -8 18 0 21 195 252 213 252 6 0 40 -26 75 -58z m10809 -39 c90
-60 132 -94 132 -107 1 -16 -40 -69 -146 -186 -13 -14 -23 -28 -23 -32 0 -24
-57 1 -138 61 -51 38 -109 80 -128 93 -18 13 -34 30 -34 39 0 26 162 218 185
219 11 0 79 -39 152 -87z m-11404 -20 c51 -42 102 -87 115 -100 13 -13 27 -23
32 -23 21 0 20 -40 -2 -66 -51 -60 -153 -180 -165 -191 -17 -18 -36 -16 -61 7
-12 11 -24 20 -28 20 -4 0 -23 15 -43 33 -20 17 -65 53 -99 79 -38 30 -62 55
-62 67 0 21 194 251 211 251 6 0 52 -35 102 -77z m9617 -19 c63 -47 116 -94
118 -104 2 -10 -7 -31 -20 -46 -36 -43 -111 -128 -123 -140 -6 -6 -26 -30 -45
-53 -35 -42 -67 -52 -92 -28 -7 7 -29 23 -48 37 -87 59 -170 132 -170 149 0
28 220 271 245 271 11 0 72 -39 135 -86z m-7707 14 c51 -41 66 -58 64 -76 -2
-28 -135 -209 -159 -217 -10 -3 -25 2 -36 12 -10 10 -44 36 -75 58 -36 26 -57
47 -57 60 0 31 151 215 176 215 12 0 51 -24 87 -52z m7055 -114 c63 -48 112
-94 112 -103 0 -9 -28 -48 -63 -87 -34 -39 -86 -99 -116 -132 -32 -37 -62 -62
-74 -62 -17 0 -90 48 -144 95 -7 5 -31 24 -53 40 -31 23 -39 36 -37 57 3 37
213 278 242 278 12 0 72 -39 133 -86z m1674 -80 c68 -47 124 -92 126 -100 2
-7 -16 -35 -41 -61 -24 -27 -72 -80 -108 -120 -35 -39 -74 -74 -86 -78 -21 -7
-49 4 -75 27 -8 7 -21 18 -30 23 -90 56 -168 120 -168 137 0 26 216 258 240
258 10 0 74 -39 142 -86z m-9721 -20 c135 -116 169 -148 169 -163 -1 -9 -39
-63 -85 -121 -47 -58 -85 -108 -85 -112 0 -17 -34 -6 -65 20 -18 15 -41 34
-51 42 -142 111 -157 126 -151 150 7 28 180 228 198 229 8 1 40 -20 70 -45z
m8986 -11 c29 -20 53 -40 53 -45 0 -4 5 -8 11 -8 19 0 129 -90 129 -106 0 -9
-39 -54 -139 -163 -47 -51 -87 -97 -89 -102 -11 -28 -81 8 -163 81 -9 8 -39
31 -68 50 -38 26 -50 41 -48 57 3 32 216 273 241 273 11 0 43 -16 73 -37z
m-9527 -85 c66 -56 120 -110 120 -119 0 -9 -9 -27 -21 -40 -11 -13 -28 -33
-38 -45 -10 -12 -22 -28 -27 -36 -21 -36 -104 -118 -119 -118 -15 0 -86 52
-134 98 -8 8 -38 32 -68 54 -33 25 -53 48 -53 60 0 24 186 248 206 248 8 0 68
-46 134 -102z m1254 35 c23 -21 56 -50 75 -66 43 -35 39 -50 -40 -152 -33 -44
-70 -92 -82 -107 -11 -16 -28 -28 -37 -28 -26 0 -155 121 -155 146 0 24 168
244 187 244 6 0 29 -17 52 -37z m-1869 -79 c69 -58 125 -112 125 -120 0 -9 -6
-21 -12 -28 -7 -7 -48 -57 -91 -110 -43 -53 -84 -96 -91 -96 -7 0 -21 8 -32
18 -46 41 -154 130 -197 162 -29 22 -46 42 -44 53 3 26 179 226 200 227 9 0
73 -48 142 -106z m9542 -16 c67 -51 122 -99 123 -107 0 -7 -8 -21 -18 -30 -10
-9 -25 -25 -33 -37 -14 -21 -119 -140 -172 -195 -15 -16 -32 -29 -37 -29 -6 0
-67 42 -135 93 -100 73 -125 96 -123 114 3 25 236 282 257 282 8 1 70 -41 138
-91z m1696 -78 c70 -50 127 -97 127 -105 0 -8 -27 -43 -59 -77 -122 -130 -171
-183 -171 -190 0 -16 -36 -7 -62 15 -15 12 -70 54 -123 92 -65 48 -95 76 -95
90 0 26 216 265 240 265 9 0 74 -41 143 -90z m-781 -8 c2 -4 24 -23 51 -42 26
-18 47 -37 47 -42 0 -4 5 -8 10 -8 21 0 120 -81 120 -98 0 -9 -37 -56 -83
-103 -45 -48 -97 -105 -115 -128 -40 -49 -65 -52 -115 -13 -20 15 -73 53 -117
85 -60 44 -80 65 -80 82 0 22 32 60 179 217 35 38 62 58 77 58 12 0 24 -4 26
-8z m-9577 -76 c28 -25 80 -70 118 -101 67 -56 79 -81 55 -107 -7 -7 -25 -29
-39 -48 -15 -19 -39 -48 -53 -65 -15 -16 -36 -45 -49 -62 -12 -18 -30 -33 -41
-33 -15 0 -60 32 -133 95 -6 5 -36 30 -67 55 -37 29 -56 52 -56 67 0 25 178
241 200 242 8 1 38 -19 65 -43z m-540 -106 c117 -98 137 -123 113 -143 -8 -7
-30 -32 -50 -57 -20 -25 -54 -65 -77 -90 -22 -25 -41 -48 -41 -52 0 -17 -41
-6 -67 17 -16 14 -39 34 -53 46 -35 29 -111 94 -137 117 -13 11 -23 24 -23 30
0 6 42 61 92 122 66 79 98 110 111 108 10 -2 70 -46 132 -98z m9550 4 c84 -63
115 -92 115 -108 0 -11 -19 -41 -43 -66 -23 -25 -52 -58 -65 -74 -49 -63 -132
-146 -147 -146 -8 0 -23 6 -32 14 -10 8 -47 36 -83 63 -36 26 -67 50 -70 53
-3 3 -20 16 -37 29 -19 13 -33 31 -33 43 0 26 237 278 262 278 10 0 70 -39
133 -86z m-10222 21 c33 -30 65 -58 72 -63 35 -20 115 -103 115 -119 0 -10
-17 -37 -38 -60 -20 -23 -57 -69 -82 -102 -25 -33 -50 -60 -57 -58 -24 4 -263
239 -263 258 0 28 150 199 175 199 11 0 46 -25 78 -55z m1975 -25 c75 -63 84
-83 54 -116 -9 -10 -24 -28 -32 -40 -73 -103 -124 -164 -137 -164 -8 0 -45 26
-81 58 -76 65 -82 71 -82 92 0 24 170 230 189 230 10 0 50 -27 89 -60z m9267
-151 c61 -44 117 -84 125 -89 23 -13 3 -49 -80 -140 -41 -45 -93 -103 -116
-128 -46 -51 -68 -52 -116 -7 -15 14 -31 25 -35 25 -4 0 -25 15 -45 33 -20 17
-55 45 -78 61 -31 21 -40 34 -38 52 4 33 226 274 253 274 11 0 70 -36 130 -81z
m-674 -106 c65 -49 118 -94 119 -102 0 -20 -44 -76 -141 -181 -14 -15 -41 -48
-60 -74 -35 -47 -58 -56 -81 -33 -7 7 -40 33 -73 57 -33 25 -62 47 -65 50 -3
3 -21 17 -40 30 -49 34 -62 48 -58 64 6 26 243 276 262 276 10 0 72 -39 137
-87z m-9629 34 c25 -23 78 -68 117 -101 39 -32 71 -66 71 -75 0 -9 -15 -35
-33 -58 -110 -143 -143 -182 -155 -183 -8 0 -39 21 -70 48 -31 26 -70 58 -86
72 -83 70 -106 94 -106 109 0 10 17 37 37 62 106 127 146 169 161 169 10 0 38
-19 64 -43z m-534 -93 c80 -69 112 -103 112 -118 0 -19 -23 -52 -85 -123 -5
-6 -28 -36 -50 -67 -22 -31 -46 -56 -53 -56 -21 0 -252 220 -252 239 0 27 171
221 195 221 11 0 71 -43 133 -96z m1276 12 c23 -19 55 -46 71 -60 17 -14 33
-26 38 -26 23 0 -24 -86 -85 -151 -7 -8 -17 -22 -23 -30 -41 -65 -62 -89 -77
-89 -16 0 -51 27 -132 103 -16 15 -33 27 -37 27 -22 0 -5 43 38 97 100 125
135 163 150 163 9 0 34 -15 57 -34z m9242 -218 c68 -51 123 -99 123 -105 1
-12 -36 -55 -139 -164 -19 -21 -42 -47 -50 -59 -37 -54 -53 -70 -69 -70 -14 0
-48 23 -186 127 -5 5 -27 19 -47 33 -25 16 -38 33 -38 47 0 28 237 281 264
282 11 1 74 -41 142 -91z m-10224 -40 c40 -34 91 -79 113 -100 22 -21 43 -38
47 -38 13 0 9 -39 -6 -57 -8 -10 -45 -56 -83 -103 -37 -47 -75 -94 -85 -104
-10 -11 -18 -23 -18 -28 0 -4 -5 -8 -11 -8 -16 0 -269 240 -269 255 0 22 201
245 221 245 10 0 51 -28 91 -62z m756 -99 c45 -39 82 -79 82 -88 0 -10 -8 -28
-17 -39 -10 -12 -49 -64 -88 -117 -38 -53 -76 -95 -85 -95 -25 0 -180 148
-180 172 0 25 170 237 191 238 9 0 52 -32 97 -71z m-258 -330 c49 -41 86 -81
88 -93 2 -12 -16 -46 -43 -84 -25 -34 -61 -87 -81 -117 -19 -30 -41 -55 -48
-55 -7 0 -24 9 -37 21 -13 12 -48 42 -78 67 -83 71 -91 80 -91 103 0 27 166
229 189 229 9 0 55 -32 101 -71z m2810 -951 c0 -29 -3 -70 -6 -90 l-7 -38 -68
0 -69 0 0 90 0 90 75 0 75 0 0 -52z m779 26 c34 -7 42 -29 14 -38 -10 -3 -34
-21 -53 -39 -19 -18 -60 -52 -90 -77 -30 -25 -65 -54 -76 -65 -12 -11 -45 -40
-74 -65 -29 -25 -60 -52 -68 -60 -8 -8 -27 -24 -42 -35 -39 -29 -161 -138
-249 -222 l-75 -72 -113 -7 c-93 -6 -113 -5 -113 7 0 8 145 138 323 289 177
151 347 300 377 331 l55 56 76 2 c42 0 91 -2 108 -5z m321 -22 c0 -11 -9 -27
-20 -37 -11 -10 -20 -23 -20 -30 0 -7 -9 -20 -20 -30 -11 -10 -20 -22 -20 -27
0 -5 -12 -27 -27 -51 -15 -23 -32 -51 -39 -62 -6 -11 -55 -91 -108 -179 -54
-87 -101 -168 -106 -181 -7 -19 -18 -23 -79 -28 -38 -3 -79 -11 -90 -16 -30
-16 -331 -15 -331 2 0 12 68 71 440 383 91 77 194 169 230 205 l65 66 63 1
c54 2 62 0 62 -16z m260 -8 c0 -8 -37 -72 -83 -142 -46 -70 -101 -155 -123
-190 -21 -35 -55 -89 -75 -121 -20 -33 -49 -84 -64 -115 l-27 -56 -69 0 c-56
0 -69 3 -69 16 0 8 42 84 93 167 52 84 134 220 183 304 l89 152 73 0 c59 1 72
-2 72 -15z m170 -1 c0 -9 -6 -24 -14 -32 -7 -9 -57 -88 -111 -176 -54 -88
-113 -183 -131 -210 -17 -28 -48 -83 -69 -123 -36 -71 -37 -72 -76 -72 -26 0
-39 4 -39 13 0 8 41 76 92 153 51 76 98 150 105 162 7 13 33 53 58 88 25 36
45 67 45 69 0 8 62 109 78 128 20 22 62 23 62 0z m286 -282 l-1 -288 -175 -10
c-96 -5 -177 -8 -179 -6 -2 1 12 38 32 80 41 89 162 369 196 456 l23 57 52 0
52 0 0 -289z m2202 268 c16 -6 22 -17 22 -39 0 -38 -10 -38 -66 0 -54 38 -60
65 -11 55 17 -4 42 -11 55 -16z m-1666 1 c76 0 79 -1 89 -27 6 -16 17 -129 25
-253 19 -313 22 -280 -31 -280 -31 0 -51 -6 -64 -19 -25 -25 -35 -94 -28 -181
l6 -67 -46 -7 c-25 -3 -63 -6 -84 -6 -37 0 -39 1 -39 33 0 44 -25 139 -51 188
-26 52 -66 69 -160 69 l-72 0 7 38 c3 20 6 147 6 281 l0 244 182 -6 c99 -4
217 -7 260 -7z m460 -105 c101 -190 218 -425 218 -440 0 -13 -20 -15 -127 -15
l-128 0 -94 218 c-52 119 -105 239 -118 266 -12 28 -23 54 -23 58 0 5 50 7
112 6 l112 -3 48 -90z m368 39 c25 -25 84 -73 133 -107 48 -33 87 -64 87 -69
0 -4 5 -8 11 -8 11 0 63 -39 126 -95 12 -11 74 -56 137 -100 159 -111 158
-115 -42 -115 l-157 0 -258 259 c-141 142 -257 263 -257 270 0 7 29 11 88 11
l88 0 44 -46z m988 2 c4 -51 -5 -86 -23 -86 -21 0 -35 33 -35 85 0 45 1 46 28
43 24 -3 27 -8 30 -42z m-670 -28 c4 -74 -7 -75 -94 -10 -86 63 -84 74 14 70
l77 -3 3 -57z m267 43 c3 -6 2 -53 -1 -105 l-7 -96 -67 0 c-94 0 -100 7 -107
118 l-6 92 91 0 c50 0 93 -4 97 -9z m234 -144 c119 -96 350 -275 409 -317 43
-32 42 -50 -4 -50 -31 0 -47 10 -108 66 -39 37 -127 110 -196 163 -194 149
-240 190 -240 211 0 11 5 20 11 20 6 0 63 -42 128 -93z m0 -179 c69 -55 131
-107 137 -115 6 -7 15 -13 19 -13 14 0 45 -32 45 -47 0 -10 -24 -13 -109 -13
-104 0 -110 1 -117 22 -8 27 -17 36 -79 78 -27 18 -52 36 -55 39 -3 4 -22 17
-42 31 -44 29 -49 50 -13 50 28 0 65 32 65 55 0 8 5 15 11 15 6 0 68 -46 138
-102z m-868 -7 c14 -14 55 -54 92 -89 37 -35 67 -70 67 -78 0 -11 -16 -14 -65
-14 l-64 0 -23 53 c-12 28 -33 71 -45 95 -13 24 -23 49 -23 57 0 20 29 8 61
-24z m-498 -96 c37 -76 36 -87 -10 -83 l-38 3 -3 68 c-4 85 13 89 51 12z
m-1238 13 c-4 -13 -13 -43 -19 -68 -12 -40 -17 -45 -51 -52 -61 -13 -60 -10
10 96 33 49 73 65 60 24z m2314 -198 c720 -5 1228 -13 1233 -18 14 -14 50
-161 42 -174 -5 -8 -82 -9 -283 -2 -152 5 -424 8 -604 8 -283 -2 -334 -4 -373
-19 -40 -15 -75 -16 -309 -11 -145 3 -273 9 -283 15 -10 5 -69 17 -131 26 -92
14 -121 15 -155 5 -32 -9 -58 -9 -101 -1 -32 6 -114 11 -182 11 l-123 0 0 53
c0 28 -3 70 -7 91 -6 39 -6 39 23 32 16 -4 580 -11 1253 -16z m-1652 -45 c7
-27 16 -71 19 -96 l6 -46 -41 -6 c-23 -3 -70 -18 -104 -35 -53 -25 -75 -29
-152 -30 -78 -1 -97 2 -142 24 -63 31 -151 41 -231 25 -45 -9 -67 -9 -88 0
-48 19 -162 14 -267 -11 -54 -12 -99 -21 -101 -19 -2 2 -6 50 -9 105 l-6 102
177 1 c97 0 301 8 452 16 530 29 472 33 487 -30z m-1199 -87 c3 -112 13 -103
-125 -113 l-93 -7 0 106 0 105 38 4 c20 2 69 4 107 3 l70 -1 3 -97z m-320 5
l-3 -68 -500 -6 c-275 -3 -531 -10 -568 -14 -81 -9 -87 -5 -87 71 l0 52 143 7
c117 5 535 16 935 23 l83 2 -3 -67z m2220 -152 c21 -11 22 -17 16 -64 -14
-104 2 -97 -208 -97 -143 0 -190 3 -212 15 -22 11 -66 15 -179 15 l-150 0 -19
35 c-11 19 -23 35 -28 35 -4 0 -8 8 -8 19 0 30 74 43 305 51 279 10 454 7 483
-9z m207 9 c33 -5 83 -15 112 -20 l51 -11 -5 -77 c-6 -86 -14 -102 -50 -102
-29 0 -89 -24 -109 -45 -23 -22 -34 -19 -87 29 -48 43 -49 44 -38 82 6 22 11
62 11 90 0 28 3 54 7 57 9 9 37 9 108 -3z m-1677 -62 l3 -47 -73 -22 c-40 -12
-93 -31 -118 -43 -41 -19 -61 -21 -245 -20 -125 1 -211 6 -229 13 -26 11 -28
15 -23 52 3 22 8 43 12 47 10 11 117 20 238 21 76 1 148 8 205 20 111 25 138
29 187 27 l40 -1 3 -47z m308 29 c53 -27 71 -106 29 -125 -14 -7 -28 -19 -31
-27 -8 -20 -33 -19 -53 3 -29 33 -77 61 -125 74 -44 12 -46 14 -46 48 0 20 3
40 8 44 13 14 185 0 218 -17z m-1070 -18 c-3 -17 -6 -51 -6 -74 0 -41 -2 -44
-52 -73 -29 -16 -62 -39 -72 -51 -17 -19 -30 -21 -118 -21 -70 0 -100 4 -102
13 -27 104 -37 164 -32 192 l7 34 132 4 c73 1 158 4 191 5 l59 2 -7 -31z
m3442 1 c34 -46 29 -60 -21 -60 -33 0 -55 8 -85 30 -62 44 -56 60 21 60 58 0
65 -2 85 -30z m875 14 l109 -7 -7 -36 c-14 -77 -23 -86 -95 -89 -56 -3 -73 1
-125 27 -73 37 -153 54 -220 46 -84 -10 -131 -41 -161 -107 -15 -34 -21 -39
-43 -35 -14 3 -59 11 -98 18 -64 11 -73 15 -73 34 0 12 -16 47 -35 79 -58 97
-82 90 303 83 185 -4 386 -10 445 -13z m-4983 -8 c0 -20 -51 -27 -146 -19 -61
4 -84 10 -84 19 0 11 25 14 115 14 91 0 115 -3 115 -14z m3905 -63 c36 -36 65
-71 65 -78 0 -16 -102 -35 -192 -35 -65 0 -276 14 -377 26 l-54 6 6 66 c4 40
12 71 21 77 9 7 94 9 240 7 l227 -4 64 -65z m-1884 5 c41 -45 51 -78 22 -78
-10 0 -47 10 -83 22 -36 11 -71 23 -77 24 -7 2 -13 17 -13 33 0 34 9 39 68 40
39 1 48 -4 83 -41z m-1816 -30 c3 -18 11 -54 17 -80 7 -26 10 -50 7 -52 -3 -3
-65 -7 -139 -8 l-135 -3 -3 60 -3 60 93 26 c51 15 107 27 125 28 28 1 32 -3
38 -31z m-407 -14 l72 -7 0 -58 0 -59 -200 0 c-228 0 -235 3 -145 65 31 21 61
47 66 58 10 17 18 18 72 13 34 -3 95 -9 135 -12z m5035 -61 c70 -32 93 -37
159 -37 71 -1 80 -3 103 -28 27 -30 34 -88 13 -106 -7 -5 -60 -13 -118 -17
-58 -4 -147 -13 -198 -21 -55 -9 -119 -12 -155 -9 -110 11 -105 7 -112 79 -8
70 3 102 48 144 55 52 135 50 260 -5z m-3270 7 c56 -35 87 -82 87 -131 0 -54
-32 -64 -199 -64 l-134 0 -18 65 c-10 36 -18 70 -19 76 0 6 45 24 100 39 55
15 103 31 106 36 9 15 29 10 77 -21z m2627 0 c0 -17 -7 -20 -42 -20 -24 0 -53
-3 -65 -6 -18 -5 -23 -2 -23 13 0 29 8 33 72 33 51 0 58 -2 58 -20z m-2216
-49 c188 -75 240 -118 189 -157 -25 -19 -76 -17 -260 8 l-163 22 0 61 0 62 48
26 c26 15 50 27 54 27 4 0 64 -22 132 -49z m469 23 c45 -8 46 -17 10 -95 l-27
-59 -78 0 c-78 0 -78 0 -78 27 0 18 -14 40 -45 70 -25 23 -45 47 -45 53 0 11
200 14 263 4z m-1663 -36 c25 -6 132 -10 238 -10 216 1 192 10 207 -80 l6 -38
-93 0 c-51 0 -156 -7 -233 -15 -77 -8 -193 -15 -257 -15 -106 0 -118 2 -118
18 0 23 33 60 104 117 44 35 64 45 80 40 11 -4 41 -11 66 -17z m2188 -18 c28
-22 31 -30 27 -60 -3 -19 -5 -63 -5 -97 l0 -63 -30 0 c-73 0 -254 34 -344 65
-54 19 -101 36 -104 39 -4 5 5 42 33 133 3 10 51 12 198 10 189 -3 194 -3 225
-27z m557 -5 c88 -8 166 -15 173 -15 22 0 12 -37 -13 -48 -14 -7 -57 -15 -96
-18 -56 -6 -73 -4 -87 10 -18 15 -157 56 -194 56 -10 0 -18 7 -18 15 0 19 28
19 235 0z m458 -22 c3 -16 9 -56 12 -90 7 -54 5 -62 -12 -71 -32 -17 -169 -32
-299 -32 l-125 0 3 28 c3 24 9 28 58 38 119 23 154 44 169 100 7 26 13 30 72
40 106 19 116 18 122 -13z m416 1 l51 -15 0 -44 c0 -34 -5 -47 -20 -55 -23
-13 -322 -32 -331 -22 -4 4 -9 37 -13 75 l-7 67 48 1 c26 0 66 4 88 9 48 10
115 5 184 -16z m-1213 -38 c27 -8 96 -25 154 -37 127 -28 153 -47 148 -111 -3
-38 -6 -43 -38 -51 -47 -13 -348 -1 -366 14 -10 8 -14 35 -14 90 0 69 2 80 22
93 27 19 32 20 94 2z"/>
<path d="M6223 5825 c-13 -25 -26 -301 -16 -337 18 -63 28 -22 37 143 8 175 2
238 -21 194z"/>
<path d="M6766 4180 c-9 -46 -20 -635 -12 -655 5 -13 10 -15 18 -7 14 14 25
676 11 685 -6 4 -13 -6 -17 -23z"/>
<path d="M9374 4609 c-3 -6 -10 -205 -15 -443 -14 -703 -38 -1793 -45 -2048
-7 -219 -6 -238 10 -244 10 -4 21 -3 26 2 12 12 40 1238 47 2067 6 659 4 709
-23 666z"/>
</g>
</svg>
