<?xml version="1.0" standalone="no"?>
<!DOCTYPE svg PUBLIC "-//W3C//DTD SVG 20010904//EN"
 "http://www.w3.org/TR/2001/REC-SVG-20010904/DTD/svg10.dtd">
<svg version="1.0" xmlns="http://www.w3.org/2000/svg"
 width="695.000000pt" height="635.000000pt" viewBox="0 0 695.000000 635.000000"
 preserveAspectRatio="xMidYMid meet">

<g transform="translate(0.000000,635.000000) scale(0.100000,-0.100000)"
fill="#000000" stroke="none">
<path d="M3025 5772 c-242 -295 -997 -1207 -1677 -2025 -681 -818 -1238 -1491
-1238 -1496 0 -4 9 -16 20 -26 20 -18 20 -18 -2 -29 -23 -12 -35 -41 -37 -91
-1 -21 -8 -33 -23 -40 -16 -7 -23 -19 -23 -39 0 -45 23 -52 91 -31 63 19 94
40 94 62 0 16 17 17 23 1 3 -10 9 -10 26 0 l21 12 0 -775 c0 -510 3 -775 10
-775 6 0 10 -18 10 -40 0 -36 -2 -40 -26 -40 l-25 0 7 -208 c4 -114 8 -209 10
-210 9 -11 2231 -19 4166 -14 l2238 5 0 102 c0 56 3 150 7 208 6 103 5 107
-14 107 -17 0 -22 8 -25 40 -2 26 1 41 9 44 10 4 13 164 13 791 l0 787 25 -31
c14 -16 31 -28 38 -25 7 2 19 -8 28 -23 18 -32 116 -87 145 -82 28 6 34 78 6
85 -16 5 -18 13 -14 59 4 46 1 55 -16 66 -20 13 -20 14 -5 32 14 15 15 21 4
39 -23 37 -3411 4098 -3419 4098 -4 -1 -205 -243 -447 -538z m690 -80 l166
-203 -176 -270 c-98 -148 -179 -269 -181 -269 -2 0 -4 219 -4 487 0 417 2 485
14 473 8 -8 89 -106 181 -218z m-323 -670 l-7 -46 -170 215 c-93 117 -169 221
-169 229 0 8 78 122 174 253 l175 237 3 -421 c1 -231 -1 -441 -6 -467z m859
23 c32 -38 57 -71 55 -72 -8 -8 -312 -33 -475 -39 l-194 -7 24 40 c13 22 82
132 153 245 l130 206 125 -152 c68 -83 150 -182 182 -221z m-1117 92 l148
-202 -98 -3 c-55 -1 -199 1 -322 5 l-223 8 167 198 c91 108 169 197 173 197 3
-1 73 -92 155 -203z m1315 -316 l61 -69 0 -249 0 -250 -167 -6 c-91 -4 -217
-7 -280 -7 l-113 0 0 310 0 310 28 1 c15 0 95 7 177 14 250 21 224 26 294 -54z
m-1641 22 l152 -6 0 -284 0 -283 -132 0 c-73 0 -190 3 -260 7 l-128 6 0 222 0
222 56 61 c64 71 40 67 312 55z m1052 -58 l0 -65 -405 0 -405 0 0 60 0 59 63
4 c34 2 216 4 405 5 l342 2 0 -65z m936 -364 c78 -91 141 -167 140 -167 0 -1
-76 -4 -168 -7 l-166 -6 -6 92 c-3 51 -8 148 -11 217 l-6 125 38 -44 c21 -25
101 -119 179 -210z m-940 52 c-3 -93 -9 -260 -12 -372 l-7 -204 -226 7 c-124
3 -301 9 -393 13 l-168 6 0 343 c0 189 1 344 3 345 1 1 178 7 392 14 215 6
396 13 404 13 11 2 13 -26 7 -165z m-1499 -200 c-2 -2 -70 -2 -149 -1 l-146 3
147 169 146 170 3 -169 c1 -92 1 -170 -1 -172z m-61 -93 l42 0 6 -77 c3 -43 8
-162 12 -265 l6 -188 -182 0 -183 0 6 68 c4 37 9 148 12 247 3 99 8 191 11
204 l5 24 112 -6 c62 -4 131 -7 153 -7z m582 -7 l82 -6 0 -274 0 -275 -47 6
c-27 3 -144 8 -260 12 l-213 6 0 276 0 275 178 -7 c97 -4 214 -9 260 -13z
m1485 -29 l147 -6 0 -289 0 -290 -32 5 c-18 3 -107 8 -198 11 -91 3 -202 8
-247 12 l-83 6 0 284 0 285 133 -6 c72 -3 198 -9 280 -12z m627 -11 c0 -16 9
-145 20 -288 11 -143 20 -266 20 -272 0 -10 -52 -13 -225 -13 -208 0 -225 1
-225 18 0 12 28 546 30 580 0 1 86 2 190 2 l190 0 0 -27z m-3067 -298 l-8
-180 -173 -3 -173 -2 178 221 178 221 3 -39 c1 -21 -1 -119 -5 -218z m3348
-12 c100 -126 189 -236 197 -246 15 -17 7 -17 -158 -15 l-174 3 -27 220 c-29
228 -32 265 -24 265 2 0 86 -102 186 -227z m-1593 -19 l162 -7 0 -105 0 -104
-122 6 c-68 3 -204 8 -303 11 -99 3 -224 8 -277 11 l-98 6 0 100 0 101 238 -7
c130 -3 310 -9 400 -12z m-1768 -644 l0 -410 -195 0 -195 0 0 405 0 404 113 4
c61 1 149 4 195 5 l82 2 0 -410z m878 389 c12 -5 22 -15 22 -24 0 -13 -27 -15
-193 -15 -107 0 -289 -3 -405 -7 l-212 -6 0 37 0 38 383 -7 c210 -4 392 -11
405 -16z m415 -23 c131 -8 239 -15 241 -17 2 -2 7 -176 11 -386 l7 -383 -271
0 -271 0 0 293 c0 162 -3 342 -7 400 l-6 107 29 0 c16 -1 136 -7 267 -14z
m897 -406 l0 -380 -259 0 -259 0 -6 73 c-3 39 -8 210 -11 380 l-5 307 270 0
270 0 0 -380z m930 365 c0 -12 -13 -15 -58 -15 -69 0 -533 -17 -679 -25 l-103
-6 0 25 c0 15 7 26 18 29 9 3 198 5 420 6 351 1 402 -1 402 -14z m-3604 -712
c-5 -5 -508 15 -513 21 -3 2 112 157 254 345 l258 340 3 -351 c1 -193 0 -353
-2 -355z m4089 635 c-3 -40 -10 -201 -16 -358 -6 -157 -12 -286 -13 -287 -3
-4 -267 -23 -313 -23 l-43 0 0 360 c0 336 1 360 18 361 9 1 82 5 162 9 80 3
160 7 178 8 l33 2 -6 -72z m-2705 -310 l0 -361 -292 6 c-161 4 -344 7 -405 7
l-113 0 0 345 0 345 28 1 c31 2 536 14 685 17 l97 2 0 -362z m2220 -25 l0
-338 -407 3 c-224 1 -408 4 -410 5 -4 5 -17 647 -12 649 2 0 146 4 319 8 173
3 359 7 413 8 l97 2 0 -337z m804 33 c265 -315 267 -320 159 -330 -38 -3 -145
-9 -240 -12 l-172 -7 4 114 c3 63 8 203 11 312 3 109 7 197 9 195 1 -2 104
-124 229 -272z m-4404 -713 l0 -286 -122 6 c-66 4 -179 7 -250 7 l-128 0 0
280 0 280 250 0 250 0 0 -287z m483 280 c3 -5 8 -138 12 -297 l7 -289 -109 7
c-59 3 -152 9 -206 12 l-99 6 6 192 c4 105 9 233 12 284 l6 92 183 0 c101 0
186 -3 188 -7z m4147 -257 c0 -243 -1 -265 -17 -270 -10 -2 -113 -8 -229 -12
l-212 -6 -6 213 c-4 118 -9 240 -12 271 l-6 57 144 4 c78 1 187 4 241 5 l97 2
0 -264z m309 29 c157 -192 171 -213 169 -245 l-3 -35 -183 -9 c-101 -4 -186
-5 -189 -2 -3 3 0 121 7 261 7 141 17 252 21 248 4 -4 84 -102 178 -218z
m-5529 -55 l0 -270 -200 0 -200 0 0 48 0 48 196 222 c107 122 197 222 200 222
2 0 4 -121 4 -270z m1377 264 l121 -7 6 -136 c3 -75 9 -202 12 -283 l7 -148
-182 0 -181 0 0 290 0 290 48 0 c27 0 103 -3 169 -6z m3257 -86 c3 -51 8 -175
10 -275 l5 -183 -179 0 -180 0 0 259 0 258 133 15 c72 9 148 16 169 17 l36 1
6 -92z m-2680 -50 c3 -73 9 -205 12 -292 l6 -159 -183 7 c-100 3 -184 8 -185
9 -4 5 -32 542 -28 546 3 4 74 8 335 19 l37 2 6 -132z m670 100 c14 -88 56
-523 52 -534 -4 -11 -62 -14 -306 -14 l-300 0 0 275 c0 213 3 275 13 276 14 1
457 25 504 28 29 1 33 -2 37 -31z m636 -253 l0 -285 -245 0 c-189 0 -245 3
-245 13 0 6 -7 120 -15 252 -8 132 -15 255 -15 273 l0 32 260 0 260 0 0 -285z
m333 269 l137 -6 0 -269 0 -269 -68 0 c-38 0 -124 -3 -190 -7 l-122 -6 0 288
0 287 53 -5 c28 -4 114 -9 190 -13z m597 -252 l0 -269 -107 -6 c-58 -4 -141
-7 -185 -7 l-78 0 0 265 0 265 58 1 c31 1 102 5 157 9 55 3 112 7 128 8 l27 2
0 -268z m1514 -424 c3 -62 8 -260 10 -439 l5 -326 -105 -7 c-57 -3 -151 -9
-209 -12 l-105 -7 0 446 0 446 148 4 c81 1 170 4 199 5 l51 2 6 -112z m-484
63 l0 -29 -102 -6 c-57 -3 -186 -8 -288 -11 -102 -3 -245 -8 -317 -11 l-133
-6 0 46 0 46 420 0 420 0 0 -29z m-922 -425 c-2 -239 -6 -437 -8 -439 -3 -3
-101 -7 -217 -9 l-213 -4 1 411 c0 225 4 419 8 430 7 18 23 21 167 31 87 6
183 12 213 12 l53 2 -4 -434z m-4298 14 l0 -410 -200 0 -200 0 0 410 0 410
200 0 200 0 0 -410z m708 391 c152 -1 162 -2 162 -20 0 -18 -12 -19 -172 -25
-95 -3 -271 -7 -390 -9 l-218 -4 0 23 c0 12 -2 28 -5 36 -4 11 36 12 227 7
128 -4 306 -7 396 -8z m3057 -133 c-3 -84 -8 -282 -11 -439 l-6 -287 -72 -6
c-39 -3 -141 -8 -226 -11 -85 -3 -179 -8 -207 -11 l-53 -5 0 433 0 434 273 21
c149 11 280 21 290 22 17 1 17 -9 12 -151z m-2295 -285 l0 -418 -272 3 c-150
2 -274 5 -276 7 -5 5 28 793 34 813 3 9 63 12 259 12 l255 0 0 -417z m685 385
c7 -6 59 -848 53 -853 -2 -1 -129 8 -283 21 -154 13 -297 23 -317 24 l-38 0 0
410 0 411 289 -3 c159 -2 292 -6 296 -10z m935 -10 c0 -7 -3 -23 -6 -35 l-6
-23 -382 0 c-209 0 -391 3 -403 6 -17 5 -23 14 -23 35 l0 29 410 0 c321 0 410
-3 410 -12z m2120 -417 l0 -379 -377 -6 c-208 -4 -395 -9 -415 -12 l-38 -6 0
380 0 379 333 10 c182 5 369 10 415 11 l82 2 0 -379z m-4354 164 c-3 -96 -9
-254 -12 -351 l-7 -177 -131 6 c-72 4 -240 10 -373 13 l-243 7 0 338 0 339
386 0 387 0 -7 -175z m2224 -32 c0 -87 3 -249 7 -360 l6 -203 -396 0 -396 0
-5 43 c-3 23 -7 185 -9 360 l-4 317 399 0 398 0 0 -157z m-3085 -775 c-3 -128
-8 -257 -11 -285 l-5 -53 -190 0 -189 0 0 285 0 285 201 0 200 0 -6 -232z
m281 212 l124 0 0 -259 c0 -143 -3 -266 -6 -275 -5 -14 -28 -16 -155 -16
l-149 0 0 281 0 282 31 -7 c17 -3 87 -6 155 -6z m5444 -295 l0 -285 -215 0
-215 0 0 285 0 285 215 0 215 0 0 -285z m-4962 259 l62 -6 0 -254 0 -254 -176
0 -177 0 6 93 c4 50 10 169 13 263 l7 171 101 -4 c56 -2 129 -6 164 -9z m4452
-270 l0 -276 -127 6 c-71 4 -147 9 -170 12 l-43 5 0 265 0 264 170 0 170 0 0
-276z m-410 7 l0 -259 -62 -6 c-35 -3 -125 -7 -200 -10 l-138 -5 0 264 0 264
143 4 c78 1 168 4 200 5 l57 2 0 -259z m-3454 239 l122 0 6 -132 c3 -73 7
-188 8 -256 l3 -122 -200 0 c-110 0 -237 3 -282 7 l-83 6 0 255 0 255 152 -6
c83 -4 206 -7 274 -7z m715 -17 l147 -6 6 -71 c3 -39 9 -151 12 -248 l7 -178
-234 0 c-129 0 -278 3 -331 7 l-98 6 0 255 0 255 173 -6 c94 -4 238 -10 318
-14z m2244 -240 c-4 -142 -8 -259 -9 -260 -1 -1 -105 -5 -230 -9 l-229 -7 7
159 c3 87 9 207 12 267 l6 107 225 0 226 0 -8 -257z m-559 125 c-3 -68 -9
-185 -12 -260 l-6 -138 -112 0 c-61 0 -182 3 -269 7 l-157 6 2 246 3 246 220
5 c121 3 246 7 279 8 l58 2 -6 -122z m-1051 101 c3 -3 -1 -114 -7 -247 l-12
-242 -183 0 -183 0 0 251 0 252 190 -5 c104 -2 192 -7 195 -9z m395 -244 l0
-245 -172 0 -171 0 6 113 c4 61 7 172 7 245 l0 132 165 0 165 0 0 -245z m2490
-390 c0 -11 -27 -78 -46 -113 -1 -2 -36 9 -78 24 -74 26 -76 27 -76 60 l0 33
83 4 c45 1 90 4 100 5 9 1 17 -5 17 -13z m190 -36 c0 -41 -3 -50 -15 -45 -31
12 -125 76 -125 86 0 6 29 10 70 10 l70 0 0 -51z m-6044 21 l32 -21 -26 -65
c-15 -36 -32 -65 -37 -65 -6 1 -45 29 -87 64 -56 44 -78 68 -78 84 0 22 4 23
81 23 65 0 89 -4 115 -20z m225 -16 l-73 -34 -37 22 c-84 50 -86 48 54 47
l130 -1 -74 -34z m309 29 c0 -5 -15 -37 -33 -73 l-32 -65 -60 -12 c-33 -6 -63
-9 -67 -7 -5 3 -8 33 -8 67 0 57 2 64 28 79 28 18 172 26 172 11z m142 -22
l16 -30 -56 -6 c-31 -4 -65 -9 -74 -11 -21 -6 -22 -1 -6 43 11 31 15 33 58 33
39 0 47 -4 62 -29z m298 23 c0 -3 -21 -32 -46 -65 -45 -57 -48 -59 -94 -59
-47 0 -47 1 -84 59 -20 32 -36 62 -36 65 0 3 59 6 130 6 72 0 130 -3 130 -6z
m532 -46 c-8 -91 -1 -88 -182 -88 -172 0 -231 13 -293 63 l-28 23 21 27 21 27
233 0 233 0 -5 -52z m3748 30 c0 -19 -13 -28 -72 -52 l-72 -29 -125 28 c-69
15 -137 34 -151 41 -23 12 -20 13 45 15 75 2 342 14 363 17 6 1 12 -8 12 -20z
m359 -5 c-7 -21 -30 -39 -87 -68 l-77 -41 -82 49 c-57 34 -83 55 -83 68 0 18
10 19 169 19 l170 0 -10 -27z m-3876 -5 c8 -12 7 -24 -3 -42 -11 -21 -21 -26
-50 -26 -29 0 -44 8 -80 45 l-45 46 84 -3 c66 -2 86 -7 94 -20z m205 -20 c-39
-50 -69 -55 -123 -21 -69 43 -60 53 51 53 l97 0 -25 -32z m152 8 c0 -52 -13
-83 -39 -99 -27 -16 -28 -16 -62 19 l-33 34 18 35 c18 33 23 35 68 35 44 0 48
-2 48 -24z m212 14 l46 0 -21 -64 -20 -64 -50 -5 c-42 -5 -57 -2 -93 19 -43
25 -44 27 -44 76 l0 51 68 -6 c37 -4 88 -7 114 -7z m648 -29 c-18 -36 -25 -40
-67 -46 -75 -10 -77 -12 -98 -67 l-21 -53 -186 -3 -187 -2 -25 33 -26 34 20
59 c11 32 22 65 25 72 3 9 72 12 295 12 l290 0 -20 -39z m460 -1 c-17 -22 -36
-43 -41 -46 -14 -8 -209 16 -209 26 0 4 8 17 18 29 15 19 29 21 132 24 63 1
119 4 123 5 5 1 -6 -16 -23 -38z m310 23 c0 -2 -19 -31 -41 -64 -44 -62 -44
-62 -10 -146 l21 -53 -125 0 -124 0 -21 70 c-23 77 -24 72 36 150 l43 55 110
-3 c61 -2 111 -6 111 -9z m1050 -12 c40 -25 47 -36 67 -97 13 -37 19 -71 15
-75 -9 -9 -143 -52 -146 -48 -30 41 -96 172 -96 190 0 43 10 49 100 57 8 1 35
-11 60 -27z m-1665 -21 c-30 -30 -47 -40 -71 -40 -39 0 -46 8 -38 49 l7 31 70
0 71 0 -39 -40z m994 36 c-2 -2 -29 -15 -59 -28 l-55 -25 -75 28 -75 28 134 0
c74 1 132 -1 130 -3z m475 -18 c-3 -13 -7 -23 -8 -24 0 0 -49 -13 -107 -28
l-106 -28 -72 48 c-39 26 -71 49 -71 50 0 2 84 4 186 4 l185 0 -7 -22z m-347
-35 c37 -25 72 -50 77 -54 5 -4 -37 -22 -93 -40 l-101 -32 -40 44 c-21 24 -39
46 -40 49 0 4 105 69 127 79 1 1 33 -20 70 -46z m1701 20 c20 -15 40 -30 45
-33 6 -5 -18 -95 -29 -108 -1 -2 -27 11 -57 28 l-54 33 21 53 c12 30 25 54 29
54 5 0 25 -12 45 -27z m-5618 -56 l0 -47 -57 6 c-92 11 -97 36 -15 81 65 36
72 32 72 -40z m1315 -51 c4 -23 8 -48 11 -57 3 -11 -7 -19 -37 -28 -38 -11
-43 -11 -64 9 -33 31 -39 76 -15 107 11 14 20 40 20 56 l0 31 39 -38 c29 -28
41 -50 46 -80z m2201 98 c27 -9 52 -20 56 -23 8 -7 -9 -81 -22 -94 -4 -5 -35
11 -69 36 l-61 44 21 27 c11 14 22 26 23 26 1 0 25 -7 52 -16z m-3721 -16 c26
-18 42 -42 70 -107 19 -46 33 -86 30 -89 -8 -9 -245 -16 -245 -8 0 17 94 226
102 226 4 0 24 -10 43 -22z m618 -19 c22 -39 22 -41 -9 -121 l-26 -68 -73 0
-73 0 -22 66 c-28 82 -19 108 37 123 151 38 144 38 166 0z m4612 -15 l75 -45
-33 -60 -32 -59 -177 0 -177 0 18 42 c15 37 30 49 127 104 60 34 112 63 116
63 4 1 41 -20 83 -45z m-5421 -58 c40 -34 40 -34 27 -75 l-12 -41 -64 0 -65 0
0 106 0 106 38 -31 c20 -17 55 -46 76 -65z m1098 71 c26 -22 27 -23 11 -59
-15 -37 -17 -38 -64 -38 -43 0 -49 3 -49 21 0 20 54 99 68 99 4 0 19 -10 34
-23z m808 -17 c0 -19 -16 -18 -37 2 -32 30 -29 42 7 21 17 -9 30 -20 30 -23z
m3120 25 c36 -8 76 -18 90 -21 22 -5 16 -10 -50 -44 -41 -22 -78 -39 -81 -40
-3 0 -11 19 -18 43 -7 23 -15 50 -17 60 -6 21 -6 21 76 2z m764 -23 l89 -28
27 -61 27 -60 -150 -6 c-200 -9 -299 -9 -295 1 44 104 39 98 123 140 44 23 82
41 85 41 3 0 45 -12 94 -27z m-3744 -7 l23 -25 -39 0 c-79 0 -108 20 -56 38
40 15 46 14 72 -13z m2017 6 c14 -7 83 -97 83 -107 0 -5 -14 -23 -32 -41 -30
-31 -36 -33 -99 -33 l-67 0 25 88 c13 48 26 93 29 100 4 13 30 10 61 -7z m654
-79 l50 -92 -105 0 -106 0 -45 67 -45 68 93 27 c50 14 96 26 100 24 5 -1 31
-43 58 -94z m-1376 63 c55 -9 103 -19 106 -23 3 -4 13 -35 21 -70 11 -44 12
-62 4 -62 -6 1 -67 22 -136 48 -98 37 -128 53 -139 74 -13 22 -13 29 -2 42 8
9 21 14 30 12 9 -3 61 -13 116 -21z m2785 -66 l0 -66 -32 -7 c-17 -3 -32 -5
-34 -4 -9 10 -6 42 10 100 17 61 20 66 37 55 16 -10 19 -24 19 -78z m-4280 56
l24 -25 -22 -46 c-21 -42 -25 -45 -50 -39 -37 9 -52 32 -52 81 0 36 3 43 23
47 45 9 54 7 77 -18z m1215 8 c77 -6 77 -6 92 -41 14 -33 13 -36 -14 -74 l-27
-41 -73 6 c-67 5 -85 12 -141 53 -3 2 2 23 23 92 5 14 29 15 140 5z m813 -46
c53 -33 62 -43 57 -61 -4 -11 -9 -29 -12 -39 -3 -11 -11 -16 -20 -13 -8 3 -29
6 -47 6 -31 0 -34 4 -58 63 -18 47 -22 67 -14 79 5 9 15 14 21 11 5 -4 38 -24
73 -46z m-2537 10 l87 6 12 -37 c11 -34 10 -40 -11 -62 -21 -22 -29 -24 -129
-24 l-107 0 -25 38 c-23 35 -24 39 -9 73 l15 36 41 -18 c33 -15 55 -17 126
-12z m905 -3 c24 -14 55 -39 69 -56 49 -58 49 -58 -215 -58 -132 0 -240 3
-240 7 0 3 14 28 31 55 l31 48 102 0 c69 1 109 5 126 15 35 20 45 19 96 -11z
m-1663 -51 l26 -63 -83 0 -83 0 -7 47 c-3 25 -4 48 -1 51 4 4 118 30 122 28 0
-1 12 -29 26 -63z m-200 41 c9 -3 17 -8 17 -12 1 -4 5 -26 9 -50 l9 -43 -40 3
c-39 3 -41 5 -64 62 l-23 58 37 -6 c20 -4 45 -9 55 -12z m577 -10 c0 -15 -9
-42 -21 -60 -19 -31 -25 -34 -71 -34 -27 0 -48 4 -46 8 2 4 12 31 22 60 l20
52 48 0 c45 0 48 -2 48 -26z m600 17 c0 -5 3 -16 6 -25 5 -13 -2 -16 -39 -16
-32 0 -47 5 -51 16 -11 29 -6 34 39 34 25 0 45 -4 45 -9z m2909 -50 l40 -58
-170 -8 c-94 -4 -172 -5 -174 -4 -2 2 5 14 14 26 14 16 200 95 243 102 4 0 25
-25 47 -58z m-2040 20 l21 -29 -41 -6 c-34 -5 -43 -3 -59 16 -25 30 -25 36 3
41 46 9 56 6 76 -22z m3604 -51 c4 -16 2 -20 -10 -16 -8 3 -22 6 -32 6 -16 0
-51 56 -51 81 0 18 87 -49 93 -71z m-993 6 c0 -22 -5 -24 -71 -31 -38 -4 -72
-5 -75 -3 -5 5 113 55 134 57 6 1 12 -10 12 -23z m-3925 -11 l30 -24 -82 -1
c-82 0 -89 3 -77 34 10 27 93 21 129 -9z m485 0 l23 -25 -88 0 c-87 0 -88 0
-70 19 11 13 34 21 64 24 25 2 46 4 47 5 0 1 11 -9 24 -23z m1707 -23 c-26 -2
-67 -2 -91 0 -40 3 -43 5 -35 25 l8 21 83 -21 83 -22 -48 -3z m-434 24 c16
-12 0 -15 -115 -21 -73 -3 -191 -5 -263 -3 l-130 3 60 17 c80 22 420 25 448 4z
m-1088 -16 c14 -6 0 -9 -45 -9 -45 0 -59 3 -45 9 11 5 31 9 45 9 14 0 34 -4
45 -9z"/>
<path d="M3723 4573 l-63 -4 0 -74 c0 -40 -3 -80 -6 -89 -5 -14 5 -16 70 -16
l76 0 0 73 c0 39 3 82 6 95 5 15 2 21 -7 20 -8 -1 -42 -3 -76 -5z"/>
<path d="M3100 4480 l0 -90 69 0 c81 0 81 0 81 106 l0 74 -75 0 -75 0 0 -90z"/>
<path d="M3266 4509 c-3 -34 -6 -75 -6 -90 l0 -29 80 0 80 0 0 90 0 90 -74 0
-73 0 -7 -61z"/>
<path d="M3486 4524 c-3 -26 -6 -66 -6 -90 l0 -44 80 0 80 0 0 90 0 90 -74 0
-73 0 -7 -46z"/>
<path d="M3090 4275 l0 -95 75 0 75 0 0 89 0 88 -52 7 c-105 12 -98 19 -98
-89z"/>
<path d="M3260 4270 l0 -90 75 0 75 0 0 90 0 90 -75 0 -75 0 0 -90z"/>
<path d="M3486 4344 c-3 -9 -6 -49 -6 -89 l0 -73 75 -4 c55 -2 76 0 80 10 3 8
5 49 5 93 l0 79 -74 0 c-58 0 -75 -3 -80 -16z"/>
<path d="M3657 4273 c-5 -63 -3 -89 6 -95 7 -4 40 -8 75 -8 l62 0 0 95 0 95
-69 0 -68 0 -6 -87z"/>
<path d="M3100 4055 l0 -95 75 0 75 0 0 95 0 95 -75 0 -75 0 0 -95z"/>
<path d="M3270 4055 l0 -95 75 0 75 0 0 95 0 95 -75 0 -75 0 0 -95z"/>
<path d="M3480 4079 c0 -41 -3 -84 -6 -96 -6 -22 -4 -23 75 -23 l81 0 0 90 0
90 -44 0 c-24 0 -58 3 -75 6 l-31 7 0 -74z"/>
<path d="M3703 4143 l-53 -4 0 -90 0 -89 75 0 75 0 0 95 c0 92 -1 95 -22 93
-13 -1 -47 -3 -75 -5z"/>
<path d="M2050 3305 l0 -85 75 0 75 0 0 85 0 85 -75 0 -75 0 0 -85z"/>
<path d="M2220 3305 l0 -85 75 0 75 0 0 85 0 85 -75 0 -75 0 0 -85z"/>
<path d="M2440 3300 l0 -90 75 0 75 0 0 90 0 90 -75 0 -75 0 0 -90z"/>
<path d="M2610 3300 l0 -90 75 0 75 0 0 74 c0 106 0 106 -81 106 l-69 0 0 -90z"/>
<path d="M2050 3095 l0 -95 75 0 75 0 0 95 0 95 -75 0 -75 0 0 -95z"/>
<path d="M2220 3095 l0 -95 75 0 75 0 0 95 0 95 -75 0 -75 0 0 -95z"/>
<path d="M2653 3183 l-43 -4 0 -90 0 -89 75 0 75 0 0 95 0 95 -32 -2 c-18 -1
-52 -3 -75 -5z"/>
<path d="M2440 3090 l0 -90 75 0 75 0 0 90 0 90 -75 0 -75 0 0 -90z"/>
<path d="M2050 2886 l0 -96 75 0 75 0 0 90 0 90 -44 0 c-24 0 -58 3 -75 6
l-31 7 0 -97z"/>
<path d="M2220 2880 l0 -90 80 0 80 0 0 90 0 90 -80 0 -80 0 0 -90z"/>
<path d="M2430 2880 l0 -90 75 0 75 0 0 29 c0 15 3 56 6 90 l7 61 -82 0 -81 0
0 -90z"/>
<path d="M2607 2903 c-4 -38 -7 -80 -7 -95 l0 -28 75 0 75 0 0 95 0 95 -69 0
-68 0 -6 -67z"/>
<path d="M4318 3343 l-58 -4 0 -79 0 -80 75 0 75 0 0 85 c0 75 -2 85 -17 83
-10 -1 -44 -3 -75 -5z"/>
<path d="M4430 3265 l0 -85 75 0 75 0 0 85 0 85 -75 0 -75 0 0 -85z"/>
<path d="M4650 3265 l0 -85 75 0 75 0 0 85 0 85 -75 0 -75 0 0 -85z"/>
<path d="M4820 3265 l0 -85 75 0 75 0 0 79 c0 90 -1 91 -97 91 l-53 0 0 -85z"/>
<path d="M4260 3071 l0 -91 75 0 75 0 0 85 c0 81 -1 85 -22 85 -13 0 -47 3
-75 6 l-53 7 0 -92z"/>
<path d="M4833 3153 c-9 -3 -13 -30 -13 -84 l0 -79 75 0 75 0 0 85 0 85 -62
-1 c-35 0 -69 -3 -75 -6z"/>
<path d="M4430 3064 l0 -87 38 7 c20 3 54 6 75 6 l37 0 0 80 0 80 -75 0 -75 0
0 -86z"/>
<path d="M4650 3070 l0 -80 75 0 75 0 0 80 0 80 -75 0 -75 0 0 -80z"/>
<path d="M4260 2875 l0 -85 75 0 75 0 0 85 0 85 -75 0 -75 0 0 -85z"/>
<path d="M4430 2875 l0 -85 80 0 80 0 0 85 0 85 -80 0 -80 0 0 -85z"/>
<path d="M4640 2875 l0 -85 74 0 73 0 7 53 c3 28 6 67 6 85 l0 32 -80 0 -80 0
0 -85z"/>
<path d="M4820 2876 l0 -86 70 0 70 0 0 80 0 80 -39 0 c-21 0 -53 3 -70 6
l-31 7 0 -87z"/>
<path d="M5898 1843 l-58 -4 0 -89 0 -90 75 0 75 0 0 95 c0 85 -2 95 -17 93
-10 -1 -44 -3 -75 -5z"/>
<path d="M5670 1745 l0 -95 75 0 75 0 0 95 0 95 -75 0 -75 0 0 -95z"/>
<path d="M5318 1823 l-38 -4 0 -85 0 -84 75 0 75 0 0 90 0 90 -37 -2 c-21 -1
-55 -3 -75 -5z"/>
<path d="M5450 1740 l0 -90 81 0 82 0 -7 38 c-3 20 -6 61 -6 90 l0 52 -75 0
-75 0 0 -90z"/>
<path d="M5850 1535 l0 -95 75 0 75 0 0 34 c0 18 -3 61 -6 95 l-7 61 -68 0
-69 0 0 -95z"/>
<path d="M5280 1593 c0 -16 3 -59 7 -97 l6 -68 68 4 c37 2 70 6 72 8 2 3 2 44
-1 93 l-5 87 -73 0 -74 0 0 -27z"/>
<path d="M5450 1546 c0 -107 -1 -106 86 -106 l74 0 0 68 c0 112 0 112 -86 112
l-74 0 0 -74z"/>
<path d="M5674 1604 c3 -9 6 -49 6 -90 l0 -74 75 0 75 0 0 90 0 90 -81 0 c-70
0 -80 -2 -75 -16z"/>
<path d="M5891 1413 c-49 -4 -53 -6 -47 -26 3 -12 6 -52 6 -89 l0 -68 70 0 70
0 0 95 c0 92 -1 95 -22 93 -13 -1 -47 -3 -77 -5z"/>
<path d="M5290 1354 c0 -33 3 -76 6 -96 l7 -38 68 0 69 0 0 90 0 90 -52 0
c-29 0 -63 3 -75 6 -22 6 -23 4 -23 -52z"/>
<path d="M5478 1403 c-15 -4 -18 -16 -18 -78 0 -103 1 -105 70 -105 88 0 90 2
90 79 0 107 -3 111 -69 110 -31 -1 -64 -3 -73 -6z"/>
<path d="M5670 1320 l0 -90 80 0 80 0 0 44 c0 24 -3 64 -6 90 l-7 46 -73 0
-74 0 0 -90z"/>
<path d="M980 1740 c0 -69 2 -80 18 -80 9 0 41 -3 70 -6 l52 -7 0 87 0 86 -70
0 -70 0 0 -80z"/>
<path d="M1136 1759 c-12 -117 -17 -109 69 -109 l75 0 0 85 0 85 -69 0 -68 0
-7 -61z"/>
<path d="M1340 1735 l0 -85 70 0 71 0 -3 83 -3 82 -67 3 -68 3 0 -86z"/>
<path d="M1517 1813 c-16 -4 -17 -15 -15 -86 l3 -82 68 -3 67 -3 0 91 0 90
-52 -1 c-29 -1 -61 -3 -71 -6z"/>
<path d="M970 1551 l0 -91 70 0 70 0 0 85 0 85 -54 0 c-30 0 -61 3 -70 6 -14
5 -16 -6 -16 -85z"/>
<path d="M1130 1546 c0 -84 1 -86 24 -86 13 0 44 -3 70 -6 l46 -7 0 87 0 86
-32 0 c-18 0 -50 3 -70 6 l-38 7 0 -87z"/>
<path d="M1340 1558 c0 -35 -3 -73 -6 -85 -6 -22 -4 -23 70 -23 l76 0 0 85 0
85 -70 0 -70 0 0 -62z"/>
<path d="M1500 1558 c0 -35 -3 -73 -6 -85 -6 -20 -2 -21 63 -25 37 -2 69 -3
70 -3 2 1 6 40 9 88 l7 87 -72 0 -71 0 0 -62z"/>
<path d="M970 1351 l0 -91 70 0 70 0 0 85 0 85 -54 0 c-30 0 -61 3 -70 6 -14
5 -16 -6 -16 -85z"/>
<path d="M1130 1345 l0 -85 70 0 70 0 0 63 c0 34 3 72 6 85 6 21 4 22 -70 22
l-76 0 0 -85z"/>
<path d="M1330 1366 c0 -29 -3 -68 -6 -85 l-6 -31 76 0 76 0 0 85 0 85 -70 0
-70 0 0 -54z"/>
<path d="M1490 1335 l0 -85 64 0 c63 0 64 0 70 31 3 17 6 56 6 85 l0 54 -70 0
-70 0 0 -85z"/>
<path d="M3733 1753 c-22 -4 -23 -9 -23 -89 l0 -84 70 0 70 0 0 90 0 90 -47
-1 c-27 -1 -58 -4 -70 -6z"/>
<path d="M3190 1660 l0 -90 70 0 71 0 -3 88 -3 87 -67 3 -68 3 0 -91z"/>
<path d="M3350 1659 l0 -91 31 6 c17 3 49 6 70 6 l39 0 0 85 0 85 -70 0 -70 0
0 -91z"/>
<path d="M3550 1665 l0 -85 75 0 75 0 0 63 c0 106 -1 107 -81 107 l-69 0 0
-85z"/>
<path d="M3733 1553 c-9 -3 -13 -31 -13 -89 l0 -84 70 0 70 0 0 90 0 90 -57
-1 c-32 0 -64 -3 -70 -6z"/>
<path d="M3190 1460 l0 -90 70 0 70 0 0 90 0 90 -70 0 -70 0 0 -90z"/>
<path d="M3350 1465 l0 -85 76 0 77 0 -7 31 c-3 17 -6 56 -6 85 l0 54 -70 0
-70 0 0 -85z"/>
<path d="M3560 1465 l0 -85 70 0 70 0 0 85 0 85 -70 0 -70 0 0 -85z"/>
<path d="M3748 1353 c-28 -4 -28 -4 -28 -89 l0 -84 70 0 70 0 0 68 c0 101 -5
112 -49 111 -20 -1 -48 -4 -63 -6z"/>
<path d="M3200 1260 l0 -90 70 0 70 0 0 84 c0 95 -1 96 -92 96 l-48 0 0 -90z"/>
<path d="M3360 1265 l0 -85 76 0 c65 0 75 2 70 16 -3 9 -6 47 -6 85 l0 69 -70
0 -70 0 0 -85z"/>
<path d="M3554 1334 c3 -9 6 -47 6 -85 l0 -69 70 0 70 0 0 85 0 85 -76 0 c-65
0 -75 -2 -70 -16z"/>
</g>
</svg>
