<?xml version="1.0" encoding="UTF-8"?>
<svg version="1.1" xmlns="http://www.w3.org/2000/svg" width="1387" height="1387">
<path d="M0 0 C17.0625298 5.06156781 34.12471439 5.3076618 51.8125 5.67871094 C68.60453231 6.05390415 85.7188751 6.84676198 101.8359375 12.03515625 C103.05192627 12.41534912 103.05192627 12.41534912 104.29248047 12.80322266 C120.29738271 18.02950513 132.89268557 26.1615899 144.5234375 38.34765625 C145.3278125 39.15203125 146.1321875 39.95640625 146.9609375 40.78515625 C147.4765625 41.30078125 147.9921875 41.81640625 148.5234375 42.34765625 C150.0703125 41.41953125 150.0703125 41.41953125 151.6484375 40.47265625 C157.32865543 37.06452549 162.76503993 35.98504248 169.3359375 35.97265625 C169.97724609 35.94816406 170.61855469 35.92367187 171.27929688 35.8984375 C184.75616566 35.82236863 198.35414951 41.09860706 210.96386719 45.37838745 C224.49449445 49.9583832 237.98356795 53.99731032 251.94824219 57.02856445 C270.055691 61.03241893 283.95628327 67.76032905 294.5234375 83.34765625 C295.20101585 84.6754777 295.86927355 86.00814449 296.5234375 87.34765625 C297.54159546 87.31623535 297.54159546 87.31623535 298.58032227 87.28417969 C325.65690842 86.55999846 343.13302596 93.23548951 365.72045898 107.48681641 C371.12916699 110.89716008 376.59417225 114.10678777 382.2109375 117.16015625 C389.04406836 120.92121724 396.07756865 124.95477303 400.96166992 131.18115234 C405.72543387 137.19099836 410.73804108 139.84639739 417.7109375 142.84765625 C426.27325168 146.7419982 433.9821903 150.68343983 441.5234375 156.34765625 C442.53792969 157.08113281 443.55242187 157.81460938 444.59765625 158.5703125 C452.86544183 164.64616769 460.27324501 171.53689573 467.68896484 178.61035156 C469.99941789 180.79842501 472.34344839 182.94788939 474.69238281 185.09448242 C483.47335815 193.12544873 491.82594554 201.25870838 499.25390625 210.5859375 C501.511061 213.3325957 503.88986992 215.89394705 506.3359375 218.47265625 C515.10387872 228.00540231 522.36507122 239.00397806 528.92578125 250.1484375 C531.99744763 254.37667264 536.48135357 257.05508013 540.7109375 260.03515625 C564.73752252 277.49146869 578.07956711 301.4517277 592.5859375 326.6640625 C593.3140564 327.92814941 593.3140564 327.92814941 594.05688477 329.21777344 C594.95661533 330.78287596 595.8532284 332.34977726 596.74584961 333.91894531 C599.35850188 338.47581338 602.16458483 342.84794356 605.10180664 347.2019043 C615.85731832 363.43583734 623.83166401 381.6116892 630.99765015 399.6491394 C631.7349667 401.50103054 632.48589135 403.34748664 633.23754883 405.19360352 C641.4192822 426.24094809 644.92146941 448.80135901 648.6484375 470.97265625 C648.86377136 472.24347046 649.07910522 473.51428467 649.30096436 474.8236084 C650.73958994 483.32662943 652.14626155 491.83447246 653.5234375 500.34765625 C653.66990723 501.25084595 653.81637695 502.15403564 653.96728516 503.08459473 C658.89615082 533.69552458 663.54420121 570.28374728 646.11157227 597.82446289 C642.62218638 602.87591277 642.62218638 602.87591277 641.83203125 608.69140625 C642.86174287 610.68933874 642.86174287 610.68933874 644.21875 612.5078125 C648.87580411 619.07509539 648.40853336 629.71793596 647.21875 637.28564453 C644.97571446 649.20749288 640.37301047 658.31683095 632.52734375 667.55859375 C631.19621243 669.93080443 631.82527312 670.77837591 632.5234375 673.34765625 C633.7041187 692.18048912 630.3226017 710.66098638 617.44750977 725.2980957 C610.7211243 732.61720569 604.19528694 738.50548898 595.1484375 742.66015625 C594.44460938 743.00626953 593.74078125 743.35238281 593.015625 743.70898438 C587.81237388 746.14444772 583.25275898 746.95779118 577.5234375 747.34765625 C577.83796875 747.97929688 578.1525 748.6109375 578.4765625 749.26171875 C588.82085959 770.88503858 589.30241552 793.23732824 581.66162109 815.90429688 C571.55618861 844.05026484 554.17715718 867.98621345 533.5234375 889.34765625 C532.89211914 890.00088867 532.26080078 890.65412109 531.61035156 891.32714844 C524.49586601 898.64835028 517.38412167 905.86355542 509.32421875 912.15625 C507.25218288 913.77746635 505.24904768 915.42211314 503.25390625 917.1328125 C493.84908193 925.09423858 483.76796529 931.16185221 472.94775391 937.01953125 C470.83734777 938.17568526 468.76085345 939.37032898 466.69140625 940.59765625 C449.99447641 950.32341483 430.32529688 955.39903621 411.5234375 959.34765625 C410.39760254 959.59322266 410.39760254 959.59322266 409.24902344 959.84375 C396.37895858 962.52986962 383.48884743 962.60782374 370.3984375 962.59765625 C369.12279434 962.59676498 369.12279434 962.59676498 367.82138062 962.59585571 C358.67948846 962.57148204 349.61273389 962.4427522 340.5234375 961.34765625 C340.9565625 962.34925781 341.3896875 963.35085938 341.8359375 964.3828125 C342.39908793 965.72498769 342.96155151 967.06745122 343.5234375 968.41015625 C343.80960938 969.06693359 344.09578125 969.72371094 344.390625 970.40039062 C346.55487467 975.63066066 347.66503317 980.42231735 345.5234375 985.91015625 C338.61757443 994.32667686 329.64059814 996.57280394 319.5234375 999.34765625 C320.5134375 1000.00765625 321.5034375 1000.66765625 322.5234375 1001.34765625 C311.33838589 1002.1872924 300.23744019 1002.47629715 289.0234375 1002.41015625 C287.50651193 1002.40512041 285.9895847 1002.40056126 284.47265625 1002.39648438 C280.8228811 1002.38566861 277.17317071 1002.36852471 273.5234375 1002.34765625 C273.8534375 1001.68765625 274.1834375 1001.02765625 274.5234375 1000.34765625 C273.91757812 1000.07953125 273.31171875 999.81140625 272.6875 999.53515625 C259.26732848 993.25864526 249.55393337 982.69541817 239.24267578 972.32763672 C236.8762897 969.95040696 234.4992407 967.58420829 232.12109375 965.21875 C230.61654472 963.71288152 229.11261505 962.20639393 227.609375 960.69921875 C226.89703705 959.99092926 226.1846991 959.28263977 225.45077515 958.55288696 C224.8023465 957.89815399 224.15391785 957.24342102 223.48583984 956.56884766 C222.91199554 955.99341217 222.33815125 955.41797668 221.74691772 954.82510376 C220.5234375 953.34765625 220.5234375 953.34765625 220.5234375 951.34765625 C219.8634375 951.34765625 219.2034375 951.34765625 218.5234375 951.34765625 C218.5234375 950.68765625 218.5234375 950.02765625 218.5234375 949.34765625 C217.8634375 949.34765625 217.2034375 949.34765625 216.5234375 949.34765625 C216.5234375 948.68765625 216.5234375 948.02765625 216.5234375 947.34765625 C215.8634375 947.34765625 215.2034375 947.34765625 214.5234375 947.34765625 C214.5234375 946.68765625 214.5234375 946.02765625 214.5234375 945.34765625 C213.97171875 945.11820313 213.42 944.88875 212.8515625 944.65234375 C209.86687571 942.97971726 207.73787725 940.84760517 205.2734375 938.47265625 C190.08328511 924.27842541 172.47904833 913.93066625 154.61328125 903.47265625 C144.76146038 897.65445412 135.94057411 891.17588682 127.22021484 883.77246094 C124.97109252 881.88384541 122.65580949 880.08576543 120.3359375 878.28515625 C115.80222613 874.67653607 111.56231131 870.78470153 107.33911133 866.82202148 C104.48957807 864.14841319 101.60215083 861.5450118 98.63671875 859 C95.04977257 855.88067454 91.73702413 852.56361763 88.43725586 849.14477539 C80.97500203 841.43109208 73.6983289 834.9786915 64.5234375 829.34765625 C62.59265658 828.16050065 60.6625644 826.97224908 58.73339844 825.7824707 C57.39206095 824.95522623 56.04897417 824.13081101 54.70410156 823.30932617 C48.73707007 819.61123466 43.17101023 815.45351113 37.6628418 811.10620117 C34.03156951 808.10247892 34.03156951 808.10247892 29.5234375 807.34765625 C27.71977943 808.41640893 27.71977943 808.41640893 25.8984375 809.91015625 C24.84813354 810.72794556 24.84813354 810.72794556 23.77661133 811.56225586 C23.03306396 812.15143799 22.2895166 812.74062012 21.5234375 813.34765625 C19.96538777 814.5579923 18.40679557 815.76763036 16.84765625 816.9765625 C16.09532715 817.56324707 15.34299805 818.14993164 14.56787109 818.75439453 C-2.12536886 831.7637191 -19.97925405 843.07042217 -39.4765625 851.34765625 C-40.32025391 851.70585449 -41.16394531 852.06405273 -42.03320312 852.43310547 C-74.01114538 865.86073656 -102.46704571 868.67809924 -136.4765625 860.34765625 C-137.38470703 860.12708557 -138.29285156 859.90651489 -139.22851562 859.67926025 C-146.8641777 857.82104449 -154.48492644 855.90722079 -162.1015625 853.97265625 C-163.72762421 853.56438095 -163.72762421 853.56438095 -165.38653564 853.14785767 C-186.00044054 847.94142575 -207.66774292 841.90041635 -221.4765625 824.34765625 C-221.4765625 823.68765625 -221.4765625 823.02765625 -221.4765625 822.34765625 C-222.03601563 822.22390625 -222.59546875 822.10015625 -223.171875 821.97265625 C-241.44996195 817.27089755 -259.89361999 802.94535219 -272.4765625 789.34765625 C-272.4765625 788.68765625 -272.4765625 788.02765625 -272.4765625 787.34765625 C-273.1365625 787.34765625 -273.7965625 787.34765625 -274.4765625 787.34765625 C-275.921875 785.87890625 -275.921875 785.87890625 -277.6015625 783.84765625 C-280.85550131 779.99773285 -284.32428968 776.4870129 -287.97265625 773.01171875 C-289.4765625 771.34765625 -289.4765625 771.34765625 -289.4765625 769.34765625 C-290.1365625 769.34765625 -290.7965625 769.34765625 -291.4765625 769.34765625 C-292.8515625 767.9140625 -292.8515625 767.9140625 -294.4765625 765.91015625 C-299.28991458 760.24621181 -304.82807467 755.46065174 -310.47265625 750.64453125 C-314.70536579 747.01900874 -318.71484959 743.21447236 -322.6640625 739.28515625 C-323.16341309 738.79039795 -323.66276367 738.29563965 -324.17724609 737.78588867 C-324.6614502 737.29967041 -325.1456543 736.81345215 -325.64453125 736.3125 C-326.12583496 735.83280762 -326.60713867 735.35311523 -327.10302734 734.85888672 C-328.4765625 733.34765625 -328.4765625 733.34765625 -329.63525391 731.60595703 C-330.87809531 729.63398366 -330.87809531 729.63398366 -333.4765625 727.34765625 C-336.59264596 726.9810582 -339.43103112 727.69680366 -342.4765625 728.34765625 C-344.41130095 728.6576867 -346.34763765 728.95784698 -348.28515625 729.25 C-349.87179077 729.50088379 -349.87179077 729.50088379 -351.49047852 729.75683594 C-388.90846645 735.53110149 -432.24663257 739.32093004 -469.4765625 731.34765625 C-470.94585205 731.04166504 -470.94585205 731.04166504 -472.44482422 730.72949219 C-479.84964415 729.15380339 -487.17409339 727.34306345 -494.4765625 725.34765625 C-495.36134277 725.10595703 -496.24612305 724.86425781 -497.15771484 724.61523438 C-511.8159521 720.47128529 -525.24395662 713.87315264 -538.83448792 707.11978149 C-545.59238683 703.77275424 -552.43763094 700.62250031 -559.2890625 697.47265625 C-595.22297646 680.86094943 -619.31825316 663.29121052 -640.7890625 629.66015625 C-641.244021 628.94988281 -641.69897949 628.23960937 -642.16772461 627.5078125 C-649.55319577 615.71015558 -655.53019921 603.58420662 -660.41455078 590.56860352 C-661.2269481 588.40913127 -662.05959792 586.25826681 -662.89453125 584.10742188 C-673.35679796 556.82868913 -676.05287851 528.89680191 -676.0390625 499.84765625 C-676.05612362 483.10728662 -676.6879945 466.77517472 -678.79296875 450.15527344 C-680.80455359 434.03551903 -678.78906036 419.18271861 -675.4765625 403.34765625 C-675.26821777 402.3102832 -675.26821777 402.3102832 -675.05566406 401.25195312 C-673.71836823 394.77984964 -671.80947444 388.95209696 -669.03515625 382.9765625 C-663.62310743 371.23213444 -660.65709945 361.77989982 -660.66625977 348.7956543 C-660.60373887 316.75744874 -647.52594226 283.74532714 -629.2265625 257.84765625 C-620.4878595 245.44769057 -613.48140019 231.93023447 -607.1640625 218.16015625 C-599.72849554 201.99808614 -589.43158155 187.43495436 -572.91015625 179.671875 C-565.63129896 176.28166742 -565.63129896 176.28166742 -560.82421875 170.03125 C-560.26973095 168.13888774 -559.71641547 166.24533565 -559.22949219 164.33447266 C-555.85912513 151.34864664 -546.0089527 141.08440993 -536.82373047 131.72119141 C-535.6446549 130.5190386 -534.48292715 129.29992097 -533.32421875 128.078125 C-528.11277253 122.6748464 -522.3846975 117.965162 -516.4765625 113.34765625 C-515.8990625 112.89374512 -515.3215625 112.43983398 -514.7265625 111.97216797 C-496.78327333 97.94922138 -477.33863094 86.21019673 -456.953125 76.09375 C-443.62616158 69.43988502 -430.99024704 62.35930086 -418.6640625 53.97265625 C-418.02539246 53.53846375 -417.38672241 53.10427124 -416.72869873 52.65692139 C-414.26446563 50.98043687 -411.80082177 49.30308951 -409.33795166 47.62460327 C-396.42273515 38.85100137 -383.10204225 32.73702612 -368.4765625 27.34765625 C-367.69845215 27.05149414 -366.9203418 26.75533203 -366.11865234 26.45019531 C-305.30643523 3.46786595 -235.51717602 1.44680436 -171.42853546 -5.30189896 C-169.32889829 -5.52314609 -167.22935666 -5.74528336 -165.12982178 -5.96749878 C-109.98300641 -11.79148278 -53.84943328 -16.65171967 0 0 Z M152.5234375 59.34765625 C150.5888186 62.22866981 148.77752922 65.10493338 147.5234375 68.34765625 C147.8534375 69.33765625 148.1834375 70.32765625 148.5234375 71.34765625 C150.7122496 70.2669113 152.89949335 69.18317376 155.0859375 68.09765625 C155.73127441 67.77917725 156.37661133 67.46069824 157.04150391 67.13256836 C160.26636729 65.52829056 163.37740613 63.86993538 166.3984375 61.91015625 C170.47794931 59.87040035 173.01090431 59.95864477 177.5234375 60.34765625 C178.5234375 61.34765625 178.5234375 61.34765625 179.0859375 64.03515625 C178.47305915 67.64432874 178.2851759 68.00317556 175.5859375 70.16015625 C167.09837741 75.90487825 157.37135176 81.42745455 147.5234375 84.34765625 C148.45618864 88.19525469 150.09632027 89.96428347 153.0859375 92.34765625 C162.61938079 100.33841508 170.26552752 113.08720508 172.5234375 125.34765625 C172.66755379 127.8031761 172.74398158 130.26308727 172.7734375 132.72265625 C172.81210937 134.65238281 172.81210937 134.65238281 172.8515625 136.62109375 C172.32820107 142.56498425 169.99099656 146.41991801 165.6484375 150.41015625 C157.49292669 157.23893325 148.16031574 159.39805163 137.94140625 161.2109375 C136.99664429 161.38053482 136.05188232 161.55013214 135.07849121 161.72486877 C120.64308954 164.26358986 106.11715996 166.26997376 91.609375 168.3449707 C47.51331277 173.4545487 47.51331277 173.4545487 11.71875 197.5234375 C-2.64543724 216.85035896 -1.52878072 239.96603308 -1.86416626 262.9180603 C-2.33113549 293.26020742 -4.67004726 321.71648808 -11.4140625 351.34765625 C-13.68391345 361.32647585 -15.64155446 371.32319019 -17.3515625 381.41015625 C-17.56675537 382.65216797 -17.78194824 383.89417969 -18.00366211 385.17382812 C-20.50905114 399.62128969 -20.50905114 399.62128969 -16.4765625 413.34765625 C-14.92021823 415.25139879 -13.34738377 416.72964866 -11.4765625 418.34765625 C3.52345525 410.07636987 15.87556002 399.62336042 28.15625 387.81640625 C52.09021323 365.27310143 80.69529601 350.83663072 112.5234375 343.34765625 C111.86228718 335.62872621 110.26859847 328.26306876 108.5234375 320.72265625 C103.05300745 296.9314463 101.62776117 274.26811869 114.46875 252.5859375 C122.47651951 239.96532738 134.94815217 231.22591297 149.47387695 227.61401367 C158.10899982 225.71411993 166.71545172 224.43457979 175.48059082 223.32815552 C187.3477883 221.81166503 199.1038098 220.08069888 210.7734375 217.41015625 C211.73926758 217.19383545 212.70509766 216.97751465 213.70019531 216.75463867 C227.18916272 213.50304118 239.51416899 208.14192157 251.66525269 201.57049561 C266.39425354 193.63087212 281.37106339 187.23411466 297.17578125 181.72265625 C306.39479853 178.47328788 313.48239778 174.8815057 320.0859375 167.47265625 C322.41117586 162.41779025 322.43608768 158.27294026 320.78125 152.96875 C317.88507874 146.38365988 313.26497862 141.48526653 308.36328125 136.35546875 C297.91924307 125.41543549 288.7347288 113.6076337 283.421875 99.40234375 C279.40806172 89.07001149 274.7481262 82.50350618 264.50390625 77.76953125 C258.43900603 75.43256785 252.0269674 74.16849934 245.70361328 72.73339844 C230.79177295 69.33730909 216.18993359 64.84909576 201.6484375 60.12890625 C199.9787793 59.5872583 199.9787793 59.5872583 198.27539062 59.03466797 C196.18299852 58.35134172 194.09293178 57.66083144 192.00585938 56.96142578 C179.2508962 52.7679837 163.10092689 48.18252856 152.5234375 59.34765625 Z M-114.44140625 6.5625 C-115.38810936 6.62687445 -116.33481247 6.69124889 -117.31020355 6.75757408 C-138.99943749 8.25083226 -160.5990184 10.46554773 -182.20806122 12.83044052 C-185.28636414 13.16668848 -188.36496332 13.50009189 -191.44366455 13.83267212 C-205.12427663 15.31110921 -218.80195073 16.81470367 -232.4765625 18.34765625 C-233.22414322 18.43144028 -233.97172394 18.5152243 -234.74195862 18.60154724 C-324.47181484 28.19246324 -324.47181484 28.19246324 -405.58105469 65.078125 C-407.33777624 66.25470306 -409.11608583 67.37338868 -410.921875 68.47265625 C-421.52296623 75.06180569 -427.05899629 83.00210348 -432.34130859 94.04101562 C-435.7670667 101.14751818 -439.9156278 107.70874516 -444.18115234 114.33447266 C-446.36130476 117.72262509 -448.5180088 121.12531992 -450.6640625 124.53515625 C-451.28438354 125.52044312 -451.28438354 125.52044312 -451.91723633 126.52563477 C-455.25741213 131.88418062 -458.28028601 137.37126721 -461.19921875 142.96875 C-462.4765625 145.34765625 -462.4765625 145.34765625 -463.4765625 146.34765625 C-469.00597426 146.58295037 -469.00597426 146.58295037 -471.4765625 145.34765625 C-473.85284298 137.84224577 -469.19604642 130.57668005 -465.83886719 123.98022461 C-461.61980505 115.93542042 -456.69539517 108.43777501 -451.5703125 100.94824219 C-449.41919961 97.80031895 -447.36181587 94.66310183 -445.4765625 91.34765625 C-445.8065625 90.68765625 -446.1365625 90.02765625 -446.4765625 89.34765625 C-471.55007782 102.57169027 -494.85685001 116.94301481 -516.4765625 135.34765625 C-517.37761719 136.10175781 -518.27867187 136.85585938 -519.20703125 137.6328125 C-531.87904269 148.62475472 -544.14634185 162.79708881 -545.73046875 180.125 C-546.18655381 191.55655125 -541.55682529 200.46467236 -536.74609375 210.59765625 C-533.45593938 217.72463679 -533.10789372 225.76322143 -535.359375 233.3046875 C-538.72655808 240.51287882 -543.60242676 246.67638637 -548.31542969 253.03491211 C-559.87117907 268.87773396 -567.86747808 287.01788281 -576.27734375 304.65625 C-579.35230434 311.10548771 -582.50753057 317.50853737 -585.734375 323.8828125 C-586.98063582 326.36136261 -588.20381955 328.84421429 -589.40625 331.34375 C-589.72279541 331.99545166 -590.03934082 332.64715332 -590.36547852 333.31860352 C-591.22666928 335.09402694 -592.08042511 336.87305144 -592.93359375 338.65234375 C-594.4765625 341.34765625 -594.4765625 341.34765625 -597.4765625 343.34765625 C-600.0390625 343.59765625 -600.0390625 343.59765625 -602.4765625 343.34765625 C-604.4765625 341.34765625 -604.4765625 341.34765625 -604.9140625 338.47265625 C-604.61766415 328.65115 -597.56980336 318.18435973 -593.3515625 309.53515625 C-592.19888747 307.15771267 -591.04654954 304.78010563 -589.89453125 302.40234375 C-589.32138184 301.22124023 -588.74823242 300.04013672 -588.15771484 298.82324219 C-586.10369438 294.57679501 -584.07238794 290.31982533 -582.0456543 286.06030273 C-580.26388392 282.32012773 -578.46814809 278.58672375 -576.67285156 274.85302734 C-575.57911124 272.56242261 -574.50576835 270.26349603 -573.4375 267.9609375 C-568.88189614 258.29827417 -563.18103865 249.81541251 -556.85253906 241.22314453 C-554.96081621 238.64468198 -553.12166744 236.03085673 -551.2890625 233.41015625 C-550.75925781 232.65863281 -550.22945312 231.90710938 -549.68359375 231.1328125 C-547.16758732 227.41172856 -547.23248046 224.99650479 -547.69921875 220.59765625 C-549.08075424 214.82158829 -551.90720073 209.67809563 -554.53125 204.37890625 C-556.62163817 200.13891211 -558.15600606 195.887069 -559.4765625 191.34765625 C-580.73476348 201.01047488 -589.29919678 219.02949111 -598.6015625 239.22265625 C-603.01585188 248.78019018 -608.44078845 257.48235942 -614.49975586 266.08300781 C-629.05849262 286.82160539 -637.27671717 308.62500537 -642.4765625 333.34765625 C-642.65743408 334.14574707 -642.83830566 334.94383789 -643.0246582 335.76611328 C-643.5159387 338.57259624 -643.61980506 341.21798354 -643.65234375 344.06640625 C-643.89350408 356.71984593 -644.20806314 367.47033292 -649.26806641 379.17919922 C-650.15443198 381.23351759 -651.03630763 383.28964341 -651.9140625 385.34765625 C-652.21546143 386.05043701 -652.51686035 386.75321777 -652.82739258 387.47729492 C-656.25714821 395.76133187 -658.16529423 404.37530769 -660.00390625 413.12744141 C-660.38104918 414.89900018 -660.79727067 416.66222566 -661.2265625 418.421875 C-664.13818351 431.30175406 -662.780378 444.91990642 -660.984375 457.84765625 C-659.39323075 470.17926955 -659.08521843 482.35192269 -659.0526123 494.77206421 C-658.9760958 514.25775073 -658.70650651 533.25486437 -654.4765625 552.34765625 C-654.30672852 553.17378418 -654.13689453 553.99991211 -653.96191406 554.85107422 C-645.88943287 593.4084052 -622.56800685 641.42724259 -588.75805664 663.53125 C-575.19617336 672.06621294 -560.661923 678.84404299 -546.08178711 685.42675781 C-540.35623625 688.01276033 -534.6974066 690.67977181 -529.1015625 693.53515625 C-496.18651689 710.20009125 -462.8603449 717.82739469 -425.9765625 717.59765625 C-425.09792542 717.59488678 -424.21928833 717.59211731 -423.31402588 717.58926392 C-383.72523051 717.4444801 -345.00565575 714.71186721 -307.4765625 701.34765625 C-307.51136719 700.48527344 -307.54617188 699.62289062 -307.58203125 698.734375 C-308.70524496 648.08278544 -281.22911236 600.98242247 -252.09863281 561.55078125 C-249.30205188 557.75241485 -246.54774977 553.92358178 -243.7890625 550.09765625 C-243.24717285 549.34814697 -242.7052832 548.5986377 -242.14697266 547.82641602 C-239.25295583 543.82198611 -236.37754562 539.80535247 -233.52197266 535.7734375 C-226.3370308 525.64338086 -218.98357852 515.7612507 -210.55859375 506.61328125 C-208.6521581 504.53873589 -206.8089064 502.42499694 -204.9765625 500.28515625 C-186.65107684 479.46640723 -163.94810804 466.60228819 -138.4765625 456.34765625 C-139.23839844 455.58710937 -140.00023437 454.8265625 -140.78515625 454.04296875 C-142.11740234 452.70878906 -142.11740234 452.70878906 -143.4765625 451.34765625 C-144.29833984 450.53941406 -144.29833984 450.53941406 -145.13671875 449.71484375 C-149.66453842 444.89694093 -151.64021809 439.63296233 -153.4765625 433.34765625 C-153.83363281 432.20039062 -154.19070313 431.053125 -154.55859375 429.87109375 C-161.34475738 401.90038341 -150.95707073 371.06279413 -143.36181641 344.49267578 C-141.89699536 339.28864249 -140.57244393 334.05028312 -139.265625 328.8046875 C-138.4765625 326.34765625 -138.4765625 326.34765625 -136.4765625 324.34765625 C-133.3515625 324.72265625 -133.3515625 324.72265625 -130.4765625 325.34765625 C-128.96709359 330.28591876 -129.96078902 334.53026471 -130.9140625 339.47265625 C-131.08655518 340.39900879 -131.25904785 341.32536133 -131.43676758 342.27978516 C-133.56564621 353.35562395 -136.15553656 364.33748501 -138.74584961 375.31298828 C-138.91804016 376.04853943 -139.09023071 376.78409058 -139.26763916 377.54193115 C-139.73915264 379.55396282 -140.21548046 381.56486453 -140.69213867 383.57568359 C-142.45971187 392.07521857 -142.68978698 400.43702133 -142.7265625 409.09765625 C-142.7575 410.89589844 -142.7575 410.89589844 -142.7890625 412.73046875 C-142.83031475 422.23911256 -142.3511042 433.06640608 -136.1328125 440.8203125 C-132.68842755 443.99662032 -128.60310523 446.18038259 -124.4765625 448.34765625 C-123.90703857 448.73751709 -123.33751465 449.12737793 -122.75073242 449.52905273 C-119.33625905 450.75811652 -117.1313909 449.73960718 -113.6875 448.70703125 C-113.00798782 448.50935654 -112.32847565 448.31168182 -111.62837219 448.10801697 C-110.14641663 447.67645431 -108.66621051 447.23884955 -107.18759155 446.79598999 C-103.16224843 445.59265182 -99.12302477 444.43857739 -95.08203125 443.2890625 C-94.23000626 443.04634109 -93.37798126 442.80361969 -92.50013733 442.55354309 C-80.73656603 439.24302855 -68.81842157 436.55065304 -56.90576172 433.83691406 C-46.87221248 431.52974521 -37.17315446 428.82672578 -27.4765625 425.34765625 C-27.4765625 421.90829776 -28.29253709 420.52556148 -29.9140625 417.53515625 C-36.31000596 404.99621624 -33.0754699 390.87225771 -30.9140625 377.53515625 C-30.71639786 376.28884933 -30.71639786 376.28884933 -30.51473999 375.0173645 C-28.50355659 362.39248261 -25.92846259 350.01395487 -22.88598633 337.60058594 C-20.37351659 327.26186852 -18.5498335 316.93319883 -17.4765625 306.34765625 C-17.38592529 305.4963916 -17.29528809 304.64512695 -17.2019043 303.76806641 C-16.00021885 290.70588778 -16.15069275 277.54076765 -15.99975586 264.43457031 C-15.86017513 252.82345928 -15.64217963 241.26572452 -14.55078125 229.69921875 C-14.47235489 228.86781372 -14.39392853 228.03640869 -14.31312561 227.17980957 C-12.34006344 208.26736088 -4.8300877 191.80544655 9.83984375 179.38671875 C24.39350727 168.3284766 39.70453158 163.23550384 57.54296875 159.99609375 C58.70385513 159.78332794 59.86474152 159.57056213 61.06080627 159.35134888 C76.70089349 156.53431903 92.42494342 154.23884882 108.14172363 151.89782715 C112.44343393 151.25697332 116.74438905 150.61144468 121.04442024 149.95941544 C123.01098461 149.66305061 124.97855365 149.37337622 126.94615173 149.08395386 C143.39363021 147.14494792 143.39363021 147.14494792 157.5234375 139.34765625 C160.55529689 133.84539291 159.21394183 129.0935025 157.55859375 123.33203125 C154.80147208 115.38319744 150.43398744 109.88389212 144.73828125 103.76171875 C136.65049624 94.94646101 132.94160167 88.12184422 133.1484375 75.99609375 C133.62991337 71.31173481 134.95918878 67.30665734 136.74609375 62.96875 C137.67300115 59.84334865 137.60348348 58.41650936 136.5234375 55.34765625 C125.36036604 38.26911102 107.41911019 29.93001488 88.09545898 25.61083984 C71.75726886 22.23627412 55.27721566 22.01436268 38.65356445 21.77661133 C29.89080529 21.6295248 21.32480741 21.07716149 12.62406921 20.01750183 C7.40243446 19.39722376 2.50017892 19.2097401 -2.7265625 19.66015625 C-12.09689682 20.28417323 -21.45149155 20.53288771 -30.83807373 20.73022461 C-55.13936307 21.26132294 -79.0269225 22.3626571 -102.4765625 29.34765625 C-102.1465625 30.00765625 -101.8165625 30.66765625 -101.4765625 31.34765625 C-98.43736398 32.07744301 -95.4195555 32.69879117 -92.3515625 33.28515625 C-80.77628025 35.63896795 -69.45830149 38.74562715 -58.1015625 41.97265625 C-57.24786072 42.21426483 -56.39415894 42.45587341 -55.5145874 42.70480347 C-53.03475762 43.40779398 -50.55613805 44.11485292 -48.078125 44.82421875 C-47.3443866 45.0335051 -46.61064819 45.24279144 -45.85467529 45.4584198 C-43.72399794 46.0735942 -41.59983015 46.70740698 -39.4765625 47.34765625 C-38.25607208 47.70352814 -38.25607208 47.70352814 -37.01092529 48.06658936 C-36.20342834 48.31451233 -35.3959314 48.5624353 -34.56396484 48.81787109 C-33.82947113 49.03873383 -33.09497742 49.25959656 -32.33822632 49.4871521 C-30.4765625 50.34765625 -30.4765625 50.34765625 -28.4765625 53.34765625 C-28.7265625 55.97265625 -28.7265625 55.97265625 -29.4765625 58.34765625 C-36.45060221 61.83467611 -46.25672579 58.5384027 -53.3515625 56.78515625 C-54.46998535 56.51920654 -55.5884082 56.25325684 -56.74072266 55.97924805 C-62.74047755 54.54198898 -68.72090031 53.03500653 -74.6953125 51.49609375 C-115.53685506 40.98628127 -160.72937609 38.32454374 -199.4765625 58.34765625 C-200.41628906 58.83105469 -201.35601562 59.31445312 -202.32421875 59.8125 C-217.19466706 68.10961258 -228.94041479 81.97831092 -234.08203125 98.265625 C-235.21633502 104.25160432 -235.80705176 111.72393067 -232.9765625 117.28515625 C-216.67126468 137.25914608 -183.21648154 146.06193406 -159.82348633 154.12402344 C-151.76923698 156.92157473 -143.88154981 159.89750276 -136.1484375 163.5 C-135.46288284 163.81695328 -134.77732819 164.13390656 -134.07099915 164.46046448 C-128.17693364 167.28837498 -123.28812536 170.90257606 -118.4765625 175.34765625 C-115.50356315 172.82509496 -114.38170279 170.16180719 -112.953125 166.5703125 C-112.4890625 165.41595703 -112.025 164.26160156 -111.546875 163.07226562 C-110.83144531 161.25952148 -110.83144531 161.25952148 -110.1015625 159.41015625 C-109.15669757 157.04669602 -108.21138793 154.68341353 -107.265625 152.3203125 C-105.89025935 148.88368457 -104.51574598 145.44703326 -103.15795898 142.00341797 C-100.98865363 136.61160888 -98.88972409 131.91638739 -95.2890625 127.34765625 C-92.58502088 123.93793859 -92.58502088 123.93793859 -90.48828125 120.16015625 C-89.18034859 117.81698732 -87.90564236 117.40475582 -85.4765625 116.34765625 C-84.21798416 115.46391538 -82.96867306 114.56689696 -81.7265625 113.66015625 C-72.39353147 107.39760123 -61.55617358 103.68753413 -51.0390625 99.91015625 C-36.07020471 94.50608813 -21.76053066 88.97526886 -11.3515625 76.47265625 C-8.86965143 73.53722328 -7.35111821 71.82199228 -3.4765625 71.28515625 C-2.4865625 71.30578125 -1.4965625 71.32640625 -0.4765625 71.34765625 C1.5234375 74.34765625 1.5234375 74.34765625 1.33984375 77.2265625 C0.48376215 80.49933378 -0.58606678 82.54028527 -2.5390625 85.28515625 C-3.08691406 86.07792969 -3.63476562 86.87070312 -4.19921875 87.6875 C-9.39414347 93.75567107 -15.34245192 98.31423577 -22.4140625 101.97265625 C-23.19330078 102.38233643 -23.97253906 102.7920166 -24.77539062 103.21411133 C-34.43215758 108.09954435 -44.6006522 111.86074491 -54.73803711 115.61767578 C-71.64375362 121.95812697 -82.98569263 129.94411244 -90.61572266 146.62768555 C-93.06193202 152.17238654 -95.20496628 157.80925224 -97.24731445 163.51318359 C-99.38731742 169.38922322 -102.12269121 174.84402608 -105.05859375 180.359375 C-106.4011598 183.18874972 -107.30163428 185.22893601 -107.4765625 188.34765625 C-106.46586176 190.99192084 -106.46586176 190.99192084 -104.8515625 193.66015625 C-95.93586633 210.53998937 -93.22834049 229.39410888 -92.2890625 248.22265625 C-92.20730153 249.66802116 -92.12462163 251.11333439 -92.04101562 252.55859375 C-90.97958427 271.42088823 -90.97958427 271.42088823 -92.3515625 280.22265625 C-92.51398437 281.31320312 -92.67640625 282.40375 -92.84375 283.52734375 C-93.4765625 286.34765625 -93.4765625 286.34765625 -95.4765625 289.34765625 C-98.6015625 289.53515625 -98.6015625 289.53515625 -101.4765625 289.34765625 C-104.24144977 283.80817873 -104.96017477 279.32812775 -105.1015625 273.1796875 C-105.13459473 272.30479172 -105.16762695 271.42989594 -105.20166016 270.52848816 C-105.30618576 267.73931709 -105.3932897 264.95003706 -105.4765625 262.16015625 C-105.81119935 251.2270645 -106.26162009 240.41449659 -107.86328125 229.58203125 C-107.97877319 228.79258621 -108.09426514 228.00314117 -108.21325684 227.18977356 C-110.8770372 210.52002449 -116.96256693 193.15487215 -130.4765625 182.34765625 C-142.21443662 174.32752515 -155.43610576 169.74584929 -168.796875 165.1796875 C-181.64484045 160.75995058 -194.10570893 155.95976189 -206.4140625 150.22265625 C-207.02809937 149.93905243 -207.64213623 149.65544861 -208.27478027 149.36325073 C-239.58045888 134.83268451 -239.58045888 134.83268451 -246.6015625 119.7421875 C-250.69908711 108.5288724 -248.60910541 96.36939495 -243.859375 85.72265625 C-240.98907569 79.79670043 -237.84409001 74.00510246 -234.4765625 68.34765625 C-263.18126823 56.34387022 -309.86685964 68.16900089 -337.66210938 79.21630859 C-346.84436056 83.15864132 -352.41448104 87.22753856 -356.4140625 96.5546875 C-357.71182855 99.96609458 -358.8079177 103.43345607 -359.9140625 106.91015625 C-361.74945956 112.67405972 -364.03236063 117.37269799 -367.4765625 122.34765625 C-367.8065625 123.33765625 -368.1365625 124.32765625 -368.4765625 125.34765625 C-370.06469727 126.27172852 -370.06469727 126.27172852 -372.4765625 127.34765625 C-373.61730225 127.98566162 -374.75804199 128.62366699 -375.93334961 129.28100586 C-386.32060586 135.05597677 -396.76247229 139.22234001 -408.0390625 142.91015625 C-423.47211428 147.98094759 -439.19699572 153.28589774 -451.4765625 164.34765625 C-452.44335938 165.15976562 -452.44335938 165.15976562 -453.4296875 165.98828125 C-459.06530679 171.0556028 -462.07198375 176.81637429 -462.75 184.41015625 C-462.81739087 189.80142554 -462.44062192 195.04532945 -461.4765625 200.34765625 C-458.05935071 201.48672685 -457.76188128 201.31007509 -454.6953125 199.828125 C-453.94540039 199.47008789 -453.19548828 199.11205078 -452.42285156 198.74316406 C-451.61557617 198.34452148 -450.80830078 197.94587891 -449.9765625 197.53515625 C-448.71537598 196.92752441 -448.71537598 196.92752441 -447.42871094 196.30761719 C-443.07779255 194.19126053 -438.77968256 191.99610044 -434.5234375 189.6953125 C-433.71841797 189.26130127 -432.91339844 188.82729004 -432.08398438 188.38012695 C-430.57869864 187.56123031 -429.07928472 186.73138274 -427.58789062 185.88745117 C-414.89523725 178.94525897 -400.92928875 176.17017105 -386.88330078 173.44091797 C-367.6068313 169.66307216 -350.761821 163.6432165 -335.1328125 151.36328125 C-328.426752 146.27456475 -328.426752 146.27456475 -324.2265625 146.59765625 C-321.4765625 147.34765625 -321.4765625 147.34765625 -320.4765625 148.34765625 C-320.03635215 152.42693886 -319.88637652 154.55993863 -322.390625 157.90234375 C-344.09980233 176.48339755 -367.63784654 183.50844543 -395.44824219 188.95092773 C-409.65610217 191.73826447 -421.51813172 197.25179648 -434.06298828 204.30102539 C-450.0296371 213.20144623 -465.47001459 217.56217097 -483.7890625 217.66015625 C-484.79122803 217.6657959 -485.79339355 217.67143555 -486.82592773 217.67724609 C-503.30785172 217.51636703 -503.30785172 217.51636703 -506.4765625 214.34765625 C-506.51749187 212.01468192 -506.51897973 209.680604 -506.4765625 207.34765625 C-503.82423525 206.02149262 -501.70103929 206.15172565 -498.734375 206.06640625 C-497.01154297 206.01033203 -497.01154297 206.01033203 -495.25390625 205.953125 C-494.04863281 205.91832031 -492.84335937 205.88351562 -491.6015625 205.84765625 C-489.22904817 205.77870266 -486.85664055 205.70594511 -484.484375 205.62890625 C-483.42879395 205.59861328 -482.37321289 205.56832031 -481.28564453 205.53710938 C-478.86836929 205.3740809 -476.79011685 205.03469914 -474.4765625 204.34765625 C-474.6415625 203.33703125 -474.8065625 202.32640625 -474.9765625 201.28515625 C-476.80727271 186.10103042 -475.58935399 172.92374142 -466.4765625 160.34765625 C-452.01144096 142.23777967 -426.83758766 134.7795009 -405.74536133 127.7722168 C-388.33725018 122.30185638 -388.33725018 122.30185638 -375.4765625 110.34765625 C-373.26963767 105.8386059 -371.70015395 101.16552483 -370.29296875 96.35546875 C-370.08478516 95.65341309 -369.87660156 94.95135742 -369.66210938 94.22802734 C-369.25673967 92.84195522 -368.86532361 91.45170002 -368.49023438 90.05712891 C-367.05302711 85.09680177 -364.89333972 82.20365191 -361.4765625 78.34765625 C-361.4765625 77.68765625 -361.4765625 77.02765625 -361.4765625 76.34765625 C-360.89777344 76.07308594 -360.31898438 75.79851562 -359.72265625 75.515625 C-357.49465221 74.41474814 -357.49465221 74.41474814 -355.63671875 73.0859375 C-334.27873096 58.56886945 -303.38773785 55.71509576 -278.4765625 52.34765625 C-277.70304443 52.24235596 -276.92952637 52.13705566 -276.13256836 52.02856445 C-260.13219318 50.04084001 -244.49827752 49.6399824 -229.9765625 57.16015625 C-227.6535302 58.53150446 -227.6535302 58.53150446 -225.6171875 58.14453125 C-222.87768651 57.12471701 -221.01710509 55.602652 -218.7265625 53.78515625 C-193.15265272 34.92524126 -160.25961204 31.65032531 -129.4765625 29.34765625 C-129.1465625 28.35765625 -128.8165625 27.36765625 -128.4765625 26.34765625 C-126.85546875 25.3671875 -126.85546875 25.3671875 -124.4765625 24.34765625 C-123.41308594 23.83589844 -122.34960938 23.32414062 -121.25390625 22.796875 C-99.45232016 12.6624878 -76.17274121 9.75407822 -52.4765625 7.34765625 C-52.4765625 7.01765625 -52.4765625 6.68765625 -52.4765625 6.34765625 C-73.20948527 4.75062231 -93.71690107 5.14127444 -114.44140625 6.5625 Z M302.5234375 104.34765625 C305.27319918 112.14095066 311.09753334 118.06498557 316.9609375 123.72265625 C327.76066129 134.27947968 335.48134279 145.67619554 336.8359375 160.84765625 C335.96919201 170.55520574 331.8901132 177.48698075 324.5859375 183.84765625 C316.59758563 190.12496823 308.0735468 193.5828362 298.4921875 196.59301758 C282.00195837 201.78812271 266.43026641 209.27431006 251.37451172 217.75292969 C232.06547059 228.6009511 209.63821373 232.8720834 187.92578125 235.84765625 C186.97934753 235.97736313 186.03291382 236.10707001 185.05780029 236.2407074 C180.27489091 236.89041638 175.49021767 237.51851736 170.70068359 238.11743164 C156.95012498 239.8776308 145.12038917 241.73595835 134.5234375 251.34765625 C133.193125 252.52328125 133.193125 252.52328125 131.8359375 253.72265625 C120.55956658 266.52286108 117.58360373 280.78499826 118.28369141 297.4453125 C118.96656685 305.71213868 120.95616094 313.82991457 122.77189636 321.90783691 C123.5952994 325.67656965 124.35974312 329.45549155 125.11010742 333.23925781 C125.24693687 333.92641876 125.38376633 334.61357971 125.52474213 335.32156372 C125.85823429 336.99680982 126.19092026 338.67221637 126.5234375 340.34765625 C127.57420471 340.34321503 128.62497192 340.3387738 129.70758057 340.334198 C139.65194261 340.29350227 149.59628757 340.26360038 159.54071426 340.24403191 C164.65217839 340.2336331 169.76357482 340.21954584 174.875 340.19677734 C179.81575935 340.17490896 184.75645394 340.16305834 189.697258 340.15790176 C191.57412484 340.15423098 193.45098848 340.14706348 195.32782745 340.13619614 C218.69483825 340.00638268 238.53916008 343.87929868 256.1484375 360.47265625 C267.47576328 372.49141664 274.87430856 386.85499242 282.5234375 401.34765625 C283.3685171 402.93036871 284.21478462 404.51244772 285.0625 406.09375 C286.89155919 409.5071351 288.71102908 412.9254027 290.5234375 416.34765625 C293.7440097 416.69894334 293.7440097 416.69894334 295.984375 413.91796875 C296.96747539 412.77957021 297.93790165 411.63015722 298.8984375 410.47265625 C299.42445557 409.84407715 299.95047363 409.21549805 300.49243164 408.56787109 C312.89808843 393.53882213 322.75473261 377.75327494 331.5234375 360.34765625 C331.90838379 359.5911377 332.29333008 358.83461914 332.68994141 358.05517578 C341.65782391 340.14045226 347.58389223 320.1454371 352.91699219 300.8762207 C360.0674375 275.18420095 376.609606 250.4168262 400.09057617 237.13208008 C410.05936032 231.7332674 420.0710481 229.14246627 431.3984375 229.28515625 C432.08679687 229.28966797 432.77515625 229.29417969 433.484375 229.29882812 C435.16410085 229.31049289 436.84378125 229.32842354 438.5234375 229.34765625 C434.89091377 213.33152887 429.15844014 200.44180491 416.5234375 189.34765625 C415.8634375 189.34765625 415.2034375 189.34765625 414.5234375 189.34765625 C414.5234375 188.68765625 414.5234375 188.02765625 414.5234375 187.34765625 C413.07912033 186.13987218 411.63138413 184.93583805 410.16308594 183.75732422 C399.08932847 174.23679479 388.32481038 155.97575624 385.8984375 141.66015625 C382.26787235 132.91379474 369.88785475 128.71422682 361.92041016 124.40649414 C357.34433386 121.92853471 352.87734274 119.39339681 348.5234375 116.53515625 C343.07707558 112.98095763 337.45722243 110.00818482 331.5234375 107.34765625 C330.7603125 107.00476563 329.9971875 106.661875 329.2109375 106.30859375 C320.74605515 103.16365482 311.40603582 104.10142406 302.5234375 104.34765625 Z M407.5234375 157.34765625 C410.15382066 162.28116833 413.02740086 166.35625627 416.8984375 170.41015625 C417.41374023 170.96251953 417.92904297 171.51488281 418.45996094 172.08398438 C421.28150798 175.08261596 424.16891527 177.99393614 427.140625 180.84375 C441.15990707 194.316094 448.98815421 208.6296514 452.9453125 227.86328125 C453.27624982 230.27661545 453.27624982 230.27661545 454.5234375 231.34765625 C456.49963288 231.60117127 458.47975743 231.8241027 460.4609375 232.03515625 C474.37759177 233.97077212 486.92262582 239.15704695 499.265625 245.7109375 C501.78685973 246.97760099 503.77593505 247.87133045 506.5234375 248.34765625 C498.54712027 230.81681999 482.60333429 216.25530345 469.2109375 202.84765625 C468.69319763 202.32882874 468.17545776 201.81000122 467.64202881 201.27545166 C462.30608014 195.94077109 456.93242594 190.69358233 451.19750977 185.78320312 C448.9592299 183.86383816 446.81022928 181.85236282 444.6484375 179.84765625 C436.59999645 172.61873731 418.78378512 157.34765625 407.5234375 157.34765625 Z M401.5234375 253.34765625 C400.71261719 253.899375 399.90179687 254.45109375 399.06640625 255.01953125 C391.44020259 260.6401034 385.92665492 267.66023705 380.5234375 275.34765625 C379.811875 276.35957031 379.1003125 277.37148438 378.3671875 278.4140625 C370.34049411 291.13891968 366.72440328 306.08825869 362.27832031 320.33642578 C355.93539256 340.61882019 348.42250893 359.50492376 338.5234375 378.34765625 C338.00201172 379.34112061 337.48058594 380.33458496 336.94335938 381.3581543 C334.1330101 386.61592399 331.18654322 391.61199211 327.6484375 396.41015625 C327.21990479 396.99958008 326.79137207 397.58900391 326.34985352 398.19628906 C320.40518507 406.31680551 314.09308584 413.96924789 307.2109375 421.31640625 C305.31043094 423.16392576 305.31043094 423.16392576 305.5234375 425.34765625 C304.8634375 425.34765625 304.2034375 425.34765625 303.5234375 425.34765625 C301.24111332 427.55453932 301.24111332 427.55453932 299.5234375 430.34765625 C301.13103369 447.95083456 321.03447244 470.72599485 331.61645508 484.07446289 C335.56186649 489.1087438 339.1256838 494.27927053 339.9609375 500.72265625 C339.8165625 501.58890625 339.6721875 502.45515625 339.5234375 503.34765625 C336.5234375 505.34765625 336.5234375 505.34765625 333.58984375 505.1875 C316.80678334 500.59086562 303.18584947 468.92401755 295.28417969 455.36523438 C293.69256663 452.6375115 292.0833889 449.92115729 290.46875 447.20703125 C284.69141107 437.39575895 279.4824906 427.36858883 274.4480896 417.16281128 C259.20512709 385.48408996 259.20512709 385.48408996 233.5234375 362.34765625 C232.82476563 361.94160156 232.12609375 361.53554688 231.40625 361.1171875 C224.22339264 357.24627021 217.08139651 356.04621794 209.0222168 356.07299805 C208.21276108 356.06788712 207.40330536 356.06277618 206.56932068 356.05751038 C203.91202231 356.04369552 201.25498613 356.0445668 198.59765625 356.046875 C196.72646491 356.04298009 194.85527444 356.03864381 192.98408508 356.03388977 C189.06284727 356.02644225 185.14169948 356.02670558 181.22045898 356.03198242 C176.24964585 356.03773696 171.27921022 356.02093676 166.30845928 355.99763775 C162.43970157 355.98273211 158.57103088 355.98205191 154.70224953 355.98514748 C152.87303744 355.9846414 151.04381953 355.97954134 149.21463585 355.96933556 C106.70562625 355.76146897 70.50414616 371.54188034 39.5234375 400.34765625 C37.627302 402.04479139 35.7147713 403.71934453 33.7890625 405.3828125 C31.99418818 406.93940178 30.21755148 408.5116999 28.4453125 410.09375 C13.04204803 423.72624549 -3.58130576 433.80781584 -22.8515625 441.03515625 C-23.54475586 441.29643311 -24.23794922 441.55770996 -24.95214844 441.8269043 C-39.11877196 446.92848052 -53.83874586 450.18293431 -68.52584839 453.36917114 C-108.51207726 462.10215116 -150.87125167 471.52183574 -181.87304688 499.90258789 C-183.60936647 501.46733754 -185.38616597 502.9763334 -187.171875 504.484375 C-189.53812327 506.50447047 -191.71460183 508.52786216 -193.7265625 510.91015625 C-194.30277344 511.58820313 -194.87898438 512.26625 -195.47265625 512.96484375 C-196.13394531 513.75117187 -196.79523438 514.5375 -197.4765625 515.34765625 C-198.31316406 516.31960938 -199.14976562 517.2915625 -200.01171875 518.29296875 C-210.03095398 529.95763354 -219.17292453 542.19480491 -228.125 554.6875 C-230.29652562 557.71667111 -232.48816386 560.72901771 -234.703125 563.7265625 C-242.61468398 574.4694368 -249.89672077 585.53539326 -256.93408203 596.86914062 C-258.26724312 599.01131401 -259.61636947 601.14197871 -260.97265625 603.26953125 C-278.26717127 630.75835072 -293.40621908 665.32271282 -292.4765625 698.34765625 C-292.45980469 699.30929687 -292.44304687 700.2709375 -292.42578125 701.26171875 C-291.81502205 714.48901807 -286.21050859 728.19234271 -276.5390625 737.41015625 C-270.92669931 742.10447689 -264.59337469 745.64727812 -258.28076172 749.30126953 C-239.82569297 760.00470995 -230.07727615 772.20764832 -221.39794922 791.3203125 C-217.26290639 800.41872153 -212.74425173 808.52855879 -206.4765625 816.34765625 C-205.73212891 817.31832031 -205.73212891 817.31832031 -204.97265625 818.30859375 C-196.02666158 828.63269204 -179.46607457 833.65560562 -166.4765625 836.34765625 C-165.4865625 836.01765625 -164.4965625 835.68765625 -163.4765625 835.34765625 C-164.71019531 834.16623047 -164.71019531 834.16623047 -165.96875 832.9609375 C-183.12654315 816.31712912 -194.17473726 798.30563868 -203.37927246 776.30093384 C-207.8035083 765.73085734 -212.38807815 755.85121348 -219.22265625 746.5859375 C-219.92334229 745.63340088 -219.92334229 745.63340088 -220.63818359 744.66162109 C-221.54692959 743.44436391 -222.47225817 742.23924679 -223.41650391 741.04931641 C-225.45506413 738.37286101 -226.50961036 736.9336512 -226.31640625 733.5078125 C-225.4765625 731.34765625 -225.4765625 731.34765625 -224.4765625 730.34765625 C-221.44372114 729.75588233 -219.35442698 729.8325923 -216.65234375 731.41796875 C-203.16382266 742.30728192 -196.00515537 759.28096816 -189.22485352 774.734375 C-182.74297687 789.45348979 -175.79447002 802.75318332 -164.4765625 814.34765625 C-163.32397098 815.71699617 -162.17781475 817.09178611 -161.0390625 818.47265625 C-145.9299399 835.68601738 -121.35686898 847.93924217 -98.609375 849.55078125 C-62.43746198 850.11449937 -26.36772236 828.97621301 1.52709961 807.8449707 C6.70310245 803.93071501 11.97240411 800.20534567 17.3359375 796.55078125 C19.51173992 795.04691781 21.65019372 793.5304613 23.7734375 791.95703125 C57.82412733 766.79951019 95.44610702 757.62321614 136.8984375 752.34765625 C167.11196924 748.49793617 196.3187338 739.80010266 224.2109375 727.59765625 C262.12789354 711.18000518 305.74637538 698.08831407 347.35546875 699.63671875 C368.84147003 700.3945447 386.00405101 700.67724105 404.5234375 688.34765625 C405.46388916 687.76419434 405.46388916 687.76419434 406.42333984 687.16894531 C410.11390288 684.86775828 413.32115917 682.28307805 416.5234375 679.34765625 C417.07644531 678.84395508 417.62945313 678.34025391 418.19921875 677.82128906 C430.68802084 666.30519869 439.79214508 653.21069905 448.23828125 638.56933594 C449.14845354 636.9958998 450.06585327 635.42663426 450.98828125 633.86035156 C460.78868609 617.21066129 469.17640051 600.0527202 476.6875 582.25390625 C477.00412598 581.50810303 477.32075195 580.7622998 477.64697266 579.99389648 C478.45313947 578.07728541 479.23926526 576.15227713 480.0234375 574.2265625 C481.62303019 571.1565109 482.60591341 570.1121124 485.5234375 568.34765625 C495.39936284 566.56623934 505.74051243 569.9353791 515.2734375 572.28515625 C517.60609127 572.84955483 519.93960836 573.41000357 522.27423096 573.96620178 C523.71365993 574.31020741 525.15188751 574.65929951 526.58856201 575.01463318 C533.46767391 576.67973356 540.23519813 577.44121511 547.32421875 577.59375 C548.54818359 577.62662109 549.77214844 577.65949219 551.03320312 577.69335938 C553.58778876 577.75502631 556.14248512 577.81225208 558.69726562 577.86523438 C559.91478516 577.89939453 561.13230469 577.93355469 562.38671875 577.96875 C563.49313721 577.99380615 564.59955566 578.0188623 565.73950195 578.04467773 C568.5234375 578.34765625 568.5234375 578.34765625 571.5234375 580.34765625 C571.9609375 583.28515625 571.9609375 583.28515625 571.5234375 586.34765625 C565.578202 592.29289175 556.2861707 590.65284471 548.53686523 590.66674805 C532.47430749 590.50354277 517.32450222 587.04003859 501.86547852 582.9230957 C501.09002686 582.71773193 500.3145752 582.51236816 499.515625 582.30078125 C498.83870605 582.11676758 498.16178711 581.93275391 497.46435547 581.74316406 C495.20032959 581.21454276 495.20032959 581.21454276 491.5234375 581.34765625 C491.30316895 581.90412842 491.08290039 582.46060059 490.85595703 583.03393555 C480.37278321 609.39278469 468.26022698 634.69851452 452.5234375 658.34765625 C451.90339844 659.33636719 451.28335938 660.32507813 450.64453125 661.34375 C440.47971592 677.32309436 427.95907216 690.09331843 411.73828125 699.9375 C409.43522604 701.29139592 409.43522604 701.29139592 407.5234375 703.34765625 C414.53384789 704.91933324 421.55521416 706.43208154 428.5859375 707.91015625 C429.62298828 708.13123047 430.66003906 708.35230469 431.72851562 708.58007812 C432.74494141 708.79341797 433.76136719 709.00675781 434.80859375 709.2265625 C435.71488525 709.41806885 436.62117676 709.6095752 437.55493164 709.80688477 C445.72342612 711.29493603 453.50553385 711.43931537 461.796875 711.33984375 C463.75066193 711.32680074 465.7044492 711.3137778 467.65824318 711.30183601 C472.42903101 711.27163102 477.19965485 711.23191794 481.97021484 711.17626953 C508.35744474 710.87876403 540.15798774 711.57425786 561.046875 730.65234375 C564.45281243 732.98385297 567.14067815 732.5470949 571.0234375 731.91015625 C572.07640015 731.75389771 572.07640015 731.75389771 573.15063477 731.59448242 C586.52581457 729.3867228 597.69680966 723.79964876 606.25390625 713.14453125 C613.07825569 703.48545204 618.05263452 689.2041701 616.5234375 677.34765625 C612.20667465 662.89880235 602.33469332 655.0146837 590.30908203 646.84863281 C587.13456856 644.66010885 584.48397561 642.70758906 582.5234375 639.34765625 C582.10478293 635.24484144 582.19764649 633.83634276 584.5234375 630.34765625 C589.94619579 629.42412973 593.31395669 631.64078145 597.5859375 634.66015625 C598.23135498 635.10367432 598.87677246 635.54719238 599.54174805 636.00415039 C615.95378574 647.49317861 615.95378574 647.49317861 620.5234375 654.34765625 C623.62133084 653.66252602 623.62133084 653.66252602 624.83984375 651.30859375 C629.78464981 641.04695861 632.63866293 631.50357198 629.68359375 620.109375 C627.2586747 613.42247701 623.94258073 607.41284422 620.34594727 601.3125 C616.20597603 594.23078662 613.48606877 588.49713118 615.5234375 580.34765625 C616.5234375 579.34765625 616.5234375 579.34765625 619.3984375 579.22265625 C622.5234375 579.34765625 622.5234375 579.34765625 625.5234375 580.34765625 C626.40234375 582.34375 626.40234375 582.34375 627.0859375 584.78515625 C628.10851009 588.44623853 628.10851009 588.44623853 630.5234375 591.34765625 C645.64078382 563.3145189 641.3917919 531.67978619 636.5234375 501.34765625 C636.30173677 499.94683215 636.08039071 498.54595188 635.859375 497.14501953 C634.78928113 490.37755115 633.69575476 483.61463417 632.57421875 476.85546875 C631.77918136 472.02742354 631.07779775 467.20896924 630.5234375 462.34765625 C628.64107408 465.17120138 628.14359477 466.43270263 627.55859375 469.63671875 C627.40003906 470.4877417 627.24148438 471.33876465 627.078125 472.21557617 C626.91570313 473.1254126 626.75328125 474.03524902 626.5859375 474.97265625 C626.41191406 475.90891846 626.23789063 476.84518066 626.05859375 477.80981445 C625.23813645 482.25408384 624.45620471 486.70207928 623.73828125 491.1640625 C621.92538398 502.35913242 619.75679748 512.94962908 611.5234375 521.34765625 C607.62656941 523.72303799 603.98420032 523.95171788 599.5234375 523.34765625 C592.86680966 521.52170625 587.04390205 518.0080346 581.11645508 514.56152344 C564.10610813 504.69556775 548.54840502 499.51225632 528.91015625 497.38549805 C523.56660994 496.79940626 518.63511424 496.02761743 513.5234375 494.34765625 C513.3984375 490.97265625 513.3984375 490.97265625 513.5234375 487.34765625 C516.2918342 484.57925955 517.8895241 485.04798856 521.7734375 485.03515625 C549.16319396 485.24188418 573.10329387 492.75911365 595.75390625 507.87890625 C598.72857884 509.45644771 600.22444359 510.01299956 603.5234375 509.34765625 C606.48523361 506.52657896 607.13829699 503.59413019 607.8984375 499.66015625 C608.1459375 498.4278125 608.3934375 497.19546875 608.6484375 495.92578125 C609.12547871 493.44831724 609.59478239 490.96947663 610.0625 488.49023438 C615.99003259 457.17310385 615.99003259 457.17310385 623.5078125 443.3984375 C627.21531551 435.91213334 623.36781941 427.91469569 620.88574219 420.42285156 C612.26607272 395.5459944 601.00949694 371.23206978 586.67919922 349.14648438 C584.88324149 346.35125485 583.17073636 343.50872709 581.4609375 340.66015625 C581.11329346 340.08225342 580.76564941 339.50435059 580.4074707 338.90893555 C578.1010891 335.05313102 575.84144227 331.17201122 573.60258484 327.27659607 C572.13834931 324.73099808 570.66717486 322.18943259 569.19607544 319.64779663 C568.47014276 318.38892397 567.74756517 317.12810907 567.02877808 315.86514282 C560.33696641 304.10950188 552.79967212 292.98184112 543.0859375 283.47265625 C542.5408252 282.93729248 541.99571289 282.40192871 541.43408203 281.8503418 C535.17946368 275.86383045 529.18393718 270.81515084 520.43359375 269.5546875 C513.72725828 268.44616042 508.46644458 265.51212287 502.5859375 262.22265625 C494.70352494 257.97027114 486.85137164 253.9690265 478.5234375 250.66015625 C477.74234619 250.3461084 476.96125488 250.03206055 476.15649414 249.70849609 C467.14836929 246.22757511 458.71509629 245.04888071 449.0859375 244.78515625 C447.12877896 244.72538598 445.17173256 244.6617809 443.21484375 244.59375 C442.36092041 244.56982178 441.50699707 244.54589355 440.62719727 244.52124023 C438.5234375 244.34765625 438.5234375 244.34765625 436.5234375 243.34765625 C423.1725799 242.13213041 412.43087372 245.83013177 401.5234375 253.34765625 Z M313.5234375 717.34765625 C312.30833496 717.55841797 311.09323242 717.76917969 309.84130859 717.98632812 C279.40957047 723.40973015 250.91259462 733.14970976 222.40283203 744.89379883 C197.13231121 755.27306115 171.53489853 762.99382358 144.5234375 767.34765625 C145.6375955 776.32963889 147.57704954 784.60972951 150.5234375 793.16015625 C150.92006592 794.32305176 151.31669434 795.48594727 151.7253418 796.68408203 C162.38367686 827.42197766 176.04337707 853.71387577 198.5234375 877.34765625 C199.11511719 877.9921875 199.70679688 878.63671875 200.31640625 879.30078125 C233.30777644 914.16573543 292.60519139 937.47179974 339.5234375 944.34765625 C340.26416504 944.45899902 341.00489258 944.5703418 341.76806641 944.68505859 C392.75768977 951.99396713 446.20490738 939.06157002 487.66015625 908.3203125 C493.4817398 903.8895608 499.06806814 899.22014225 504.5234375 894.34765625 C505.03745117 893.89003906 505.55146484 893.43242188 506.08105469 892.9609375 C516.73897193 883.4308775 526.640954 873.57309867 535.5234375 862.34765625 C536.39563466 861.28782565 537.26938748 860.22927377 538.14453125 859.171875 C553.37906939 840.57517556 564.27815263 819.87735222 569.5234375 796.34765625 C569.71292969 795.538125 569.90242188 794.72859375 570.09765625 793.89453125 C572.56203616 779.15346977 569.45560328 765.11343045 561.21875 752.61328125 C549.58798172 737.06985821 530.25521747 730.07669842 511.61967468 726.75964355 C506.36818024 726.06087634 501.17295501 726.20322855 495.88671875 726.328125 C493.44370573 726.36259399 491.0006702 726.39549491 488.55761719 726.42700195 C486.66481018 726.45511459 486.66481018 726.45511459 484.73376465 726.48379517 C463.36350734 726.76538784 443.06360158 726.42626516 422.10644531 722.07080078 C416.13989154 720.86659444 410.13373398 719.90638188 404.12731934 718.92440796 C402.22842239 718.6108633 400.3314407 718.28578545 398.43457031 717.96020508 C370.75819639 713.2360544 341.19101132 712.51858804 313.5234375 717.34765625 Z M45.5234375 795.34765625 C64.88188451 821.72873797 107.74340687 827.09663259 137.23046875 833.44140625 C138.12319992 833.63473541 139.01593109 833.82806458 139.93571472 834.0272522 C140.7597731 834.20195038 141.58383148 834.37664856 142.43286133 834.55664062 C143.51341545 834.78691956 143.51341545 834.78691956 144.61579895 835.02185059 C146.69375748 835.43183242 146.69375748 835.43183242 149.5234375 835.34765625 C148.40386673 831.84118334 147.17236571 828.40013658 145.82421875 824.9765625 C138.68125578 806.82484189 132.96200754 788.3425305 128.5234375 769.34765625 C101.23982048 769.34765625 67.67164304 779.60951452 45.5234375 795.34765625 Z M104.5234375 841.34765625 C112.81611561 851.71350389 123.21243059 860.07708606 133.5234375 868.34765625 C134.67816823 869.30468207 135.83175516 870.26308916 136.984375 871.22265625 C147.17572187 879.64141834 157.95247844 886.46322817 169.3125 893.1796875 C184.90762548 902.41768106 200.41639145 911.71496044 213.5234375 924.34765625 C214.84959528 925.52247301 216.1827594 926.6894373 217.5234375 927.84765625 C218.16667969 928.41097656 218.80992187 928.97429687 219.47265625 929.5546875 C220.92911949 930.8280525 222.39058895 932.09570147 223.85546875 933.359375 C228.84569391 937.73662762 233.4133636 942.31274924 237.84155273 947.25683594 C244.47468361 954.601686 251.58704802 961.49131659 258.61499023 968.45483398 C260.19182707 970.01876081 261.76272784 971.58867022 263.33203125 973.16015625 C272.82181159 982.63302076 281.68893045 987.42023037 295.3359375 987.59765625 C307.75793475 987.57603397 319.3075866 985.93587243 329.5234375 978.34765625 C329.22695312 977.52136719 328.93046875 976.69507813 328.625 975.84375 C327.5234375 972.34765625 327.5234375 972.34765625 326.859375 968.5078125 C325.9021712 963.92596008 324.71679181 959.87705088 321.5234375 956.34765625 C315.16765486 952.75303638 307.67434034 951.58243075 300.60644531 950.05566406 C296.21723336 949.04768856 292.01116897 947.67322192 287.7734375 946.16015625 C286.98638428 945.88139648 286.19933105 945.60263672 285.38842773 945.31542969 C252.47359128 933.35822653 218.03789306 917.48566173 192.4140625 892.96484375 C190.68478419 891.13098451 190.68478419 891.13098451 188.5234375 891.34765625 C188.5234375 890.68765625 188.5234375 890.02765625 188.5234375 889.34765625 C187.8634375 889.34765625 187.2034375 889.34765625 186.5234375 889.34765625 C186.28367187 888.78433594 186.04390625 888.22101562 185.796875 887.640625 C184.25542247 884.86506477 182.3603249 882.94004666 180.1484375 880.66015625 C172.61760363 872.53823948 166.25719745 863.36470062 160.421875 853.9609375 C158.45422839 851.25238692 157.55548507 850.53350762 154.5234375 849.34765625 C152.47548842 849.17169504 152.47548842 849.17169504 150.35717773 849.33203125 C145.43208256 849.44062731 140.98025503 848.64640627 136.18359375 847.59765625 C135.33542587 847.42008789 134.487258 847.24251953 133.61338806 847.05957031 C130.93570361 846.49737808 128.26081646 845.92303398 125.5859375 845.34765625 C122.88559697 844.77476208 120.18474218 844.20439406 117.48350525 843.63574219 C115.81014883 843.28262815 114.13740328 842.92660418 112.46534729 842.56738281 C108.52966598 841.67406005 108.52966598 841.67406005 104.5234375 841.34765625 Z " fill="#131414" transform="translate(702.4765625,182.65234375)"/>
<path d="M0 0 C1.9375 1.5625 1.9375 1.5625 3 4 C2.90614427 8.43729025 2.54494936 10.41534116 -0.51953125 13.703125 C-1.60320379 14.56986217 -2.70188416 15.41806734 -3.8125 16.25 C-5.00587934 17.19804244 -6.19724052 18.14863006 -7.38671875 19.1015625 C-8.29429932 19.81940918 -8.29429932 19.81940918 -9.22021484 20.55175781 C-11.96930977 22.78874425 -14.54151477 25.20087869 -17.125 27.625 C-31.86325052 41.23415879 -44.52087168 49.7517881 -64 54 C-76.54277691 57.16736791 -88.52364171 61.90540414 -96 73 C-101.3405024 81.95319519 -103.12154879 89.94589166 -103.65625 100.265625 C-103.99912706 102.99305615 -104.52225025 104.69893254 -106 107 C-108.79870027 108.39935013 -110.90498792 108.25265405 -114 108 C-116.22836021 106.72665131 -116.82397317 105.53140176 -117.62109375 103.125 C-118.45926139 99.98042622 -119 97.26982812 -119 94 C-152.96264264 101.35828381 -152.96264264 101.35828381 -179 123 C-181.79706376 129.12746594 -182.59602773 135.32749253 -183 142 C-182.443125 142.25394531 -181.88625 142.50789062 -181.3125 142.76953125 C-174.33956343 146.47979311 -167.94606775 151.56468617 -165 159 C-165.1552839 162.49388767 -165.52067788 163.52067788 -168 166 C-172.37572697 166.85380038 -174.84573219 165.7163913 -178.4375 163.375 C-181.26854976 161.3663253 -183.91267565 159.24868301 -186.5 156.9375 C-197.94853313 146.86068051 -211.45229177 144.81954671 -226.1875 144.75 C-227.26064453 144.729375 -228.33378906 144.70875 -229.43945312 144.6875 C-244.15283618 144.61629185 -257.8190694 149.29200435 -268.4765625 159.6796875 C-270 161 -270 161 -272 161 C-271.59910156 161.44988281 -271.19820312 161.89976562 -270.78515625 162.36328125 C-269.55075082 163.76003478 -268.32517849 165.16461408 -267.10546875 166.57421875 C-265.75125275 168.13445648 -264.38002123 169.68017089 -262.98828125 171.20703125 C-256.87467217 178.20208489 -252.34420133 185.87501553 -247.78076172 193.94384766 C-239.53365205 208.39873506 -229.84745392 217.22450157 -215.296875 225.04296875 C-207.02274642 229.95450716 -207.02274642 229.95450716 -205 234 C-204.74138957 237.03867255 -204.58484117 239.19562977 -206 241.9375 C-209.27776265 243.67881141 -212.52591385 242.81975725 -216 242 C-219.26038262 240.71553255 -222.30323912 239.11852006 -225.375 237.4375 C-226.63062744 236.75977539 -226.63062744 236.75977539 -227.91162109 236.06835938 C-243.31119362 227.57328299 -253.25089367 216.11209275 -262 201 C-273.52623853 180.33531188 -273.52623853 180.33531188 -293.4375 169 C-299.34692917 167.47237674 -305.32934003 166.34107752 -311.32226562 165.19555664 C-330.12524013 161.59146787 -344.87708198 156.44065145 -359 143 C-359.59683594 143.36351562 -360.19367188 143.72703125 -360.80859375 144.1015625 C-390.87106947 161.52261084 -426.83799531 163.40394759 -460.375 157.9375 C-477.12986133 155.22813615 -492.63051469 154.18090202 -507.796875 163.17578125 C-511 165 -511 165 -513.75 164.9375 C-516.27086552 163.88713937 -517.55040652 163.33545617 -519 161 C-519.1390082 157.87231559 -518.74471456 155.92158426 -516.75 153.453125 C-506.20316755 143.6161755 -490.71269575 140.3833299 -476.71484375 140.62890625 C-470.45172688 141.01116221 -464.26295753 142.07368018 -458.0625 143 C-430.45171619 147.07407096 -394.66720302 147.58500729 -370.44921875 131.1015625 C-369.97097656 130.73804688 -369.49273437 130.37453125 -369 130 C-369.972426 122.89545114 -371.333102 115.90224159 -372.75 108.875 C-372.98976563 107.63234375 -373.22953125 106.3896875 -373.4765625 105.109375 C-375.6547324 94.35325768 -378.76404173 84.01554262 -384.5625 74.625 C-385.15160156 73.64660156 -385.74070312 72.66820312 -386.34765625 71.66015625 C-387.34377344 70.05647822 -388.3488923 68.45827265 -389.37109375 66.87109375 C-391.07075947 64.14809987 -392.00982903 62.44230621 -391.9375 59.1875 C-391 57 -391 57 -388 55 C-385.75 54.4375 -385.75 54.4375 -383 55 C-367.69713331 65.52072085 -361.55261456 87.27296624 -358.36483765 104.29492188 C-358.00862548 106.26480049 -357.68130962 108.23983521 -357.35473633 110.21484375 C-355.23692024 122.1917795 -350.57458885 131.28857439 -341 139 C-333.63559122 144.04872631 -325.07976298 145.64337569 -316.49658203 147.46875 C-311.88700327 148.44962653 -307.28649111 149.47075407 -302.6875 150.5 C-301.75180176 150.70906982 -300.81610352 150.91813965 -299.85205078 151.13354492 C-293.06623617 152.68113409 -286.51875281 154.53827689 -280 157 C-279.91621094 156.43925781 -279.83242188 155.87851562 -279.74609375 155.30078125 C-277.07443201 147.0619919 -267.36595341 139.96084189 -260 136 C-240.14174776 127.52474138 -216.27755534 126.03381754 -196 134 C-196.061875 133.030625 -196.12375 132.06125 -196.1875 131.0625 C-196.12701669 121.04243128 -190.4939268 112.61215067 -183.9375 105.4375 C-168.83715319 91.09879349 -145.81610961 81.7095471 -125.125 81.9375 C-124.34125 81.94201172 -123.5575 81.94652344 -122.75 81.95117188 C-120.83329986 81.96285907 -118.91663952 81.98079092 -117 82 C-116.731875 81.18917969 -116.46375 80.37835937 -116.1875 79.54296875 C-110.97334842 64.80956018 -102.45452306 53.79009096 -88.625 46.3125 C-80.7618451 42.56814052 -72.59012075 40.59230262 -64.15917969 38.53662109 C-50.70108366 35.19187945 -41.12993725 29.559539 -31.53125 19.55078125 C-11.01481397 -1.12396061 -11.01481397 -1.12396061 0 0 Z " fill="#161616" transform="translate(582,437)"/>
<path d="M0 0 C2.41652971 1.5832436 2.90480825 2.54783919 3.5 5.375 C2.78870011 9.10932444 0.74314599 10.40004021 -2 13 C-2.70286133 13.68425049 -2.70286133 13.68425049 -3.41992188 14.38232422 C-11.05580046 21.80552564 -18.95435384 28.3238203 -28 34 C-28.60295898 34.38381836 -29.20591797 34.76763672 -29.82714844 35.16308594 C-55.06035536 51.02873822 -83.08919532 62.86776579 -110.46533203 74.48974609 C-116.35327688 77.00548217 -122.21033011 79.5898108 -128.0625 82.1875 C-129.17367187 82.68064697 -130.28484375 83.17379395 -131.4296875 83.68188477 C-138.38157916 86.78533402 -145.2681498 90.00498133 -152.125 93.3125 C-160.25253284 97.22970687 -168.45725126 100.80919799 -176.84130859 104.13916016 C-179.0826734 105.03296838 -181.31703448 105.94280071 -183.55078125 106.85546875 C-191.93378757 110.26439746 -200.35694298 113.51784828 -208.86010742 116.6159668 C-238.48074153 127.41814558 -265.82677704 139.1286435 -289 161 C-289.83402344 161.75796875 -290.66804687 162.5159375 -291.52734375 163.296875 C-305.67911614 176.64184372 -316.49826755 195.93573996 -317.28125 215.5625 C-317.32351896 217.6456389 -317.35462616 219.72903192 -317.375 221.8125 C-317.38901855 222.78421143 -317.40303711 223.75592285 -317.41748047 224.75708008 C-317.32790594 238.63309275 -313.4354467 251.56375958 -309.1875 264.625 C-308.2833312 267.43869793 -307.38478504 270.25416384 -306.48828125 273.0703125 C-306.15993286 274.09907501 -306.15993286 274.09907501 -305.82495117 275.14862061 C-304.27479058 280.03945674 -302.88376021 284.95926987 -301.56445312 289.91772461 C-297.77107832 304.12541771 -292.08413929 316.1265116 -282.78515625 327.546875 C-281.11325904 329.84436176 -280.33094756 331.21402331 -280 334 C-280.5 336.1875 -280.5 336.1875 -282 338 C-285.99954192 339.23062828 -288.11927273 339.41225532 -291.9375 337.625 C-312.21619421 321.76878697 -317.29803968 294.18068041 -323.93798828 270.73535156 C-324.89211844 267.37944549 -325.86116777 264.02850138 -326.83984375 260.6796875 C-327.113125 259.74020264 -327.38640625 258.80071777 -327.66796875 257.83276367 C-328.15903604 256.14471988 -328.65230007 254.45731253 -329.1484375 252.77075195 C-336.52455852 227.18074039 -334.84652093 200.62205201 -321.99169922 177.15966797 C-308.84151252 154.25470654 -288.64498981 137.09983663 -265.875 124.1875 C-265.30370361 123.86322021 -264.73240723 123.53894043 -264.14379883 123.20483398 C-248.53653561 114.645182 -231.91309105 108.67579771 -215.2734375 102.48754883 C-195.07824095 94.96195133 -175.41779878 86.46962528 -155.78515625 77.59765625 C-148.41448083 74.27892976 -141.02000311 71.01405931 -133.625 67.75 C-132.89481659 67.4275531 -132.16463318 67.1051062 -131.412323 66.77288818 C-123.68671108 63.36284726 -115.95503001 59.96852088 -108.1953125 56.63671875 C-77.50050475 43.45707365 -46.95960569 30.33872971 -19.88867188 10.44873047 C-18.36102632 9.32852251 -16.8300542 8.21283785 -15.29589844 7.1015625 C-13.79643764 6.01475637 -12.30448198 4.91749818 -10.82128906 3.80859375 C-4.37773248 -0.85774426 -4.37773248 -0.85774426 0 0 Z " fill="#161616" transform="translate(878,632)"/>
<path d="M0 0 C1.9375 1.0625 1.9375 1.0625 3 3 C3.5 6.375 3.5 6.375 3 10 C1.35318685 12.19575086 0.13742945 13.37749673 -2 15 C-2.6703125 15.53367187 -3.340625 16.06734375 -4.03125 16.6171875 C-30.03931117 36.12323338 -59.88414957 37.23925039 -90.86837769 33.86129761 C-128.24832124 29.86756829 -166.89449981 27.64232817 -204 35 C-204.69337463 35.13575439 -205.38674927 35.27150879 -206.10113525 35.41137695 C-243.72465238 42.80577439 -280.01369468 53.45546566 -312.6875 74.125 C-314.24670166 75.10678223 -314.24670166 75.10678223 -315.83740234 76.10839844 C-327.27146021 83.36201664 -338.33326685 91.01586504 -348.9375 99.4375 C-385.95748617 128.82786163 -385.95748617 128.82786163 -406.89453125 127.8671875 C-415.21018439 126.74891655 -424.48693637 123.23779838 -430.25 116.9375 C-432.09964086 113.8327457 -432.83183953 112.51221133 -432 109 C-430.5 106.625 -430.5 106.625 -428 105 C-421.49711803 104.77576269 -417.69611617 107.21643719 -412.3046875 110.625 C-407.21338969 113.66252005 -402.54234524 113.24500946 -396.953125 111.96484375 C-385.88451173 108.34851111 -376.90694884 101.6646689 -368.05078125 94.328125 C-353.19687063 82.02763211 -337.30415644 71.26661045 -321 61 C-320.2687793 60.53835449 -319.53755859 60.07670898 -318.78417969 59.60107422 C-303.30418599 49.89130644 -287.10772797 42.38538853 -270 36 C-269.13004395 35.67 -268.26008789 35.34 -267.36376953 35 C-239.40767539 24.53881221 -209.56852054 19.37120884 -180 16 C-179.2380835 15.89977539 -178.47616699 15.79955078 -177.69116211 15.69628906 C-168.49309674 14.58453424 -159.18915051 14.66978078 -149.9375 14.625 C-148.96867889 14.61944092 -147.99985779 14.61388184 -147.00167847 14.6081543 C-128.87348471 14.55648547 -111.06223295 16.03836846 -93.07592773 18.22119141 C-83.39857686 19.37858012 -73.86004463 20.22815175 -64.10546875 20.25 C-63.21835709 20.25310181 -62.33124542 20.25620361 -61.41725159 20.25939941 C-42.73653184 20.07686725 -24.39834467 12.81057663 -9.67578125 1.46875 C-6.25727485 -0.40768563 -3.84344098 -0.33321994 0 0 Z " fill="#161717" transform="translate(1070,749)"/>
<path d="M0 0 C3.47022732 1.38809093 4.40329665 2.85885673 6.5 6 C8.03318107 9.66400506 9.2668966 13.41352923 10.5 17.1875 C12.71931402 23.84977666 14.99622336 30.43840166 17.66796875 36.93481445 C18.33891752 38.60017704 18.93223202 40.29669606 19.5 42 C21.74743756 43.15020525 21.74743756 43.15020525 24.5 44 C25.44875 44.37125 26.3975 44.7425 27.375 45.125 C34.18052709 47.03054758 41.24462109 46.32000693 47.5 43 C50.41526538 40.00144132 52.41652338 36.61040812 54.5 33 C63.88092956 16.87302348 63.88092956 16.87302348 72.5 14 C81.95547671 12.9149453 87.37964971 15.17049432 94.82421875 20.73828125 C101.02086594 25.87720766 105.69282674 31.92070584 110.45849609 38.34326172 C114.21969792 43.39906811 118.18370799 48.17177594 122.375 52.875 C135.2560666 67.5110217 140.87997579 83.3959085 146.25 101.8125 C146.44672302 102.48567261 146.64344604 103.15884521 146.84613037 103.85241699 C150.12259518 115.1247181 152.87610576 125.64443694 152.75 137.4375 C152.73984863 138.81228516 152.73984863 138.81228516 152.72949219 140.21484375 C152.488184 156.017724 152.488184 156.017724 148.375 162.1875 C147.75625 162.785625 147.1375 163.38375 146.5 164 C141.75 163.25 141.75 163.25 139.5 161 C138.18295657 155.89548256 138.65575965 151.11942385 139.0625 145.9375 C140.00769672 130.63812932 136.18630022 117.42265314 131.5 103 C131.21431152 102.11699219 130.92862305 101.23398437 130.63427734 100.32421875 C126.18808334 86.7293648 121.5584804 75.14230688 112.02270508 64.26049805 C108.10502036 59.78866498 104.50507971 55.12914664 100.9375 50.375 C92.3754557 37.53975739 92.3754557 37.53975739 80.5 29 C76.96268912 28.72299866 76.96268912 28.72299866 73.5 30 C71.67248397 32.53957495 70.43210308 34.65261116 69.125 37.4375 C64.21954469 46.96022836 58.55644966 55.46473839 48.5 60 C40.32529571 62.42920235 28.13743591 62.68086444 20.25 59.375 C18.27734375 58.25 18.27734375 58.25 16.5 57 C15.88253906 56.5875 15.26507812 56.175 14.62890625 55.75 C1.18485238 45.57299578 -3.17006896 23.72902719 -6.5 8 C-6.70703125 5.19921875 -6.70703125 5.19921875 -6.5 3 C-4.34792531 0.60880591 -3.22805796 0 0 0 Z " fill="#181818" transform="translate(1154.5,477)"/>
<path d="M0 0 C4.75 0.75 4.75 0.75 7 3 C7.52175772 9.52564585 6.20056138 15.20948331 4.5625 21.5 C4.10126521 23.30101204 3.64416514 25.10308853 3.19140625 26.90625 C2.88505249 28.08670898 2.88505249 28.08670898 2.57250977 29.29101562 C1.19952384 35.78766887 0.83363847 42.16986683 0.796875 48.78515625 C0.79117493 49.60390732 0.78547485 50.42265839 0.77960205 51.26622009 C0.7702108 52.9915134 0.76364165 54.71682416 0.75976562 56.44213867 C0.75011583 59.03142114 0.7190593 61.61988933 0.6875 64.20898438 C0.57337856 82.19366126 2.58231077 100.09424058 15 114 C15.56203125 114.67804688 16.1240625 115.35609375 16.703125 116.0546875 C30.92220111 131.9429595 57.41127101 137.90300409 77.27587891 142.97314453 C82.24158392 144.28485907 85.98887246 145.73938217 90 149 C91.19278214 152.36785546 91.42189275 154.02437302 90 157.3125 C87.18358056 159.6888539 84.58430707 160.03282912 81 160 C77.01916232 159.28176897 73.18573205 158.15667839 69.3125 157 C68.2097876 156.67894287 67.1070752 156.35788574 65.97094727 156.02709961 C45.02884214 149.84189078 24.94174633 143.23523079 8 129 C7.33613281 128.44957031 6.67226562 127.89914062 5.98828125 127.33203125 C-2.71665796 119.40955849 -8.22079871 108.29134436 -11 97 C-11.29777344 95.80246094 -11.59554687 94.60492187 -11.90234375 93.37109375 C-17.42681668 68.04517665 -18.31589824 27.95524078 -4.34375 5.31640625 C-2.9706305 3.44779787 -1.57761157 1.69688117 0 0 Z " fill="#171818" transform="translate(185,682)"/>
<path d="M0 0 C1.02875244 0.1330957 2.05750488 0.26619141 3.11743164 0.40332031 C23.32969994 3.16818419 41.52878471 8.19311885 59.4375 18 C71.10368259 24.35470063 82.27852061 27.86299248 95.625 25.8125 C98.69288845 24.74685125 101.39625955 23.4685375 104.25390625 21.9375 C107.97758065 20.17074839 110.56967765 20.23316824 114.625 20.8125 C116.625 21.9375 116.625 21.9375 117.625 23.8125 C118.125 26.6875 118.125 26.6875 117.625 29.8125 C112.60508462 36.67305102 103.63771811 39.89901508 95.625 41.8125 C91.828125 42.11328125 91.828125 42.11328125 87.875 42.125 C86.58078125 42.14175781 85.2865625 42.15851562 83.953125 42.17578125 C74.36755134 41.69571372 65.94395794 37.80657978 57.5 33.5625 C55.47145726 32.57393427 53.44149753 31.5882711 51.41015625 30.60546875 C50.42418457 30.12770996 49.43821289 29.64995117 48.42236328 29.15771484 C33.29419485 21.8827796 18.82918615 18.45662944 2.30078125 15.7890625 C1.232229 15.61528076 0.16367676 15.44149902 -0.93725586 15.26245117 C-3.00807888 14.92955253 -5.08047458 14.60624377 -7.15454102 14.29418945 C-22.06948956 11.95125713 -22.06948956 11.95125713 -26.375 6.8125 C-26.79727433 3.99733781 -26.87909162 2.51237256 -25.19384766 0.17260742 C-19.4059942 -4.15546394 -6.8398558 -0.88538101 0 0 Z " fill="#181919" transform="translate(1080.375,682.1875)"/>
<path d="M0 0 C2.30859375 -0.24169922 2.30859375 -0.24169922 5 0 C10.15742791 5.01028953 12.64312171 12.48776441 15 19.125 C15.68556357 20.9794013 16.3717655 22.83356673 17.05859375 24.6875 C17.70587685 26.45827936 18.35302123 28.22910943 19 30 C22.42835314 39.30928184 26.11705122 47.92714298 32 56 C32.54398438 56.75152344 33.08796875 57.50304687 33.6484375 58.27734375 C40.23618314 66.58161466 49.0498458 69.2750506 59.01953125 71.91015625 C62.49596226 73.18135448 64.44190646 74.30634937 67 77 C68.22248032 79.73123065 68.96926314 82.55387844 69.75 85.4375 C73.20975103 96.91473708 78.61391846 105.41541951 88 113 C89.81640564 115.52717306 90.03500566 116.50992072 89.8125 119.625 C89 122 89 122 86 124 C79.92855074 124.66818939 77.07112901 122.50166609 72.3828125 118.9609375 C62.51192677 110.837684 55.80330569 97.6231398 54 85 C53.05125 84.9175 52.1025 84.835 51.125 84.75 C38.48357126 82.84617037 27.50506669 75.13078637 19.96875 65 C11.93451696 52.75735918 6.7922215 40.09997369 3 26 C2.74669922 25.07413086 2.49339844 24.14826172 2.23242188 23.19433594 C1.46362973 20.34363926 0.72521678 17.4870695 0 14.625 C-0.23235352 13.7390918 -0.46470703 12.85318359 -0.70410156 11.94042969 C-1.81097425 7.34415418 -2.54431958 4.2935393 0 0 Z " fill="#181919" transform="translate(62,728)"/>
<path d="M0 0 C3.07331917 3.29882796 4.41267328 7.27485188 5.92578125 11.44140625 C6.4810643 12.92775511 7.03640474 14.41408253 7.59179688 15.90039062 C8.44968762 18.22052312 9.30483413 20.54163635 10.15795898 22.86352539 C18.57250256 45.94807082 18.57250256 45.94807082 37 61 C38.26256522 61.6467878 39.52421333 62.29536762 40.78515625 62.9453125 C46.68823095 65.96496765 52.51092616 68.9137042 58.75 71.1875 C62.69621642 72.71549626 65.00211044 74.09503404 67 78 C67.5 81.625 67.5 81.625 67 85 C65.4375 87 65.4375 87 63 88 C57.18132851 87.63859183 52.92660657 85.78926887 47.875 83.125 C47.18535156 82.77308594 46.49570313 82.42117188 45.78515625 82.05859375 C42.89329748 80.57119412 40.07550534 79.04622107 37.30078125 77.34765625 C35.00165578 76.00096985 32.8303518 75.1656564 30.3125 74.3125 C17.35531763 69.21048911 8.40963659 58.12815261 2.72729492 45.74194336 C-9.28178954 17.85771902 -9.28178954 17.85771902 -10 5 C-7.59426584 -0.2697034 -5.63277511 -1.78600186 0 0 Z " fill="#191919" transform="translate(111,736)"/>
<path d="M0 0 C0.78983823 1.93465993 1.50649938 3.89940094 2.1875 5.875 C8.96536886 23.89662216 21.02439699 31.27298452 36.92797852 40.59326172 C54.42823163 50.87831638 63.72000685 62.05874124 71 81 C71 81.66 71 82.32 71 83 C53.03574969 74.51004609 36.85736615 56.72770433 24.640625 41.28125 C21.77942244 37.74493223 18.74931955 34.89906218 15.1875 32.0625 C9.93987474 27.8759489 5.01738924 23.40819018 0.125 18.8125 C-0.60050049 18.13517822 -1.32600098 17.45785645 -2.07348633 16.76000977 C-6.01036388 13.03943915 -9.73058877 9.32716193 -13 5 C-13 4.34 -13 3.68 -13 3 C-11.21189234 2.30329584 -9.41937948 1.61788811 -7.625 0.9375 C-6.62726563 0.55464844 -5.62953125 0.17179688 -4.6015625 -0.22265625 C-2 -1 -2 -1 0 0 Z " fill="#F4F5F4" transform="translate(399,900)"/>
<path d="M0 0 C0.78983823 1.93465993 1.50649938 3.89940094 2.1875 5.875 C4.65860433 12.55286526 7.96380496 18.16429232 12 24 C12.66 24.99 13.32 25.98 14 27 C12.203125 27.6875 12.203125 27.6875 10 28 C8.359375 26.8125 8.359375 26.8125 6.75 25 C4.29827364 22.35485386 1.82869832 19.94012866 -0.9375 17.625 C-5.35583414 13.81191711 -9.44772132 9.63874689 -13 5 C-13 4.34 -13 3.68 -13 3 C-11.21189234 2.30329584 -9.41937948 1.61788811 -7.625 0.9375 C-6.62726563 0.55464844 -5.62953125 0.17179688 -4.6015625 -0.22265625 C-2 -1 -2 -1 0 0 Z " fill="#EEEFEF" transform="translate(399,900)"/>
<path d="M0 0 C0.66 0.33 1.32 0.66 2 1 C-5.59 8.59 -13.18 16.18 -21 24 C-21.66 23.67 -22.32 23.34 -23 23 C-7.7984375 5.7859375 -7.7984375 5.7859375 0 0 Z " fill="#565656" transform="translate(515,665)"/>
<path d="M0 0 C0.66 0.33 1.32 0.66 2 1 C-4.27 7.27 -10.54 13.54 -17 20 C-17.66 19.67 -18.32 19.34 -19 19 C-12.98348207 12.26459665 -7.02537494 5.71692402 0 0 Z " fill="#565656" transform="translate(1094,424)"/>
<path d="M0 0 C0.66 0.33 1.32 0.66 2 1 C-3.61 6.61 -9.22 12.22 -15 18 C-15.66 17.67 -16.32 17.34 -17 17 C-11.6749489 10.87372593 -6.27309565 5.16205691 0 0 Z " fill="#5D5D5D" transform="translate(587,773)"/>
<path d="M0 0 C0.66 0.33 1.32 0.66 2 1 C-3.28 6.28 -8.56 11.56 -14 17 C-14 12.08113186 -10.31173311 9.3948461 -7 6 C-4.72300284 3.91201998 -2.39497582 1.9550823 0 0 Z " fill="#5B5B5B" transform="translate(715,359)"/>
<path d="M0 0 C0.66 0.33 1.32 0.66 2 1 C-3.28 6.28 -8.56 11.56 -14 17 C-14 12.95607032 -12.51908749 11.99868382 -9.8125 9.0625 C-9.03519531 8.20785156 -8.25789063 7.35320313 -7.45703125 6.47265625 C-5.09786332 4.09848566 -2.65532732 2.0327639 0 0 Z " fill="#585858" transform="translate(317,576)"/>
<path d="M0 0 C0.66 0.33 1.32 0.66 2 1 C-2.95 5.95 -7.9 10.9 -13 16 C-13.66 15.67 -14.32 15.34 -15 15 C-10.28109462 9.59947495 -5.69641143 4.38185495 0 0 Z " fill="#575757" transform="translate(248,331)"/>
<path d="M0 0 C-1.58667578 3.90285767 -4.13350481 6.33520982 -7.125 9.25 C-8.03507812 10.14203125 -8.94515625 11.0340625 -9.8828125 11.953125 C-10.58148438 12.62859375 -11.28015625 13.3040625 -12 14 C-12 10.2814858 -11.14087832 9.68195394 -8.6875 7 C-7.76517578 5.9790625 -7.76517578 5.9790625 -6.82421875 4.9375 C-6.22222656 4.298125 -5.62023437 3.65875 -5 3 C-4.47019531 2.4225 -3.94039063 1.845 -3.39453125 1.25 C-2 0 -2 0 0 0 Z " fill="#515151" transform="translate(404,539)"/>
<path d="M0 0 C0.66 0.33 1.32 0.66 2 1 C-2.29 5.29 -6.58 9.58 -11 14 C-11.66 13.67 -12.32 13.34 -13 13 C-8.96476648 8.18876004 -4.95532767 3.86757281 0 0 Z " fill="#646464" transform="translate(121,367)"/>
<path d="M0 0 C0.66 0.33 1.32 0.66 2 1 C-1.96 4.96 -5.92 8.92 -10 13 C-10.66 12.67 -11.32 12.34 -12 12 C-8.27653164 7.57905197 -4.70478962 3.42166518 0 0 Z " fill="#464647" transform="translate(487,487)"/>
<path d="M0 0 C5.28 0 10.56 0 16 0 C14.515 1.485 14.515 1.485 13 3 C13 3.66 13 4.32 13 5 C12.01 5 11.02 5 10 5 C10 4.34 10 3.68 10 3 C6.7 2.34 3.4 1.68 0 1 C0 0.67 0 0.34 0 0 Z " fill="#040609" transform="translate(991,1171)"/>
<path d="M0 0 C0.66 0.33 1.32 0.66 2 1 C-2.62 5.62 -7.24 10.24 -12 15 C-12 10.09687565 -8.29800369 7.38658643 -5 4 C-3.37458956 2.61667196 -1.72614587 1.25537882 0 0 Z " fill="#646564" transform="translate(831,419)"/>
<path d="M0 0 C1.1446875 0.3403125 1.1446875 0.3403125 2.3125 0.6875 C1.77625 0.914375 1.24 1.14125 0.6875 1.375 C-2.47250863 3.12132056 -4.9551983 5.3277849 -7.6875 7.6875 C-4.79076087 -0.55706522 -4.79076087 -0.55706522 0 0 Z " fill="#6C6C6C" transform="translate(187.6875,682.3125)"/>
<path d="M0 0 C0.928125 0.0825 1.85625 0.165 2.8125 0.25 C2.214375 0.518125 1.61625 0.78625 1 1.0625 C-1.25354393 2.28585242 -2.61608036 3.22960332 -4.1875 5.25 C-4.90947162 7.85611077 -4.90947162 7.85611077 -5.1875 10.25 C-5.5175 10.25 -5.8475 10.25 -6.1875 10.25 C-6.40681821 7.03333296 -6.45578383 4.81637697 -5.0625 1.875 C-3.1875 0.25 -3.1875 0.25 0 0 Z " fill="#717171" transform="translate(1290.1875,811.75)"/>
<path d="M0 0 C0.99 0.33 1.98 0.66 3 1 C0.69 3.31 -1.62 5.62 -4 8 C-4 4.09161134 -2.49432124 2.88405893 0 0 Z " fill="#595A5A" transform="translate(1219,495)"/>
</svg>
