<?xml version="1.0" standalone="no"?>
<!DOCTYPE svg PUBLIC "-//W3C//DTD SVG 20010904//EN"
 "http://www.w3.org/TR/2001/REC-SVG-20010904/DTD/svg10.dtd">
<svg version="1.0" xmlns="http://www.w3.org/2000/svg"
 width="1608.000000pt" height="1608.000000pt" viewBox="0 0 1608.000000 1608.000000"
 preserveAspectRatio="xMidYMid meet">

<g transform="translate(0.000000,1608.000000) scale(0.100000,-0.100000)"
fill="#000000" stroke="none">
<path d="M6606 15703 c-95 -20 -173 -53 -256 -108 -122 -81 -195 -181 -220
-298 -11 -53 -14 -58 -33 -53 -122 36 -310 47 -427 26 -260 -47 -506 -200
-731 -456 -116 -132 -159 -159 -251 -159 -45 0 -68 -4 -68 -12 0 -22 60 -62
106 -69 49 -7 184 0 223 12 21 6 22 5 12 -14 -20 -37 -108 -117 -161 -146 -28
-15 -100 -41 -160 -56 -59 -16 -136 -43 -170 -60 -115 -58 -196 -164 -219
-285 -9 -48 -6 -75 9 -75 4 0 26 30 48 68 91 153 149 193 351 243 196 48 272
95 390 242 83 104 144 161 256 242 206 149 385 203 579 176 157 -22 249 -67
399 -194 90 -77 145 -111 205 -127 l43 -11 -35 -41 c-20 -23 -43 -61 -52 -85
-9 -23 -21 -43 -26 -43 -29 0 -118 62 -222 154 -184 163 -329 229 -506 229
-257 1 -476 -153 -559 -392 l-27 -76 -65 -33 c-45 -23 -103 -40 -193 -57 -258
-49 -351 -125 -418 -340 -36 -118 -57 -162 -100 -210 -40 -46 -81 -66 -193
-95 -239 -60 -350 -171 -350 -350 0 -107 32 -188 105 -261 30 -31 61 -58 69
-61 13 -4 12 -10 -2 -46 -24 -59 -22 -158 4 -226 11 -30 40 -77 65 -105 l44
-49 -40 -7 c-106 -18 -224 61 -256 171 -16 58 -15 77 11 162 6 17 3 22 -11 22
-37 0 -85 -45 -116 -109 -29 -57 -32 -73 -32 -150 0 -106 26 -177 87 -247 91
-103 220 -159 355 -152 70 3 71 3 50 -14 -63 -48 -145 -48 -303 0 -55 17 -128
36 -163 43 -180 34 -341 -46 -418 -210 -38 -80 -45 -211 -16 -308 39 -127 108
-204 238 -265 60 -28 79 -33 149 -33 89 0 146 21 174 64 l15 23 -51 -7 c-97
-13 -215 33 -260 102 -22 33 -21 109 1 151 22 42 71 72 118 72 28 0 52 -11
100 -45 198 -141 238 -159 363 -158 185 1 328 109 440 332 20 40 45 97 55 125
l19 51 0 -68 c1 -67 0 -71 -54 -152 -112 -167 -162 -276 -280 -609 -37 -105
-111 -287 -165 -405 -53 -119 -107 -245 -119 -280 -65 -190 -76 -327 -40 -514
13 -68 20 -135 17 -173 -5 -78 -29 -116 -197 -307 -178 -203 -204 -241 -346
-507 -80 -149 -133 -232 -274 -430 -162 -226 -202 -355 -149 -471 33 -72 71
-115 140 -160 94 -61 161 -73 351 -66 201 7 209 3 222 -118 9 -80 -7 -160 -50
-251 -47 -99 -51 -122 -29 -191 14 -45 30 -70 70 -108 l52 -50 -26 -50 c-34
-64 -41 -157 -17 -209 10 -21 36 -52 59 -69 88 -69 143 -133 165 -191 31 -85
28 -106 -30 -193 -59 -87 -121 -216 -138 -285 -16 -67 -14 -223 4 -293 59
-231 204 -360 490 -436 141 -37 220 -71 324 -138 182 -116 320 -174 691 -286
102 -31 189 -60 193 -64 10 -9 -98 -98 -206 -170 -99 -67 -277 -160 -487 -254
-466 -211 -627 -301 -895 -502 -224 -169 -254 -207 -319 -408 -24 -73 -55
-151 -68 -173 -27 -42 -84 -97 -218 -211 -146 -123 -442 -432 -544 -566 -88
-117 -14 -190 205 -204 159 -10 293 18 519 109 79 32 172 63 206 68 71 11 171
1 338 -35 265 -57 340 -47 597 84 l175 90 60 -25 c69 -28 94 -54 94 -99 0
-125 -129 -288 -440 -555 -238 -204 -309 -270 -403 -375 -110 -124 -183 -234
-327 -490 -124 -220 -209 -351 -424 -649 -166 -229 -200 -289 -200 -361 -1
-49 0 -50 30 -53 38 -4 74 29 125 115 20 32 111 159 202 282 200 267 268 369
377 561 142 250 189 328 249 407 72 95 292 311 460 453 68 58 139 118 158 134
34 28 34 28 29 5 -10 -45 -25 -144 -31 -210 -7 -70 4 -95 31 -68 20 21 65 202
72 295 7 81 8 84 57 143 27 33 50 59 51 58 1 -1 -9 -91 -23 -199 l-24 -198
-57 -54 c-31 -29 -97 -88 -145 -132 -101 -90 -147 -152 -147 -201 0 -38 29
-73 62 -73 17 0 0 -22 -78 -102 -209 -216 -387 -465 -566 -793 -129 -236 -170
-349 -136 -383 37 -37 83 7 168 164 242 451 394 674 669 983 56 62 109 126
118 142 13 21 52 44 162 95 80 37 190 82 243 100 90 31 345 90 353 83 1 -2
-32 -48 -74 -101 -172 -218 -321 -441 -483 -723 -101 -176 -374 -703 -382
-738 -5 -21 -1 -33 18 -52 27 -27 42 -30 80 -16 19 8 53 66 160 278 294 582
455 848 737 1219 l138 181 83 42 c46 22 135 81 198 131 64 50 159 113 212 141
99 50 267 111 347 124 l43 7 -28 -48 c-219 -382 -424 -653 -819 -1084 -313
-340 -389 -440 -573 -746 -109 -182 -128 -224 -113 -253 18 -32 46 -43 76 -29
27 12 45 38 211 298 125 196 242 351 386 511 62 70 171 191 242 270 302 337
530 659 679 960 l72 146 84 16 c47 9 86 15 89 13 6 -7 -142 -288 -208 -395
-73 -116 -225 -320 -412 -553 -153 -190 -238 -311 -336 -477 -132 -225 -312
-613 -312 -674 0 -27 32 -57 60 -57 28 0 55 41 126 190 196 417 326 625 609
980 318 399 467 635 575 914 23 60 41 91 55 96 23 8 236 42 241 38 1 -2 -32
-41 -73 -88 -145 -164 -287 -358 -382 -525 -58 -101 -64 -131 -26 -141 34 -8
42 0 127 124 132 194 284 388 456 579 l73 81 72 12 c40 6 87 15 105 20 17 5
32 8 32 7 0 -1 -57 -61 -127 -132 -195 -199 -411 -476 -521 -668 -50 -88 -55
-110 -26 -121 19 -7 45 21 177 188 199 253 354 433 515 598 l163 167 72 16
c40 9 81 18 92 22 10 3 -51 -68 -137 -158 -263 -275 -472 -531 -593 -724 -58
-93 -66 -130 -28 -130 15 0 55 41 144 150 240 293 424 499 677 757 l154 156
84 26 c46 15 92 30 102 33 9 4 -55 -68 -143 -158 -308 -317 -669 -764 -840
-1039 -54 -87 -65 -122 -45 -135 16 -10 34 6 111 100 124 153 538 645 622 740
44 50 182 199 306 333 215 232 229 245 308 286 46 24 83 42 83 41 0 -1 -44
-47 -98 -102 -211 -216 -424 -471 -558 -669 l-78 -114 21 -21 c29 -30 41 -20
185 151 448 529 666 750 1016 1031 97 79 242 198 322 265 564 471 1021 713
1568 828 456 96 874 130 1132 91 172 -25 364 -83 438 -131 25 -16 31 -50 7
-40 -130 50 -469 96 -700 96 -375 0 -708 -60 -1120 -200 -895 -305 -1595 -849
-2761 -2145 -396 -440 -663 -817 -880 -1242 -132 -260 -170 -379 -129 -413 32
-27 52 -1 148 193 254 511 512 881 976 1402 762 855 1415 1436 1975 1759 664
383 1407 567 2042 505 129 -12 368 -59 475 -92 78 -24 176 -86 234 -146 l29
-31 -59 20 c-150 52 -479 118 -704 140 -157 15 -433 13 -537 -5 -105 -19 -148
-40 -152 -77 -5 -42 24 -52 121 -39 115 16 419 13 577 -4 123 -14 383 -54 470
-74 26 -5 -3 -9 -106 -14 -499 -25 -964 -157 -1329 -378 -132 -79 -166 -125
-111 -150 21 -10 45 -2 182 61 87 40 203 90 258 111 l100 39 170 0 c483 0 802
-77 1359 -325 204 -91 323 -153 637 -330 148 -83 161 -92 280 -213 79 -80 185
-172 287 -250 230 -174 368 -309 449 -437 26 -40 10 -30 -111 75 -273 236
-678 566 -800 654 -341 246 -965 534 -1385 641 -196 50 -307 66 -500 72 -102
3 -200 1 -219 -4 -41 -10 -61 -37 -44 -54 7 -7 92 -20 190 -30 220 -23 335
-42 483 -79 265 -67 543 -172 847 -320 309 -150 460 -243 714 -441 210 -162
768 -631 926 -776 38 -35 69 -97 131 -263 3 -8 -17 12 -45 45 -204 242 -856
776 -1313 1074 -149 97 -203 126 -223 118 -57 -22 6 -82 348 -337 610 -454
984 -778 1184 -1025 165 -204 189 -243 267 -436 81 -201 111 -259 148 -279 23
-12 28 -11 47 6 19 17 21 26 16 84 -3 37 -23 116 -46 183 -48 137 -273 703
-356 892 -151 348 -268 492 -600 740 -270 201 -368 310 -650 716 -196 283
-310 387 -561 512 -110 55 -111 56 -151 124 -63 104 -95 140 -211 238 l-107
91 2 54 c8 182 10 169 -40 270 -25 52 -62 124 -81 160 -19 36 -48 119 -65 185
-61 236 -124 317 -330 424 -152 79 -189 115 -249 241 -24 52 -60 128 -79 169
-46 96 -122 172 -232 231 -64 34 -87 52 -99 78 -16 33 -16 34 36 135 69 135
76 173 61 311 l-12 111 51 95 c66 124 86 194 80 280 -8 106 -72 205 -151 233
-27 9 -29 13 -23 46 3 20 6 56 6 81 l0 45 61 28 c79 37 187 139 228 216 43 81
71 197 71 294 0 79 0 80 41 124 89 97 136 264 126 448 -5 76 -3 105 4 95 31
-46 50 -97 58 -156 6 -37 14 -71 18 -75 30 -30 109 85 139 201 22 86 13 167
-33 289 l-35 95 22 50 c67 151 73 177 73 281 0 77 -6 119 -25 183 -14 45 -21
85 -17 88 16 9 75 118 103 188 15 38 34 117 43 175 26 174 0 311 -97 518 -61
129 -100 230 -100 258 0 18 24 50 88 113 135 134 195 268 196 432 0 105 -28
202 -82 285 -44 69 -119 139 -168 157 -27 9 -36 21 -49 56 -8 25 -26 59 -39
77 -24 31 -25 35 -14 97 29 176 -87 402 -245 477 -34 16 -79 32 -99 36 -42 8
-41 7 -54 140 -18 195 -117 400 -263 545 l-66 65 -1 85 c-3 235 -168 437 -490
598 -75 38 -83 45 -120 108 -50 85 -126 162 -202 202 -51 27 -64 40 -88 87
-36 72 -151 182 -233 223 -125 62 -240 66 -394 13 -82 -29 -92 -31 -165 -22
-118 13 -214 -5 -294 -56 -21 -13 -40 -23 -43 -23 -3 0 -30 26 -60 59 -40 43
-80 72 -152 110 -107 56 -109 57 -229 256 -122 203 -301 293 -520 264 l-85
-11 -45 39 c-75 63 -176 133 -230 160 -43 22 -52 32 -67 73 -34 96 -152 194
-272 225 -104 26 -195 18 -311 -31 l-62 -25 -54 34 c-111 72 -244 114 -387
124 -68 5 -92 11 -116 29 -77 58 -236 105 -352 103 -32 0 -89 -7 -127 -16z
m304 -138 l55 -18 -50 -17 c-27 -10 -81 -32 -120 -50 -38 -18 -97 -40 -130
-50 -86 -25 -140 -55 -190 -105 -40 -39 -102 -141 -93 -151 3 -2 24 17 48 42
53 56 114 88 228 118 49 13 126 40 173 61 307 135 565 86 859 -165 81 -69 81
-69 205 -63 84 4 130 2 188 -11 92 -21 239 -91 328 -157 132 -98 289 -281 441
-514 103 -158 149 -213 253 -300 141 -118 166 -162 145 -258 -16 -77 -29 -86
-51 -37 -27 60 -60 99 -148 174 -99 85 -146 145 -247 315 -87 147 -165 239
-258 305 -138 98 -213 122 -445 142 -95 8 -220 24 -278 35 -58 11 -108 18
-111 15 -9 -9 20 -36 59 -56 59 -31 173 -59 329 -81 241 -34 326 -73 460 -208
70 -71 97 -108 154 -211 87 -158 131 -215 255 -330 108 -99 138 -145 147 -226
l6 -49 -46 -32 c-26 -18 -48 -33 -49 -33 -2 0 -4 16 -5 36 -4 57 -40 139 -81
185 -21 24 -73 71 -115 103 -47 38 -110 102 -166 172 -50 62 -113 133 -141
158 -78 70 -205 129 -360 166 -131 31 -135 33 -161 71 -35 50 -134 123 -223
165 -109 52 -184 68 -320 69 -140 0 -219 -20 -324 -82 -175 -104 -260 -263
-249 -467 2 -47 2 -86 -1 -86 -3 0 -28 17 -55 38 -74 56 -91 96 -91 218 0 96
2 104 37 176 69 139 218 248 387 283 38 8 143 19 233 24 90 5 171 12 181 16
70 29 -76 60 -273 58 -201 -1 -323 -41 -484 -159 -85 -62 -90 -62 -101 8 -13
75 48 159 154 213 88 44 185 65 303 65 97 0 128 -5 306 -51 223 -58 320 -65
428 -34 110 32 110 61 0 51 -103 -10 -210 8 -367 59 -197 64 -259 77 -379 77
-337 -1 -591 -201 -530 -417 15 -54 9 -63 -26 -45 -43 24 -67 84 -62 155 12
145 124 266 319 343 193 77 359 81 577 16 102 -31 128 -29 92 4 -36 34 -138
80 -226 102 -275 71 -653 -47 -791 -247 -20 -29 -40 -53 -43 -53 -4 0 -14 7
-21 16 -17 21 -112 85 -168 113 l-44 23 6 54 c14 138 152 269 342 326 76 22
243 19 325 -7z m1130 -183 c54 -21 170 -105 177 -129 3 -7 -19 -4 -59 10 -50
16 -91 21 -200 22 l-136 2 -52 43 c-28 23 -47 47 -43 51 34 34 226 34 313 1z
m-1983 -238 c51 -12 132 -41 180 -64 104 -49 215 -119 207 -131 -14 -23 -4
-150 15 -193 11 -26 18 -46 15 -46 -3 0 -47 40 -98 88 -107 102 -162 143 -249
182 -107 48 -190 64 -322 64 -198 -1 -333 -46 -520 -172 -60 -41 -157 -100
-215 -130 -99 -53 -103 -55 -83 -26 44 61 225 226 309 281 255 165 499 213
761 147z m2818 -269 c121 -32 189 -97 291 -281 70 -125 132 -190 222 -231 170
-77 251 -222 252 -445 0 -90 9 -107 36 -70 12 16 14 16 36 -5 34 -33 46 -29
58 20 36 134 119 236 226 277 77 30 207 33 312 6 40 -10 76 -16 79 -13 14 15
-11 38 -74 69 -66 32 -71 33 -193 33 -106 0 -133 -4 -181 -23 -66 -26 -141
-89 -179 -149 l-27 -43 -6 73 c-6 86 2 104 70 144 50 29 72 31 253 24 64 -3
90 1 166 28 50 17 110 31 132 31 95 0 205 -55 297 -149 l39 -41 -75 0 c-47 0
-82 -5 -94 -13 -23 -18 -17 -21 92 -53 206 -59 318 -143 402 -301 24 -45 68
-110 97 -145 135 -157 171 -322 117 -535 l-16 -65 -31 7 c-17 3 -55 9 -83 12
-29 3 -53 9 -53 13 0 4 7 24 15 44 44 106 39 254 -14 370 -70 155 -294 372
-431 419 -26 9 -66 36 -96 65 -30 28 -85 66 -130 88 -73 37 -84 39 -168 39
-79 0 -98 -4 -148 -28 -52 -26 -158 -125 -158 -148 0 -5 -18 -16 -40 -25 -27
-11 -42 -24 -46 -40 -10 -38 10 -51 84 -56 120 -6 250 -95 315 -216 37 -67 60
-181 51 -247 -14 -106 -38 -147 -164 -280 -166 -175 -182 -210 -209 -463 -16
-152 -60 -227 -179 -305 -81 -53 -96 -70 -87 -97 12 -39 117 -15 214 49 30 20
82 53 115 74 34 21 81 55 106 75 l45 37 -34 -60 c-136 -243 -335 -376 -608
-407 -91 -11 -121 -9 -290 12 -251 33 -381 32 -488 -3 -123 -41 -295 -153
-295 -193 0 -22 21 -17 114 26 208 95 305 106 596 65 334 -47 495 -33 685 60
199 97 322 228 436 465 78 161 92 189 155 306 86 159 118 287 119 474 0 74 -4
144 -8 154 -14 36 -28 1 -38 -100 -25 -252 -99 -427 -247 -586 -62 -66 -222
-196 -222 -181 0 4 5 24 10 43 6 19 15 85 20 145 15 156 32 189 180 341 95 97
128 138 150 187 31 69 50 148 50 205 0 61 -28 171 -59 239 -32 67 -120 168
-178 204 -43 27 -42 39 5 32 168 -23 372 -241 448 -477 31 -98 41 -214 25
-294 -6 -33 -30 -109 -53 -169 l-42 -108 -6 -190 c-6 -179 -8 -194 -34 -259
-39 -95 -91 -181 -165 -276 -189 -239 -421 -368 -721 -402 -105 -11 -142 -10
-415 15 -11 1 -21 -5 -23 -14 -2 -12 15 -21 70 -37 313 -93 636 -53 889 109
172 111 358 325 444 513 56 120 67 175 74 366 l7 175 42 104 c74 179 78 326
16 516 -16 47 -29 117 -33 170 -5 61 -15 110 -33 152 -20 50 -22 61 -9 54 70
-38 256 -257 303 -357 38 -81 46 -175 24 -264 -24 -96 -80 -203 -126 -243 -24
-21 -40 -43 -40 -56 0 -12 -11 -37 -24 -54 -57 -76 -74 -192 -45 -305 11 -43
10 -62 -6 -133 -51 -236 -159 -425 -354 -620 -246 -245 -509 -375 -828 -410
-190 -20 -359 -1 -658 75 -93 24 -202 47 -240 51 -91 9 -204 -7 -325 -46 -129
-42 -195 -38 -386 24 -185 60 -248 70 -402 65 -96 -4 -142 -10 -191 -27 -35
-12 -66 -20 -69 -17 -11 12 32 98 70 136 22 23 70 56 106 73 60 29 76 32 157
31 78 0 104 -5 195 -38 263 -95 279 -99 402 -104 88 -3 135 0 195 13 100 22
333 102 356 123 49 43 -2 41 -248 -14 -118 -27 -183 -36 -250 -36 -113 1 -139
7 -355 82 -137 48 -192 62 -255 67 -168 12 -332 -64 -389 -179 l-26 -52 0 35
c1 77 64 173 153 230 116 75 216 87 416 50 228 -42 310 -28 516 89 241 136
339 151 595 93 170 -39 246 -47 339 -33 192 27 336 115 438 265 43 64 80 180
93 297 16 131 36 212 72 291 46 100 18 106 -55 11 -49 -65 -82 -153 -112 -299
-15 -74 -37 -145 -57 -185 -84 -172 -283 -279 -491 -266 -48 3 -138 17 -200
31 -288 66 -400 52 -641 -81 -218 -121 -266 -130 -476 -94 -269 46 -429 11
-566 -126 -85 -84 -126 -170 -132 -274 -4 -73 2 -106 33 -181 4 -12 -4 -23
-28 -38 -19 -11 -37 -21 -41 -21 -4 0 -19 26 -34 58 -25 53 -27 66 -27 198 l0
140 37 76 c69 138 205 240 368 274 59 12 105 14 213 9 142 -7 166 0 109 29
-92 48 -266 62 -382 31 -166 -43 -320 -157 -380 -279 -33 -67 -59 -154 -61
-201 0 -26 -2 -27 -9 -10 -14 32 -11 175 5 243 21 88 59 157 119 217 68 68
133 105 231 131 52 13 80 26 80 35 0 11 -18 14 -80 14 -72 -1 -89 -5 -158 -38
-147 -69 -248 -200 -283 -367 -21 -97 -14 -239 16 -334 18 -56 19 -71 8 -77
-42 -24 -100 -73 -131 -111 -53 -64 -78 -128 -84 -215 -5 -62 -11 -83 -37
-121 -43 -65 -117 -102 -200 -102 -75 0 -105 14 -49 23 58 10 110 58 128 119
8 29 15 74 15 101 0 48 1 50 90 136 69 68 97 103 122 157 l33 69 -3 201 c-2
162 0 214 13 265 37 142 137 279 243 333 93 47 163 59 295 52 131 -7 143 0 71
41 -85 49 -269 67 -355 35 -16 -6 -35 -4 -65 10 -141 62 -373 10 -493 -110
-69 -70 -95 -130 -96 -223 0 -68 4 -84 36 -146 39 -77 39 -106 -3 -150 -53
-56 -116 -69 -227 -47 -45 9 -85 13 -89 10 -11 -12 13 -40 63 -71 86 -53 220
-45 292 18 59 52 83 116 83 224 0 87 2 96 39 167 39 75 40 103 4 92 -27 -9
-46 -31 -77 -91 l-25 -50 -1 45 c0 54 41 133 92 175 72 61 209 105 323 105
l40 -1 -40 -31 c-70 -56 -122 -116 -159 -188 -47 -89 -63 -135 -87 -249 -25
-121 -50 -171 -121 -236 -67 -62 -125 -85 -215 -85 -75 0 -122 17 -174 65 -61
55 -84 42 -49 -29 21 -44 57 -78 115 -109 l30 -16 -35 -1 c-105 -1 -176 56
-205 164 -15 57 -16 71 -5 112 16 55 64 110 106 119 88 20 132 38 161 65 l33
31 -27 52 c-19 38 -27 72 -31 127 -6 97 19 160 88 224 55 51 97 75 195 107 63
21 90 23 270 25 110 1 202 5 204 10 7 16 -52 42 -131 58 -289 59 -593 -48
-694 -245 -20 -41 -29 -75 -34 -139 l-6 -85 -18 58 c-35 114 7 242 117 352
102 102 232 155 420 170 133 11 107 49 -43 62 -207 18 -461 -111 -549 -277
-21 -40 -34 -50 -110 -88 -147 -71 -242 -176 -282 -309 -8 -30 -23 -50 -49
-68 -109 -75 -218 -38 -255 88 -21 71 -20 80 8 70 12 -4 52 -8 89 -7 54 1 80
7 131 32 86 43 140 92 249 230 51 64 115 139 143 165 63 61 189 145 235 156
19 5 69 20 110 32 86 27 212 30 398 9 277 -31 408 -88 675 -296 217 -170 408
-280 574 -331 81 -25 102 -27 263 -27 162 -1 183 1 274 27 145 40 266 106 266
144 0 17 1 17 -120 -16 -385 -107 -659 -70 -960 132 -78 52 -266 197 -256 197
4 0 46 -20 94 -44 230 -115 379 -165 512 -173 122 -6 206 11 336 70 54 25 117
50 139 56 61 16 152 13 261 -9 206 -43 351 -19 464 77 64 53 112 158 82 177
-5 3 -29 -15 -53 -40 -60 -62 -123 -100 -194 -119 -82 -21 -128 -19 -274 11
-100 21 -145 25 -216 22 -93 -5 -115 -12 -325 -104 -60 -26 -75 -29 -190 -29
-120 0 -130 2 -237 39 -113 40 -138 56 -85 56 72 0 182 48 348 149 176 109
237 115 416 38 143 -61 191 -71 334 -64 94 4 135 10 194 31 105 37 248 109
294 147 99 83 161 249 161 429 -1 83 -4 101 -27 145 -14 28 -39 62 -55 77 -30
29 -107 67 -135 68 -13 0 -18 8 -18 30 0 29 1 30 50 30 66 0 109 -19 168 -74
90 -84 137 -233 114 -361 -5 -33 -8 -62 -6 -64 10 -10 35 12 53 47 72 141 40
333 -75 453 l-45 45 17 65 c20 79 14 170 -17 254 -23 62 -29 68 -240 270 -46
44 -113 122 -149 174 -124 177 -124 179 -128 155 -5 -35 55 -176 110 -261 32
-49 96 -122 174 -198 152 -148 168 -178 169 -312 0 -50 -2 -94 -6 -97 -3 -3
-21 -3 -40 0 l-34 6 0 101 c0 92 -3 106 -27 147 -14 25 -81 97 -148 159 -105
99 -135 134 -218 260 -53 80 -129 189 -169 242 -40 53 -73 99 -73 103 0 12 96
6 155 -9z m-3035 -204 c97 -30 173 -81 301 -197 80 -74 135 -116 185 -141 l72
-35 7 -71 c3 -40 15 -97 25 -127 10 -30 17 -56 16 -58 -2 -1 -50 55 -107 125
-188 231 -297 322 -442 368 -87 28 -215 34 -309 14 -90 -19 -192 -74 -267
-144 -54 -52 -78 -84 -116 -160 -38 -76 -58 -103 -98 -135 -54 -43 -53 -43
-167 -61 -159 -24 -213 -60 -313 -204 -55 -79 -132 -155 -158 -155 -5 0 0 15
11 33 11 17 32 68 46 112 63 198 124 250 355 298 140 30 196 55 268 123 48 44
54 54 42 67 -11 14 -7 27 26 89 47 90 136 182 218 224 53 27 78 36 170 58 40
10 171 -3 235 -23z m1786 -16 c73 -19 207 -84 254 -125 l35 -29 -65 -1 c-152
-1 -274 -38 -352 -109 -87 -78 -120 -188 -83 -278 20 -47 20 -46 -22 -38 -84
15 -159 77 -183 151 -27 80 23 189 120 262 74 55 81 62 74 73 -9 15 -68 2
-123 -26 -142 -73 -210 -248 -147 -380 46 -96 135 -158 258 -179 l73 -13 -60
-13 c-194 -41 -355 43 -406 213 -47 154 7 310 143 412 129 97 303 126 484 80z
m-983 -157 c-4 -18 -8 -71 -7 -118 0 -97 27 -172 82 -227 44 -44 115 -76 157
-71 30 3 36 0 46 -25 54 -130 218 -227 383 -227 130 0 220 32 373 133 207 138
395 158 599 67 161 -72 296 -206 358 -355 l17 -39 -65 62 c-76 73 -176 125
-286 148 -172 36 -349 -18 -555 -170 -49 -37 -115 -76 -145 -88 -76 -29 -191
-34 -316 -14 -127 20 -194 20 -269 0 -73 -18 -119 -44 -123 -68 -4 -17 1 -18
44 -12 140 20 198 18 324 -8 244 -51 362 -26 557 115 156 113 305 162 431 141
84 -14 177 -60 239 -117 l48 -45 -66 30 c-84 39 -157 51 -233 39 -88 -15 -125
-39 -261 -169 -133 -127 -192 -164 -315 -197 -105 -29 -327 -24 -515 11 -374
70 -494 119 -756 307 -178 129 -287 179 -385 179 -26 0 -37 7 -54 36 -44 70
-186 155 -315 189 -75 19 -214 19 -288 0 -174 -45 -317 -179 -317 -297 0 -52
23 -50 39 3 25 83 149 172 283 204 81 19 188 19 263 0 63 -16 203 -81 244
-114 l24 -19 -53 -11 c-29 -6 -73 -20 -98 -31 l-44 -20 -30 25 c-68 57 -253
83 -364 50 -105 -31 -191 -111 -215 -197 l-10 -40 -32 25 c-56 43 -78 92 -75
168 5 103 37 145 183 247 136 95 207 134 286 155 128 36 219 30 360 -24 94
-36 190 -102 321 -220 176 -157 265 -217 378 -255 77 -26 219 -24 330 4 120
31 175 28 315 -14 148 -46 261 -51 336 -18 71 33 154 114 131 128 -5 3 -38 -9
-73 -26 -47 -22 -84 -32 -136 -36 -66 -4 -82 -1 -220 47 -174 59 -223 63 -373
30 -228 -50 -344 -5 -620 242 -175 155 -289 222 -451 263 -117 29 -304 15
-389 -29 -50 -26 -35 2 39 76 145 145 328 183 524 109 84 -32 169 -100 272
-220 157 -184 232 -253 315 -293 157 -75 308 -94 397 -50 68 33 56 48 -50 60
-113 13 -165 37 -229 105 -85 90 -110 212 -67 340 32 100 125 213 102 126z
m1307 -114 c19 -3 45 -8 58 -11 16 -4 22 -1 22 12 0 19 14 17 150 -22 181 -52
263 -108 396 -274 65 -81 122 -140 191 -195 79 -64 103 -90 128 -138 28 -56
30 -67 30 -170 0 -169 -7 -196 -60 -234 -59 -42 -97 -97 -137 -198 -18 -47
-47 -102 -63 -121 -41 -47 -101 -54 -200 -24 -109 34 -180 37 -262 13 -63 -19
-103 -41 -294 -159 -94 -59 -149 -76 -264 -80 -87 -4 -110 -1 -175 20 -73 24
-287 111 -296 119 -2 3 56 -3 128 -13 166 -23 360 -24 447 -4 86 21 212 81
288 139 35 26 96 86 136 134 40 47 87 94 104 105 75 44 197 38 297 -13 68 -35
76 -36 76 -14 0 39 -42 84 -108 116 -60 30 -75 33 -157 33 -153 0 -170 -9
-320 -160 -111 -113 -141 -138 -205 -169 -152 -73 -274 -83 -549 -47 -185 25
-268 26 -488 5 -353 -34 -538 -2 -764 132 -299 177 -513 246 -716 231 -40 -3
-73 -3 -73 -1 0 3 28 18 63 34 182 85 377 89 572 11 44 -18 145 -70 225 -116
248 -143 394 -199 506 -193 86 4 78 22 -21 53 -105 32 -189 75 -376 192 -222
140 -330 188 -478 217 l-66 13 40 18 c103 46 195 55 303 30 82 -20 157 -58
272 -142 264 -191 381 -242 700 -307 359 -73 466 -81 636 -46 172 36 247 80
409 245 122 124 174 156 266 163 119 9 228 -46 297 -152 40 -61 44 -65 68 -56
58 22 62 28 74 101 49 292 -203 611 -554 699 -147 37 -309 19 -445 -49 -72
-37 -75 -37 -61 -10 9 15 8 24 0 34 -10 12 -16 12 -43 -1 -43 -23 -125 -14
-149 16 -23 29 -23 51 2 99 59 116 224 167 440 135z m2397 -440 c82 -39 153
-110 201 -203 55 -104 49 -108 -34 -24 -63 63 -97 89 -167 123 -77 38 -98 44
-170 48 -59 3 -92 0 -118 -11 -58 -24 -66 -6 -16 40 86 79 178 88 304 27z
m-5427 7 c0 -5 -7 -14 -15 -21 -28 -23 -55 -118 -55 -193 0 -89 33 -166 86
-200 19 -12 34 -24 34 -27 0 -3 -28 -16 -61 -29 -51 -19 -66 -21 -87 -11 -26
11 -86 8 -333 -20 -256 -29 -413 -168 -414 -367 0 -46 -4 -73 -11 -73 -27 0
-95 64 -121 112 -21 42 -27 67 -28 120 0 58 4 72 30 109 43 60 106 91 305 149
292 85 350 121 454 280 66 100 103 136 166 163 42 18 50 20 50 8z m629 -256
c29 -7 56 -16 59 -20 3 -3 -9 -20 -26 -38 -26 -27 -44 -35 -103 -45 -40 -7
-108 -29 -153 -50 -78 -36 -83 -37 -135 -27 -30 6 -56 16 -58 22 -7 20 63 98
117 130 90 54 171 62 299 28z m3737 -106 c19 -11 43 -41 58 -71 36 -72 34 -89
-6 -50 -66 63 -182 93 -273 69 l-30 -7 30 26 c76 65 151 77 221 33z m2128 -90
c39 -37 87 -94 108 -128 34 -59 77 -185 66 -196 -3 -3 -31 7 -64 22 -32 14
-80 28 -106 31 l-48 5 0 56 c0 81 -24 179 -60 251 l-31 62 32 -19 c17 -10 64
-48 103 -84z m-2201 -45 c76 -39 110 -93 110 -175 -1 -60 -32 -146 -63 -174
-17 -16 -18 -15 -5 22 29 80 9 179 -46 230 -37 34 -93 53 -154 53 -63 0 -64 9
-7 40 46 24 122 26 165 4z m-4064 -18 c-2 -2 -33 -27 -69 -55 -155 -124 -228
-263 -218 -415 6 -89 33 -150 94 -216 40 -43 44 -50 26 -50 -45 0 -128 41
-169 82 -51 54 -69 88 -82 163 -36 198 99 397 319 472 57 20 111 30 99 19z
m-411 -87 c-104 -139 -129 -205 -129 -344 0 -162 65 -286 191 -365 l35 -22
-53 7 c-268 31 -379 275 -246 537 28 55 30 68 9 68 -27 0 -82 -59 -113 -122
-75 -152 -55 -344 48 -462 40 -45 31 -56 -41 -56 -58 0 -122 33 -163 84 -29
35 -31 44 -31 116 0 69 4 85 36 148 20 39 34 73 31 77 -15 14 -43 1 -76 -35
l-36 -40 -11 27 c-55 139 22 281 186 342 30 11 126 30 212 42 87 11 160 22
162 25 15 15 9 -1 -11 -27z m4354 -29 c115 -32 117 -168 4 -267 -57 -50 -125
-97 -131 -91 -3 3 13 33 35 67 45 70 48 81 21 81 -26 0 -112 -90 -140 -145
l-22 -45 -86 0 -86 0 26 20 c27 21 81 125 112 215 23 64 105 148 161 163 52
13 63 14 106 2z m-3537 -68 c27 -8 25 -9 -28 -15 -142 -14 -296 -142 -322
-266 -8 -39 -9 -101 -1 -139 4 -20 -1 -35 -20 -55 -31 -36 -58 -31 -115 20
-63 57 -83 105 -84 193 0 64 4 82 28 122 46 78 125 123 259 148 59 10 236 5
283 -8z m168 -108 c84 -19 155 -49 240 -101 33 -20 85 -47 115 -59 l54 -22
-43 -7 c-116 -19 -257 -89 -366 -181 -46 -39 -54 -43 -78 -34 -119 45 -299
-53 -374 -204 -54 -110 -72 -247 -45 -344 2 -9 -4 2 -15 24 -77 165 -30 401
110 549 98 104 203 140 378 129 94 -5 113 -4 109 7 -8 25 -68 58 -126 70 -118
24 -250 -4 -360 -77 l-55 -36 8 38 c15 80 83 176 150 212 50 26 138 51 183 51
24 1 75 -6 115 -15z m5705 -24 c133 -60 296 -211 369 -340 68 -121 113 -287
113 -418 0 -20 5 -54 10 -74 10 -35 14 -37 68 -48 109 -23 213 -89 258 -166
32 -55 64 -154 64 -200 0 -39 2 -39 -64 -19 -28 8 -63 17 -77 19 -24 5 -27 11
-32 66 -4 32 -16 79 -27 104 -56 118 -189 209 -264 180 -31 -12 -16 -33 54
-78 121 -79 179 -210 136 -308 -6 -13 0 -24 19 -40 135 -112 160 -164 152
-318 -4 -95 -5 -99 -89 -320 -9 -23 -11 -20 -34 44 -13 38 -36 99 -51 135 -22
55 -26 78 -23 136 14 259 -4 379 -78 520 -43 82 -176 225 -211 225 -34 0 -26
-28 43 -139 109 -176 142 -292 133 -474 -6 -127 -29 -213 -85 -321 -39 -74
-112 -161 -159 -188 -29 -17 -29 -17 22 85 60 121 93 246 102 384 8 130 -9
248 -57 398 -49 155 -57 235 -36 390 20 148 20 202 1 302 -32 170 -139 323
-269 384 -66 31 -75 44 -60 83 8 21 19 20 72 -4z m14 -209 c45 -41 68 -74 97
-135 59 -123 65 -164 55 -345 -4 -86 -8 -185 -7 -221 l2 -65 -25 30 c-14 17
-39 58 -56 93 -30 60 -32 73 -39 215 -4 84 -15 179 -24 212 -21 81 -66 172
-109 218 -30 33 -34 42 -26 63 l10 25 32 -18 c17 -10 58 -42 90 -72z m-7306
-21 c20 -22 21 -30 14 -70 -10 -55 1 -122 32 -184 21 -43 21 -47 5 -63 -16
-16 -19 -15 -53 17 -95 92 -120 239 -57 339 15 23 16 23 26 5 5 -10 20 -30 33
-44z m7030 30 c50 -25 114 -91 143 -149 31 -59 49 -152 53 -274 l5 -108 -57
56 -57 57 -6 79 c-9 107 -45 205 -106 290 -56 76 -51 85 25 49z m-158 -65 c28
-30 62 -80 77 -110 46 -99 49 -252 7 -349 -26 -58 -85 -147 -77 -116 14 57 17
232 6 307 -14 84 -50 185 -88 246 -23 37 -24 40 -7 58 9 10 20 19 25 19 4 0
30 -25 57 -55z m-4811 14 c-32 -16 -90 -41 -130 -55 -135 -49 -187 -89 -319
-252 -102 -126 -171 -187 -248 -221 -54 -23 -130 -36 -160 -26 -21 7 -22 12
-17 65 3 31 10 67 16 79 11 20 14 20 34 6 12 -9 43 -15 72 -15 82 0 135 34
272 174 156 159 265 226 428 261 103 23 118 18 52 -16z m4695 -145 c64 -189
49 -422 -49 -719 -53 -163 -125 -266 -243 -346 -90 -61 -49 -82 58 -29 75 38
175 142 217 226 16 32 42 93 57 134 l27 75 0 -76 c2 -152 -40 -270 -124 -354
-116 -116 -251 -160 -460 -148 l-103 6 56 42 c32 24 100 87 153 141 294 304
412 628 359 993 -11 79 -5 144 14 138 6 -2 23 -39 38 -83z m-5282 -69 c0 -12
-86 -98 -111 -111 -34 -17 -95 -18 -105 -2 -10 16 75 92 118 105 35 12 98 16
98 8z m-526 -102 c-8 -27 -17 -80 -21 -119 l-6 -71 -58 -18 c-79 -23 -139 -78
-181 -163 -28 -57 -33 -76 -33 -142 0 -61 5 -85 27 -130 29 -60 66 -100 113
-124 29 -16 29 -16 5 -16 -66 1 -158 67 -197 144 -38 73 -44 207 -14 298 29
87 89 175 170 250 59 54 182 138 202 138 4 0 1 -21 -7 -47z m-438 -14 l45 -12
-53 -30 c-73 -41 -150 -123 -233 -248 -91 -135 -194 -241 -271 -276 -83 -38
-191 -42 -349 -13 -169 31 -240 18 -329 -61 -49 -42 -96 -140 -96 -198 0 -64
-15 -41 -35 53 -23 114 -8 185 57 268 63 80 176 101 328 58 207 -57 233 -62
305 -58 141 9 237 86 354 285 65 110 184 243 217 243 8 0 35 -5 60 -11z m-280
-18 l53 -6 -92 -78 c-126 -107 -160 -122 -272 -122 -76 0 -99 4 -145 26 -71
33 -119 75 -149 130 l-24 44 44 -41 c73 -69 100 -79 214 -79 118 0 164 18 249
96 28 26 55 45 60 42 5 -3 33 -9 62 -12z m6908 -184 c84 -135 120 -284 104
-434 -15 -149 -87 -300 -192 -403 -47 -45 -57 -41 -37 14 15 38 42 232 35 250
-3 9 -11 16 -18 16 -19 0 -113 -198 -151 -315 -43 -137 -92 -220 -174 -298
-160 -149 -356 -173 -584 -72 -45 21 -120 51 -167 68 -117 43 -220 43 -420 0
-80 -17 -170 -34 -201 -38 -31 -4 -62 -11 -70 -16 -23 -16 14 -36 79 -43 57
-6 84 -3 303 29 106 16 124 16 191 2 41 -8 123 -37 183 -65 130 -58 186 -77
279 -93 81 -14 202 -7 264 15 24 9 42 11 42 5 0 -20 -60 -140 -100 -200 -65
-98 -232 -256 -322 -307 -143 -81 -319 -125 -380 -95 -28 14 -34 12 -151 -46
-148 -73 -224 -95 -337 -94 -122 0 -193 22 -385 118 -223 111 -267 126 -390
132 -86 4 -120 0 -243 -26 -89 -19 -168 -31 -210 -30 l-67 2 70 8 c105 14 166
34 304 104 255 127 321 127 626 -3 249 -107 349 -132 520 -132 170 0 319 43
456 131 102 66 209 184 209 232 0 30 -31 19 -99 -36 -134 -109 -216 -154 -343
-191 -218 -63 -398 -37 -702 99 -183 82 -273 107 -381 107 -109 0 -170 -19
-335 -103 -151 -77 -191 -88 -303 -89 -110 0 -187 22 -355 105 -248 121 -317
137 -595 136 -220 -1 -231 2 -284 63 -58 65 -62 130 -16 219 57 111 287 258
479 307 93 24 251 26 339 6 33 -8 119 -34 190 -57 93 -30 153 -43 212 -47 75
-4 93 -1 205 34 114 36 131 39 243 39 114 0 129 -3 285 -48 259 -75 366 -90
600 -84 202 5 229 10 405 67 l71 23 104 -37 c269 -95 281 -99 390 -104 62 -2
129 0 162 7 114 24 225 97 309 204 67 84 43 92 -51 16 -130 -104 -242 -143
-394 -137 -89 3 -119 10 -248 53 -81 28 -147 53 -148 57 -1 22 94 30 275 23
153 -5 204 -4 264 9 148 31 288 124 370 246 67 100 81 154 92 335 l10 160 67
137 c37 75 68 137 69 137 1 1 22 -32 47 -72z m-5304 14 c0 -17 -5 -33 -10 -36
-6 -4 -22 -30 -37 -58 -37 -74 -43 -168 -14 -226 l22 -42 -25 -29 c-13 -16
-30 -45 -36 -65 -6 -19 -17 -35 -24 -35 -26 0 -64 40 -86 92 -42 98 -15 228
66 318 38 42 122 109 137 110 4 0 7 -13 7 -29z m-881 -141 c25 -98 119 -213
205 -250 97 -42 184 -37 271 15 32 19 59 35 60 35 2 0 6 -18 10 -39 8 -50 53
-121 96 -154 19 -14 55 -31 82 -37 41 -11 47 -16 47 -39 0 -14 11 -49 24 -77
56 -120 162 -188 291 -187 75 1 141 20 189 56 17 12 66 39 108 60 53 26 90 53
122 88 43 48 46 49 51 27 9 -35 -11 -144 -36 -195 -13 -27 -47 -66 -89 -101
-99 -84 -112 -107 -120 -208 -6 -75 -10 -88 -35 -114 -37 -39 -91 -40 -154 -5
-76 44 -84 24 -16 -42 25 -24 43 -43 41 -43 -2 0 -60 16 -128 36 -141 42 -276
54 -370 35 -186 -39 -332 -192 -345 -364 -6 -78 11 -150 35 -145 13 3 18 18
23 73 13 161 148 302 321 336 76 14 131 4 323 -59 162 -53 175 -56 275 -56 95
-1 110 2 162 27 33 16 76 49 103 79 25 27 45 44 45 37 0 -28 49 -118 85 -157
42 -47 39 -50 -54 -72 -75 -18 -309 -7 -426 20 -268 60 -463 23 -601 -114 -74
-75 -116 -157 -122 -238 -5 -70 10 -97 29 -52 66 159 125 237 220 289 100 54
195 66 346 43 l78 -12 -85 -17 c-164 -33 -263 -87 -363 -199 -150 -167 -180
-404 -70 -563 28 -40 57 -62 72 -53 5 3 -7 43 -25 88 -73 179 -29 354 124 500
134 127 272 170 602 187 191 10 261 26 327 77 35 26 36 27 62 10 89 -58 103
-61 321 -61 129 -1 223 -5 254 -13 82 -21 185 -74 316 -164 160 -109 203 -133
276 -158 132 -46 244 -46 442 1 107 26 209 26 289 1 35 -11 121 -52 193 -92
232 -128 354 -166 513 -158 51 3 101 8 112 12 l20 8 -20 -17 c-42 -34 -163
-85 -232 -97 -74 -12 -127 -6 -323 37 -108 24 -180 19 -294 -19 -56 -19 -121
-40 -146 -46 -73 -18 -74 -18 -60 -35 17 -21 78 -19 200 5 133 26 153 26 338
-11 183 -37 283 -36 391 2 71 24 218 118 270 173 19 20 39 36 44 36 17 0 -48
-103 -105 -165 -145 -158 -292 -195 -583 -145 -149 26 -246 25 -376 -1 -77
-16 -126 -20 -194 -16 -83 4 -98 8 -195 55 -189 91 -290 101 -521 55 -111 -22
-162 -27 -299 -27 -144 -1 -175 2 -245 22 -109 32 -163 63 -264 154 -48 44
-115 92 -151 111 -60 30 -72 32 -165 32 -116 0 -153 -15 -238 -93 -43 -40 -49
-43 -42 -22 21 68 115 154 193 176 70 21 139 14 283 -26 193 -53 226 -55 422
-25 263 42 338 32 567 -74 l45 -21 -40 0 c-22 0 -83 7 -135 15 -176 27 -365
11 -422 -35 -34 -27 -18 -32 58 -19 81 14 193 7 324 -20 52 -10 140 -24 195
-31 55 -6 154 -21 220 -32 134 -23 301 -27 380 -9 27 7 83 26 125 43 111 45
162 56 282 64 59 4 108 11 108 15 0 30 -158 54 -260 39 -38 -5 -112 -24 -165
-41 -102 -32 -252 -53 -288 -40 -18 7 -15 9 19 14 53 9 159 61 211 103 48 39
79 89 63 99 -6 4 -50 -12 -98 -34 -161 -74 -258 -87 -394 -52 -104 27 -172 63
-316 169 -151 112 -205 143 -307 178 -113 39 -245 38 -405 -1 -137 -33 -275
-37 -415 -11 -144 27 -278 31 -359 12 -260 -61 -425 -273 -385 -492 26 -140
136 -261 258 -280 33 -5 42 -3 47 11 5 13 -4 27 -37 54 -70 57 -99 92 -126
149 -68 146 1 313 165 396 66 33 69 33 36 -6 -74 -89 -108 -224 -80 -320 32
-111 121 -201 200 -202 37 -1 41 1 39 22 -4 29 27 90 68 137 26 29 34 33 46
24 22 -19 41 -73 59 -165 8 -47 21 -99 29 -117 36 -87 118 -161 219 -199 87
-34 160 -41 286 -28 110 12 118 11 175 -10 169 -62 177 -64 292 -64 l112 -1
-27 -23 c-15 -12 -64 -41 -110 -64 -73 -37 -93 -42 -165 -46 -51 -2 -114 2
-165 12 -91 17 -74 21 -242 -49 -52 -22 -80 -28 -143 -28 -70 0 -86 4 -145 34
-59 30 -73 43 -117 110 -27 42 -54 84 -60 93 -5 10 -19 18 -30 19 -17 2 -20
-5 -23 -48 -5 -74 12 -118 73 -183 131 -141 337 -178 529 -95 58 25 69 26 244
27 l184 1 -36 -31 c-50 -44 -142 -91 -211 -109 -62 -16 -149 -20 -143 -7 2 4
10 19 17 34 14 27 10 58 -8 58 -5 0 -36 -22 -69 -50 -91 -76 -154 -104 -233
-103 -55 0 -76 6 -127 33 -59 31 -86 57 -219 208 -74 83 -148 125 -209 120
-51 -4 -51 -27 0 -44 70 -25 103 -53 172 -152 91 -129 155 -191 236 -231 91
-45 170 -52 253 -21 33 12 85 24 115 26 l55 5 -50 -47 c-27 -26 -75 -59 -105
-73 -47 -22 -69 -26 -150 -26 -116 0 -162 19 -239 100 -63 66 -86 72 -78 19 9
-54 62 -129 115 -162 69 -44 117 -56 217 -57 100 0 168 18 249 67 l48 29 -20
-29 c-35 -49 -102 -103 -161 -130 -46 -22 -71 -26 -141 -27 -142 0 -215 46
-315 200 -29 44 -66 92 -81 107 -95 89 -244 73 -303 -34 -20 -36 -23 -50 -14
-59 9 -9 20 -5 49 20 43 38 73 51 118 51 54 0 96 -37 158 -140 98 -164 204
-242 347 -257 l54 -6 -28 -15 c-21 -10 -50 -13 -109 -10 -125 7 -186 44 -307
188 -37 43 -50 52 -59 43 -10 -9 -9 -23 5 -65 10 -29 21 -82 25 -118 8 -78 29
-126 78 -176 49 -51 113 -77 187 -78 70 0 146 31 172 71 9 13 37 35 63 48 49
25 109 84 134 134 10 19 38 42 76 62 121 65 211 189 244 340 5 21 14 28 41 33
19 4 69 24 112 46 94 47 181 129 219 207 16 31 42 65 63 80 20 15 56 45 80 67
l43 41 -7 -45 c-11 -63 -8 -162 6 -213 14 -55 57 -134 77 -142 31 -12 36 12
22 97 -21 131 -11 274 22 315 5 7 35 19 66 28 153 44 275 134 302 223 6 20 13
42 15 49 3 8 22 5 67 -9 85 -27 214 -27 328 1 l85 21 54 -57 c56 -59 111 -160
111 -203 -1 -18 -14 -35 -46 -58 -25 -19 -46 -32 -48 -30 -1 1 -8 16 -16 32
-27 54 -91 115 -148 143 -48 24 -70 28 -138 28 -72 0 -87 -4 -156 -38 -189
-93 -296 -302 -268 -523 16 -122 99 -274 151 -274 26 0 25 33 -6 115 -14 37
-24 73 -22 79 7 19 131 -116 160 -173 50 -101 28 -206 -65 -307 -63 -69 -104
-84 -205 -77 -118 8 -159 -6 -244 -84 -39 -35 -74 -61 -79 -58 -23 14 -6 46
48 91 167 139 194 190 174 332 -5 34 -6 65 -2 67 4 3 39 -31 78 -74 70 -77
127 -116 160 -109 27 6 18 33 -27 85 -22 26 -60 73 -84 103 -50 65 -117 104
-162 96 -40 -8 -85 -58 -85 -96 0 -16 5 -52 11 -80 21 -97 -5 -148 -112 -221
-77 -52 -107 -85 -120 -132 -13 -49 -4 -89 27 -127 50 -59 127 -48 219 31 86
74 110 82 216 73 83 -6 91 -5 151 23 147 69 249 235 235 386 -11 121 -118 269
-251 348 -57 34 -57 34 -51 74 12 82 63 205 86 205 9 0 72 -106 115 -195 48
-99 86 -79 64 33 -14 68 -60 159 -101 198 l-28 27 31 24 c18 13 35 20 39 16 4
-5 32 -47 63 -95 30 -49 62 -88 71 -88 31 0 10 91 -40 170 -14 23 -24 44 -21
47 3 3 24 3 48 -1 63 -9 142 -58 178 -111 l30 -44 -34 -48 c-78 -110 -106
-195 -106 -323 0 -102 26 -169 85 -217 l38 -31 -27 -74 c-51 -138 -101 -215
-213 -326 -57 -57 -101 -107 -98 -113 22 -35 130 24 230 125 92 93 147 191
189 339 14 49 29 93 32 99 7 12 103 58 121 58 13 0 -20 -133 -64 -254 -72
-201 -207 -397 -342 -499 -33 -24 -135 -84 -227 -132 -168 -88 -169 -89 -284
-206 -135 -138 -174 -161 -280 -160 -83 0 -132 22 -183 81 -34 40 -77 148 -77
193 0 32 -23 60 -45 55 -33 -6 -46 -46 -42 -123 8 -155 125 -299 265 -330 17
-3 32 -8 32 -11 0 -19 -233 -379 -324 -499 -152 -202 -377 -442 -594 -634 -60
-53 -80 -77 -73 -84 39 -39 380 243 594 491 191 221 373 496 447 675 20 49 27
57 50 57 15 0 48 6 73 14 26 8 47 12 47 10 0 -11 -187 -321 -265 -439 -121
-182 -217 -310 -354 -470 -61 -71 -111 -133 -111 -137 0 -42 80 14 206 144
207 214 407 503 608 881 66 123 148 219 261 302 39 28 76 55 84 60 30 17 -120
-231 -381 -635 -195 -300 -215 -338 -193 -346 23 -9 37 6 160 171 132 176 295
422 390 587 l67 117 21 -20 c12 -11 35 -27 50 -35 16 -9 27 -18 25 -22 -12
-29 -213 -338 -357 -550 -207 -306 -238 -359 -222 -375 8 -8 20 -2 47 24 88
85 354 452 490 677 42 70 84 139 93 153 l16 25 62 -26 63 -26 -143 -215 c-147
-220 -280 -411 -421 -604 -169 -232 -186 -258 -186 -276 0 -10 6 -19 14 -19
43 0 341 381 593 757 141 210 193 298 193 328 0 8 6 15 14 15 10 0 7 -13 -10
-49 -30 -61 -43 -156 -33 -222 l8 -51 -88 -126 c-129 -186 -238 -341 -411
-580 -103 -144 -150 -216 -143 -223 15 -15 59 26 175 165 123 146 295 377 408
546 46 69 86 127 88 130 2 3 12 -6 21 -20 9 -14 30 -41 48 -60 l31 -35 -21
-30 c-78 -110 -345 -461 -471 -620 -178 -223 -198 -250 -189 -259 13 -13 26
-4 90 57 136 130 425 482 568 692 38 55 71 103 74 107 6 7 114 -32 127 -45 8
-8 -118 -180 -306 -417 -173 -220 -190 -243 -190 -264 0 -25 12 -19 72 34 101
90 340 382 468 573 l45 66 51 1 c28 0 66 3 84 6 32 7 31 5 -56 -107 -119 -154
-247 -315 -392 -492 -67 -82 -122 -153 -122 -157 0 -25 26 -17 71 21 99 83
439 481 584 684 31 44 95 119 141 167 l83 87 56 -6 c30 -3 55 -7 55 -9 0 -6
-198 -271 -279 -374 -165 -209 -267 -328 -678 -793 -71 -80 -82 -100 -64 -111
22 -14 301 258 511 499 193 220 441 538 549 703 56 86 71 99 47 41 -22 -53
-28 -119 -16 -172 12 -57 19 -46 -148 -255 -246 -308 -631 -739 -871 -977
-103 -101 -128 -135 -100 -135 62 0 435 353 736 696 136 155 384 460 411 507
9 15 19 27 22 27 3 0 21 -15 39 -34 l34 -35 -73 -93 c-135 -172 -242 -302
-415 -503 -95 -110 -181 -214 -191 -231 -11 -17 -75 -76 -144 -131 -69 -56
-215 -183 -325 -283 -110 -101 -231 -208 -270 -240 -233 -190 -431 -298 -839
-461 -111 -44 -302 -124 -426 -178 -368 -160 -774 -260 -1014 -249 l-69 3 -13
43 -12 43 31 -4 c89 -11 359 40 547 105 192 66 460 205 460 238 0 20 -36 9
-244 -74 -278 -111 -409 -148 -641 -181 -158 -23 -172 -21 -192 20 -9 19 -14
37 -12 40 3 2 52 11 110 19 242 34 408 85 614 187 154 76 258 145 263 173 6
27 -20 19 -209 -73 -222 -107 -455 -179 -700 -216 -54 -8 -101 -15 -104 -15
-5 0 -35 68 -35 80 0 4 37 10 83 14 151 11 326 61 482 137 118 57 176 101 158
120 -10 10 -44 0 -165 -49 -164 -65 -290 -102 -432 -127 -137 -23 -162 -21
-181 16 -9 17 -15 32 -13 33 2 1 39 8 83 15 206 32 615 210 615 268 0 24 -44
12 -220 -62 -179 -74 -376 -133 -470 -140 -63 -5 -66 -5 -87 23 l-22 29 87 17
c198 39 460 149 642 271 109 72 139 100 123 116 -8 8 -57 -13 -169 -71 -274
-141 -484 -221 -665 -251 -77 -13 -77 -12 -108 14 l-31 26 37 6 c79 13 300 77
387 111 215 86 435 215 583 343 74 64 100 101 71 101 -8 0 -82 -43 -166 -95
-191 -120 -326 -191 -472 -250 -124 -50 -326 -112 -456 -140 l-80 -17 -58 29
-58 29 73 13 c350 63 761 235 1069 449 178 124 367 300 340 317 -5 3 -63 -32
-128 -78 -241 -173 -370 -251 -602 -367 -242 -121 -456 -191 -845 -277 -36 -8
-95 3 -209 40 -5 2 51 13 125 25 387 64 767 203 1090 399 183 111 349 239 349
269 0 8 -2 14 -5 14 -13 0 -98 -48 -244 -137 -406 -247 -802 -398 -1246 -472
-219 -37 -253 -38 -352 -6 -102 33 -99 36 72 55 239 27 538 104 782 201 194
77 423 197 423 220 0 20 -54 5 -244 -70 -412 -161 -698 -239 -1040 -281 -216
-27 -216 -27 -305 23 l-76 42 135 6 c187 9 303 25 457 64 129 33 253 82 267
104 11 17 -17 14 -205 -24 -224 -44 -427 -65 -636 -65 -240 0 -355 21 -487 87
-188 95 -281 344 -210 563 10 29 41 90 68 135 27 44 63 103 80 131 l31 52 70
-5 c74 -5 125 7 125 31 0 20 -54 36 -125 36 -53 0 -63 3 -68 19 -4 16 4 19 70
24 76 6 123 26 123 52 0 12 -20 15 -110 15 -90 0 -110 3 -110 15 0 10 16 16
51 21 52 7 116 42 108 59 -2 6 -47 10 -104 10 -115 0 -133 15 -50 43 53 18
115 57 115 72 0 19 -22 20 -82 4 -79 -20 -191 -15 -236 11 -60 36 -65 111 -11
179 27 35 65 34 250 -3 79 -16 174 -32 212 -36 l67 -7 40 -58 c42 -62 83 -100
108 -100 16 0 16 0 -29 120 -54 145 -62 160 -92 186 -39 33 -62 28 -62 -14 0
-17 -2 -32 -5 -32 -17 0 -236 115 -290 152 -36 24 -89 61 -119 81 -42 29 -63
37 -98 37 -24 0 -53 -5 -64 -10 -27 -15 -24 -3 16 81 42 90 59 173 52 259 -10
121 -54 203 -129 241 -39 20 -51 21 -198 14 -130 -6 -167 -4 -212 9 -83 24
-149 72 -177 129 -22 45 -23 53 -12 101 15 67 76 174 178 313 123 167 153 215
255 404 134 247 166 293 364 515 143 161 183 243 184 370 0 45 -5 106 -10 135
-49 256 -28 371 131 717 119 258 141 312 209 509 34 98 78 216 97 263 37 90
134 280 144 280 3 0 19 -20 37 -45 79 -113 245 -174 363 -133 88 29 179 127
179 190 0 32 -12 35 -63 13 -78 -32 -156 -11 -211 58 -25 31 -31 49 -34 100
-3 53 1 70 25 117 29 56 99 120 132 120 12 0 21 -14 30 -50z m988 -116 l41
-31 -46 -6 c-26 -4 -57 -9 -69 -13 -31 -9 -47 34 -39 103 10 84 15 88 45 30
15 -28 45 -66 68 -83z m-1652 -35 c-100 -201 -162 -273 -270 -315 -61 -23
-154 -16 -225 18 -46 21 -194 128 -187 134 1 2 34 -6 72 -17 39 -11 111 -22
160 -25 77 -5 100 -3 154 16 119 40 232 135 316 267 22 34 41 60 43 58 2 -1
-27 -63 -63 -136z m7150 -54 c24 -33 56 -97 71 -140 25 -72 28 -94 28 -220 1
-116 -3 -155 -22 -225 -32 -121 -108 -266 -212 -408 -50 -68 -144 -212 -210
-321 -136 -229 -206 -327 -303 -426 -67 -68 -68 -68 -34 -20 51 74 88 152 173
367 42 106 87 213 99 238 28 55 102 158 191 265 135 164 193 307 201 496 5
106 3 125 -21 210 -18 60 -29 125 -31 182 -4 102 -1 102 70 2z m713 -299 c65
-61 93 -124 99 -221 7 -111 -13 -180 -101 -349 -40 -78 -82 -166 -92 -196 -16
-49 -18 -52 -25 -30 -17 58 -9 112 32 218 114 295 126 451 43 588 -36 60 -29
58 44 -10z m-843 -213 c-9 -40 -32 -103 -50 -141 -31 -61 -61 -102 -215 -302
-62 -81 -127 -204 -174 -335 -20 -55 -53 -145 -73 -199 -66 -178 -198 -345
-352 -444 -114 -74 -229 -109 -456 -139 -110 -15 -62 -54 90 -73 199 -25 473
62 678 216 146 110 248 235 409 504 107 178 159 250 218 303 49 44 188 133
196 125 12 -12 -99 -164 -200 -272 -224 -244 -275 -342 -415 -802 -36 -118
-83 -189 -180 -275 -135 -119 -273 -177 -446 -186 -184 -10 -354 36 -612 165
-87 44 -177 86 -201 92 -23 7 -42 16 -42 19 0 4 13 15 30 24 29 18 30 17 110
-23 174 -87 290 -124 444 -140 114 -12 253 1 355 32 137 42 279 136 353 233
35 47 49 85 30 85 -5 0 -42 -25 -83 -57 -86 -65 -224 -133 -324 -159 -53 -14
-107 -18 -220 -18 -194 0 -245 13 -518 129 l-38 16 28 32 c16 18 39 50 52 71
14 22 29 35 37 32 7 -3 52 -10 99 -17 275 -36 550 105 729 374 73 109 103 179
161 362 65 210 91 276 146 385 60 116 134 217 189 255 87 60 211 214 241 299
l14 39 3 -69 c2 -38 -4 -101 -13 -141z m1159 -116 c19 -32 42 -92 52 -132 21
-88 11 -152 -36 -254 -29 -62 -100 -165 -108 -157 -2 2 8 27 23 55 14 28 33
79 41 114 28 107 2 293 -49 352 -18 22 -21 36 -18 82 l3 56 28 -29 c16 -16 45
-55 64 -87z m-5603 -63 c9 -11 -3 -30 -66 -95 -72 -76 -125 -160 -125 -201 0
-39 -18 -15 -29 39 -29 145 1 231 111 320 l53 43 22 -46 c12 -25 27 -52 34
-60z m5500 -126 c17 -93 2 -155 -73 -312 -56 -116 -62 -136 -66 -207 -5 -93 3
-122 92 -322 94 -209 111 -270 111 -397 -1 -234 -89 -400 -299 -564 -199 -155
-252 -257 -292 -563 -8 -62 -25 -145 -39 -184 -25 -74 -89 -194 -131 -244
l-26 -30 22 45 c54 108 82 227 100 430 24 273 72 371 262 541 124 111 161 157
213 264 58 120 80 221 79 360 -1 96 -6 124 -37 220 -19 61 -42 137 -50 170 -8
33 -29 101 -47 150 -27 72 -34 110 -38 190 -4 88 -1 109 21 176 14 42 53 125
85 185 33 60 66 126 73 146 16 47 24 36 40 -54z m-646 -181 c-24 -123 -79
-225 -177 -335 -181 -202 -217 -246 -260 -320 -74 -126 -94 -185 -168 -500
-37 -159 -90 -265 -190 -382 -188 -218 -489 -323 -836 -290 -214 20 -308 49
-574 176 -96 46 -204 91 -240 100 -70 18 -177 22 -252 10 -40 -6 -48 -5 -48 9
0 44 143 82 251 66 95 -14 147 -34 327 -127 90 -47 192 -96 225 -110 206 -83
456 -101 640 -44 64 20 129 62 116 75 -4 3 -47 -2 -95 -11 -57 -11 -136 -17
-219 -17 -210 1 -310 35 -682 232 -169 89 -226 106 -358 106 -96 0 -118 -3
-172 -26 l-61 -26 -22 39 c-12 21 -32 51 -45 66 l-24 29 127 -23 c141 -26 241
-30 324 -13 70 14 96 5 355 -124 284 -142 419 -181 623 -181 114 1 133 3 219
33 202 68 382 217 467 383 18 37 57 129 85 205 71 192 166 383 237 480 34 45
108 131 165 191 57 60 118 130 136 156 39 56 84 153 101 215 6 24 16 55 23 70
l11 26 4 -28 c2 -16 -4 -65 -13 -110z m148 -87 c3 -211 -102 -425 -285 -580
-124 -105 -248 -232 -291 -297 -22 -34 -42 -61 -44 -59 -1 1 11 47 28 102 56
177 114 271 273 444 103 111 163 193 206 279 36 73 70 196 70 256 0 23 3 45 8
49 13 14 33 -97 35 -194z m-1177 46 c-9 -26 -16 -53 -16 -61 0 -8 -16 -62 -35
-119 -143 -427 -379 -662 -686 -683 -47 -3 -107 -3 -133 1 -43 7 -46 9 -40 29
4 12 13 42 19 67 l12 45 79 11 c106 15 155 30 240 69 248 114 464 365 515 599
11 50 44 104 56 92 3 -2 -3 -25 -11 -50z m1259 -536 c-24 -109 -93 -246 -162
-321 -32 -34 -108 -104 -170 -155 -185 -155 -229 -235 -264 -488 -27 -194 -57
-255 -176 -363 -201 -182 -215 -200 -174 -222 14 -8 37 -2 100 29 50 25 97 40
119 40 21 0 52 4 71 10 l34 10 -29 -31 c-16 -17 -55 -49 -88 -71 -175 -120
-376 -159 -638 -124 -98 12 -139 26 -80 26 52 0 171 29 241 58 144 61 258 159
357 308 89 134 140 274 100 274 -8 0 -45 -46 -82 -102 -77 -119 -228 -275
-316 -326 -71 -42 -173 -78 -262 -92 -39 -6 -171 -15 -295 -20 -131 -5 -259
-15 -305 -24 -44 -9 -81 -14 -84 -11 -6 6 10 11 78 23 128 24 237 88 266 157
13 32 13 32 106 38 268 16 496 112 680 286 107 101 149 164 266 396 107 210
160 285 285 398 178 160 260 243 299 301 46 66 114 208 126 258 5 23 8 0 10
-77 2 -74 -3 -135 -13 -185z m-4691 24 c60 -15 188 -77 236 -115 l25 -19 -35
8 c-66 14 -223 6 -340 -18 -146 -29 -221 -24 -390 26 -99 29 -143 36 -215 37
-81 1 -96 -2 -157 -30 -121 -57 -195 -155 -205 -274 l-6 -62 -15 29 c-8 16
-17 61 -20 100 -4 57 0 80 17 118 29 67 73 119 131 156 l50 32 157 -22 c194
-28 326 -24 453 13 47 14 94 27 105 30 44 11 151 6 209 -9z m4825 -215 c2
-130 -75 -340 -156 -423 -20 -21 -69 -54 -107 -73 -39 -19 -85 -46 -103 -59
-71 -54 -45 -6 54 98 40 42 73 82 73 87 0 35 -115 -23 -186 -93 -92 -93 -122
-171 -133 -358 -7 -114 -11 -134 -39 -191 -34 -68 -92 -122 -179 -166 -57 -29
-62 -27 -26 12 82 84 133 208 158 377 32 219 69 290 216 407 124 100 259 240
302 313 32 55 50 98 93 215 11 30 32 -63 33 -146z m145 -219 c1 -139 0 -149
-32 -240 -58 -166 -74 -187 -293 -395 -141 -134 -182 -227 -223 -507 -43 -291
-97 -435 -214 -574 -68 -80 -148 -131 -264 -168 -117 -37 -187 -44 -293 -29
-49 7 -126 18 -170 24 -113 16 -312 6 -405 -21 -103 -29 -219 -89 -390 -201
-195 -128 -227 -146 -317 -178 -93 -33 -104 -54 -29 -59 69 -4 158 26 301 104
328 177 415 213 552 234 96 15 233 7 357 -21 50 -11 150 -24 221 -29 138 -10
195 -18 195 -30 0 -13 -114 -92 -166 -116 -114 -51 -265 -56 -414 -14 -243 68
-262 72 -352 67 -86 -4 -146 -26 -133 -47 3 -5 47 -9 99 -9 85 0 107 -5 266
-56 217 -69 284 -80 395 -66 89 12 137 26 202 59 60 31 140 98 168 141 25 38
27 38 103 44 42 3 85 8 95 12 15 6 17 1 17 -39 0 -126 -126 -293 -243 -321
-25 -7 -22 -2 28 49 56 58 91 111 77 119 -4 3 -40 -15 -79 -39 -227 -138 -342
-181 -463 -171 -84 7 -164 38 -325 126 -173 94 -208 106 -325 106 -115 0 -181
-22 -285 -95 -170 -120 -260 -150 -388 -130 -109 17 -121 -15 -24 -63 111 -54
241 -33 417 68 144 82 190 98 286 99 89 1 61 12 369 -147 61 -32 139 -65 175
-73 84 -21 222 -14 304 15 33 12 60 21 62 21 9 0 25 -155 21 -203 -6 -69 -51
-168 -95 -210 l-30 -29 27 54 c23 46 26 66 26 148 0 111 -22 172 -64 178 -22
4 -23 1 -17 -29 17 -88 18 -166 2 -220 -19 -64 -83 -153 -138 -192 -36 -25
-39 -32 -34 -60 13 -70 -108 -212 -227 -267 -162 -77 -312 -60 -427 47 -33 30
-65 70 -72 89 -21 58 -38 37 -38 -46 0 -57 13 -96 42 -127 12 -13 17 -23 11
-23 -15 0 -88 81 -107 119 -49 93 -37 190 30 257 68 69 135 76 218 25 45 -28
56 -26 56 8 0 56 -94 109 -176 97 -144 -19 -254 -135 -254 -269 0 -67 -12 -68
-41 -3 -58 128 26 287 196 370 121 59 229 57 300 -5 92 -81 54 -210 -92 -311
-69 -47 -57 -85 42 -130 40 -18 68 -22 145 -23 86 0 101 3 160 31 164 79 260
231 262 414 0 88 -13 143 -45 191 -32 48 -53 45 -47 -6 3 -22 5 -88 5 -146 0
-101 -1 -108 -38 -181 -25 -52 -54 -91 -89 -122 -28 -26 -53 -44 -55 -42 -3 3
9 22 26 44 166 206 54 548 -203 617 -111 30 -131 2 -32 -45 135 -64 215 -173
224 -306 3 -51 0 -86 -12 -122 -19 -56 -76 -127 -127 -156 l-33 -19 21 29 c56
79 67 207 25 290 -30 58 -100 118 -162 139 -71 24 -169 22 -244 -4 -33 -12
-61 -21 -63 -21 -2 0 17 40 41 89 30 59 59 100 86 124 69 58 21 81 -61 29 -46
-30 -104 -99 -160 -192 -55 -92 -87 -127 -141 -154 -29 -14 -68 -26 -88 -26
-54 0 -123 27 -166 64 l-38 33 74 5 c85 6 150 31 204 78 45 40 50 75 9 66
-300 -65 -473 -29 -473 99 0 65 16 98 68 137 26 20 119 110 207 201 230 234
347 316 560 390 166 57 183 57 85 -3 -87 -52 -134 -91 -152 -124 -23 -42 11
-36 128 23 264 131 441 162 729 126 207 -26 303 -16 431 46 102 48 234 184
234 241 0 29 -17 22 -103 -46 -196 -152 -299 -178 -572 -141 -194 26 -342 15
-492 -35 l-58 -20 35 30 c47 41 180 106 260 127 55 15 101 18 300 15 262 -3
297 2 405 56 139 69 258 228 306 409 17 64 22 118 25 303 5 220 5 226 30 261
31 46 86 85 193 139 113 56 176 121 236 243 47 94 85 211 85 259 0 14 3 34 7
44 15 40 27 -36 27 -176z m-5553 75 c19 -10 81 -60 138 -112 76 -69 125 -104
183 -132 79 -37 80 -38 48 -45 -54 -10 -134 -7 -186 9 -85 25 -127 64 -179
168 -26 51 -58 104 -73 119 l-25 28 29 -9 c17 -5 46 -16 65 -26z m-181 0 c38
-20 71 -64 115 -157 43 -93 93 -146 171 -184 53 -26 69 -29 154 -28 83 0 105
4 170 31 66 27 82 30 120 22 92 -17 234 -10 417 22 207 36 310 36 405 -1 32
-12 60 -25 63 -30 8 -14 -14 -63 -43 -93 -40 -43 -73 -64 -158 -103 -85 -38
-85 -39 4 61 65 73 74 101 42 127 -28 23 -61 19 -200 -24 -132 -40 -221 -45
-339 -19 -96 21 -111 21 -111 -5 0 -45 118 -101 240 -113 l75 -7 -45 -14 c-25
-7 -85 -13 -135 -13 -76 0 -106 5 -190 34 -100 34 -100 34 -290 34 -188 0
-191 0 -247 28 -33 16 -76 49 -102 78 -44 49 -51 66 -95 215 -11 39 -31 87
-45 106 -32 48 -25 58 24 33z m5821 -794 c17 -100 7 -191 -31 -280 -48 -112
-49 -156 -7 -279 20 -56 39 -123 42 -149 l6 -48 -37 45 c-21 25 -62 68 -92 96
-42 39 -56 59 -62 92 -6 35 -5 40 6 31 17 -14 33 -4 46 29 6 15 14 123 19 241
l8 214 38 39 c20 21 40 38 44 38 4 0 13 -31 20 -69z m-3066 28 c22 -6 110 -43
195 -84 252 -120 444 -178 630 -192 54 -3 87 -10 83 -16 -10 -16 -124 -64
-181 -76 -105 -22 -263 -9 -367 31 -16 6 -96 42 -177 79 -196 92 -273 112
-398 107 -88 -3 -104 -7 -173 -41 -54 -27 -91 -54 -133 -99 l-57 -63 6 35 c12
56 62 154 101 198 45 49 157 106 251 126 71 15 144 14 220 -5z m2868 -161 c-8
-46 -11 -114 -8 -183 l5 -110 -19 52 c-29 79 -44 157 -37 195 6 33 54 118 66
118 4 0 0 -33 -7 -72z m-2981 -99 c29 -6 121 -43 203 -81 155 -72 305 -128
346 -128 13 0 30 -4 37 -9 22 -14 -21 -22 -149 -28 -139 -7 -205 3 -376 58
-108 35 -141 41 -213 41 -91 1 -174 -22 -229 -62 -16 -11 -32 -20 -36 -20 -15
0 50 98 91 137 90 84 205 117 326 92z m2393 -63 c-41 -180 -157 -327 -305
-387 -60 -24 -78 -25 -380 -19 -144 3 -175 0 -243 -18 -100 -27 -188 -69 -287
-138 -44 -30 -88 -54 -98 -54 -45 0 -218 -52 -298 -90 -168 -78 -273 -158
-464 -351 -181 -183 -264 -248 -378 -294 -79 -32 -198 -55 -279 -54 l-68 0
112 29 c129 32 270 96 380 172 83 57 483 442 483 465 0 49 -113 -25 -340 -222
-165 -143 -299 -238 -371 -260 -37 -12 328 377 443 471 177 146 401 242 636
274 159 22 140 61 -33 68 -312 12 -626 -153 -910 -479 -55 -62 -138 -152 -185
-199 -83 -84 -200 -170 -230 -170 -8 0 9 16 38 36 103 69 162 138 406 473 205
282 487 445 811 467 95 7 319 -14 450 -42 364 -77 631 -50 839 86 82 54 183
158 241 247 22 34 41 60 43 59 2 -2 -4 -34 -13 -70z m452 -266 c-3 -69 -13
-152 -22 -185 -22 -78 -76 -186 -127 -252 -78 -101 -236 -202 -365 -233 -85
-20 -81 -7 15 44 170 90 287 208 366 370 46 91 87 238 101 353 17 135 39 68
32 -97z m-2884 39 c20 -5 37 -12 37 -14 0 -12 -74 -193 -100 -246 -76 -151
-207 -338 -286 -409 l-28 -25 23 30 c139 186 224 379 271 618 12 62 17 65 83
46z m316 -74 l73 -7 -43 -26 c-156 -92 -272 -206 -411 -407 -186 -269 -315
-402 -456 -467 -72 -34 -182 -50 -182 -27 0 29 49 67 102 79 253 60 542 378
657 725 16 50 34 108 40 131 l11 41 67 -18 c38 -9 101 -20 142 -24z m-2989
-312 l65 -22 -45 -1 c-73 0 -149 44 -182 104 -7 13 8 6 43 -20 29 -21 83 -49
119 -61z m5654 -68 c-18 -174 -76 -280 -189 -345 -29 -16 -55 -30 -59 -30 -3
0 3 18 14 40 11 21 20 49 20 60 0 17 -13 9 -74 -46 -73 -66 -151 -124 -167
-124 -4 0 -9 21 -11 48 l-3 47 66 31 c123 58 209 115 238 158 38 55 103 186
132 266 l24 65 7 -60 c4 -33 5 -82 2 -110z m-233 -513 c-21 -39 -104 -122
-158 -158 -54 -36 -154 -74 -194 -74 -17 0 -14 7 20 48 22 26 51 72 65 103
l24 56 80 6 c44 3 95 13 114 21 47 21 61 20 49 -2z m10 -176 c-70 -144 -237
-230 -405 -211 -62 7 -120 30 -112 44 3 5 49 11 103 13 156 8 272 60 382 168
31 31 58 54 60 53 2 -1 -10 -31 -28 -67z m-2721 -142 c0 -25 7 -61 16 -80 20
-41 85 -99 128 -115 24 -9 40 -28 68 -79 l36 -68 -27 -5 c-39 -8 -111 3 -151
23 -41 21 -71 52 -96 100 -32 61 -20 270 16 270 5 0 10 -21 10 -46z m-244 -76
c-28 -56 -31 -72 -31 -153 0 -78 4 -97 28 -147 15 -31 45 -75 67 -97 45 -46
44 -47 -7 -26 -64 27 -120 81 -154 150 -29 60 -31 70 -27 147 3 54 12 99 25
130 22 48 30 52 104 57 l26 1 -31 -62z m-5115 -35 c47 -38 96 -75 109 -84 23
-16 21 -16 -45 -3 -38 7 -85 13 -104 14 -33 0 -95 44 -130 93 -13 18 -12 22 4
33 40 30 78 17 166 -53z m5256 -153 c29 -65 66 -105 125 -134 43 -22 66 -26
135 -26 46 0 83 -4 83 -10 0 -13 -93 -40 -160 -47 -104 -10 -205 56 -245 160
-23 60 -17 176 11 227 l19 35 6 -80 c3 -46 15 -99 26 -125z m2300 98 c51 -22
54 -41 21 -108 -27 -52 -80 -97 -126 -106 l-32 -7 16 39 c20 48 29 166 16 222
l-10 42 36 -31 c20 -18 55 -40 79 -51z m219 -84 c-8 -64 -37 -124 -82 -174
-76 -84 -165 -120 -298 -120 l-79 0 22 24 c15 16 38 25 72 29 66 8 146 45 188
88 41 41 81 122 81 167 0 32 0 32 51 32 l52 0 -7 -46z m142 -270 c50 -84 4
-222 -129 -389 -122 -153 -268 -383 -329 -518 -36 -82 -41 -99 -31 -116 16
-24 46 5 157 151 103 137 217 282 237 303 6 6 7 -13 3 -54 -14 -149 -151 -345
-521 -746 -268 -290 -448 -514 -590 -735 -274 -424 -378 -563 -649 -858 -196
-214 -459 -439 -661 -562 -199 -122 -589 -268 -860 -321 -98 -19 -153 -24
-295 -24 -250 0 -360 24 -765 170 -207 75 -314 73 -470 -8 -47 -24 -108 -79
-275 -247 -240 -241 -238 -239 -480 -334 -203 -80 -449 -204 -552 -278 -125
-91 -201 -161 -359 -331 l-141 -152 -102 -46 c-55 -25 -135 -63 -176 -83 -48
-25 -68 -31 -55 -18 11 10 146 136 300 279 541 502 860 876 1225 1439 174 268
254 375 358 479 81 83 211 180 330 249 120 70 431 212 682 311 599 239 740
326 1173 723 177 162 317 282 439 375 219 166 558 369 958 572 l233 118 131 1
c145 2 206 18 323 87 123 72 252 231 288 353 l12 41 99 6 c186 11 310 69 394
185 30 42 33 44 54 31 11 -8 31 -32 44 -53z m-709 -130 c9 -8 -71 -152 -109
-196 -55 -64 -177 -143 -258 -168 -78 -25 -187 -29 -252 -9 -43 12 -43 13 -15
16 167 18 267 58 363 148 67 62 103 115 122 181 l12 42 67 -6 c36 -2 68 -6 70
-8z m-1073 -270 c13 -3 24 -10 24 -14 0 -12 -168 -228 -265 -340 -44 -52 -92
-110 -105 -128 -20 -26 -118 -95 -240 -166 -8 -5 10 17 40 50 123 131 357 417
450 552 28 40 49 61 58 57 8 -3 25 -8 38 -11z m150 -129 c-2 -6 -31 -47 -65
-92 -56 -74 -69 -85 -153 -129 -51 -27 -97 -51 -102 -53 -5 -2 25 36 68 85 42
49 102 126 133 171 l56 82 33 -27 c19 -15 32 -32 30 -37z m113 -44 c11 -7 4
-14 -27 -30 -54 -28 -57 -27 -32 9 22 31 35 36 59 21z m1381 -533 c0 -35 -197
-303 -384 -523 -308 -361 -471 -573 -801 -1043 l-130 -186 -113 -67 c-119 -71
-120 -70 -35 24 118 130 312 397 489 672 176 275 321 461 574 735 148 161 256
283 320 363 49 61 56 66 67 51 7 -10 13 -22 13 -26z m115 -90 c19 -13 35 -27
35 -31 0 -5 -51 -86 -114 -180 -123 -184 -212 -300 -425 -552 -237 -279 -542
-672 -563 -723 -3 -10 -188 -93 -188 -85 0 8 337 450 456 598 61 77 185 226
274 330 318 373 440 535 469 623 8 23 16 42 18 42 2 0 19 -10 38 -22z m161
-164 c-3 -7 -47 -77 -99 -156 -161 -244 -290 -412 -578 -745 -99 -115 -252
-303 -266 -326 -7 -13 -122 -57 -147 -57 -5 0 4 15 20 33 17 17 77 91 134 162
57 72 183 222 280 335 323 376 433 518 534 689 34 58 66 115 69 125 7 17 10
16 32 -15 14 -18 23 -39 21 -45z m64 -116 c0 -7 11 -34 24 -61 l23 -48 -90
-132 c-126 -186 -222 -307 -535 -678 l-123 -145 -75 -13 c-42 -7 -77 -11 -79
-9 -2 2 53 66 122 143 275 306 385 435 490 580 75 104 159 237 195 310 31 62
48 80 48 53z m134 -229 c15 -17 25 -37 22 -44 -26 -68 -238 -358 -408 -557
-65 -77 -126 -150 -134 -163 -10 -15 -29 -25 -57 -29 -23 -4 -58 -9 -77 -13
-35 -6 -34 -5 56 93 233 254 429 510 530 691 16 29 32 53 35 53 3 0 18 -14 33
-31z m203 -144 c3 -2 -161 -245 -202 -300 -71 -95 -238 -301 -249 -306 -6 -4
-42 -9 -81 -13 l-69 -7 24 28 c14 15 55 60 92 100 132 142 262 320 347 475
l42 76 47 -26 c26 -14 48 -26 49 -27z m122 -73 l33 -28 -104 -154 c-57 -85
-136 -199 -176 -252 l-73 -98 -60 0 -60 0 87 103 c109 129 201 261 260 371 25
47 49 86 53 86 4 0 22 -12 40 -28z m-6876 -101 c23 -16 51 -38 61 -50 19 -20
19 -21 -7 -58 -118 -170 -284 -346 -508 -539 -92 -79 -178 -157 -192 -174 -26
-30 -27 -60 -2 -60 7 0 88 57 181 127 222 166 420 362 523 518 40 61 74 111
76 113 6 7 107 -155 141 -226 82 -172 216 -624 274 -924 l23 -117 -44 -64
c-24 -36 -45 -64 -46 -63 -1 0 -9 66 -18 146 -9 80 -27 204 -40 276 -48 256
-133 500 -173 492 -28 -5 -25 -39 12 -175 61 -219 99 -440 127 -743 l12 -126
-29 -41 c-16 -23 -32 -42 -35 -43 -3 0 -9 46 -13 103 -15 239 -72 521 -134
675 -36 88 -58 122 -77 122 -23 0 -19 -36 25 -213 48 -197 66 -318 90 -592
l18 -210 -25 -38 c-15 -21 -29 -40 -33 -42 -4 -2 -10 48 -13 113 -14 260 -94
607 -157 684 -17 20 -20 21 -34 8 -14 -13 -12 -31 19 -166 47 -205 62 -308 75
-509 6 -93 13 -186 16 -207 5 -30 1 -41 -25 -70 l-30 -33 -1 78 c-1 215 -59
520 -124 644 -22 43 -34 49 -45 21 -9 -25 -8 -36 33 -253 25 -139 56 -438 56
-538 -1 -47 -5 -56 -47 -102 l-45 -50 6 35 c14 88 18 367 6 440 -11 65 -18 80
-50 113 -34 34 -43 37 -92 37 -31 0 -85 -10 -126 -24 -112 -38 -351 -148 -537
-247 -334 -176 -348 -182 -450 -187 -74 -3 -122 2 -260 29 -132 26 -195 33
-280 33 -119 -1 -104 4 -392 -108 -118 -46 -269 -76 -377 -76 -47 0 -86 3 -86
6 0 14 206 237 326 354 159 154 255 239 415 366 221 174 509 435 509 461 0 25
-29 25 -73 0 -23 -14 -113 -77 -200 -141 -86 -64 -159 -116 -161 -116 -13 0
49 152 80 196 44 65 92 105 276 232 266 184 309 208 768 424 418 196 553 279
700 429 41 42 79 77 83 78 5 1 27 -12 50 -28z m6989 -70 l15 -58 -89 -124
c-49 -68 -101 -141 -115 -161 -23 -34 -30 -38 -67 -38 -68 0 -69 9 -14 75 56
68 224 315 233 345 11 34 22 22 37 -39z m66 -229 c10 -30 8 -36 -25 -80 -19
-26 -43 -62 -52 -80 -14 -30 -19 -33 -44 -28 -16 3 -36 6 -43 6 -23 0 -16 14
35 79 28 34 62 82 78 106 30 48 34 47 51 -3z m89 -179 c17 -32 34 -68 37 -80
l7 -22 -63 25 c-35 15 -65 28 -67 30 -6 6 41 104 49 104 4 0 21 -26 37 -57z
m-5977 -207 c0 -2 -31 -27 -68 -54 -37 -28 -76 -60 -86 -71 -26 -29 -175 -53
-305 -49 l-104 3 -12 43 -13 42 93 0 c105 0 300 30 414 65 42 12 77 23 79 24
1 0 2 -1 2 -3z m-316 -300 l-48 -56 -77 0 -77 0 -11 44 c-6 25 -11 49 -11 54
0 4 39 7 88 5 48 -2 107 0 132 5 25 5 47 7 49 6 2 -2 -18 -28 -45 -58z m-104
-131 c0 -2 -15 -25 -32 -50 -31 -44 -33 -45 -39 -23 -4 13 -7 35 -8 51 -1 25
2 27 39 27 22 0 40 -2 40 -5z m6800 -181 c82 -15 219 -77 328 -147 72 -47 202
-153 202 -166 0 -4 -65 26 -145 66 -192 97 -370 174 -529 229 l-131 45 100 -6
c55 -4 134 -13 175 -21z m-528 -20 c249 -52 529 -159 915 -352 120 -60 234
-114 254 -121 36 -11 46 -23 132 -152 15 -23 2 -18 -95 38 -138 79 -388 202
-575 282 -392 167 -684 243 -1028 267 l-110 8 55 12 c78 18 237 42 287 43 24
1 98 -11 165 -25z m-5428 -454 c26 0 22 -5 -45 -52 -85 -60 -206 -179 -446
-438 l-171 -185 -68 -18 c-38 -11 -76 -21 -84 -24 -8 -3 21 32 66 78 44 46
144 163 221 259 144 178 256 295 329 344 42 28 114 47 149 40 11 -2 33 -4 49
-4z m226 -79 c0 -3 -29 -25 -63 -48 -34 -23 -134 -109 -222 -190 -89 -81 -200
-181 -248 -221 -48 -40 -87 -77 -87 -82 0 -8 -100 -34 -105 -28 -8 8 443 470
524 537 l93 78 54 -20 c30 -11 54 -23 54 -26z m-2075 -151 c0 -317 -7 -440
-26 -464 -17 -20 -17 -12 -12 154 6 199 -7 361 -36 426 l-20 44 32 9 c64 19
62 23 62 -169z m3525 133 c-58 -33 -247 -124 -328 -156 l-62 -26 47 54 c43 49
54 55 127 75 45 12 117 34 161 50 103 35 110 35 55 3z m-3662 -446 l-4 -268
-38 -37 -38 -37 6 50 c19 160 26 255 26 377 0 147 -11 220 -42 281 -11 22 -18
41 -16 43 2 1 24 12 48 23 l45 20 8 -92 c4 -51 6 -213 5 -360z m2357 419 c22
-8 39 -17 38 -21 -1 -3 -26 -25 -55 -48 -29 -22 -141 -119 -249 -214 l-196
-172 -64 -10 c-35 -6 -68 -11 -72 -11 -4 0 32 33 80 73 48 41 133 116 188 169
73 69 284 250 290 248 0 0 18 -7 40 -14z m-2497 -142 c11 -78 11 -138 3 -279
-15 -254 -14 -326 5 -353 16 -23 14 -25 -57 -92 -41 -37 -75 -67 -77 -65 -2 2
4 36 12 76 20 97 38 285 31 310 -4 10 5 52 19 93 53 152 22 286 -75 326 -16 7
-29 16 -29 20 0 9 132 70 145 66 6 -1 16 -47 23 -102z m2724 77 c5 -4 -15 -24
-43 -45 -72 -54 -204 -171 -269 -238 -51 -53 -59 -58 -120 -67 -104 -17 -107
-15 -49 29 29 22 95 79 148 127 233 216 231 215 281 208 25 -4 48 -10 52 -14z
m582 -76 c-52 -56 -67 -67 -127 -86 -37 -12 -70 -19 -72 -17 -3 2 32 38 77 78
79 72 87 76 172 89 4 0 -18 -28 -50 -64z m-396 47 c22 -7 20 -9 -25 -47 -26
-22 -91 -79 -143 -127 -89 -80 -100 -87 -158 -98 -35 -7 -64 -11 -66 -9 -2 2
69 68 157 147 165 146 174 151 235 134z m116 -104 c-85 -83 -103 -95 -157
-110 -33 -10 -62 -16 -65 -14 -2 2 50 52 115 110 110 99 121 106 160 106 l42
0 -95 -92z m-1785 -335 c-82 -85 -136 -132 -194 -166 -44 -27 -99 -64 -122
-83 -23 -19 -44 -34 -47 -34 -4 0 58 72 136 160 128 144 147 161 197 180 31
12 72 30 91 40 19 11 39 19 44 20 5 0 -42 -53 -105 -117z m-336 -127 c-107
-111 -195 -213 -242 -278 -23 -32 -46 -51 -78 -63 -24 -9 -46 -16 -47 -14 -2
2 64 88 148 191 144 178 154 188 221 222 39 19 74 35 79 35 4 1 -32 -41 -81
-93z m-253 -80 c0 -3 -32 -42 -72 -88 -39 -46 -93 -113 -120 -150 -47 -64 -51
-67 -106 -78 -31 -7 -68 -14 -82 -17 l-25 -6 19 22 c35 39 209 189 296 256 88
67 90 68 90 61z"/>
<path d="M9700 13766 c0 -8 26 -45 59 -80 82 -91 105 -142 105 -237 1 -68 -3
-83 -38 -153 -33 -67 -57 -96 -163 -200 -68 -66 -131 -133 -138 -147 -8 -15
-24 -61 -35 -104 -35 -132 -79 -201 -164 -260 -75 -52 -167 -82 -290 -96 -69
-8 -105 -16 -103 -23 12 -38 226 -49 338 -18 170 47 287 170 334 353 9 35 21
73 27 84 5 11 59 68 118 126 121 118 178 199 211 296 65 198 -46 422 -233 468
-22 6 -28 4 -28 -9z"/>
<path d="M9589 12593 c-41 -75 -133 -164 -201 -197 -96 -46 -169 -59 -315 -54
-73 3 -133 1 -133 -3 0 -18 115 -60 190 -70 195 -26 393 69 471 226 32 66 50
155 31 155 -5 0 -25 -26 -43 -57z"/>
<path d="M7348 11175 c-127 -24 -328 -107 -328 -135 0 -20 24 -19 132 9 315
81 486 68 713 -54 197 -107 331 -122 506 -60 54 19 143 51 197 70 190 68 295
68 572 0 163 -40 183 -42 178 -17 -8 45 -262 144 -422 163 -160 20 -233 5
-551 -112 -74 -27 -104 -33 -170 -33 -92 1 -130 12 -292 90 -62 29 -137 61
-165 70 -74 22 -272 27 -370 9z"/>
<path d="M7335 10980 c-83 -15 -135 -39 -135 -62 0 -19 3 -20 68 -12 165 22
257 1 493 -112 207 -98 284 -118 443 -112 114 5 131 8 291 61 214 70 277 81
424 74 118 -5 146 -12 468 -106 192 -56 339 -63 467 -20 62 21 97 40 134 73
47 42 10 48 -84 15 -75 -27 -239 -37 -326 -19 -35 6 -128 32 -208 57 -252 79
-316 93 -445 100 -152 7 -240 -9 -470 -84 -162 -53 -175 -56 -275 -57 -129 0
-206 20 -394 103 -74 33 -163 69 -199 80 -78 24 -185 33 -252 21z"/>
<path d="M4533 11390 c-35 -21 -42 -37 -19 -46 25 -10 92 38 81 57 -9 14 -27
11 -62 -11z"/>
<path d="M4480 11228 c-55 -28 -60 -54 -11 -51 37 1 86 32 86 54 0 22 -27 21
-75 -3z"/>
<path d="M4426 11074 c-50 -18 -66 -32 -66 -56 0 -31 24 -31 99 3 51 23 71 37
71 50 0 23 -46 25 -104 3z"/>
<path d="M4425 10926 c-66 -22 -129 -52 -143 -69 -10 -12 -10 -18 3 -31 14
-14 20 -14 66 4 67 27 146 67 154 79 4 8 -25 33 -37 30 -2 0 -21 -6 -43 -13z"/>
<path d="M4259 10718 c-63 -33 -85 -49 -87 -66 -2 -12 3 -24 11 -28 21 -8 237
103 237 121 0 30 -73 17 -161 -27z"/>
<path d="M4258 10417 c-104 -30 -158 -91 -158 -182 0 -55 18 -93 60 -128 52
-44 88 -44 221 -2 111 35 124 37 211 32 51 -3 109 -10 128 -16 32 -10 131 -62
385 -205 54 -30 118 -62 142 -70 39 -13 44 -13 65 4 29 23 23 30 -95 115 -51
36 -148 117 -217 181 -181 168 -272 226 -414 259 -89 22 -270 28 -328 12z"/>
<path d="M4422 10094 c-14 -6 -72 -119 -72 -140 0 -7 -21 -11 -56 -10 -35 1
-59 -3 -61 -11 -8 -22 55 -78 125 -112 l69 -34 7 -77 c5 -66 15 -113 41 -206
5 -15 0 -23 -19 -32 -32 -14 -33 -42 -5 -116 31 -84 139 -194 139 -142 0 7
-18 51 -39 97 l-40 84 97 11 c122 13 194 35 296 87 45 22 97 43 116 46 41 7
52 38 23 63 -10 8 -153 84 -318 168 -194 98 -301 158 -302 169 -2 9 5 33 15
54 l17 38 70 -35 c39 -20 115 -72 170 -117 251 -204 425 -295 604 -314 57 -7
102 10 88 32 -4 6 -50 20 -103 33 -171 39 -289 108 -594 350 -116 91 -219 135
-268 114z m353 -461 c52 -26 95 -50 95 -54 0 -14 -186 -78 -226 -79 -7 0 -4
19 7 53 10 28 18 69 19 90 0 20 2 37 5 37 3 0 48 -21 100 -47z"/>
<path d="M6420 9824 c0 -9 18 -38 39 -65 22 -28 51 -80 65 -117 48 -124 146
-223 253 -257 83 -26 230 -18 304 18 112 54 104 83 -16 60 -96 -19 -228 -7
-292 25 -53 28 -116 98 -154 174 -43 86 -65 115 -112 149 -44 32 -87 39 -87
13z"/>
<path d="M4219 9743 c-13 -34 -5 -236 11 -278 8 -22 13 -26 23 -16 8 8 12 52
12 139 -1 131 -8 182 -25 182 -6 0 -15 -12 -21 -27z"/>
<path d="M4124 9668 c-4 -7 -10 -59 -12 -118 -6 -149 20 -274 48 -230 11 16
14 319 4 344 -7 19 -30 21 -40 4z"/>
<path d="M4011 9513 c-28 -108 -22 -265 11 -271 23 -4 31 44 32 188 1 100 -1
115 -16 118 -12 2 -20 -7 -27 -35z"/>
<path d="M5071 9469 c-25 -28 -76 -75 -113 -106 -69 -56 -89 -91 -45 -77 78
24 169 96 218 173 50 78 9 85 -60 10z"/>
<path d="M3890 9364 c-6 -14 -10 -38 -10 -55 0 -24 -4 -28 -22 -26 -18 1 -28
-9 -50 -50 -30 -54 -41 -123 -22 -130 6 -2 29 36 50 84 l39 88 5 -50 c10 -98
57 -35 59 78 1 77 -29 115 -49 61z"/>
<path d="M8667 9374 c-11 -11 -8 -132 3 -139 15 -10 31 44 28 94 -3 42 -16 60
-31 45z"/>
<path d="M4444 9216 c-20 -53 150 -236 186 -200 7 7 -16 43 -71 112 -79 98
-104 118 -115 88z"/>
<path d="M4443 9054 c-9 -24 25 -81 85 -141 51 -52 82 -67 82 -40 0 25 -133
197 -151 197 -5 0 -12 -7 -16 -16z"/>
<path d="M3775 8601 c-74 -18 -148 -72 -127 -93 4 -4 32 2 62 13 32 13 91 24
140 28 66 5 85 9 85 21 0 29 -92 47 -160 31z"/>
<path d="M6074 8488 c-126 -160 -223 -264 -338 -363 -158 -135 -183 -162 -168
-177 42 -42 364 217 480 385 126 183 147 308 26 155z"/>
<path d="M4033 8523 c-19 -7 -16 -28 11 -67 31 -46 42 -135 26 -211 -14 -70
-69 -131 -142 -159 -55 -20 -62 -41 -18 -51 99 -22 213 61 240 175 l12 50 58
-173 c32 -95 77 -211 100 -257 79 -159 221 -353 243 -331 6 6 -19 63 -77 169
-99 182 -137 273 -208 492 -57 176 -93 253 -144 309 -35 39 -78 62 -101 54z"/>
<path d="M6061 8176 c-135 -151 -217 -227 -319 -297 -106 -72 -131 -96 -158
-154 -47 -100 -16 -131 42 -42 45 68 61 84 123 119 184 102 375 297 427 434
34 88 3 72 -115 -60z"/>
<path d="M3525 8246 c-33 -12 -72 -28 -87 -34 -38 -16 -64 -57 -48 -77 17 -20
52 -19 135 5 88 25 165 25 235 -1 110 -40 120 -42 146 -24 31 20 30 27 -6 68
-46 53 -119 80 -225 84 -76 3 -99 -1 -150 -21z"/>
<path d="M8110 8121 c-48 -15 -87 -40 -123 -80 -64 -71 -44 -80 60 -26 42 22
100 42 153 52 97 18 114 28 86 49 -21 15 -131 18 -176 5z"/>
<path d="M5444 7724 c-36 -54 -57 -198 -34 -234 14 -22 20 -9 46 100 35 147
30 199 -12 134z"/>
<path d="M7347 7428 c-13 -18 -57 -78 -97 -133 -166 -226 -379 -455 -607 -652
-73 -63 -133 -118 -133 -123 0 -21 21 -17 76 16 193 116 548 476 713 722 49
73 102 182 95 194 -10 15 -23 8 -47 -24z"/>
<path d="M7102 7378 c-275 -311 -312 -356 -312 -389 0 -35 31 -20 102 49 85
81 152 165 213 262 62 101 60 149 -3 78z"/>
<path d="M7548 7368 c-8 -7 -61 -81 -117 -164 -56 -84 -138 -196 -183 -250
-116 -141 -362 -382 -509 -500 -215 -173 -523 -368 -781 -495 -152 -75 -94
-92 82 -24 367 140 845 479 1144 810 178 197 346 443 383 562 18 58 10 84 -19
61z"/>
<path d="M11526 6812 c-3 -4 -25 -70 -50 -146 -98 -298 -257 -552 -527 -840
-41 -44 -195 -186 -344 -316 -378 -331 -555 -521 -678 -726 -36 -60 -47 -104
-27 -104 14 0 31 18 176 185 161 185 329 347 554 535 213 177 463 422 572 560
153 192 258 378 322 570 45 135 62 233 47 266 -10 23 -35 32 -45 16z"/>
<path d="M11209 6438 c-107 -184 -255 -379 -473 -623 -139 -155 -173 -202
-159 -216 14 -14 86 46 229 192 264 272 453 544 471 679 9 65 -20 51 -68 -32z"/>
<path d="M10674 5978 c-28 -29 -130 -145 -226 -258 -568 -668 -948 -1153 -948
-1211 0 -64 57 -2 536 576 592 716 724 885 724 927 0 33 -35 19 -86 -34z"/>
<path d="M10265 5758 c-66 -36 -265 -249 -479 -513 -341 -421 -606 -784 -606
-832 0 -27 29 -11 81 45 30 31 215 257 411 502 196 245 417 517 492 605 75 88
136 168 136 177 0 23 -12 28 -35 16z"/>
<path d="M9610 5286 c-58 -48 -175 -174 -302 -326 -142 -171 -448 -596 -448
-623 0 -68 73 8 371 388 90 116 233 293 316 395 142 172 173 220 140 220 -7 0
-42 -24 -77 -54z"/>
<path d="M9078 4908 c-115 -114 -508 -616 -508 -649 0 -40 25 -27 100 49 155
160 511 606 507 637 -4 38 -35 27 -99 -37z"/>
<path d="M10263 4888 c-11 -13 -95 -127 -186 -255 -163 -228 -314 -424 -581
-758 -138 -172 -158 -207 -136 -228 25 -25 373 363 593 660 195 264 368 551
354 587 -9 22 -20 20 -44 -6z"/>
<path d="M8604 4568 c-84 -79 -221 -235 -251 -285 -23 -40 -24 -46 -10 -60 21
-21 30 -14 137 107 137 155 221 261 217 274 -9 26 -40 14 -93 -36z"/>
<path d="M9582 4223 c-142 -170 -482 -599 -525 -663 -38 -56 -48 -100 -23
-100 55 0 676 790 676 860 0 41 -31 17 -128 -97z"/>
<path d="M9188 3969 c-85 -91 -408 -522 -408 -546 0 -35 19 -37 52 -7 120 114
427 526 432 580 3 35 -28 24 -76 -27z"/>
<path d="M8751 3654 c-83 -90 -232 -295 -229 -312 7 -35 39 -24 90 33 77 83
194 233 212 268 14 31 7 67 -13 67 -5 0 -32 -25 -60 -56z"/>
<path d="M5299 4220 c-72 -67 -206 -181 -298 -255 -293 -234 -423 -361 -482
-469 -52 -94 -30 -103 51 -20 83 84 244 224 445 384 326 261 499 454 428 477
-6 2 -71 -50 -144 -117z"/>
<path d="M4943 3668 c-105 -74 -319 -266 -482 -434 -165 -171 -193 -206 -173
-226 17 -17 53 12 289 233 114 107 263 246 331 308 91 84 122 119 120 134 -5
33 -20 30 -85 -15z"/>
<path d="M11299 3938 c-537 -49 -1548 -729 -2454 -1649 -428 -434 -749 -820
-1021 -1224 -177 -263 -304 -488 -304 -539 0 -30 28 -49 52 -35 9 5 27 26 39
47 50 81 284 430 370 550 288 399 562 716 988 1143 795 795 1547 1334 2146
1537 112 39 273 82 303 82 12 0 31 9 43 21 18 18 19 23 6 42 -18 27 -66 35
-168 25z"/>
<path d="M11115 3626 c-145 -50 -244 -94 -480 -215 -397 -203 -727 -422 -1074
-711 -160 -133 -351 -318 -351 -340 0 -25 37 -55 52 -43 7 5 121 95 253 200
326 258 431 336 630 468 303 200 589 360 920 513 209 96 235 113 219 139 -17
29 -62 26 -169 -11z"/>
<path d="M11720 3169 c-215 -24 -502 -100 -665 -178 -112 -53 -135 -72 -115
-96 19 -22 44 -19 180 25 177 57 447 123 644 159 176 31 215 47 186 75 -20 19
-127 26 -230 15z"/>
<path d="M10875 3110 c-245 -88 -632 -330 -995 -621 -546 -437 -1163 -1097
-1431 -1530 -91 -147 -105 -199 -54 -199 17 0 54 41 161 178 288 368 498 606
809 917 501 501 912 822 1440 1124 176 101 191 112 182 135 -8 21 -49 19 -112
-4z"/>
<path d="M11185 2836 c-306 -80 -668 -239 -915 -402 -128 -84 -185 -148 -150
-169 5 -3 80 32 167 78 313 167 569 279 886 387 259 87 239 78 235 109 -3 23
-8 26 -48 28 -26 2 -99 -11 -175 -31z"/>
<path d="M10898 2551 c-221 -76 -480 -207 -705 -357 -176 -118 -236 -181 -181
-192 9 -2 90 38 180 88 89 51 291 154 448 231 451 221 415 201 415 229 0 21
-5 25 -35 28 -19 1 -74 -11 -122 -27z"/>
<path d="M12680 2319 c-287 -29 -649 -127 -1185 -319 -165 -59 -401 -140 -525
-179 -409 -130 -565 -183 -587 -197 -25 -16 -31 -49 -9 -57 21 -8 274 47 472
104 204 57 478 146 803 260 402 141 729 230 1041 284 197 34 234 45 239 69 8
45 -56 54 -249 35z"/>
<path d="M10604 2272 c-38 -26 -127 -90 -199 -142 -125 -90 -348 -238 -662
-440 -277 -178 -440 -329 -725 -675 -172 -209 -300 -362 -420 -502 -93 -109
-148 -188 -148 -214 0 -24 35 -59 59 -59 31 0 240 232 623 690 198 237 380
426 496 514 35 27 165 113 288 192 357 228 477 314 707 502 105 86 127 109
127 131 0 66 -53 67 -146 3z"/>
<path d="M13877 2233 c-35 -34 44 -121 313 -348 84 -71 217 -184 294 -249 162
-137 363 -335 456 -451 36 -43 106 -142 157 -220 172 -262 197 -290 226 -244
25 40 -142 348 -288 533 -163 204 -341 367 -798 729 -317 251 -342 269 -360
250z"/>
<path d="M13761 2066 c-32 -38 82 -169 384 -441 218 -197 416 -399 510 -519
238 -304 246 -313 279 -300 25 10 19 42 -21 113 -158 285 -327 474 -763 851
-113 98 -239 207 -280 244 -78 69 -90 75 -109 52z"/>
<path d="M11973 1945 c-51 -14 -404 -128 -783 -255 -1207 -402 -1516 -523
-1775 -696 -114 -76 -205 -160 -205 -189 0 -37 24 -36 87 2 32 20 94 58 138
85 228 141 476 239 1426 562 632 214 906 311 1034 363 199 82 233 105 205 138
-16 19 -17 19 -127 -10z"/>
<path d="M11251 1335 c-311 -184 -686 -472 -1018 -783 -224 -211 -262 -259
-236 -300 35 -57 75 -40 207 86 313 299 556 500 998 826 103 75 194 146 202
158 11 16 12 26 4 44 -17 37 -54 30 -157 -31z"/>
<path d="M10665 1296 c-71 -29 -263 -107 -425 -174 -769 -314 -973 -425 -1197
-648 -94 -93 -110 -123 -81 -152 22 -22 39 -13 136 69 232 194 475 326 998
543 619 257 786 347 749 405 -12 20 -50 11 -180 -43z"/>
</g>
</svg>
